<svg id="logo" xmlns="http://www.w3.org/2000/svg" viewBox="0 0 71.33 30.77"><defs><style>.cls-1,.cls-3{fill:#fff;}.cls-2,.cls-3{isolation:isolate;}.cls-3{font-size:16px;font-family:LeagueSpartan-Bold, League Spartan;font-weight:700;}</style></defs><path id="logo1" class="cls-1" d="M15.86,30.77A16.12,16.12,0,0,1,2.13,23.06a14.89,14.89,0,0,1,0-15.3l14.78.13a6.35,6.35,0,0,1,6.29,5.35A6.18,6.18,0,0,1,18.57,20l-.79.22,4.4,6,.46-.27A12.12,12.12,0,0,0,27.23,9.47l-.06-.11a13.16,13.16,0,0,0-17.1-5l-5.2,0A16.48,16.48,0,0,1,22.31,1.25,15.35,15.35,0,0,1,32,15.52,15.6,15.6,0,0,1,20.79,30.06L12.22,18.39l-1.34-1.82,4.61,0a4.17,4.17,0,0,0,2.69-.78,2.4,2.4,0,0,0,1-1.9c0-1.33-1.14-2.68-3.37-2.7L3.89,11.1l-.14.39a11.82,11.82,0,0,0-.65,3.78A12.65,12.65,0,0,0,14.63,27.69l2.25,3.06Z" transform="translate(0 0)"/><g id="_HAI" data-name=" HAI" class="cls-2"><text class="cls-3" transform="translate(32.93 22)"><tspan xml:space="preserve">  HAI</tspan></text></g></svg>