<svg id="Layer_1" data-name="Layer 1" xmlns="http://www.w3.org/2000/svg" xmlns:xlink="http://www.w3.org/1999/xlink" viewBox="0 0 1366 758.66"><defs><style>.cls-1{fill:url(#linear-gradient);}.cls-2{fill:none;}</style><linearGradient id="linear-gradient" y1="316.67" x2="1366" y2="316.67" gradientUnits="userSpaceOnUse"><stop offset="0" stop-color="#D4CCFF" stop-opacity="0.2"/><stop offset="0.52" stop-color="#D4CCFF"/><stop offset="1" stop-color="#D4CCFF" stop-opacity="0.2"/></linearGradient></defs><path class="cls-1" d="M112.7,281.53c39.14-9.95,72.59-45.73,133.38-71.67,11.86-5.06,24.89-10,24.89-10,25.62-9.63,42.25-15.88,63.7-19.91,31.62-5.94,62.71-5,62.71-5h0c3.83,0,79.18-6.76,138.36,6,28.56,6.14,90.67,19.49,123.43,64.7C708.56,313.87,636,378.32,676.67,486c2.84,7.52,38,97.77,124.87,131.88C854.63,638.73,903.85,635,926.4,632c36.3-4.83,93.2-17,93.21-17h0l23-8.74c20-7.61,22-8.83,39.1-15.26,34.4-12.93,73.65-27,73.65-27h0s54.32-25.16,107-17c25.63,4,46.72,15.18,63.68,24.19A275.74,275.74,0,0,1,1366,597.07L1365.92-1H0V252.67C52.27,286.52,88.57,287.67,112.7,281.53Z" transform="translate(0 1)"/><line class="cls-2" x1="888.11" y1="635.33" x2="886.78" y2="758.66"/><line class="cls-2" x1="927.37" y1="602" x2="927.37" y2="718"/></svg>