<svg id="Layer_1" data-name="Layer 1" xmlns="http://www.w3.org/2000/svg" xmlns:xlink="http://www.w3.org/1999/xlink" viewBox="0 0 1366.04 758.66"><defs><style>.cls-1{fill:url(#linear-gradient);}.cls-2{fill:none;}.cls-3{fill:#d4ccff;}.cls-4{fill:#8550fc;}.cls-5{fill:#a796ff;}.cls-6{fill:#f4d37e;}.cls-7{fill:#fef3f9;}.cls-8{fill:#7862ec;}.cls-9{fill:#fc8e53;}.cls-10{fill:#fdeab1;}.cls-11{fill:#380f8f;}.cls-12{fill:#7b0f8f;}.cls-13{fill:#de50fc;}.cls-14{fill:#d396ff;}.cls-15,.cls-28,.cls-31,.cls-32{fill:#fff;}.cls-16{fill:#deb449;}.cls-17{fill:#232323;}.cls-18{fill:#808285;}.cls-19{fill:#1a0845;}.cls-20{fill:#0b53ff;}.cls-21{fill:#2175fb;}.cls-22{fill:#e6e7e8;}.cls-23{fill:#d1d3d4;}.cls-24{fill:#fbf3fe;}.cls-25{fill:url(#linear-gradient-2);}.cls-26{fill:#bcbec0;}.cls-27{fill:#dcabff;}.cls-28,.cls-30,.cls-31,.cls-32{isolation:isolate;}.cls-28,.cls-31{font-size:7.1px;}.cls-28,.cls-31,.cls-32{font-family:Roboto-Bold, Roboto;font-weight:700;}.cls-28{letter-spacing:0.1em;}.cls-29{fill:#e0e9ff;}.cls-31{letter-spacing:0.09em;}.cls-32{font-size:7.99px;letter-spacing:0.1em;}</style><linearGradient id="linear-gradient" y1="-321.33" x2="1366.04" y2="-321.33" gradientTransform="translate(0 639)" gradientUnits="userSpaceOnUse"><stop offset="0" stop-color="#f6edff"/><stop offset="0" stop-color="#fff"/><stop offset="1" stop-color="#ceb9fe"/><stop offset="1" stop-color="#f6edff"/></linearGradient><linearGradient id="linear-gradient-2" x1="1039.17" y1="216.56" x2="1086.54" y2="216.56" gradientTransform="matrix(1, 0, 0, -1, 0, 758)" gradientUnits="userSpaceOnUse"><stop offset="0" stop-color="#fff"/><stop offset="1" stop-color="#b3b3b3" stop-opacity="0.1"/></linearGradient></defs><path class="cls-1" d="M112.7,282.53c39.14-9.95,72.59-45.73,133.38-71.67,11.86-5.06,24.89-10,24.89-10,25.62-9.63,42.25-15.88,63.7-19.91,31.62-5.94,62.71-5,62.71-5h0c3.83,0,79.18-6.76,138.36,6,28.56,6.14,90.67,19.49,123.43,64.7C708.56,314.87,636,379.32,676.67,487c2.84,7.52,38,97.77,124.87,131.88C854.63,639.73,903.85,636,926.4,633c36.3-4.83,93.2-17,93.21-17h0l23-8.74c20-7.61,22-8.83,39.1-15.26,34.4-12.93,73.65-27,73.65-27h0s54.32-25.16,107-17c25.63,4,46.72,15.18,63.68,24.19a276.6,276.6,0,0,1,40,25.88L1365.92,0H0V253.67C52.27,287.52,88.57,288.67,112.7,282.53Z"/><line class="cls-2" x1="888.11" y1="635.33" x2="886.78" y2="758.66"/><line class="cls-2" x1="927.37" y1="602" x2="927.37" y2="718"/><path class="cls-3" d="M868.34,295.23c.58-.28,1.17-.55,1.76-.81,18.17-7.76,37.61,4.36,56.27,4.2,17.22-.15,33.61-9,50.83-8.66,5.12.1,10.42,1.09,14.61,4.13,4.57,3.31,7.32,8.64,11.18,12.8,9,9.67,24.16,13.59,28.7,26.13,3.57,9.89-1.23,20.65-5,30.45-6.5,16.78-10.18,35.69-4.88,52.92,3.79,12.33,12,23.17,13.72,36,1.53,11.26-2.16,22.8-7.47,32.63-7.06,13.07-7,28-10.46,42.13-2.26,9.23-6.86,18.55-15.16,23.17C995,554.47,986.22,554,978,554.49c-8.52.47-16.68.9-25.23-.09-14.44-1.68-28.62-5.17-43.14-6.19-26.47-1.87-52.8,4.57-79.3,5.94-14.62.75-30.12-.3-42.36-8.63-10.43-7.11-17.36-19-20-31.66s-1.25-25.94,2.52-38.28c4.6-15,12.76-29.73,11-45.38-1.09-9.81-6-18.66-8.8-28.1-3.85-13-3.55-27.46,2.18-39.65a43.13,43.13,0,0,1,15.43-17.83c7.65-4.95,16.26-3.88,24.63-7C836.54,329.37,848,305.23,868.34,295.23Z"/><path class="cls-4" d="M1006.6,409.24h-5.24a34.8,34.8,0,0,0-4-9.54l3.71-3.71a3.14,3.14,0,0,0,0-4.44h0l-7.64-7.63a3.14,3.14,0,0,0-4.44,0h0l-3.71,3.7a35.11,35.11,0,0,0-9.54-3.95v-5.24a3.15,3.15,0,0,0-3.15-3.15h-10.8a3.15,3.15,0,0,0-3.15,3.15h0v5.24a35.11,35.11,0,0,0-9.54,3.95l-3.71-3.7a3.14,3.14,0,0,0-4.44,0h0l-7.63,7.63a3.14,3.14,0,0,0,0,4.44h0l3.7,3.71a35.11,35.11,0,0,0-4,9.54h-5.24a3.15,3.15,0,0,0-3.15,3.15h0v10.8a3.15,3.15,0,0,0,3.15,3.15h5.24a35.11,35.11,0,0,0,4,9.54l-3.7,3.71a3.14,3.14,0,0,0,0,4.44h0l7.63,7.64a3.14,3.14,0,0,0,4.44,0h0l3.71-3.71a35.11,35.11,0,0,0,9.54,3.95v5.24a3.15,3.15,0,0,0,3.15,3.15h10.8a3.15,3.15,0,0,0,3.15-3.15h0v-5.24a35.11,35.11,0,0,0,9.54-3.95l3.71,3.71a3.14,3.14,0,0,0,4.44,0h0l7.64-7.64a3.14,3.14,0,0,0,0-4.44h0l-3.71-3.71a34.8,34.8,0,0,0,4-9.54h5.24a3.15,3.15,0,0,0,3.15-3.15h0v-10.8a3.15,3.15,0,0,0-3.15-3.15Zm-39.37,29.84a21.29,21.29,0,1,1,21.3-21.29,21.29,21.29,0,0,1-21.3,21.29Z"/><path class="cls-5" d="M896.35,399.77h-3.9a25.9,25.9,0,0,0-3-7.11l2.76-2.76a2.34,2.34,0,0,0,0-3.31h0l-5.68-5.69a2.36,2.36,0,0,0-3.32,0l-2.76,2.76a25.87,25.87,0,0,0-7.11-2.94V376.8a2.36,2.36,0,0,0-2.35-2.34h-8a2.34,2.34,0,0,0-2.34,2.34h0v3.91a25.87,25.87,0,0,0-7.11,2.94l-2.76-2.76a2.36,2.36,0,0,0-3.32,0l-5.69,5.69a2.36,2.36,0,0,0,0,3.32l2.76,2.76a25.87,25.87,0,0,0-2.94,7.11h-3.91a2.34,2.34,0,0,0-2.34,2.34h0v8a2.36,2.36,0,0,0,2.34,2.35h3.91a25.87,25.87,0,0,0,2.94,7.11l-2.76,2.76a2.36,2.36,0,0,0,0,3.32l5.69,5.69a2.36,2.36,0,0,0,3.32,0l2.76-2.77a25.9,25.9,0,0,0,7.11,2.95v3.9a2.36,2.36,0,0,0,2.34,2.35h8a2.35,2.35,0,0,0,2.35-2.35v-3.9a25.9,25.9,0,0,0,7.11-2.95l2.76,2.77a2.36,2.36,0,0,0,3.32,0l5.68-5.69a2.34,2.34,0,0,0,0-3.31h0l-2.76-2.76a25.9,25.9,0,0,0,3-7.11h3.9a2.35,2.35,0,0,0,2.35-2.35v-8A2.36,2.36,0,0,0,896.35,399.77ZM867,422a15.87,15.87,0,1,1,15.87-15.87h0A15.88,15.88,0,0,1,867,422Z"/><path class="cls-6" d="M828.9,452.39c-.33-1-.68-1.95-1-2.89Z"/><path class="cls-6" d="M827.82,458v-8.49a67.38,67.38,0,0,0-6-11.75c-2.19,2.32-2.9,9.53-2.9,9.53.2-7.45,1-9.68,1.08-12.12-3.23-4.2-8.14-6.47-12-9,1.56,8.85,1.44,11.08,1.44,11.08-.51-5.3-2.25-9-3.13-12.12-9.9-5.83-15-4.3-15-4.3.09,3.74,1.31,12,1.68,15.23a90.73,90.73,0,0,0,10,7.08,47.71,47.71,0,0,1-9.73-5.09,26.4,26.4,0,0,0,1.77,7.54c4.17,3.8,12.62,8.16,12.62,8.16-3.67-.89-8.79-3.65-11.59-5.27a50.57,50.57,0,0,0,9.57,15.64,92.44,92.44,0,0,0,8.94,3.35,34.92,34.92,0,0,1-7.22-1.47c4.63,4.84,10.07,9.15,16.1,14l6.09,2.47,1.91-9.1a48.32,48.32,0,0,0-2.52-20.86Z"/><path class="cls-7" d="M823,466.77c1.15,2.16,2.26,4.36,3.24,6.63a39.39,39.39,0,0,1,2.41,7h-.11a39,39,0,0,0-2.59-6.92c-1.05-2.21-2.2-4.36-3.41-6.47-2.41-4.24-5-8.34-7.61-12.43s-5.32-8.11-7.76-12.34c-1.23-2.12-2.43-4.25-3.55-6.43s-2.2-4.4-3.15-6.69l.09-.06c2.43,4.24,5,8.38,7.52,12.5s5,8.31,7.57,12.47S820.67,462.45,823,466.77Z"/><path class="cls-5" d="M815.06,480.56c.07-9,.65-12.76,0-15.72A49.58,49.58,0,0,0,798.84,457c4.58,10.06,3.45,17.18,3.45,17.18-.25-7.29-3.78-14.33-5.8-17.79a69,69,0,0,0-25.7-1.06c1.26,4.47,2.61,8.53,4,12.24A107.64,107.64,0,0,0,789,472.31c-3.91,0-9.35-1.33-13.26-2.44a84.54,84.54,0,0,0,7.1,13.85c6.18,3,17.68,5,17.68,5-4.68.31-11.7-1.07-15.56-2A58.29,58.29,0,0,0,801.26,502a113.3,113.3,0,0,0,11.79.65,43.23,43.23,0,0,1-9.14,1c7.05,4.08,14.92,7.2,23.64,10.73l8.09.68-.49-11.67c-2.24-17.5-8.89-28.82-17.11-36.11C816.11,470.87,815.06,480.56,815.06,480.56Z"/><path class="cls-8" d="M833.84,513a46.2,46.2,0,0,0-5.24-7.34c-1.94-2.27-4-4.41-6.09-6.5-4.19-4.18-8.57-8.13-13-12.07s-8.88-7.75-13.11-11.92c-2.12-2.08-4.22-4.19-6.25-6.39s-4-4.46-5.83-6.85l.09-.11c4.22,4.18,8.53,8.21,12.87,12.2s8.61,8.08,12.93,12.13,8.61,8.14,12.72,12.45c2,2.17,4,4.4,5.93,6.75A46.94,46.94,0,0,1,834,513Z"/><path class="cls-5" d="M991.65,480.76c.69-.6,1.36-1.21,2-1.83Z"/><path class="cls-5" d="M986.69,481.48l7-2.58a54.18,54.18,0,0,0,7.48-9c-2.7-1.3-8.88.26-8.88.26,6.19-2.09,8.31-2,10.34-2.72,2.28-4.23,2.36-9.43,3-13.75-6.71,4.13-8.58,4.71-8.58,4.71,4.16-2.09,6.54-4.81,8.81-6.57,1.19-10.85-1.93-15.07-1.93-15.07-3,1.23-9.4,4.89-11.9,6.21a88.23,88.23,0,0,0-2.18,11.29,48.75,48.75,0,0,1,.64-10.45,20.71,20.71,0,0,0-5.54,3.92c-1.61,5-2.11,14-2.11,14-.6-3.63-.2-9.17.11-12.22a42.62,42.62,0,0,0-9.36,13.55c0,4.55.5,9.21.5,9.21a38.55,38.55,0,0,1-1.41-7.06c-2.3,5.71-3.85,12-5.63,19l.19,6.34,8.16-1a37.63,37.63,0,0,0,16.21-8.69Z"/><path class="cls-8" d="M977.71,479.77c-1.36,1.71-2.77,3.39-4.27,5a29.93,29.93,0,0,1-4.91,4.36l-.06-.09a30.45,30.45,0,0,0,4.73-4.49c1.44-1.63,2.78-3.35,4.08-5.1,2.6-3.5,5-7.13,7.43-10.77s4.73-7.35,7.31-10.88c1.29-1.77,2.61-3.52,4-5.22s2.81-3.36,4.34-4.93l.08.07c-2.59,3.52-5.07,7.1-7.52,10.7s-5,7.16-7.48,10.75S980.41,476.32,977.71,479.77Z"/><path class="cls-9" d="M980.41,466.23c-.31.58-.65,1.16-1,1.73Zm-1,1.78a27.92,27.92,0,0,1-9.57,9.69l-5.55,2.52-1.51-4.44a112.21,112.21,0,0,1-.18-14.67,26.85,26.85,0,0,0,2.55,4.68s-1.38-3.18-2.37-6.4a31.56,31.56,0,0,1,3.65-11.62,41,41,0,0,0,2.6,8.66s-1.63-6.52-1.58-10.4a15.48,15.48,0,0,1,3.06-4,36.78,36.78,0,0,0,1.83,7.53,64.93,64.93,0,0,1-.92-8.46c1.48-1.48,5.18-5.46,7.06-7,0,0,3.12,2.3,4.66,10.23-1.22,1.75-2.31,4.19-4.8,6.58,0,0,1.2-.82,5-5.21.5,3.2,1.58,6.89.89,10.38-1.29.92-2.8,1.35-6.72,4.19,0,0,4-2.46,6.23-2.13a39.92,39.92,0,0,1-3.31,8l-4.38,3.35Zm-6.91-6.89c1-3.09,2-6.15,2.94-9.24s1.91-6.16,3-9.21h-.07c-.74,1.44-1.4,2.93-2,4.43s-1.15,3-1.67,4.56c-1.06,3.07-1.88,6.2-2.8,9.3s-1.83,6.19-2.9,9.24c-.53,1.52-1.11,3-1.77,4.5a23.51,23.51,0,0,1-2.36,4.21l.06,0a23.52,23.52,0,0,0,2.52-4.16c.71-1.46,1.34-2.95,1.92-4.46,1.11-3.06,2.11-6.14,3.1-9.22Z"/><path class="cls-6" d="M984.77,498.86c5.94,1.92,8.31,3.14,10.43,3.28a40.6,40.6,0,0,0,9-10.33c-7.74,1.28-12.2-1-12.2-1,4.89,1.34,10.38.21,13.14-.56a59.26,59.26,0,0,0,6.67-18.73,88.93,88.93,0,0,0-9,.42,88,88,0,0,0-6.44,9.46,48.64,48.64,0,0,1,4.7-9.27,57.15,57.15,0,0,0-10.83,2.35c-3.43,3.92-7.45,12-7.45,12,.88-3.52,3.42-8.4,4.9-11.06a43.77,43.77,0,0,0-13.86,8.85c-1.79,4.13-3.16,8.55-3.16,8.55a38.18,38.18,0,0,1,1.48-6.93c-4.34,4.34-8.23,9.49-12.6,15.19l-2.32,5.82,7.85,2.08c12.12,2,21.17-.54,27.91-5.09C991,501.66,984.77,498.86,984.77,498.86Z"/><path class="cls-10" d="M958.87,505.93A31.33,31.33,0,0,0,965,503.6c2-1,3.86-2,5.73-3.13,3.74-2.22,7.38-4.62,11-7s7.2-4.93,10.95-7.19c1.87-1.13,3.75-2.23,5.68-3.27s3.89-2,5.9-2.87v.1c-3.75,2.23-7.42,4.57-11.07,6.94s-7.37,4.66-11.05,7-7.39,4.65-11.21,6.78c-1.91,1.06-3.86,2.07-5.85,3a32.2,32.2,0,0,1-6.18,2Z"/><path class="cls-11" d="M842.45,418.26H960.1a14,14,0,0,1,14,14.05V510H828.4V432.31A14,14,0,0,1,842.45,418.26Z"/><rect class="cls-4" x="835.32" y="424.97" width="131.91" height="77.07"/><polygon class="cls-5" points="1000.89 532.57 801.66 532.57 828.4 509.95 974.15 509.95 1000.89 532.57"/><path class="cls-11" d="M801.66,532.57h199.23a8.6,8.6,0,0,1-8.6,8.6h-182a8.6,8.6,0,0,1-8.6-8.6h0Z"/><path class="cls-7" d="M847.38,516.07h-8.07a.28.28,0,0,1-.19-.48l2.52-2.38a.27.27,0,0,1,.19-.08h7.71a.27.27,0,0,1,.27.29.26.26,0,0,1-.07.18l-2.15,2.4A.27.27,0,0,1,847.38,516.07Z"/><path class="cls-7" d="M860.15,516.07H852a.29.29,0,0,1-.28-.28.27.27,0,0,1,.06-.17l2-2.39a.32.32,0,0,1,.22-.1h7.78a.29.29,0,0,1,.28.28.3.3,0,0,1,0,.16L860.38,516A.25.25,0,0,1,860.15,516.07Z"/><path class="cls-7" d="M872.92,516.07h-8.21a.29.29,0,0,1-.28-.28.33.33,0,0,1,0-.14l1.48-2.39a.28.28,0,0,1,.24-.13H874a.29.29,0,0,1,.28.28.27.27,0,0,1,0,.12l-1.12,2.38A.26.26,0,0,1,872.92,516.07Z"/><path class="cls-7" d="M885.68,516.07h-8.26a.29.29,0,0,1-.28-.28.3.3,0,0,1,0-.1l1-2.38a.27.27,0,0,1,.26-.18h7.9a.27.27,0,0,1,.27.27.22.22,0,0,1,0,.08l-.59,2.38A.28.28,0,0,1,885.68,516.07Z"/><path class="cls-7" d="M898.42,516.07h-8.28a.28.28,0,0,1-.28-.28v0l.44-2.38a.29.29,0,0,1,.28-.23h7.92a.29.29,0,0,1,.28.28h0l-.08,2.38A.28.28,0,0,1,898.42,516.07Z"/><path class="cls-7" d="M911.15,516.07h-8.28a.28.28,0,0,1-.28-.27l-.08-2.38a.29.29,0,0,1,.27-.29h7.93a.29.29,0,0,1,.28.23l.44,2.38a.28.28,0,0,1-.23.33Z"/><path class="cls-7" d="M923.87,516.07h-8.26a.28.28,0,0,1-.27-.21l-.6-2.38a.28.28,0,0,1,.2-.34h8a.27.27,0,0,1,.26.18l1,2.38a.27.27,0,0,1-.16.36A.22.22,0,0,1,923.87,516.07Z"/><path class="cls-7" d="M936.58,516.07h-8.21a.26.26,0,0,1-.25-.16L927,513.53a.27.27,0,0,1,.13-.37l.12,0h7.85a.28.28,0,0,1,.24.13l1.48,2.39a.28.28,0,0,1-.1.38A.23.23,0,0,1,936.58,516.07Z"/><path class="cls-7" d="M949.28,516.07h-8.14a.27.27,0,0,1-.23-.12l-1.64-2.38a.28.28,0,0,1,.07-.39.3.3,0,0,1,.16,0h7.78a.32.32,0,0,1,.22.1l2,2.39a.27.27,0,0,1,0,.38A.25.25,0,0,1,949.28,516.07Z"/><path class="cls-7" d="M962,516.07h-8.07a.27.27,0,0,1-.21-.09l-2.15-2.38a.28.28,0,0,1,0-.4.29.29,0,0,1,.18-.07h7.71a.27.27,0,0,1,.19.08l2.52,2.38a.28.28,0,0,1,0,.4A.27.27,0,0,1,962,516.07Z"/><path class="cls-7" d="M843.35,520.52h-8.74a.28.28,0,0,1-.28-.26.27.27,0,0,1,.09-.21l3-2.84a.26.26,0,0,1,.19-.07h8.31a.29.29,0,0,1,.28.28.36.36,0,0,1-.07.18l-2.56,2.83A.31.31,0,0,1,843.35,520.52Z"/><path class="cls-7" d="M857.09,520.52h-8.82a.28.28,0,0,1-.28-.26.26.26,0,0,1,.07-.19l2.38-2.83a.25.25,0,0,1,.21-.1H859a.27.27,0,0,1,.27.29.23.23,0,0,1,0,.14l-2,2.83A.25.25,0,0,1,857.09,520.52Z"/><path class="cls-7" d="M870.83,520.52h-8.89a.28.28,0,0,1-.28-.26.3.3,0,0,1,.05-.16l1.76-2.83a.28.28,0,0,1,.23-.13h8.46a.27.27,0,0,1,.25.39l-1.33,2.83A.26.26,0,0,1,870.83,520.52Z"/><path class="cls-7" d="M838.66,525.71h-9.53a.28.28,0,0,1-.19-.48l3.59-3.4a.32.32,0,0,1,.19-.07h9a.29.29,0,0,1,.28.28.36.36,0,0,1-.07.18l-3.08,3.4A.25.25,0,0,1,838.66,525.71Z"/><path class="cls-7" d="M853.53,525.71h-9.6a.29.29,0,0,1-.29-.27.32.32,0,0,1,.07-.19l2.85-3.39a.25.25,0,0,1,.21-.1h9.09a.26.26,0,0,1,.28.26.22.22,0,0,1,0,.17l-2.33,3.4A.29.29,0,0,1,853.53,525.71Z"/><path class="cls-7" d="M868.4,525.71h-9.67a.28.28,0,0,1-.24-.43l2.11-3.39a.28.28,0,0,1,.23-.13H870a.27.27,0,0,1,.25.39l-1.59,3.4A.27.27,0,0,1,868.4,525.71Z"/><path class="cls-7" d="M884.56,520.52h-8.94a.27.27,0,0,1-.27-.27.22.22,0,0,1,0-.11l1.14-2.83a.27.27,0,0,1,.25-.17h8.51a.29.29,0,0,1,.28.28s0,0,0,.06l-.71,2.83A.27.27,0,0,1,884.56,520.52Z"/><path class="cls-7" d="M927.75,525.71H873.54a.29.29,0,0,1-.28-.28.3.3,0,0,1,0-.1l1.37-3.4a.27.27,0,0,1,.25-.17h51.49a.27.27,0,0,1,.25.17l1.37,3.4a.28.28,0,0,1-.16.36Z"/><path class="cls-7" d="M898.27,520.52h-9a.27.27,0,0,1-.27-.27v0l.52-2.84a.29.29,0,0,1,.28-.22h8.53a.27.27,0,0,1,.27.27h0l-.09,2.84A.27.27,0,0,1,898.27,520.52Z"/><path class="cls-7" d="M912,520.52h-9a.27.27,0,0,1-.28-.26h0l-.1-2.84a.29.29,0,0,1,.28-.28h8.53a.29.29,0,0,1,.28.22l.52,2.84a.27.27,0,0,1-.21.32Z"/><path class="cls-7" d="M925.67,520.52h-8.94a.27.27,0,0,1-.27-.21l-.71-2.83a.28.28,0,0,1,.21-.33h8.56a.29.29,0,0,1,.26.17l1.14,2.83a.27.27,0,0,1-.14.36Z"/><path class="cls-7" d="M939.34,520.52h-8.88a.26.26,0,0,1-.25-.16l-1.33-2.83a.27.27,0,0,1,.12-.36.31.31,0,0,1,.13,0h8.46a.28.28,0,0,1,.23.13l1.76,2.83a.27.27,0,0,1-.07.37A.26.26,0,0,1,939.34,520.52Z"/><path class="cls-7" d="M953,520.52h-8.8a.27.27,0,0,1-.23-.12l-2-2.83a.27.27,0,0,1,.06-.38.34.34,0,0,1,.17-.05h8.39a.25.25,0,0,1,.21.1l2.38,2.83a.27.27,0,0,1,0,.38A.24.24,0,0,1,953,520.52Z"/><path class="cls-7" d="M955.51,523.5h-9.27a.29.29,0,0,1-.23-.12l-.81-1.19a.27.27,0,0,1,.06-.38.28.28,0,0,1,.16,0h9.1a.25.25,0,0,1,.21.1l1,1.18a.28.28,0,0,1-.22.46Z"/><path class="cls-7" d="M957.36,525.71h-9.6a.29.29,0,0,1-.23-.12l-.91-1.32a.28.28,0,0,1,.07-.39.3.3,0,0,1,.16,0h9.4a.32.32,0,0,1,.22.1l1.11,1.32a.28.28,0,0,1-.22.46Z"/><path class="cls-7" d="M972.16,525.71h-9.53a.25.25,0,0,1-.2-.09l-1.2-1.32a.28.28,0,0,1,0-.4.32.32,0,0,1,.19-.07h9.32a.27.27,0,0,1,.19.08l1.4,1.32a.28.28,0,0,1,0,.4A.27.27,0,0,1,972.16,525.71Z"/><path class="cls-7" d="M942.56,525.71h-9.67a.26.26,0,0,1-.25-.16l-.62-1.32a.27.27,0,0,1,.13-.37l.12,0h9.47a.28.28,0,0,1,.24.13l.82,1.32a.29.29,0,0,1-.09.39A.26.26,0,0,1,942.56,525.71Z"/><path class="cls-7" d="M966.68,520.52h-8.74a.27.27,0,0,1-.21-.09l-2.56-2.83a.26.26,0,0,1,0-.38.25.25,0,0,1,.21-.08h8.31a.26.26,0,0,1,.19.07l3,2.84a.27.27,0,0,1,0,.38A.27.27,0,0,1,966.68,520.52Z"/><polygon class="cls-12" points="728 308.92 756.88 330.59 748.59 340.86 728 308.92"/><polygon class="cls-13" points="728 308.92 750.27 330.94 748.59 340.86 728 308.92"/><polygon class="cls-14" points="728 308.92 767.92 327.96 756.88 330.59 728 308.92"/><polygon class="cls-14" points="728 308.92 750.27 330.94 736.84 333.12 728 308.92"/><path class="cls-4" d="M854.28,397.51a.44.44,0,0,1-.16-.06c-.89-.51-1.78-1.06-2.64-1.64a.56.56,0,0,1,.64-.93h0c.83.56,1.69,1.1,2.55,1.58a.56.56,0,0,1,.19.78.57.57,0,0,1-.58.27Zm-5.94-4.19a.58.58,0,0,1-.25-.12,37.88,37.88,0,0,1-3.1-3,.57.57,0,0,1,.82-.78,40.8,40.8,0,0,0,3,2.88.56.56,0,0,1,.16.78.57.57,0,0,1-.64.22Zm-5.8-6.12a.56.56,0,0,1-.33-.21c-.86-1.09-1.7-2.26-2.49-3.47a.56.56,0,1,1,.94-.62h0c.78,1.18,1.6,2.33,2.43,3.4a.57.57,0,0,1-.08.79A.61.61,0,0,1,842.54,387.2Zm-4.64-7.06a.6.6,0,0,1-.38-.28c-.67-1.21-1.32-2.49-1.93-3.8a.57.57,0,0,1,1-.47c.59,1.28,1.23,2.54,1.89,3.73a.56.56,0,0,1-.22.76A.57.57,0,0,1,837.9,380.14Zm-44.21-15.57h0c-1.39-.31-2.78-.65-4.13-1a.56.56,0,0,1-.39-.69h0a.57.57,0,0,1,.69-.4c1.33.37,2.7.7,4.08,1a.57.57,0,0,1,.42.68.54.54,0,0,1-.66.41Zm4.14.84a.56.56,0,0,1,.22-1.1h0c1.36.24,2.75.47,4.15.67a.55.55,0,0,1,.47.63.56.56,0,0,1-.63.48h0c-1.41-.2-2.82-.43-4.2-.67Zm36.5,7.08a.56.56,0,0,1-.41-.35c-.51-1.3-1-2.65-1.44-4a.57.57,0,0,1,.36-.71.55.55,0,0,1,.7.34v0c.44,1.33.92,2.66,1.42,3.94a.57.57,0,0,1-.32.73A.58.58,0,0,1,834.33,372.49Zm-48.8-10.13h-.06c-1.36-.44-2.71-.92-4-1.41a.57.57,0,0,1-.32-.73.55.55,0,0,1,.7-.33h0c1.27.49,2.6,1,4,1.39a.56.56,0,1,1-.29,1.09Zm20.67,4.24a.57.57,0,0,1-.4-.7.56.56,0,0,1,.57-.42l1.64.16c.84.07,1.7.13,2.53.17a.56.56,0,0,1,.54.58h0a.56.56,0,0,1-.57.53h0c-.86,0-1.73-.09-2.59-.17l-1.66-.16Zm8.43.36a.57.57,0,0,1,.1-1.12,41.5,41.5,0,0,0,4.17-.27.57.57,0,0,1,.62.49h0a.57.57,0,0,1-.5.62c-1.41.15-2.84.24-4.26.28Zm-37-7.63h-.12c-1.31-.59-2.6-1.23-3.82-1.88a.56.56,0,0,1-.23-.76h0a.55.55,0,0,1,.74-.24h0c1.2.64,2.47,1.26,3.76,1.84a.57.57,0,0,1,.28.75.58.58,0,0,1-.61.28Zm-7.43-4a.46.46,0,0,1-.19-.08c-1.22-.77-2.4-1.59-3.51-2.43a.55.55,0,0,1-.11-.78h0a.57.57,0,0,1,.79-.1c1.08.82,2.24,1.62,3.43,2.37a.57.57,0,0,1,.17.78.53.53,0,0,1-.56.26ZM823,366.08a.56.56,0,0,1-.44-.66A.54.54,0,0,1,823,365c1.37-.25,2.74-.56,4.07-.91a.56.56,0,1,1,.29,1.09c-1.36.36-2.76.67-4.16.93A.45.45,0,0,1,823,366.08Zm8.69-1.61a.59.59,0,0,1-.44-.41v-.13a.55.55,0,0,1-.48-.37.59.59,0,0,1,.22-.66c-.25-1-.48-2-.67-3a.56.56,0,1,1,1.1-.22h0c.19.92.4,1.86.63,2.81,1-.37,2-.78,3-1.21a.54.54,0,0,1,.73.27v0a.56.56,0,0,1-.28.74c-1,.46-2.08.89-3.13,1.28v.17a.57.57,0,0,1-.4.69.82.82,0,0,1-.27,0ZM763.5,350.23a.5.5,0,0,1-.26-.13,41.13,41.13,0,0,1-3-3.05.56.56,0,0,1,0-.79h0a.57.57,0,0,1,.79.05,39.35,39.35,0,0,0,2.92,3,.56.56,0,0,1,0,.79A.57.57,0,0,1,763.5,350.23Zm-5.57-6.32a.51.51,0,0,1-.35-.22,36.86,36.86,0,0,1-2.25-3.65.56.56,0,0,1,.22-.76h0a.57.57,0,0,1,.76.23,35.92,35.92,0,0,0,2.18,3.5.56.56,0,0,1-.13.78A.54.54,0,0,1,757.93,343.91Zm81,16.57a.54.54,0,0,1-.38-.28.57.57,0,0,1,.22-.77c1.22-.66,2.42-1.39,3.58-2.15a.56.56,0,1,1,.62.94c-1.19.78-2.42,1.52-3.66,2.2a.52.52,0,0,1-.42.06Zm-8.82-4.3a.55.55,0,0,1-.45-.48c-.18-1.43-.3-2.87-.36-4.25a.57.57,0,1,1,1.13-.05c.05,1.36.17,2.76.35,4.16a.56.56,0,0,1-.48.63h0a.33.33,0,0,1-.22,0Zm15.86-.35a.5.5,0,0,1-.33-.2.56.56,0,0,1,.1-.79h0c1.08-.85,2.15-1.76,3.18-2.71a.56.56,0,0,1,.76.83,35.73,35.73,0,0,1-3.25,2.77.56.56,0,0,1-.5.1Zm-16.2-8.08a.55.55,0,0,1-.45-.58q.12-2.15.45-4.26a.57.57,0,0,1,.65-.46.53.53,0,0,1,.47.58s0,0,0,.06a38.21,38.21,0,0,0-.43,4.14.56.56,0,0,1-.59.53h-.09Zm22.4,2.37a.59.59,0,0,1-.27-.14.57.57,0,0,1,0-.8c.94-1,1.85-2.08,2.72-3.18a.56.56,0,0,1,.88.7c-.88,1.12-1.81,2.21-2.77,3.25a.58.58,0,0,1-.6.17Zm-21-10.69h0a.56.56,0,0,1-.39-.69h0l.05-.17a28.19,28.19,0,0,1,1.43-3.88.57.57,0,0,1,1,.47,27.71,27.71,0,0,0-1.38,3.72V339a.55.55,0,0,1-.63.46.62.62,0,0,1-.19-.07Zm26.27,4.06a.54.54,0,0,1-.44-.64.47.47,0,0,1,.09-.22c.77-1.15,1.51-2.35,2.2-3.56a.57.57,0,0,1,.77-.21.55.55,0,0,1,.21.76h0c-.7,1.24-1.46,2.46-2.25,3.63a.56.56,0,0,1-.66.23ZM834.6,331.74a.58.58,0,0,1-.18-.08.56.56,0,0,1-.19-.77h0a33.19,33.19,0,0,1,2.5-3.5.58.58,0,0,1,.8-.08.57.57,0,0,1,.07.8,31.79,31.79,0,0,0-2.41,3.37.58.58,0,0,1-.67.26Zm27,4.42h-.13a.57.57,0,0,1-.27-.75l.3-.63a15.19,15.19,0,0,0,1.09-3.21.57.57,0,0,1,.67-.43h0a.56.56,0,0,1,.42.67,16,16,0,0,1-1.17,3.44l-.3.65a.54.54,0,0,1-.66.26Zm-21.67-10.92a.51.51,0,0,1-.3-.17.57.57,0,0,1,0-.8,25.68,25.68,0,0,1,3.42-2.63.55.55,0,0,1,.77.18.55.55,0,0,1-.17.77h0a26.51,26.51,0,0,0-3.27,2.51.54.54,0,0,1-.5.14ZM863.3,328a.54.54,0,0,1-.45-.5,9.17,9.17,0,0,0-1.1-3.79.57.57,0,1,1,1-.56,10.3,10.3,0,0,1,1.25,4.26.56.56,0,0,1-.52.6h0A.28.28,0,0,1,863.3,328ZM847,320.74a.53.53,0,0,1-.41-.34.57.57,0,0,1,.31-.73h0a19.07,19.07,0,0,1,4.19-1.12.57.57,0,0,1,.16,1.12,17.91,17.91,0,0,0-3.94,1.05A.5.5,0,0,1,847,320.74Zm12.24.24a.4.4,0,0,1-.18-.07,9.83,9.83,0,0,0-3.75-1.31.56.56,0,0,1,.16-1.11,10.77,10.77,0,0,1,4.18,1.46.58.58,0,0,1-.43,1.05Z"/><rect class="cls-9" x="949.58" y="318.11" width="49.14" height="40.76" rx="20.05"/><path class="cls-15" d="M996.53,322.06l-13.37,13.36c-.23.23-.47.45-.71.66a12.72,12.72,0,0,1-16.6,0q-.37-.31-.72-.66l-.94-.94-12.41-12.42a10.41,10.41,0,0,1,1.6-1.65l12.44,12.44.95.94a8.67,8.67,0,0,0,.72.64,10.42,10.42,0,0,0,13.32,0c.25-.21.5-.43.73-.66l.94-.93,12.44-12.45A9.79,9.79,0,0,1,996.53,322.06Z"/><path class="cls-15" d="M966.77,333.79a8.67,8.67,0,0,0,.72.64l-1.64,1.65-15.74,15.74a10.68,10.68,0,0,1-.51-2.75l14.59-14.59,1.63-1.63Z"/><path class="cls-15" d="M998.7,349.07a10.68,10.68,0,0,1-.51,2.75l-15.74-15.74-1.64-1.63c.25-.21.5-.43.73-.66l.94-.93,1.63,1.62Z"/><polygon class="cls-6" points="923.84 408.75 903.78 425.68 881.89 410.02 887.11 395.74 888.19 390.28 890.32 379.49 912.28 378.89 913.23 382.73 915.79 393.11 923.84 408.75"/><path class="cls-16" d="M913.23,382.73c-2.22,3.93-8.33,9.23-25,7.55l2.13-10.79,22-.6Z"/><path class="cls-6" d="M921.91,351.21c0,18.94-9.14,34.3-20.4,34.3s-20.41-15.36-20.41-34.3,9.14-24.56,20.41-24.56S921.91,332.27,921.91,351.21Z"/><path class="cls-16" d="M911.57,328.56s.07,10.95-9.81,11.91-18.86-5-21.14,7.94V336.82l11-6.43Z"/><path class="cls-17" d="M924,335c1.85,6.47-3.07,35.35-5.85,41.21s-8.88,9.23-17.25,9.31c-10.68.09-14.29-5.18-16.45-8.26s-2.34-9-5.11-31.17,14.81-25.15,21.28-25.15,9.52-.1,10.75,4.21C920.63,324.63,922.19,328.53,924,335Zm-20.43,3.21c-5.9,2.74-16.34-2.8-20.33,1.69s-1.53,18.81-.22,24.82c.51,2.37,7.28.5,11.44,2.7-5.72,5.4,0,10,6.3,10,6,0,11.65-1.91,7.84-9.22,2.93-3.18,9.21-.16,10.48-2.86,1.83-3.88.81-22,.81-22-2.49-.75-8.23-7.73-8.23-13a17.14,17.14,0,0,1-8,7.86Z"/><path class="cls-17" d="M894.5,350c0,1.61-.89,2.92-2,2.92s-2-1.31-2-2.92.9-2.93,2-2.93S894.5,348.35,894.5,350Z"/><path class="cls-17" d="M911.57,350c0,1.61-.9,2.92-2,2.92s-2-1.31-2-2.92.89-2.93,2-2.93S911.57,348.35,911.57,350Z"/><path class="cls-15" d="M895.37,370.14h11.75s-1.27,5.08-5.4,5.08A6.28,6.28,0,0,1,895.37,370.14Z"/><path class="cls-16" d="M901.25,352.89s-7.5,12,0,12Z"/><path class="cls-18" d="M878.1,351.81a20.6,20.6,0,0,1-.31-3.5c0-11.79,10.4-19.35,23.23-19.35s23.23,7.56,23.23,19.35a20.6,20.6,0,0,1-.31,3.5h2.66a16.67,16.67,0,0,0,1-6.56c-1.12-11.05-10.32-21.74-26.56-21.74-14.67,0-26.27,11.53-26.27,23.18a13.48,13.48,0,0,0,.69,5.12Z"/><path class="cls-18" d="M879.14,364.6l-2.38.25a4.9,4.9,0,0,1-5.48-4.18L870,349.26a4.76,4.76,0,0,1,4.28-5.21h.1l2.38-.26a2.63,2.63,0,0,1,2.93,2.24l1.84,15.78a2.57,2.57,0,0,1-2.32,2.79Z"/><path class="cls-18" d="M923.35,364.6l2.39.25a4.89,4.89,0,0,0,5.47-4.18l1.33-11.41a4.76,4.76,0,0,0-4.28-5.21h-.1l-2.38-.26a2.64,2.64,0,0,0-2.93,2.24L921,361.8a2.58,2.58,0,0,0,2.32,2.8Z"/><path class="cls-17" d="M907.12,322.53s-1.59,5.22-10.79,5.24-12.05.79-12.05.79S891.06,321.28,907.12,322.53Z"/><path class="cls-11" d="M936,440.64c-.63.2-1.19.4-1.68.58.29,2.68.62,9,.95,14.83v.67c.1,1.62.2,3.21.3,4.66.17,2.65.35,4.87.54,6.13.54,3.09,1,6.3,1.33,9.29.88,7.58,1.2,13.88,1.2,13.88H866.33l.37-12.23.24-8.07.23-7.65.63-21.16a21.55,21.55,0,0,0-3.07-.67c-5.17-.9-14.29-1.87-17.78-2.23l-1.4-.14s7.83-32.72,12.65-37.9c8.76-5.51,17.86-7.66,29.87-10.36a14.26,14.26,0,0,0,1.48,8.44c5.38,9.39,23.17,7.72,25.55-2.84a15.45,15.45,0,0,0-.09-5.59s24.63,5.11,29.4,10.81c3.73,6.3,10.59,34.2,10.59,34.2l-1.79.47C949.57,436.73,940.94,439,936,440.64Z"/><polygon class="cls-19" points="929.37 421.26 934.36 441.22 935.35 456.72 929.37 440.48 929.37 421.26"/><polygon class="cls-19" points="871.21 452.48 868.54 463.89 867.02 470.38 867.25 462.73 867.88 441.57 871.21 419.75 871.21 452.48"/><path class="cls-17" d="M855.92,504.2s-25.13,1.35-30.89,3.93.87,15.62,4.89,16.17c3,.41,27.88-2.11,31.4-5.75Z"/><path class="cls-6" d="M855.92,504.2s-10.9,2.33-12.94,5-2.38,9.85-.87,10.15,3.41,2.67,19.21-.77Z"/><path class="cls-20" d="M855.64,504.08l5.57,14.72,103.55-19c10.1-2.23,27.59-11.48,25.33-19.43-2.73-9.64-10.62-15.8-20.58-13Z"/><path class="cls-6" d="M868.54,463.89l-1.29-1.16-6.64-6,4.2-15.82c-5.17-.9-14.29-1.87-17.78-2.23l-4,20.24a6.23,6.23,0,0,0,2.81,6.49l20.9,13,7.08,4.42,5.53-9.17Z"/><path class="cls-6" d="M958.19,458.59l-4.9-22.83c-3.72,1-12.35,3.28-17.25,4.88l4.58,16.08-5,4.66L922.14,474l5.7,9.07,9.68-6.3,18-11.67A6.26,6.26,0,0,0,958.19,458.59Z"/><path class="cls-21" d="M949.86,503.87l-5.37,14.8L837.37,499.83c-10.13-2.09-21.83-10.14-22-16.11-.25-8.25,11.7-18.79,21.7-16.14Z"/><path class="cls-17" d="M949.86,503.87s26.46,1.75,32.32,4.1-2.09,14.48-6.09,15.19c-2.93.52-27.93-1-31.6-4.49Z"/><path class="cls-6" d="M949.86,503.87s10.44,2.13,12.58,4.7,2.77,9.74,1.28,10.1-3.3,2.8-19.23,0Z"/><path class="cls-22" d="M940.93,440.49,935.41,484H865.3l-.82-6.49-4.7-37.05a4.9,4.9,0,0,1,4.89-4.91H936a4.9,4.9,0,0,1,4.93,4.87Z"/><path class="cls-23" d="M866,484h68.74a2.06,2.06,0,0,1,2.06,2.06h0a2.06,2.06,0,0,1-2.06,2.06H866a2.06,2.06,0,0,1-2.06-2.06h0A2.06,2.06,0,0,1,866,484Z"/><path class="cls-23" d="M900.35,454.24a5.28,5.28,0,0,0-1.25.15,4.34,4.34,0,0,1,0,.51,4.51,4.51,0,0,1-4.49,4.51V460a5.73,5.73,0,1,0,5.73-5.73h0Z"/><path class="cls-24" d="M798.4,374.36c-3.66,0-5.11,1.51-5.11,4.77,0,.3-.57.3-.57,0,0-3.26-1.16-4.77-5.11-4.77-.3,0-.3-.58,0-.58,4.07,0,5.11-1.88,5.11-4.76,0-.3.57-.3.57,0,0,3.43,1.39,4.76,5.11,4.76C798.7,373.78,798.7,374.36,798.4,374.36Z"/><path class="cls-24" d="M825.87,349.4c-5.47,0-7.63,2.26-7.63,7.12,0,.45-.85.45-.85,0,0-4.86-1.73-7.12-7.63-7.12-.44,0-.44-.85,0-.85,6.08,0,7.63-2.82,7.63-7.12,0-.44.85-.44.85,0,0,5.12,2.07,7.12,7.63,7.12C826.31,348.55,826.31,349.4,825.87,349.4Z"/><path class="cls-24" d="M820.78,402.11c-4.19,0-5.84,1.73-5.84,5.45,0,.34-.65.34-.65,0,0-3.72-1.33-5.45-5.84-5.45-.34,0-.34-.65,0-.65,4.65,0,5.84-2.16,5.84-5.44,0-.35.65-.35.65,0,0,3.91,1.58,5.44,5.84,5.44C821.12,401.46,821.12,402.11,820.78,402.11Z"/><path class="cls-9" d="M1140.59,403.85c0,.18-.07.4-.11.65s-.07.51-.1.8h-.24a8.67,8.67,0,0,1-2.32-.28,4.67,4.67,0,0,1-1.72-.87,3.08,3.08,0,0,1-.89-3.76,3.23,3.23,0,0,1,.84-1,4.69,4.69,0,0,1,1.75-.89,7.58,7.58,0,0,1,2.22-.31h.25a3.42,3.42,0,0,0,.07.62q0,.41.12.84h-.25a7.74,7.74,0,0,0-1.07.1,4.54,4.54,0,0,0-1.08.29,2.73,2.73,0,0,0-1,.71,1.52,1.52,0,0,0-.36,1,1.57,1.57,0,0,0,.34,1,2.45,2.45,0,0,0,1,.71,3.9,3.9,0,0,0,1.12.32,6.57,6.57,0,0,0,1.08.1h.35Z"/><path class="cls-9" d="M1140.44,413.23a3.08,3.08,0,0,1-.23,1.16,2.83,2.83,0,0,1-.69,1,2.42,2.42,0,0,1-.86.51,3.18,3.18,0,0,1-1.06.17,3.12,3.12,0,0,1-1-.17,2.54,2.54,0,0,1-1.55-1.46,3.1,3.1,0,0,1,0-2.3,2.61,2.61,0,0,1,.63-.91,2.56,2.56,0,0,1,.9-.59,3,3,0,0,1,1.11-.2,3.37,3.37,0,0,1,1.09.18,2.65,2.65,0,0,1,.89.55,2.55,2.55,0,0,1,.64.92A3,3,0,0,1,1140.44,413.23Zm-1.59,0a2.65,2.65,0,0,0-.11-.74,1.59,1.59,0,0,0-.37-.59,1,1,0,0,0-.35-.22,1.16,1.16,0,0,0-.87,0,1.18,1.18,0,0,0-.37.26,1.4,1.4,0,0,0-.32.57,2.31,2.31,0,0,0-.11.69,2.79,2.79,0,0,0,.11.76,1.43,1.43,0,0,0,.38.59.87.87,0,0,0,.34.22,1.23,1.23,0,0,0,.42.07,1.32,1.32,0,0,0,.44-.08,1,1,0,0,0,.36-.25,1.52,1.52,0,0,0,.34-.59,2.61,2.61,0,0,0,.11-.68Z"/><path class="cls-9" d="M1140.21,426.58h-1.6v-3.26a1.3,1.3,0,0,0-.17-.7.64.64,0,0,0-.55-.22,1.75,1.75,0,0,0-.59.14,5,5,0,0,0-.66.31v3.74H1135v-5.33h1.57v.5h0a6.09,6.09,0,0,1,1.05-.46,3.2,3.2,0,0,1,1-.18,1.46,1.46,0,0,1,1.15.45,1.66,1.66,0,0,1,.43,1.18v2.95C1140.2,426.16,1140.21,426.46,1140.21,426.58Z"/><path class="cls-9" d="M1139.69,436.14l-.15,1.14h-.69a3.14,3.14,0,0,1-1.91-.48,1.67,1.67,0,0,1-.65-1.43v-2.32h-.87v-1.13h.91v-1.39h1.54v1.39h1.78v1.14h-1.78V435a1,1,0,0,0,.32.85,1.78,1.78,0,0,0,1.19.28h.31Z"/><path class="cls-9" d="M1139.87,445.15v2.79l-.68.05c-.4,0-.82,0-1.26,0a8.42,8.42,0,0,1-1-.08,3.4,3.4,0,0,1-.94-.23,2,2,0,0,1-.75-.55,1.23,1.23,0,0,1-.27-.8,1.34,1.34,0,0,1,.29-.86,2.06,2.06,0,0,1,.91-.59,4.5,4.5,0,0,1,1-.24c.4-.06.77-.1,1.1-.13a1,1,0,0,0-.15-.46.86.86,0,0,0-.45-.28,2.52,2.52,0,0,0-.46-.1,4,4,0,0,0-.6,0h-1l.14-1.19h1a6.07,6.07,0,0,1,1.47.15,2.29,2.29,0,0,1,1,.5,1.72,1.72,0,0,1,.54.77A3.45,3.45,0,0,1,1139.87,445.15Zm-1.51,1v-.86a2.19,2.19,0,0,0-.54.06,2.36,2.36,0,0,0-.69.19.84.84,0,0,0-.38.26.59.59,0,0,0-.18.44.71.71,0,0,0,.15.46,1.18,1.18,0,0,0,.4.27,2.71,2.71,0,0,0,.41.09,3.87,3.87,0,0,0,.48,0h.35v-.94Z"/><path class="cls-9" d="M1139.85,457.39l-.16,1.26h-.29a6.31,6.31,0,0,1-1.56-.16,4.22,4.22,0,0,1-1.19-.47,2.67,2.67,0,0,1-.92-.88,2.36,2.36,0,0,1-.32-1.19,2.09,2.09,0,0,1,.31-1.15,2.56,2.56,0,0,1,.83-.84,4.17,4.17,0,0,1,1.25-.53,6.56,6.56,0,0,1,1.59-.17h.24l.14,1.27h-.2a4.84,4.84,0,0,0-.76,0,3.68,3.68,0,0,0-.73.17,1.47,1.47,0,0,0-.74.48,1.09,1.09,0,0,0-.28.72,1.15,1.15,0,0,0,.26.76,1.88,1.88,0,0,0,.71.47,3.16,3.16,0,0,0,.75.18,6.3,6.3,0,0,0,.75,0h.32Z"/><path class="cls-9" d="M1139.69,468.18l-.15,1.14h-.69a3.14,3.14,0,0,1-1.91-.48,1.67,1.67,0,0,1-.65-1.43v-2.32h-.87V464h.91v-1.39h1.54V464h1.78v1.14h-1.78v1.95a1,1,0,0,0,.32.85,1.84,1.84,0,0,0,1.19.28h.31Z"/><path class="cls-9" d="M1142,482.2c-.47,1.19-.88,2.26-1.23,3.26s-.56,1.57-.6,1.78h-1.4c0-.12-.14-.46-.34-1s-.44-1.33-.75-2.22h0l-.76,2.11c-.23.64-.36,1-.4,1.15h-1.41c-.06-.22-.25-.78-.59-1.71s-.74-2-1.23-3.3l1.59-.44,1.1,3.51h0l1.13-3.32h1.13l1.08,3.32h0l1.11-3.49Z"/><path class="cls-9" d="M1138.43,491.75h-1.66v-1.23h1.66Zm0,6.15h-1.6v-5.32h1.6V497c0,.39,0,.76,0,.88Z"/><path class="cls-9" d="M1139.69,507.48l-.15,1.14h-.69a3.14,3.14,0,0,1-1.91-.48,1.7,1.7,0,0,1-.65-1.44v-2.32h-.87v-1.13h.91v-1.4h1.54v1.4h1.78v1.13h-1.78v2a1,1,0,0,0,.32.85,1.9,1.9,0,0,0,1.19.28h.31Z"/><path class="cls-9" d="M1140.21,519.26h-1.6V516a1.26,1.26,0,0,0-.18-.71.63.63,0,0,0-.54-.2,1.72,1.72,0,0,0-.59.12,4.27,4.27,0,0,0-.68.33v3.72H1135v-7.65h1.6v2.81h0a5,5,0,0,1,1-.45,3.14,3.14,0,0,1,1-.18,1.49,1.49,0,0,1,1.14.45,1.66,1.66,0,0,1,.43,1.18v2.89C1140.19,518.73,1140.2,519.07,1140.21,519.26Z"/><path class="cls-9" d="M1141.86,534.78h-1.6v-3.27a1.16,1.16,0,0,0-.17-.7.69.69,0,0,0-.53-.2,1.91,1.91,0,0,0-.53.1,3,3,0,0,0-.63.29v3.78h-1.6v-3.24a1.84,1.84,0,0,0,0-.33.7.7,0,0,0-.09-.29.45.45,0,0,0-.2-.21.67.67,0,0,0-.37-.07,1.42,1.42,0,0,0-.54.12c-.21.09-.4.2-.6.31v3.74h-1.6v-5.35h1.57V530h0a6.2,6.2,0,0,1,.86-.42,2.56,2.56,0,0,1,1-.23,1.59,1.59,0,0,1,.83.19,1.34,1.34,0,0,1,.53.5h0a5.41,5.41,0,0,1,1-.49,3.31,3.31,0,0,1,1-.2,1.52,1.52,0,0,1,1.18.44,1.59,1.59,0,0,1,.42,1.19v3C1141.84,534.37,1141.86,534.62,1141.86,534.78Z"/><path class="cls-9" d="M1140.22,542.8h-3.62a1.32,1.32,0,0,0,.23.74,1.5,1.5,0,0,0,.67.55,2.61,2.61,0,0,0,.67.21,4,4,0,0,0,.77.05h1l-.16,1.14h-1a5.83,5.83,0,0,1-1.61-.2,3.17,3.17,0,0,1-1.19-.59,2.69,2.69,0,0,1-.68-.85,2.55,2.55,0,0,1-.25-1.12,2.9,2.9,0,0,1,.19-1.08,2.81,2.81,0,0,1,.59-.9,2.22,2.22,0,0,1,.87-.55,2.66,2.66,0,0,1,1-.19,2.85,2.85,0,0,1,1,.15,2,2,0,0,1,.76.48,2.26,2.26,0,0,1,.55.9A4.12,4.12,0,0,1,1140.22,542.8Zm-1.5-.7a1.41,1.41,0,0,0-.32-.81.91.91,0,0,0-.73-.31,1.06,1.06,0,0,0-.76.3,1.5,1.5,0,0,0-.39.82Z"/><path class="cls-25" d="M1086.54,541.44c0,1.82-10.61,3.31-23.69,3.31s-23.68-1.49-23.68-3.31,10.6-3.31,23.68-3.31S1086.54,539.61,1086.54,541.44Z"/><ellipse class="cls-5" cx="1083.47" cy="516.44" rx="12.16" ry="1.78"/><path class="cls-26" d="M1093.08,542.83c-4.8,1.45-12.24,1.35-17.46,0-1.24-.32-2.38-.91-2.63-2.16l-5-24.91h32.7l-5,24.91C1095.46,541.94,1094.3,542.46,1093.08,542.83Z"/><ellipse class="cls-18" cx="1084.4" cy="515.76" rx="16.27" ry="2.38"/><path class="cls-23" d="M1100,519.18a56,56,0,0,1-11.1,7.1,7.66,7.66,0,0,0-3,2.11,2.4,2.4,0,0,0,.29,3.33c.45.29,1.11.5,1.1,1a1.07,1.07,0,0,1-.3.61c-1.1,1.26-2.77,1.86-4.06,2.94s-2.11,3.14-1,4.38a4.8,4.8,0,0,0,1.85,1.29c.92.35,1.12,1.91,1.47,1.91a25.8,25.8,0,0,0,7.86-1.05,2.7,2.7,0,0,0,2.63-2.16Z"/><path class="cls-5" d="M1079.22,423.67a22.63,22.63,0,0,1-.07-9.45c.54-3.26,2-6.34,5.23-5.74s4.24,4.37,4.42,7.11c.25,3.79-1,7.44-1.38,11.17-.72,6.42.89,12.25,1.52,14.9.13.56.3,1.18.63,2.42,2.06,7.78,3.15,10.13,3.82,13.11a27.2,27.2,0,0,1-.13,11.81c-1,4.3-7.87,19.67-9.2,35.43-.63-20.16-4.63-25.81-6-32.69a30.28,30.28,0,0,1-.89-8.53c.65-7.34,2.69-14.49,3.91-21.76S1081.07,431.28,1079.22,423.67Z"/><path class="cls-5" d="M1083.33,516.87h0a.43.43,0,0,1-.39-.46c3.11-36.2.62-98.28.6-98.91a.42.42,0,0,1,.49-.36.44.44,0,0,1,.36.36c0,.62,2.52,62.76-.6,99A.44.44,0,0,1,1083.33,516.87Z"/><path class="cls-5" d="M1084.84,479.68h0a.42.42,0,0,1-.41-.44c.48-10.65,5.34-13.95,5.55-14.08a.42.42,0,0,1,.58.11h0a.44.44,0,0,1-.12.59h0s-4.71,3.24-5.16,13.4a.44.44,0,0,1-.45.41Z"/><path class="cls-5" d="M1084.91,471.94a.44.44,0,0,1-.44-.4c-.64-10.81-4.65-12.32-4.68-12.34a.43.43,0,1,1,.17-.84l.1,0c.18.06,4.59,1.61,5.27,13.1a.43.43,0,0,1-.39.45h0Z"/><path class="cls-5" d="M1084.87,458.69h0a.44.44,0,0,1-.4-.47h0c.81-8.37,3.46-10.81,3.57-10.91a.45.45,0,0,1,.61,0,.44.44,0,0,1,0,.6s-2.52,2.39-3.3,10.35a.42.42,0,0,1-.4.44Z"/><path class="cls-5" d="M1056.69,453.39c-.93-2.32-5-11.11-4.32-14.11,1.74.69,6.58,8.19,8.17,11.55a108.91,108.91,0,0,0,8.29,13.26c2.07,2.84,3.25,3.58,4.81,6.78,1.14,2.27,2.93,11.68,3,15.07.28,6.32-1.36,7.57.49,19.51-4-15-12.35-24-13.71-28.4-1.56-5.08-1.61-7.14-2.81-12.56S1059.69,460.45,1056.69,453.39Z"/><path class="cls-5" d="M1078.82,517.3a.43.43,0,0,1-.43-.4c-2.12-26.9-19.67-64.36-21.3-66.44l-.1-.08a.45.45,0,0,1,0-.61h0a.48.48,0,0,1,.46-.07c.72.29,5.89,11.24,10.44,23.17s10.14,29.12,11.31,44a.44.44,0,0,1-.39.46Zm-21.22-66.88h0Z"/><path class="cls-5" d="M1073,489.48a.41.41,0,0,1-.41-.32c-2-7.65.36-11.51.74-11.76a.43.43,0,0,1,.59.14.42.42,0,0,1,0,.5c-.11.15-2.4,3.49-.47,10.9a.44.44,0,0,1-.31.52Z"/><path class="cls-5" d="M1071.28,483.84a.4.4,0,0,1-.39-.27c-2.9-7.29-5.94-7.62-6.27-7.64a.46.46,0,0,1-.42-.35l.42-.07v-.43c.65,0,4,.55,7,8.18a.42.42,0,0,1-.23.55h0Z"/><path class="cls-5" d="M1068,474.27a.45.45,0,0,1-.42-.32c-1.61-6.1-.63-8.87-.23-9a.42.42,0,0,1,.54.23h0a.45.45,0,0,1,0,.36c-.06.14-1,2.44.53,8.21a.44.44,0,0,1-.3.53h0Z"/><path class="cls-5" d="M1105.75,472.49c1.22-1.41,6.69-6.32,9.12-6.08-.29,1.37-4.44,6.2-6.09,8.2a29.69,29.69,0,0,0-5.23,9.47c-.72,2.3-.56,3.28-1.53,5.4a99.25,99.25,0,0,1-6,8.23c-2.64,3.3-5.54,4.49-8.33,12.72,1.86-10.75,3.36-21.21,5.41-24.32,2.24-3.39,3.53-4.35,6.53-7.24S1101.84,476.68,1105.75,472.49Z"/><path class="cls-5" d="M1086.14,517.3h-.09a.43.43,0,0,1-.34-.49h0a103.65,103.65,0,0,1,11.73-30.52,81.62,81.62,0,0,1,9.85-13.67c.25-.29.49-.56.56-.67a.44.44,0,0,1,.52-.25.46.46,0,0,1,.3.29c.08.26.06.28-.74,1.19a81.59,81.59,0,0,0-9.75,13.54,102.65,102.65,0,0,0-11.63,30.23A.45.45,0,0,1,1086.14,517.3Z"/><path class="cls-5" d="M1092.25,497.94h-.18a.41.41,0,0,1-.22-.54l0,0c2.39-5,5.7-5.43,6.33-5.48v.42h.43a.45.45,0,0,1-.41.41c-.35,0-3.39.38-5.63,5A.49.49,0,0,1,1092.25,497.94Z"/><path class="cls-5" d="M1094,494.11h-.16a.43.43,0,0,1-.23-.56c2.11-5.11.86-7,.76-7.15a.42.42,0,0,1,.46-.7s2.19,1.83-.43,8.18A.47.47,0,0,1,1094,494.11Z"/><path class="cls-5" d="M1097.35,487.74a.43.43,0,0,1-.43-.43.39.39,0,0,1,.09-.26c2.48-3.27,4.51-3.77,5.08-3.84l.08.42.41.08a.49.49,0,0,1-.38.35c-.34,0-2.17.42-4.51,3.51A.42.42,0,0,1,1097.35,487.74Z"/><line class="cls-2" x1="1083.54" y1="416.84" x2="1085.04" y2="490.34"/><path class="cls-5" d="M1090,502.34a81,81,0,0,1,6-13,82.09,82.09,0,0,1,15-19"/><path class="cls-5" d="M1054,443.34a173.58,173.58,0,0,1,21,53"/><ellipse class="cls-27" cx="1085.86" cy="189" rx="23.49" ry="23.48"/><circle class="cls-27" cx="1116.08" cy="227.3" r="19.77"/><path class="cls-15" d="M1076,190l5.66-2.39.51,1.59-4.13,1.61,4.13,1.61-.51,1.59-5.66-2.39Z"/><path class="cls-15" d="M1085.42,197.13h-2l4.42-12.73h2Z"/><path class="cls-15" d="M1098.08,191.57l-5.66,2.39-.51-1.59,4.13-1.61-4.13-1.61.51-1.59,5.66,2.39Z"/><text class="cls-28" transform="translate(1105.51 229.23)">WWW</text><circle class="cls-29" cx="1065.25" cy="261.37" r="13.94" transform="translate(89.04 761.45) rotate(-40.91)"/><circle class="cls-29" cx="1043.39" cy="295.55" r="6.97"/><path class="cls-29" d="M1052.63,331.92a3.22,3.22,0,1,0-3.22,3.22h0A3.22,3.22,0,0,0,1052.63,331.92Z"/><circle class="cls-27" cx="1093.6" cy="263.75" r="16.68"/><g class="cls-30"><text class="cls-31" transform="translate(1083.66 267.39)">H</text><text class="cls-28" transform="translate(1089.3 267.39)">TML</text></g><circle class="cls-27" cx="1060.77" cy="278.11" r="13.35" transform="translate(-35.8 267.76) rotate(-14.15)"/><text class="cls-32" transform="translate(1053.24 280)">css</text><circle class="cls-27" cx="1071.27" cy="298.18" r="11.8"/><text class="cls-28" transform="translate(1063.78 300.59)">PHP</text><circle class="cls-27" cx="1050.91" cy="320.81" r="8.53" transform="translate(526.56 1286.41) rotate(-78.47)"/><text class="cls-28" transform="translate(1047.1 322.22)">JS</text><path class="cls-27" d="M1065.22,338.67a5.75,5.75,0,1,0-5.76,5.74h0a5.74,5.74,0,0,0,5.75-5.73Z"/><path class="cls-15" d="M1057,338.37a.54.54,0,0,0,.43-.17.72.72,0,0,0,.13-.45v-1a1.68,1.68,0,0,1,.07-.5.91.91,0,0,1,.24-.37,1.24,1.24,0,0,1,.44-.23,2.71,2.71,0,0,1,.69-.08h.14v.78H1059a.47.47,0,0,0-.39.13.65.65,0,0,0-.11.41v.87a1.9,1.9,0,0,1-.09.58.85.85,0,0,1-.36.41.82.82,0,0,1,.36.4,1.9,1.9,0,0,1,.09.58v.87a.67.67,0,0,0,.11.41.47.47,0,0,0,.39.13h.17v.78H1059a2.71,2.71,0,0,1-.69-.08,1.1,1.1,0,0,1-.44-.23.91.91,0,0,1-.24-.37,1.68,1.68,0,0,1-.07-.5v-1a.79.79,0,0,0-.13-.45.54.54,0,0,0-.43-.17Z"/><path class="cls-15" d="M1062.85,339.14a.48.48,0,0,0-.42.17.67.67,0,0,0-.14.45v1a1.68,1.68,0,0,1-.07.5.91.91,0,0,1-.24.37,1.1,1.1,0,0,1-.44.23,2.71,2.71,0,0,1-.69.08h-.13v-.78h.16a.49.49,0,0,0,.4-.13.74.74,0,0,0,.1-.41v-.87a1.9,1.9,0,0,1,.09-.58.8.8,0,0,1,.37-.4.82.82,0,0,1-.37-.41,1.9,1.9,0,0,1-.09-.58v-.87a.74.74,0,0,0-.1-.41.49.49,0,0,0-.4-.13h-.16v-.78h.13a2.71,2.71,0,0,1,.69.08,1.24,1.24,0,0,1,.44.23.91.91,0,0,1,.24.37,1.68,1.68,0,0,1,.07.5v1a.67.67,0,0,0,.14.45.48.48,0,0,0,.42.17Z"/></svg>