<svg id="Layer_2" data-name="Layer 2" xmlns="http://www.w3.org/2000/svg" xmlns:xlink="http://www.w3.org/1999/xlink" viewBox="0 0 689.37 635.35"><defs><style>.cls-1{fill:url(#linear-gradient);}</style><linearGradient id="linear-gradient" x1="363" y1="-282.04" x2="1052.37" y2="-282.04" gradientTransform="translate(-362.95 599.71)" gradientUnits="userSpaceOnUse"><stop offset="0" stop-color="#f6edff"/><stop offset="0" stop-color="#fff"/><stop offset="1" stop-color="#ceb9fe"/><stop offset="1" stop-color="#f6edff"/></linearGradient></defs><path class="cls-1" d="M.05,0V487c2.84,7.52,38,97.77,124.87,131.88C178,639.73,227.23,636,249.78,633c36.3-4.83,93.2-17,93.21-17l23-8.74c20-7.61,22-8.83,39.1-15.26,34.4-12.93,73.65-27,73.65-27s54.32-25.16,107-17c25.63,4,46.72,15.18,63.68,24.19a274.38,274.38,0,0,1,40,25.88L689.34,0Z" transform="translate(-0.05 0)"/></svg>