<svg id="Layer_2" data-name="Layer 2" xmlns="http://www.w3.org/2000/svg" xmlns:xlink="http://www.w3.org/1999/xlink" viewBox="0 0 413.97 389.48"><defs><style>.cls-1{fill:#d4ccff;}.cls-2{fill:#8550fc;}.cls-3{fill:#a796ff;}.cls-4{fill:#f4d37e;}.cls-5{fill:#fef3f9;}.cls-6{fill:#7862ec;}.cls-7{fill:#fc8e53;}.cls-8{fill:#fdeab1;}.cls-9{fill:#380f8f;}.cls-10{fill:#7b0f8f;}.cls-11{fill:#de50fc;}.cls-12{fill:#d396ff;}.cls-13,.cls-27,.cls-30,.cls-31{fill:#fff;}.cls-14{fill:#deb449;}.cls-15{fill:#232323;}.cls-16{fill:#808285;}.cls-17{fill:#1a0845;}.cls-18{fill:#0b53ff;}.cls-19{fill:#2175fb;}.cls-20{fill:#e6e7e8;}.cls-21{fill:#d1d3d4;}.cls-22{fill:#fbf3fe;}.cls-23{fill:url(#linear-gradient);}.cls-24{fill:#bcbec0;}.cls-25{fill:none;}.cls-26{fill:#dcabff;}.cls-27,.cls-29,.cls-30,.cls-31{isolation:isolate;}.cls-27,.cls-30{font-size:7.1px;}.cls-27,.cls-30,.cls-31{font-family:Roboto-Bold, Roboto;font-weight:700;}.cls-27{letter-spacing:0.1em;}.cls-28{fill:#e0e9ff;}.cls-30{letter-spacing:0.09em;}.cls-31{font-size:7.99px;letter-spacing:0.1em;}</style><linearGradient id="linear-gradient" x1="779.27" y1="198.46" x2="826.64" y2="198.46" gradientTransform="matrix(1, 0, 0, -1, 0, 758)" gradientUnits="userSpaceOnUse"><stop offset="0" stop-color="#fff"/><stop offset="1" stop-color="#b3b3b3" stop-opacity="0.1"/></linearGradient></defs><path class="cls-1" d="M608.45,313.33c.58-.28,1.17-.55,1.76-.81,18.17-7.76,37.61,4.36,56.27,4.2,17.22-.15,33.61-9,50.83-8.66,5.12.1,10.42,1.09,14.61,4.13,4.57,3.31,7.32,8.64,11.18,12.8,9,9.67,24.16,13.59,28.7,26.13,3.57,9.89-1.23,20.65-5,30.45-6.5,16.78-10.18,35.69-4.88,52.92,3.79,12.33,12,23.17,13.72,36,1.53,11.26-2.16,22.8-7.47,32.63-7.06,13.07-7,28-10.46,42.13-2.26,9.23-6.86,18.55-15.16,23.17-7.46,4.15-16.22,3.71-24.47,4.17-8.52.47-16.68.9-25.23-.09-14.44-1.68-28.62-5.17-43.14-6.19-26.47-1.87-52.8,4.57-79.3,5.94-14.62.75-30.12-.3-42.36-8.63-10.43-7.11-17.36-19-20-31.66s-1.25-25.94,2.52-38.28c4.6-15,12.76-29.73,11-45.38-1.09-9.81-6-18.66-8.8-28.1-3.85-13-3.55-27.46,2.18-39.65a43.19,43.19,0,0,1,15.43-17.83c7.65-5,16.26-3.88,24.63-7C576.65,347.47,588.11,323.33,608.45,313.33Z" transform="translate(-468.11 -183.62)"/><path class="cls-2" d="M746.71,427.34h-5.24a34.93,34.93,0,0,0-4-9.54l3.71-3.71a3.14,3.14,0,0,0,0-4.44h0L733.54,402a3.14,3.14,0,0,0-4.44,0h0l-3.71,3.7a35.11,35.11,0,0,0-9.54-3.95v-5.24a3.15,3.15,0,0,0-3.15-3.15h-10.8a3.15,3.15,0,0,0-3.15,3.15h0v5.24a35.11,35.11,0,0,0-9.54,3.95l-3.71-3.7a3.14,3.14,0,0,0-4.44,0h0l-7.63,7.63a3.15,3.15,0,0,0,0,4.45h0l3.7,3.71a35.24,35.24,0,0,0-4,9.54h-5.24a3.15,3.15,0,0,0-3.15,3.15h0v10.8a3.15,3.15,0,0,0,3.15,3.15h5.24a35,35,0,0,0,4,9.54l-3.7,3.71a3.15,3.15,0,0,0,0,4.45h0l7.63,7.64a3.13,3.13,0,0,0,4.44,0h0l3.71-3.71a34.49,34.49,0,0,0,9.54,3.95v5.24a3.15,3.15,0,0,0,3.15,3.15h10.8a3.15,3.15,0,0,0,3.15-3.15h0V470a34.49,34.49,0,0,0,9.54-3.95l3.71,3.71a3.13,3.13,0,0,0,4.44,0h0l7.64-7.64a3.14,3.14,0,0,0,0-4.44h0L737.47,454a34.67,34.67,0,0,0,4-9.54h5.24a3.15,3.15,0,0,0,3.15-3.15h0v-10.8a3.15,3.15,0,0,0-3.15-3.15Zm-39.37,29.84a21.29,21.29,0,1,1,21.3-21.29,21.28,21.28,0,0,1-21.3,21.29Z" transform="translate(-468.11 -183.62)"/><path class="cls-3" d="M636.46,417.87h-3.9a26,26,0,0,0-3-7.11l2.76-2.76a2.33,2.33,0,0,0,0-3.3v0L626.64,399a2.36,2.36,0,0,0-3.32,0l-2.76,2.76a26.5,26.5,0,0,0-7.11-2.94V394.9a2.36,2.36,0,0,0-2.35-2.34h-8a2.34,2.34,0,0,0-2.34,2.34h0v3.91a26.5,26.5,0,0,0-7.11,2.94L590.89,399a2.36,2.36,0,0,0-3.32,0l-5.69,5.69a2.36,2.36,0,0,0,0,3.32l2.76,2.76a25.87,25.87,0,0,0-2.94,7.11h-3.91a2.34,2.34,0,0,0-2.34,2.34h0v8a2.35,2.35,0,0,0,2.34,2.35h3.91a25.75,25.75,0,0,0,2.94,7.11l-2.76,2.76a2.36,2.36,0,0,0,0,3.32l5.69,5.69a2.36,2.36,0,0,0,3.32,0l2.76-2.77a25.59,25.59,0,0,0,7.11,2.95v3.9a2.35,2.35,0,0,0,2.34,2.35h8a2.35,2.35,0,0,0,2.35-2.35v-3.9a25.59,25.59,0,0,0,7.11-2.95l2.76,2.77a2.36,2.36,0,0,0,3.32,0l5.68-5.69a2.33,2.33,0,0,0,0-3.3v0l-2.76-2.76a25.77,25.77,0,0,0,3-7.11h3.9a2.35,2.35,0,0,0,2.35-2.35v-8A2.36,2.36,0,0,0,636.46,417.87ZM607.11,440.1A15.87,15.87,0,1,1,623,424.23h0A15.87,15.87,0,0,1,607.11,440.1Z" transform="translate(-468.11 -183.62)"/><path class="cls-4" d="M569,470.49c-.33-1-.68-1.95-1-2.89Z" transform="translate(-468.11 -183.62)"/><path class="cls-4" d="M567.93,476.1v-8.49a67.38,67.38,0,0,0-6-11.75c-2.19,2.32-2.9,9.53-2.9,9.53.2-7.45,1-9.68,1.08-12.12-3.23-4.2-8.14-6.47-12-9,1.56,8.85,1.44,11.08,1.44,11.08-.51-5.3-2.25-9-3.13-12.12-9.9-5.83-15-4.3-15-4.3.09,3.74,1.31,12,1.68,15.23a89.41,89.41,0,0,0,10,7.08,47.21,47.21,0,0,1-9.73-5.09,26.4,26.4,0,0,0,1.77,7.54c4.17,3.8,12.62,8.16,12.62,8.16-3.67-.89-8.79-3.65-11.59-5.27a50.34,50.34,0,0,0,9.57,15.64,91.47,91.47,0,0,0,8.94,3.35,34.28,34.28,0,0,1-7.22-1.47c4.63,4.84,10.07,9.15,16.1,14l6.09,2.47,1.91-9.1A48.34,48.34,0,0,0,569,470.61Z" transform="translate(-468.11 -183.62)"/><path class="cls-5" d="M563.11,484.87c1.15,2.16,2.26,4.36,3.24,6.63a39.66,39.66,0,0,1,2.41,7h-.11a39,39,0,0,0-2.59-6.92c-1-2.21-2.2-4.36-3.41-6.47-2.41-4.24-5-8.34-7.61-12.43s-5.32-8.11-7.76-12.34c-1.23-2.12-2.43-4.25-3.55-6.43s-2.2-4.4-3.15-6.69l.09-.06c2.43,4.24,5,8.38,7.52,12.5s5,8.31,7.57,12.47S560.78,480.55,563.11,484.87Z" transform="translate(-468.11 -183.62)"/><path class="cls-3" d="M555.17,498.66c.07-9,.65-12.76,0-15.72A49.78,49.78,0,0,0,539,475.1c4.58,10.06,3.45,17.18,3.45,17.18-.25-7.29-3.78-14.33-5.8-17.79a69,69,0,0,0-25.7-1.06c1.26,4.47,2.61,8.53,4,12.24a106.2,106.2,0,0,0,14.21,4.74c-3.91,0-9.35-1.33-13.26-2.44a84.14,84.14,0,0,0,7.1,13.85c6.18,3,17.68,5,17.68,5-4.68.31-11.7-1.07-15.56-1.95a58.29,58.29,0,0,0,16.3,15.23,113.3,113.3,0,0,0,11.79.65,42.58,42.58,0,0,1-9.14,1c7.05,4.08,14.92,7.2,23.64,10.73l8.09.68-.49-11.67c-2.24-17.5-8.89-28.82-17.11-36.11C556.22,489,555.17,498.66,555.17,498.66Z" transform="translate(-468.11 -183.62)"/><path class="cls-6" d="M574,531.1a46.2,46.2,0,0,0-5.24-7.34c-1.94-2.27-4-4.41-6.09-6.5-4.19-4.18-8.57-8.13-13-12.07s-8.88-7.75-13.11-11.92c-2.12-2.08-4.22-4.19-6.25-6.39s-4-4.46-5.83-6.85l.09-.11c4.22,4.18,8.53,8.21,12.87,12.2s8.61,8.08,12.93,12.13,8.61,8.14,12.72,12.45c2,2.17,4,4.4,5.93,6.75a47.38,47.38,0,0,1,5.14,7.65Z" transform="translate(-468.11 -183.62)"/><path class="cls-3" d="M731.76,498.86c.69-.6,1.36-1.21,2-1.83Z" transform="translate(-468.11 -183.62)"/><path class="cls-3" d="M726.8,499.58l7-2.58a53.78,53.78,0,0,0,7.48-9c-2.7-1.3-8.88.26-8.88.26,6.19-2.09,8.31-2,10.34-2.72,2.28-4.23,2.36-9.43,3-13.75-6.71,4.13-8.58,4.71-8.58,4.71,4.16-2.09,6.54-4.81,8.81-6.57,1.19-10.85-1.93-15.07-1.93-15.07-3,1.23-9.4,4.89-11.9,6.21A88.9,88.9,0,0,0,730,472.36a48.79,48.79,0,0,1,.64-10.45,20.94,20.94,0,0,0-5.54,3.92c-1.61,5-2.11,14.05-2.11,14.05-.6-3.63-.2-9.17.11-12.22a42.73,42.73,0,0,0-9.36,13.55c0,4.55.5,9.21.5,9.21a38.39,38.39,0,0,1-1.41-7.06c-2.3,5.71-3.85,12-5.63,19l.19,6.34,8.16-1A37.53,37.53,0,0,0,731.72,499Z" transform="translate(-468.11 -183.62)"/><path class="cls-6" d="M717.82,497.87c-1.36,1.71-2.77,3.39-4.27,5a29.93,29.93,0,0,1-4.91,4.36l-.06-.09a30,30,0,0,0,4.73-4.49c1.44-1.63,2.78-3.35,4.08-5.1,2.6-3.5,5-7.13,7.43-10.77s4.73-7.35,7.31-10.88c1.29-1.77,2.61-3.52,4-5.22s2.81-3.36,4.34-4.93l.08.07c-2.59,3.52-5.07,7.1-7.52,10.7s-5,7.16-7.48,10.75S720.52,494.42,717.82,497.87Z" transform="translate(-468.11 -183.62)"/><path class="cls-7" d="M720.52,484.33c-.31.58-.65,1.16-1,1.73Zm-1,1.78A27.75,27.75,0,0,1,710,495.8l-5.55,2.52-1.51-4.44a112.21,112.21,0,0,1-.18-14.67,26.85,26.85,0,0,0,2.55,4.68s-1.38-3.18-2.37-6.4a31.56,31.56,0,0,1,3.65-11.62,40.77,40.77,0,0,0,2.6,8.66s-1.63-6.52-1.58-10.4a15.48,15.48,0,0,1,3.06-4,36.62,36.62,0,0,0,1.83,7.53,64.75,64.75,0,0,1-.92-8.46c1.48-1.48,5.18-5.46,7.06-7,0,0,3.12,2.3,4.66,10.23-1.22,1.75-2.31,4.19-4.8,6.58,0,0,1.2-.82,5-5.21.5,3.2,1.58,6.89.89,10.38-1.29.92-2.8,1.35-6.72,4.19,0,0,4-2.46,6.23-2.13a40.52,40.52,0,0,1-3.31,8l-4.38,3.35Zm-6.91-6.89c1-3.09,2-6.15,2.94-9.24s1.91-6.16,3-9.21h-.07c-.74,1.44-1.4,2.93-2,4.43s-1.15,3-1.67,4.56c-1.06,3.07-1.88,6.2-2.8,9.3s-1.83,6.19-2.9,9.24c-.53,1.52-1.11,3-1.77,4.5A22.84,22.84,0,0,1,705,497l.06.05a23.17,23.17,0,0,0,2.52-4.16c.71-1.46,1.34-2.95,1.92-4.46,1.11-3.06,2.11-6.14,3.1-9.22Z" transform="translate(-468.11 -183.62)"/><path class="cls-4" d="M724.88,517c5.94,1.92,8.31,3.14,10.43,3.28a40.43,40.43,0,0,0,9-10.33c-7.74,1.28-12.2-1-12.2-1,4.89,1.34,10.38.21,13.14-.56a59.17,59.17,0,0,0,6.67-18.73,88.93,88.93,0,0,0-9,.42,90.06,90.06,0,0,0-6.44,9.46,48.36,48.36,0,0,1,4.7-9.27,57.15,57.15,0,0,0-10.83,2.35c-3.43,3.92-7.45,12-7.45,12,.88-3.52,3.42-8.4,4.9-11.06a43.77,43.77,0,0,0-13.86,8.85c-1.79,4.13-3.16,8.55-3.16,8.55a38.18,38.18,0,0,1,1.48-6.93c-4.34,4.34-8.23,9.49-12.6,15.19L697.34,525l7.85,2.08c12.12,2,21.17-.54,27.91-5.09C731.11,519.76,724.88,517,724.88,517Z" transform="translate(-468.11 -183.62)"/><path class="cls-8" d="M699,524a31.33,31.33,0,0,0,6.13-2.33c2-1,3.86-2,5.73-3.13,3.74-2.22,7.38-4.62,11-7s7.2-4.93,10.95-7.19c1.87-1.13,3.75-2.23,5.68-3.27s3.89-2,5.9-2.87v.1c-3.75,2.23-7.42,4.57-11.07,6.94s-7.37,4.66-11,7-7.39,4.65-11.21,6.78c-1.91,1.06-3.86,2.07-5.85,3a32.2,32.2,0,0,1-6.18,2Z" transform="translate(-468.11 -183.62)"/><path class="cls-9" d="M582.56,436.36H700.21a14,14,0,0,1,14,14.05V528.1H568.51V450.41A14,14,0,0,1,582.56,436.36Z" transform="translate(-468.11 -183.62)"/><rect class="cls-2" x="107.32" y="259.45" width="131.91" height="77.07"/><polygon class="cls-3" points="272.89 367.05 73.66 367.05 100.4 344.43 246.15 344.43 272.89 367.05"/><path class="cls-9" d="M541.77,550.67H741a8.6,8.6,0,0,1-8.6,8.6h-182a8.6,8.6,0,0,1-8.6-8.6h0Z" transform="translate(-468.11 -183.62)"/><path class="cls-5" d="M587.49,534.17h-8.07a.27.27,0,0,1-.27-.28.32.32,0,0,1,.08-.2l2.52-2.38a.33.33,0,0,1,.19-.08h7.71a.29.29,0,0,1,.27.29.24.24,0,0,1-.07.18l-2.15,2.4A.27.27,0,0,1,587.49,534.17Z" transform="translate(-468.11 -183.62)"/><path class="cls-5" d="M600.26,534.17h-8.15a.28.28,0,0,1-.22-.45l2-2.39a.37.37,0,0,1,.22-.1h7.78a.29.29,0,0,1,.28.28.28.28,0,0,1,0,.16l-1.63,2.43A.25.25,0,0,1,600.26,534.17Z" transform="translate(-468.11 -183.62)"/><path class="cls-5" d="M613,534.17h-8.21a.27.27,0,0,1-.28-.28.37.37,0,0,1,0-.14l1.48-2.39a.28.28,0,0,1,.24-.13h7.81a.3.3,0,0,1,.28.29.2.2,0,0,1,0,.11L613.24,534A.26.26,0,0,1,613,534.17Z" transform="translate(-468.11 -183.62)"/><path class="cls-5" d="M625.79,534.17h-8.26a.27.27,0,0,1-.28-.28.44.44,0,0,1,0-.1l1-2.38a.27.27,0,0,1,.26-.18h7.9a.27.27,0,0,1,.27.27.19.19,0,0,1,0,.08L626.1,534A.28.28,0,0,1,625.79,534.17Z" transform="translate(-468.11 -183.62)"/><path class="cls-5" d="M638.53,534.17h-8.28a.28.28,0,0,1-.29-.27s0,0,0-.06l.44-2.38a.3.3,0,0,1,.28-.23h7.92a.29.29,0,0,1,.28.28h0l-.08,2.38A.28.28,0,0,1,638.53,534.17Z" transform="translate(-468.11 -183.62)"/><path class="cls-5" d="M651.26,534.17H643a.27.27,0,0,1-.28-.27l-.08-2.38a.28.28,0,0,1,.27-.29h7.93a.3.3,0,0,1,.28.23l.44,2.38a.28.28,0,0,1-.23.33Z" transform="translate(-468.11 -183.62)"/><path class="cls-5" d="M664,534.17h-8.26a.27.27,0,0,1-.27-.21l-.6-2.38a.28.28,0,0,1,.2-.34h8a.27.27,0,0,1,.26.18l1,2.38a.28.28,0,0,1-.16.37A.22.22,0,0,1,664,534.17Z" transform="translate(-468.11 -183.62)"/><path class="cls-5" d="M676.69,534.17h-8.21a.25.25,0,0,1-.25-.16l-1.12-2.38a.27.27,0,0,1,.13-.37l.12,0h7.85a.28.28,0,0,1,.24.13l1.48,2.39a.29.29,0,0,1-.1.39A.32.32,0,0,1,676.69,534.17Z" transform="translate(-468.11 -183.62)"/><path class="cls-5" d="M689.39,534.17h-8.14a.25.25,0,0,1-.23-.12l-1.64-2.38a.28.28,0,0,1,.07-.39.3.3,0,0,1,.16,0h7.78a.37.37,0,0,1,.22.1l2,2.39a.27.27,0,0,1-.22.45Z" transform="translate(-468.11 -183.62)"/><path class="cls-5" d="M702.11,534.17H694a.27.27,0,0,1-.21-.09l-2.15-2.38a.26.26,0,0,1,0-.39.3.3,0,0,1,.18-.08h7.71a.33.33,0,0,1,.19.08l2.52,2.38a.28.28,0,0,1,0,.4A.27.27,0,0,1,702.11,534.17Z" transform="translate(-468.11 -183.62)"/><path class="cls-5" d="M583.46,538.62h-8.74a.27.27,0,0,1-.28-.26.29.29,0,0,1,.09-.21l3-2.84a.32.32,0,0,1,.19-.07H586a.3.3,0,0,1,.28.29.33.33,0,0,1-.07.17l-2.56,2.83A.27.27,0,0,1,583.46,538.62Z" transform="translate(-468.11 -183.62)"/><path class="cls-5" d="M597.2,538.62h-8.82a.27.27,0,0,1-.28-.26.28.28,0,0,1,.07-.19l2.38-2.83a.28.28,0,0,1,.21-.1h8.35a.29.29,0,0,1,.27.29.23.23,0,0,1,0,.14l-2,2.83A.22.22,0,0,1,597.2,538.62Z" transform="translate(-468.11 -183.62)"/><path class="cls-5" d="M610.94,538.62h-8.89a.27.27,0,0,1-.28-.26.3.3,0,0,1,.05-.16l1.76-2.83a.34.34,0,0,1,.23-.13h8.46a.28.28,0,0,1,.28.27.27.27,0,0,1,0,.12l-1.33,2.83A.25.25,0,0,1,610.94,538.62Z" transform="translate(-468.11 -183.62)"/><path class="cls-5" d="M578.77,543.81h-9.53a.27.27,0,0,1-.27-.28.32.32,0,0,1,.08-.2l3.59-3.4a.4.4,0,0,1,.19-.07h9a.3.3,0,0,1,.28.29.33.33,0,0,1-.07.17l-3.08,3.4A.25.25,0,0,1,578.77,543.81Z" transform="translate(-468.11 -183.62)"/><path class="cls-5" d="M593.64,543.81H584a.28.28,0,0,1-.29-.27.34.34,0,0,1,.07-.19l2.85-3.39a.28.28,0,0,1,.21-.1H596a.27.27,0,0,1,.28.26.26.26,0,0,1,0,.17l-2.33,3.4A.27.27,0,0,1,593.64,543.81Z" transform="translate(-468.11 -183.62)"/><path class="cls-5" d="M608.51,543.81h-9.67a.27.27,0,0,1-.28-.27.29.29,0,0,1,0-.16l2.11-3.39a.34.34,0,0,1,.23-.13h9.17a.28.28,0,0,1,.28.27.27.27,0,0,1,0,.12l-1.59,3.4A.26.26,0,0,1,608.51,543.81Z" transform="translate(-468.11 -183.62)"/><path class="cls-5" d="M624.67,538.62h-8.94a.28.28,0,0,1-.25-.38l1.14-2.83a.27.27,0,0,1,.25-.17h8.51a.3.3,0,0,1,.28.29.43.43,0,0,1,0,.05l-.71,2.83A.26.26,0,0,1,624.67,538.62Z" transform="translate(-468.11 -183.62)"/><path class="cls-5" d="M667.86,543.81H613.65a.27.27,0,0,1-.28-.28.44.44,0,0,1,0-.1l1.37-3.4a.27.27,0,0,1,.25-.17H666.5a.27.27,0,0,1,.25.17l1.37,3.4a.3.3,0,0,1-.16.37Z" transform="translate(-468.11 -183.62)"/><path class="cls-5" d="M638.38,538.62h-9a.27.27,0,0,1-.28-.26s0,0,0-.06l.52-2.84a.29.29,0,0,1,.28-.22h8.53a.28.28,0,0,1,.27.27h0l-.09,2.84A.26.26,0,0,1,638.38,538.62Z" transform="translate(-468.11 -183.62)"/><path class="cls-5" d="M652.11,538.62h-9a.27.27,0,0,1-.28-.26h0l-.1-2.84a.28.28,0,0,1,.28-.28h8.53a.29.29,0,0,1,.28.22l.52,2.84a.27.27,0,0,1-.21.32Z" transform="translate(-468.11 -183.62)"/><path class="cls-5" d="M665.78,538.62h-8.94a.26.26,0,0,1-.27-.21l-.71-2.83a.28.28,0,0,1,.21-.33h8.56a.29.29,0,0,1,.26.17l1.14,2.83a.27.27,0,0,1-.14.36A.14.14,0,0,1,665.78,538.62Z" transform="translate(-468.11 -183.62)"/><path class="cls-5" d="M679.45,538.62h-8.88a.25.25,0,0,1-.25-.16L669,535.63a.27.27,0,0,1,.12-.36.31.31,0,0,1,.13,0h8.46a.34.34,0,0,1,.23.13l1.76,2.83a.28.28,0,0,1-.07.38A.25.25,0,0,1,679.45,538.62Z" transform="translate(-468.11 -183.62)"/><path class="cls-5" d="M693.11,538.62h-8.8a.25.25,0,0,1-.23-.12l-2-2.83a.26.26,0,0,1,.06-.37.27.27,0,0,1,.17-.06h8.39a.28.28,0,0,1,.21.1l2.38,2.83a.28.28,0,0,1,0,.39A.23.23,0,0,1,693.11,538.62Z" transform="translate(-468.11 -183.62)"/><path class="cls-5" d="M695.62,541.6h-9.27a.27.27,0,0,1-.23-.12l-.81-1.19a.26.26,0,0,1,.06-.37.23.23,0,0,1,.16-.06h9.1a.28.28,0,0,1,.21.1l1,1.18a.29.29,0,0,1,0,.4A.27.27,0,0,1,695.62,541.6Z" transform="translate(-468.11 -183.62)"/><path class="cls-5" d="M697.47,543.81h-9.6a.27.27,0,0,1-.23-.12l-.91-1.32a.28.28,0,0,1,.07-.39.3.3,0,0,1,.16-.05h9.4a.37.37,0,0,1,.22.1l1.11,1.32a.29.29,0,0,1,0,.4A.27.27,0,0,1,697.47,543.81Z" transform="translate(-468.11 -183.62)"/><path class="cls-5" d="M712.27,543.81h-9.53a.22.22,0,0,1-.2-.09l-1.2-1.32a.26.26,0,0,1,0-.39.27.27,0,0,1,.19-.08h9.32a.33.33,0,0,1,.19.08l1.4,1.32a.28.28,0,0,1,0,.4A.27.27,0,0,1,712.27,543.81Z" transform="translate(-468.11 -183.62)"/><path class="cls-5" d="M682.67,543.81H673a.25.25,0,0,1-.25-.16l-.62-1.32a.27.27,0,0,1,.13-.37l.12,0h9.47a.28.28,0,0,1,.24.13l.82,1.32a.29.29,0,0,1-.09.39A.2.2,0,0,1,682.67,543.81Z" transform="translate(-468.11 -183.62)"/><path class="cls-5" d="M706.79,538.62h-8.74a.27.27,0,0,1-.21-.09l-2.56-2.83a.26.26,0,0,1,0-.38.32.32,0,0,1,.21-.08h8.31a.32.32,0,0,1,.19.07l3,2.84a.28.28,0,0,1,0,.39A.27.27,0,0,1,706.79,538.62Z" transform="translate(-468.11 -183.62)"/><polygon class="cls-10" points="0 143.4 28.88 165.07 20.59 175.34 0 143.4"/><polygon class="cls-11" points="0 143.4 22.27 165.42 20.59 175.34 0 143.4"/><polygon class="cls-12" points="0 143.4 39.92 162.44 28.88 165.07 0 143.4"/><polygon class="cls-12" points="0 143.4 22.27 165.42 8.84 167.6 0 143.4"/><path class="cls-2" d="M594.39,415.61a.31.31,0,0,1-.16-.06c-.89-.51-1.78-1.06-2.64-1.64a.56.56,0,0,1-.15-.78.57.57,0,0,1,.79-.15h0c.83.56,1.69,1.1,2.55,1.58a.57.57,0,0,1,.19.79.56.56,0,0,1-.58.26Zm-5.94-4.19a.49.49,0,0,1-.25-.12,37.88,37.88,0,0,1-3.1-3,.55.55,0,0,1,.12-.79.57.57,0,0,1,.7,0,37,37,0,0,0,3,2.88.57.57,0,0,1,.16.78.56.56,0,0,1-.64.22Zm-5.8-6.12a.52.52,0,0,1-.33-.21c-.86-1.09-1.7-2.26-2.49-3.47a.56.56,0,0,1,.94-.62h0c.78,1.18,1.6,2.33,2.43,3.4a.57.57,0,0,1-.08.79A.54.54,0,0,1,582.65,405.3ZM578,398.24a.54.54,0,0,1-.38-.28c-.67-1.21-1.32-2.49-1.93-3.8a.57.57,0,0,1,1-.47c.59,1.28,1.23,2.54,1.89,3.73a.55.55,0,0,1-.22.76A.46.46,0,0,1,578,398.24ZM533.8,382.67h0c-1.39-.31-2.78-.65-4.13-1a.55.55,0,0,1-.39-.68h0a.58.58,0,0,1,.69-.4c1.33.37,2.7.7,4.08,1a.58.58,0,0,1,.42.68.55.55,0,0,1-.66.42Zm4.14.84a.56.56,0,0,1,.22-1.1h0c1.36.24,2.75.47,4.15.67a.56.56,0,0,1,.47.64.54.54,0,0,1-.63.47h0c-1.41-.2-2.82-.43-4.2-.67Zm36.5,7.08a.54.54,0,0,1-.41-.35c-.51-1.3-1-2.65-1.44-4a.58.58,0,0,1,.36-.71.55.55,0,0,1,.7.34v0c.44,1.33.92,2.66,1.42,3.94a.57.57,0,0,1-.32.73A.44.44,0,0,1,574.44,390.59Zm-48.8-10.13h-.06c-1.36-.44-2.71-.92-4-1.41a.57.57,0,0,1-.32-.73.55.55,0,0,1,.7-.33h0c1.27.49,2.6.95,4,1.39a.57.57,0,0,1,.4.69.56.56,0,0,1-.69.4Zm20.67,4.24a.57.57,0,0,1,.17-1.12l1.64.16c.84.07,1.7.13,2.53.17a.57.57,0,0,1,.54.58h0a.56.56,0,0,1-.57.54h0c-.86,0-1.73-.09-2.59-.17l-1.66-.16Zm8.43.36a.56.56,0,0,1-.41-.69.58.58,0,0,1,.51-.43,41.5,41.5,0,0,0,4.17-.27.57.57,0,0,1,.62.5h0a.56.56,0,0,1-.5.62c-1.41.15-2.84.24-4.26.28Zm-37-7.63h-.12c-1.31-.59-2.6-1.23-3.82-1.88a.55.55,0,0,1-.23-.75h0a.56.56,0,0,1,.74-.24h0c1.2.64,2.47,1.26,3.76,1.84a.57.57,0,0,1,.28.75.56.56,0,0,1-.61.28Zm-7.43-4a.36.36,0,0,1-.19-.08c-1.22-.77-2.4-1.59-3.51-2.43a.56.56,0,0,1-.12-.78h0a.58.58,0,0,1,.79-.1c1.08.82,2.24,1.62,3.43,2.37a.58.58,0,0,1,.17.78.53.53,0,0,1-.56.26Zm52.8,10.75a.57.57,0,0,1-.45-.65.58.58,0,0,1,.45-.45c1.37-.25,2.74-.56,4.07-.91a.56.56,0,1,1,.29,1.09c-1.36.36-2.76.67-4.16.93A.44.44,0,0,1,563.11,384.18Zm8.69-1.61a.57.57,0,0,1-.44-.41V382a.54.54,0,0,1-.48-.37.59.59,0,0,1,.22-.66c-.25-1-.48-2-.67-3a.56.56,0,1,1,1.1-.22h0c.19.92.4,1.86.63,2.81,1-.37,2-.78,3-1.21a.56.56,0,0,1,.73.27v0a.55.55,0,0,1-.28.74c-1,.46-2.08.89-3.13,1.28v.17a.56.56,0,0,1-.4.69.5.5,0,0,1-.27,0Zm-68.19-14.24a.43.43,0,0,1-.26-.13,41.13,41.13,0,0,1-3-3.05.56.56,0,0,1,0-.79h0a.59.59,0,0,1,.79,0,36,36,0,0,0,2.92,3,.56.56,0,0,1,0,.79A.51.51,0,0,1,503.61,368.33ZM498,362a.51.51,0,0,1-.35-.22,36.86,36.86,0,0,1-2.25-3.65.56.56,0,0,1,.21-.76h0a.58.58,0,0,1,.76.23,34.09,34.09,0,0,0,2.18,3.5.56.56,0,0,1-.13.78A.51.51,0,0,1,498,362Zm81,16.57a.54.54,0,0,1-.38-.28.57.57,0,0,1,.22-.77c1.22-.66,2.42-1.39,3.58-2.15a.56.56,0,0,1,.62.94c-1.19.78-2.42,1.52-3.66,2.2a.49.49,0,0,1-.42.06Zm-8.82-4.3a.54.54,0,0,1-.45-.48c-.18-1.43-.3-2.87-.36-4.25a.57.57,0,0,1,1.13-.05c.05,1.36.17,2.76.35,4.16a.56.56,0,0,1-.48.63h0a.33.33,0,0,1-.22,0Zm15.86-.35a.5.5,0,0,1-.33-.2.56.56,0,0,1,.09-.78h0c1.08-.85,2.15-1.76,3.18-2.71a.56.56,0,0,1,.76.83,35.73,35.73,0,0,1-3.25,2.77.51.51,0,0,1-.5.1Zm-16.2-8.08a.55.55,0,0,1-.45-.58q.12-2.13.45-4.26a.58.58,0,0,1,.65-.46.54.54,0,0,1,.47.59.43.43,0,0,1,0,.05,38.73,38.73,0,0,0-.43,4.14.56.56,0,0,1-.59.53h-.09Zm22.4,2.37a.59.59,0,0,1-.27-.14.57.57,0,0,1,0-.8c.94-1,1.85-2.08,2.72-3.18a.56.56,0,0,1,.88.7c-.88,1.12-1.81,2.21-2.77,3.25a.57.57,0,0,1-.6.17Zm-21-10.69h0a.55.55,0,0,1-.39-.68h0l.05-.17a28.68,28.68,0,0,1,1.43-3.88.57.57,0,0,1,1,.47A27.71,27.71,0,0,0,572,357v.16a.55.55,0,0,1-.63.46.44.44,0,0,1-.19-.07Zm26.27,4.06a.54.54,0,0,1-.44-.63.5.5,0,0,1,.09-.23c.77-1.15,1.51-2.35,2.2-3.56a.58.58,0,0,1,.77-.21.56.56,0,0,1,.21.77h0c-.7,1.24-1.46,2.46-2.25,3.63a.53.53,0,0,1-.66.23Zm-22.84-11.75a.42.42,0,0,1-.18-.08.54.54,0,0,1-.19-.76h0a31.8,31.8,0,0,1,2.5-3.5.59.59,0,0,1,.8-.08.57.57,0,0,1,.07.8,31.79,31.79,0,0,0-2.41,3.37.55.55,0,0,1-.67.26Zm27,4.42h-.13a.56.56,0,0,1-.27-.75l.3-.63a15,15,0,0,0,1.09-3.21.57.57,0,0,1,.67-.43h0a.56.56,0,0,1,.42.67,15.86,15.86,0,0,1-1.17,3.44l-.3.65a.54.54,0,0,1-.66.26ZM580,343.34a.51.51,0,0,1-.3-.17.57.57,0,0,1,0-.8,25.68,25.68,0,0,1,3.42-2.63.56.56,0,0,1,.77.18.55.55,0,0,1-.17.77h0a26.51,26.51,0,0,0-3.27,2.51.54.54,0,0,1-.5.14Zm23.37,2.76a.54.54,0,0,1-.45-.5,9.21,9.21,0,0,0-1.1-3.79.57.57,0,0,1,.22-.78.58.58,0,0,1,.78.22,10.34,10.34,0,0,1,1.25,4.26.56.56,0,0,1-.52.6h0A.23.23,0,0,1,603.41,346.1Zm-16.3-7.26a.53.53,0,0,1-.41-.34.56.56,0,0,1,.31-.72h0a19.49,19.49,0,0,1,4.19-1.12.58.58,0,0,1,.58.56.57.57,0,0,1-.42.56,17.91,17.91,0,0,0-3.94,1.05A.44.44,0,0,1,587.11,338.84Zm12.24.24a.29.29,0,0,1-.18-.07,10,10,0,0,0-3.75-1.31.56.56,0,0,1-.48-.63.57.57,0,0,1,.64-.48,11.1,11.1,0,0,1,4.18,1.46.57.57,0,0,1,.18.77.55.55,0,0,1-.61.28Z" transform="translate(-468.11 -183.62)"/><rect class="cls-7" x="221.58" y="152.59" width="49.14" height="40.76" rx="20.05"/><path class="cls-13" d="M736.64,340.16l-13.37,13.36c-.23.23-.47.45-.71.66a12.72,12.72,0,0,1-16.6,0,7.4,7.4,0,0,1-.72-.66l-.94-.94-12.41-12.42a10,10,0,0,1,1.6-1.65L705.93,351l1,.94a6.22,6.22,0,0,0,.72.64,10.42,10.42,0,0,0,13.32,0,7.5,7.5,0,0,0,.73-.66l.94-.93L735,338.49A10.59,10.59,0,0,1,736.64,340.16Z" transform="translate(-468.11 -183.62)"/><path class="cls-13" d="M706.88,351.89a6.22,6.22,0,0,0,.72.64L706,354.18l-15.74,15.74a10.68,10.68,0,0,1-.51-2.75l14.59-14.59,1.63-1.63Z" transform="translate(-468.11 -183.62)"/><path class="cls-13" d="M738.81,367.17a10.68,10.68,0,0,1-.51,2.75l-15.74-15.74-1.64-1.63a7.5,7.5,0,0,0,.73-.66l.94-.93,1.63,1.62Z" transform="translate(-468.11 -183.62)"/><polygon class="cls-4" points="195.84 243.23 175.78 260.16 153.89 244.5 159.11 230.22 160.19 224.76 162.32 213.97 184.28 213.37 185.23 217.21 187.79 227.59 195.84 243.23"/><path class="cls-14" d="M653.34,400.83c-2.22,3.93-8.33,9.23-25,7.55l2.13-10.79,22-.6Z" transform="translate(-468.11 -183.62)"/><path class="cls-4" d="M662,369.31c0,18.94-9.14,34.3-20.4,34.3s-20.41-15.36-20.41-34.3,9.14-24.56,20.41-24.56S662,350.37,662,369.31Z" transform="translate(-468.11 -183.62)"/><path class="cls-14" d="M651.68,346.66s.07,10.95-9.81,11.91-18.86-5-21.14,7.94V354.92l11-6.43Z" transform="translate(-468.11 -183.62)"/><path class="cls-15" d="M664.11,353.1c1.85,6.47-3.07,35.35-5.85,41.21s-8.88,9.23-17.25,9.31c-10.68.09-14.29-5.18-16.45-8.26s-2.34-9-5.11-31.17S634.26,339,640.73,339s9.52-.1,10.75,4.21C660.74,342.73,662.3,346.63,664.11,353.1Zm-20.43,3.21c-5.9,2.74-16.34-2.8-20.33,1.69s-1.53,18.81-.22,24.82c.51,2.37,7.28.5,11.44,2.7-5.72,5.4,0,10,6.3,10,6,0,11.65-1.91,7.84-9.22,2.93-3.18,9.21-.16,10.48-2.86,1.83-3.88.81-22,.81-22-2.49-.75-8.23-7.73-8.23-13a17.14,17.14,0,0,1-8,7.86Z" transform="translate(-468.11 -183.62)"/><path class="cls-15" d="M634.61,368.1c0,1.61-.89,2.92-2,2.92s-2-1.31-2-2.92.9-2.93,2-2.93S634.61,366.45,634.61,368.1Z" transform="translate(-468.11 -183.62)"/><path class="cls-15" d="M651.68,368.1c0,1.61-.9,2.92-2,2.92s-2-1.31-2-2.92.89-2.93,2-2.93S651.68,366.45,651.68,368.1Z" transform="translate(-468.11 -183.62)"/><path class="cls-13" d="M635.48,388.24h11.75s-1.27,5.08-5.4,5.08A6.27,6.27,0,0,1,635.48,388.24Z" transform="translate(-468.11 -183.62)"/><path class="cls-14" d="M641.36,371s-7.5,12,0,12Z" transform="translate(-468.11 -183.62)"/><path class="cls-16" d="M618.21,369.91a19.47,19.47,0,0,1-.31-3.5c0-11.79,10.4-19.35,23.23-19.35s23.23,7.56,23.23,19.35a20.42,20.42,0,0,1-.31,3.5h2.66a16.61,16.61,0,0,0,1-6.56c-1.12-11.05-10.32-21.74-26.56-21.74-14.67,0-26.27,11.53-26.27,23.18a13.45,13.45,0,0,0,.69,5.12Z" transform="translate(-468.11 -183.62)"/><path class="cls-16" d="M619.25,382.7l-2.38.25a4.9,4.9,0,0,1-5.48-4.18l-1.28-11.41a4.77,4.77,0,0,1,4.28-5.21h.1l2.38-.26a2.64,2.64,0,0,1,2.93,2.24l1.84,15.78a2.57,2.57,0,0,1-2.32,2.8Z" transform="translate(-468.11 -183.62)"/><path class="cls-16" d="M663.46,382.7l2.39.25a4.89,4.89,0,0,0,5.47-4.18l1.33-11.41a4.77,4.77,0,0,0-4.28-5.21h-.1l-2.38-.26a2.65,2.65,0,0,0-2.93,2.24l-1.85,15.78a2.57,2.57,0,0,0,2.32,2.8Z" transform="translate(-468.11 -183.62)"/><path class="cls-15" d="M647.23,340.63s-1.59,5.22-10.79,5.24-12.05.79-12.05.79S631.17,339.38,647.23,340.63Z" transform="translate(-468.11 -183.62)"/><path class="cls-9" d="M676.11,458.74c-.63.2-1.19.4-1.68.58.29,2.68.62,9,1,14.83v.67c.1,1.62.2,3.21.3,4.66.17,2.65.35,4.87.54,6.13.54,3.09,1,6.3,1.33,9.29.88,7.58,1.2,13.88,1.2,13.88H606.44l.37-12.23.24-8.07.23-7.65.63-21.16a24.7,24.7,0,0,0-3.07-.67c-5.17-.9-14.29-1.87-17.78-2.23l-1.4-.14s7.83-32.72,12.65-37.9c8.76-5.51,17.86-7.66,29.87-10.36a14.26,14.26,0,0,0,1.48,8.44c5.38,9.39,23.17,7.72,25.55-2.84a15.45,15.45,0,0,0-.09-5.59s24.63,5.11,29.4,10.81c3.73,6.3,10.59,34.2,10.59,34.2l-1.79.47C689.68,454.83,681.05,457.1,676.11,458.74Z" transform="translate(-468.11 -183.62)"/><polygon class="cls-17" points="201.37 255.74 206.36 275.7 207.35 291.2 201.37 274.96 201.37 255.74"/><polygon class="cls-17" points="143.21 286.96 140.54 298.37 139.02 304.86 139.25 297.21 139.88 276.05 143.21 254.23 143.21 286.96"/><path class="cls-15" d="M596,522.3s-25.13,1.35-30.89,3.93S566,541.85,570,542.4c3,.41,27.88-2.11,31.4-5.75Z" transform="translate(-468.11 -183.62)"/><path class="cls-4" d="M596,522.3s-10.9,2.33-12.94,5-2.38,9.85-.87,10.15,3.41,2.67,19.21-.77Z" transform="translate(-468.11 -183.62)"/><path class="cls-18" d="M595.75,522.18l5.57,14.72,103.55-19c10.1-2.23,27.59-11.48,25.33-19.43-2.73-9.64-10.62-15.8-20.58-13Z" transform="translate(-468.11 -183.62)"/><path class="cls-4" d="M608.65,482l-1.29-1.16-6.64-6,4.2-15.82c-5.17-.9-14.29-1.87-17.78-2.23l-4,20.24a6.23,6.23,0,0,0,2.81,6.49l20.9,13.05,7.08,4.42,5.53-9.17Z" transform="translate(-468.11 -183.62)"/><path class="cls-4" d="M698.3,476.69l-4.9-22.83c-3.72,1-12.35,3.28-17.25,4.88l4.58,16.08-5,4.66L662.25,492.1l5.7,9.07,9.68-6.3,18-11.67A6.25,6.25,0,0,0,698.3,476.69Z" transform="translate(-468.11 -183.62)"/><path class="cls-19" d="M690,522l-5.37,14.8L577.48,517.93c-10.13-2.09-21.83-10.14-22-16.11-.25-8.25,11.7-18.79,21.7-16.14Z" transform="translate(-468.11 -183.62)"/><path class="cls-15" d="M690,522s26.46,1.75,32.32,4.1-2.09,14.48-6.09,15.19c-2.93.52-27.93-1-31.6-4.49Z" transform="translate(-468.11 -183.62)"/><path class="cls-4" d="M690,522s10.44,2.13,12.58,4.7,2.77,9.74,1.28,10.1-3.3,2.8-19.23,0Z" transform="translate(-468.11 -183.62)"/><path class="cls-20" d="M681,458.59l-5.52,43.51H605.41l-.82-6.49-4.7-37.05a4.9,4.9,0,0,1,4.89-4.91h71.33a4.91,4.91,0,0,1,4.93,4.87Z" transform="translate(-468.11 -183.62)"/><path class="cls-21" d="M606.09,502.13h68.74a2.06,2.06,0,0,1,2.06,2.06h0a2.06,2.06,0,0,1-2.06,2.06H606.09a2.06,2.06,0,0,1-2.06-2.06h0A2.06,2.06,0,0,1,606.09,502.13Z" transform="translate(-468.11 -183.62)"/><path class="cls-21" d="M640.46,472.34a6.57,6.57,0,0,0-1.25.15,4.34,4.34,0,0,1,0,.51,4.51,4.51,0,0,1-4.49,4.51v.56a5.73,5.73,0,1,0,5.73-5.73h0Z" transform="translate(-468.11 -183.62)"/><path class="cls-22" d="M538.51,392.46c-3.66,0-5.11,1.51-5.11,4.77,0,.3-.57.3-.57,0,0-3.26-1.16-4.77-5.11-4.77-.3,0-.3-.58,0-.58,4.07,0,5.11-1.88,5.11-4.76,0-.3.57-.3.57,0,0,3.43,1.39,4.76,5.11,4.76C538.81,391.88,538.81,392.46,538.51,392.46Z" transform="translate(-468.11 -183.62)"/><path class="cls-22" d="M566,367.5c-5.47,0-7.63,2.26-7.63,7.12,0,.45-.85.45-.85,0,0-4.86-1.73-7.12-7.63-7.12-.44,0-.44-.85,0-.85,6.08,0,7.63-2.82,7.63-7.12,0-.44.85-.44.85,0,0,5.12,2.07,7.12,7.63,7.12C566.42,366.65,566.42,367.5,566,367.5Z" transform="translate(-468.11 -183.62)"/><path class="cls-22" d="M560.89,420.21c-4.19,0-5.84,1.73-5.84,5.45,0,.34-.65.34-.65,0,0-3.72-1.33-5.45-5.84-5.45-.34,0-.34-.65,0-.65,4.65,0,5.84-2.16,5.84-5.44,0-.35.65-.35.65,0,0,3.91,1.58,5.44,5.84,5.44C561.23,419.56,561.23,420.21,560.89,420.21Z" transform="translate(-468.11 -183.62)"/><path class="cls-7" d="M880.7,422c0,.19-.07.4-.11.65s-.07.52-.1.81h-.24a8.63,8.63,0,0,1-2.32-.29,4.52,4.52,0,0,1-1.72-.87,3,3,0,0,1-1.19-2.44,3,3,0,0,1,.3-1.32,3.34,3.34,0,0,1,.84-1,4.84,4.84,0,0,1,1.75-.89,7.94,7.94,0,0,1,2.22-.31h.25a3.6,3.6,0,0,0,.07.63c0,.26.07.54.12.83h-.25a7.74,7.74,0,0,0-1.07.1,4.14,4.14,0,0,0-1.08.3,2.62,2.62,0,0,0-1,.71,1.49,1.49,0,0,0-.36,1,1.6,1.6,0,0,0,.34,1,2.58,2.58,0,0,0,1,.71,4.05,4.05,0,0,0,1.13.32,6.56,6.56,0,0,0,1.08.09h.35Z" transform="translate(-468.11 -183.62)"/><path class="cls-7" d="M880.55,431.33a3,3,0,0,1-.23,1.16,2.65,2.65,0,0,1-.69,1,2.45,2.45,0,0,1-.86.52,3.17,3.17,0,0,1-1.06.16,3.11,3.11,0,0,1-1.05-.16,2.57,2.57,0,0,1-1.55-1.46,3.1,3.1,0,0,1,0-2.3,2.65,2.65,0,0,1,.63-.92,2.7,2.7,0,0,1,.9-.59,3.25,3.25,0,0,1,1.11-.2,3.37,3.37,0,0,1,1.09.18,2.65,2.65,0,0,1,.89.55,2.58,2.58,0,0,1,.64.93A2.93,2.93,0,0,1,880.55,431.33Zm-1.59,0a2.58,2.58,0,0,0-.11-.73,1.45,1.45,0,0,0-.37-.59.87.87,0,0,0-.35-.22,1,1,0,0,0-.42-.08,1,1,0,0,0-.45.08,1.07,1.07,0,0,0-.37.27,1.37,1.37,0,0,0-.32.56,2.44,2.44,0,0,0,0,1.45,1.37,1.37,0,0,0,.38.59.77.77,0,0,0,.34.22,1.23,1.23,0,0,0,.42.07,1.11,1.11,0,0,0,.44-.08,1,1,0,0,0,.36-.24,1.56,1.56,0,0,0,.34-.6,2.47,2.47,0,0,0,.11-.67Z" transform="translate(-468.11 -183.62)"/><path class="cls-7" d="M880.32,444.68h-1.61v-3.26a1.2,1.2,0,0,0-.16-.69.64.64,0,0,0-.55-.22,1.74,1.74,0,0,0-.59.13,5.86,5.86,0,0,0-.67.32v3.73h-1.6v-5.33h1.57v.5h0a6.55,6.55,0,0,1,1-.46,3.2,3.2,0,0,1,1-.18,1.5,1.5,0,0,1,1.15.45,1.66,1.66,0,0,1,.42,1.19v2.94C880.3,444.26,880.32,444.57,880.32,444.68Z" transform="translate(-468.11 -183.62)"/><path class="cls-7" d="M879.8,454.24l-.15,1.15H879a3.14,3.14,0,0,1-1.91-.48,1.67,1.67,0,0,1-.65-1.44v-2.31h-.87V450h.91v-1.38H878V450h1.78v1.14H878v2a1,1,0,0,0,.32.84,1.78,1.78,0,0,0,1.19.28h.31Z" transform="translate(-468.11 -183.62)"/><path class="cls-7" d="M880,463.26V466l-.68,0c-.4,0-.82,0-1.26,0a8.26,8.26,0,0,1-1-.07,3.82,3.82,0,0,1-.94-.24,2,2,0,0,1-.75-.55,1.23,1.23,0,0,1-.27-.8,1.26,1.26,0,0,1,.29-.85,2.08,2.08,0,0,1,.91-.6,5.71,5.71,0,0,1,1-.24c.4-.06.77-.1,1.1-.12a1,1,0,0,0-.15-.47,1,1,0,0,0-.45-.28,3.73,3.73,0,0,0-.46-.09l-.6,0h-1l.14-1.19h1a6.07,6.07,0,0,1,1.47.15,2.31,2.31,0,0,1,1,.51,1.67,1.67,0,0,1,.54.77A3.39,3.39,0,0,1,880,463.26Zm-1.51,1v-.86a1.89,1.89,0,0,0-.54.07,2.7,2.7,0,0,0-.69.18,1,1,0,0,0-.38.26.62.62,0,0,0-.18.44.69.69,0,0,0,.15.46,1.18,1.18,0,0,0,.4.27,1.92,1.92,0,0,0,.4.09,4.22,4.22,0,0,0,.49,0h.35v-.95Z" transform="translate(-468.11 -183.62)"/><path class="cls-7" d="M880,475.5l-.16,1.26h-.29a6.27,6.27,0,0,1-1.56-.17,3.94,3.94,0,0,1-1.19-.47,2.58,2.58,0,0,1-.92-.88,2.36,2.36,0,0,1-.32-1.19,2.14,2.14,0,0,1,.31-1.15,2.53,2.53,0,0,1,.83-.83,3.93,3.93,0,0,1,1.25-.53,6.11,6.11,0,0,1,1.59-.18h.24l.14,1.27h-.2a4.85,4.85,0,0,0-.76.05,3,3,0,0,0-.73.16,1.7,1.7,0,0,0-.75.48,1.17,1.17,0,0,0,0,1.48,1.77,1.77,0,0,0,.71.47,3.16,3.16,0,0,0,.75.18,6.32,6.32,0,0,0,.75.06H880Z" transform="translate(-468.11 -183.62)"/><path class="cls-7" d="M879.8,486.28l-.15,1.15H879a3.21,3.21,0,0,1-1.91-.48,1.67,1.67,0,0,1-.65-1.44V483.2h-.87v-1.14h.91v-1.38H878v1.38h1.78v1.14H878v1.95a1,1,0,0,0,.32.85,1.78,1.78,0,0,0,1.19.28h.31Z" transform="translate(-468.11 -183.62)"/><path class="cls-7" d="M882.08,500.31c-.47,1.18-.89,2.26-1.24,3.25s-.55,1.58-.59,1.78h-1.4c0-.11-.14-.46-.34-1s-.44-1.32-.75-2.21h0c-.28.76-.53,1.46-.76,2.1s-.36,1-.4,1.15h-1.41c-.06-.21-.25-.78-.59-1.7s-.74-2-1.23-3.31l1.59-.43,1.1,3.51h0l1.13-3.32h1.13l1.08,3.32h0l1.11-3.5Z" transform="translate(-468.11 -183.62)"/><path class="cls-7" d="M878.54,509.85h-1.66v-1.22h1.66Zm0,6.16h-1.61v-5.32h1.61v4.44c0,.39,0,.75,0,.88Z" transform="translate(-468.11 -183.62)"/><path class="cls-7" d="M879.8,525.58l-.15,1.14H879a3.14,3.14,0,0,1-1.91-.48,1.67,1.67,0,0,1-.65-1.44v-2.31h-.87v-1.14h.91V520H878v1.39h1.78v1.14H878v2a1,1,0,0,0,.32.85,1.78,1.78,0,0,0,1.19.28h.31Z" transform="translate(-468.11 -183.62)"/><path class="cls-7" d="M880.32,537.37h-1.61V534.1a1.16,1.16,0,0,0-.17-.7.63.63,0,0,0-.54-.21,2,2,0,0,0-.59.12,3.89,3.89,0,0,0-.68.33v3.72h-1.61v-7.64h1.61v2.8h0a6.4,6.4,0,0,1,1-.45,3.39,3.39,0,0,1,1-.17,1.48,1.48,0,0,1,1.14.44,1.68,1.68,0,0,1,.43,1.19v2.88C880.3,536.84,880.31,537.18,880.32,537.37Z" transform="translate(-468.11 -183.62)"/><path class="cls-7" d="M882,552.89h-1.6v-3.27a1.17,1.17,0,0,0-.17-.71.65.65,0,0,0-.53-.19,1.6,1.6,0,0,0-.53.09,4.51,4.51,0,0,0-.63.29v3.79h-1.6v-3.24a2,2,0,0,0,0-.34.75.75,0,0,0-.09-.29.45.45,0,0,0-.2-.21.77.77,0,0,0-.37-.07,1.43,1.43,0,0,0-.54.13c-.21.09-.4.19-.6.3v3.74h-1.6v-5.35h1.57v.52h0a6.27,6.27,0,0,1,.86-.43,2.71,2.71,0,0,1,1-.23,1.69,1.69,0,0,1,.83.19,1.41,1.41,0,0,1,.53.5h0a4.83,4.83,0,0,1,1-.48,3.06,3.06,0,0,1,1-.21,1.53,1.53,0,0,1,1.18.45,1.58,1.58,0,0,1,.42,1.19v3C882,552.47,882,552.73,882,552.89Z" transform="translate(-468.11 -183.62)"/><path class="cls-7" d="M880.33,560.9h-3.62a1.4,1.4,0,0,0,.22.75,1.66,1.66,0,0,0,.68.55,2.59,2.59,0,0,0,.67.2,5,5,0,0,0,.77.06h1l-.16,1.14h-1a6.23,6.23,0,0,1-1.61-.2,3.26,3.26,0,0,1-1.19-.6,2.69,2.69,0,0,1-.68-.85,2.47,2.47,0,0,1-.25-1.11,2.83,2.83,0,0,1,.19-1.08,2.75,2.75,0,0,1,.59-.91,2.48,2.48,0,0,1,.87-.55,3.18,3.18,0,0,1,2.05,0,2.14,2.14,0,0,1,.76.48,2.37,2.37,0,0,1,.55.91A4.06,4.06,0,0,1,880.33,560.9Zm-1.5-.7a1.44,1.44,0,0,0-.32-.81,1,1,0,0,0-.73-.3,1,1,0,0,0-.76.3,1.47,1.47,0,0,0-.39.81Z" transform="translate(-468.11 -183.62)"/><path class="cls-23" d="M826.64,559.54c0,1.82-10.61,3.31-23.69,3.31s-23.68-1.49-23.68-3.31,10.6-3.31,23.68-3.31S826.64,557.71,826.64,559.54Z" transform="translate(-468.11 -183.62)"/><ellipse class="cls-3" cx="355.47" cy="350.92" rx="12.16" ry="1.78"/><path class="cls-24" d="M833.18,560.93c-4.8,1.45-12.24,1.35-17.46,0-1.24-.32-2.38-.91-2.63-2.16l-5-24.91h32.7l-5,24.91C835.56,560,834.4,560.56,833.18,560.93Z" transform="translate(-468.11 -183.62)"/><ellipse class="cls-16" cx="356.4" cy="350.24" rx="16.27" ry="2.38"/><path class="cls-21" d="M840.09,537.28a55,55,0,0,1-11.1,7.1,7.92,7.92,0,0,0-3,2.11,2.42,2.42,0,0,0,.29,3.33c.45.29,1.11.5,1.1,1a.94.94,0,0,1-.3.61c-1.1,1.26-2.77,1.86-4.06,2.94s-2.11,3.14-1,4.38a5,5,0,0,0,1.85,1.29c.92.35,1.12,1.91,1.48,1.91a25.49,25.49,0,0,0,7.86-1.05,2.68,2.68,0,0,0,2.63-2.16Z" transform="translate(-468.11 -183.62)"/><path class="cls-3" d="M819.32,441.77a23,23,0,0,1-.07-9.45c.54-3.26,2-6.34,5.23-5.74s4.24,4.37,4.42,7.11c.25,3.79-1,7.44-1.38,11.17-.72,6.42.89,12.25,1.52,14.9.13.56.3,1.18.63,2.42,2.06,7.78,3.15,10.13,3.82,13.11a26.9,26.9,0,0,1-.13,11.81c-1,4.3-7.87,19.67-9.2,35.43-.63-20.16-4.63-25.81-6-32.69a31,31,0,0,1-.89-8.53c.65-7.34,2.69-14.49,3.91-21.76S821.17,449.38,819.32,441.77Z" transform="translate(-468.11 -183.62)"/><path class="cls-3" d="M823.43,535h0a.43.43,0,0,1-.39-.46c3.11-36.2.62-98.28.6-98.91a.45.45,0,0,1,.5-.36.42.42,0,0,1,.35.36c0,.62,2.52,62.76-.6,99A.42.42,0,0,1,823.43,535Z" transform="translate(-468.11 -183.62)"/><path class="cls-3" d="M824.94,497.78h0a.43.43,0,0,1-.41-.44c.48-10.65,5.34-13.95,5.55-14.08a.43.43,0,0,1,.59.11h0a.42.42,0,0,1-.12.59h0s-4.71,3.24-5.16,13.4a.42.42,0,0,1-.44.41Z" transform="translate(-468.11 -183.62)"/><path class="cls-3" d="M825,490a.43.43,0,0,1-.43-.4c-.64-10.81-4.65-12.32-4.69-12.34a.42.42,0,0,1-.33-.5.43.43,0,0,1,.51-.34l.09,0c.18.06,4.59,1.61,5.27,13.1a.41.41,0,0,1-.38.45h0Z" transform="translate(-468.11 -183.62)"/><path class="cls-3" d="M825,476.79h0a.43.43,0,0,1-.39-.46h0c.81-8.37,3.46-10.81,3.57-10.91a.45.45,0,0,1,.61,0,.42.42,0,0,1,0,.6s-2.52,2.39-3.29,10.35a.42.42,0,0,1-.4.44Z" transform="translate(-468.11 -183.62)"/><path class="cls-3" d="M796.79,471.49c-.93-2.32-5-11.11-4.32-14.11,1.74.69,6.58,8.19,8.17,11.55a110.63,110.63,0,0,0,8.29,13.26c2.07,2.84,3.25,3.58,4.81,6.78,1.14,2.27,2.93,11.68,3,15.07.28,6.32-1.36,7.57.49,19.51-4-15-12.35-24-13.71-28.4-1.56-5.08-1.61-7.14-2.81-12.56S799.79,478.55,796.79,471.49Z" transform="translate(-468.11 -183.62)"/><path class="cls-3" d="M818.92,535.4a.43.43,0,0,1-.43-.4c-2.12-26.9-19.66-64.36-21.29-66.44l-.1-.08a.45.45,0,0,1,0-.61h0a.48.48,0,0,1,.46-.07c.72.29,5.89,11.24,10.43,23.17s10.14,29.12,11.31,44a.42.42,0,0,1-.39.46ZM797.7,468.52h0Z" transform="translate(-468.11 -183.62)"/><path class="cls-3" d="M813.1,507.58a.43.43,0,0,1-.41-.32c-2-7.65.36-11.51.74-11.76a.43.43,0,0,1,.59.14.39.39,0,0,1,0,.5c-.11.15-2.4,3.49-.47,10.9a.43.43,0,0,1-.31.52Z" transform="translate(-468.11 -183.62)"/><path class="cls-3" d="M811.38,501.94a.41.41,0,0,1-.39-.27c-2.89-7.29-5.93-7.62-6.26-7.64a.46.46,0,0,1-.42-.35l.42-.07v-.43c.64,0,4,.55,7,8.18a.42.42,0,0,1-.23.55h0A.2.2,0,0,1,811.38,501.94Z" transform="translate(-468.11 -183.62)"/><path class="cls-3" d="M808.06,492.37a.45.45,0,0,1-.42-.32c-1.61-6.1-.63-8.87-.23-9a.43.43,0,0,1,.55.23h0a.38.38,0,0,1,0,.36c-.06.14-1,2.44.53,8.21a.43.43,0,0,1-.29.53h0Z" transform="translate(-468.11 -183.62)"/><path class="cls-3" d="M845.85,490.59c1.22-1.41,6.69-6.32,9.12-6.08-.29,1.37-4.44,6.2-6.09,8.2a30.31,30.31,0,0,0-5.23,9.47c-.72,2.3-.56,3.28-1.53,5.4a99.25,99.25,0,0,1-6,8.23c-2.64,3.3-5.54,4.49-8.33,12.72,1.86-10.75,3.36-21.21,5.41-24.32,2.24-3.39,3.53-4.35,6.53-7.24S841.94,494.78,845.85,490.59Z" transform="translate(-468.11 -183.62)"/><path class="cls-3" d="M826.24,535.4h-.09a.42.42,0,0,1-.33-.49h0a104.2,104.2,0,0,1,11.73-30.52,82.77,82.77,0,0,1,9.85-13.67c.25-.29.49-.56.57-.67a.43.43,0,0,1,.51-.25.42.42,0,0,1,.3.29c.08.26.07.28-.74,1.19a82.76,82.76,0,0,0-9.75,13.54A103.31,103.31,0,0,0,826.66,535,.42.42,0,0,1,826.24,535.4Z" transform="translate(-468.11 -183.62)"/><path class="cls-3" d="M832.35,516a.28.28,0,0,1-.18,0,.42.42,0,0,1-.21-.54v0c2.39-5,5.7-5.43,6.33-5.48v.42h.43a.43.43,0,0,1-.41.41c-.35,0-3.39.38-5.63,5A.41.41,0,0,1,832.35,516Z" transform="translate(-468.11 -183.62)"/><path class="cls-3" d="M834.08,512.21h-.16a.43.43,0,0,1-.23-.56c2.11-5.11.86-7,.76-7.15a.43.43,0,0,1-.1-.48.44.44,0,0,1,.56-.22s2.19,1.83-.43,8.18A.41.41,0,0,1,834.08,512.21Z" transform="translate(-468.11 -183.62)"/><path class="cls-3" d="M837.45,505.84a.42.42,0,0,1-.42-.43.5.5,0,0,1,.08-.26c2.48-3.27,4.51-3.77,5.08-3.84l.08.42.41.08a.43.43,0,0,1-.38.35c-.34,0-2.17.42-4.51,3.51A.41.41,0,0,1,837.45,505.84Z" transform="translate(-468.11 -183.62)"/><line class="cls-25" x1="355.54" y1="251.32" x2="357.04" y2="324.82"/><path class="cls-3" d="M830.14,520.44a81.89,81.89,0,0,1,21-32" transform="translate(-468.11 -183.62)"/><path class="cls-3" d="M794.14,461.44a173.17,173.17,0,0,1,21,53" transform="translate(-468.11 -183.62)"/><ellipse class="cls-26" cx="357.86" cy="23.48" rx="23.49" ry="23.48"/><circle class="cls-26" cx="388.08" cy="61.78" r="19.77"/><path class="cls-13" d="M816.11,208.1l5.66-2.39.51,1.59-4.13,1.61,4.13,1.61-.51,1.59-5.66-2.39Z" transform="translate(-468.11 -183.62)"/><path class="cls-13" d="M825.53,215.23h-2L828,202.5h2Z" transform="translate(-468.11 -183.62)"/><path class="cls-13" d="M838.19,209.67l-5.66,2.39-.51-1.59,4.13-1.61L832,207.25l.51-1.59,5.66,2.39Z" transform="translate(-468.11 -183.62)"/><text class="cls-27" transform="translate(377.51 63.71)">WWW</text><circle class="cls-28" cx="805.36" cy="279.47" r="13.94" transform="translate(-454.41 412.05) rotate(-40.91)"/><circle class="cls-28" cx="315.39" cy="130.03" r="6.97"/><path class="cls-28" d="M792.74,350a3.22,3.22,0,1,0-3.22,3.22h0A3.22,3.22,0,0,0,792.74,350Z" transform="translate(-468.11 -183.62)"/><circle class="cls-26" cx="365.6" cy="98.23" r="16.68"/><g class="cls-29"><text class="cls-30" transform="translate(355.66 101.87)">H</text><text class="cls-27" transform="translate(361.3 101.87)">TML</text></g><circle class="cls-26" cx="800.88" cy="296.21" r="13.35" transform="translate(-516.22 21.15) rotate(-14.15)"/><text class="cls-31" transform="translate(325.24 114.48)">css</text><circle class="cls-26" cx="343.27" cy="132.66" r="11.8"/><text class="cls-27" transform="translate(335.78 135.07)">PHP</text><circle class="cls-26" cx="791.02" cy="338.91" r="8.53" transform="translate(-167.24 862.62) rotate(-78.47)"/><text class="cls-27" transform="translate(319.1 156.7)">JS</text><path class="cls-26" d="M805.33,356.77a5.75,5.75,0,1,0-5.76,5.74h0a5.74,5.74,0,0,0,5.75-5.73Z" transform="translate(-468.11 -183.62)"/><path class="cls-13" d="M797.11,356.47a.48.48,0,0,0,.43-.17.72.72,0,0,0,.13-.45v-1a1.77,1.77,0,0,1,.07-.5A1,1,0,0,1,798,354a1.42,1.42,0,0,1,.44-.23,3.25,3.25,0,0,1,.69-.08h.14v.78h-.17a.54.54,0,0,0-.39.13.69.69,0,0,0-.11.41v.87a1.85,1.85,0,0,1-.09.58.81.81,0,0,1-.36.41.82.82,0,0,1,.36.4,2,2,0,0,1,.09.58v.87a.65.65,0,0,0,.11.41.47.47,0,0,0,.39.13h.17V360h-.14a2.33,2.33,0,0,1-.69-.08,1.1,1.1,0,0,1-.44-.23.85.85,0,0,1-.24-.37,1.68,1.68,0,0,1-.07-.5v-1a.81.81,0,0,0-.13-.45.54.54,0,0,0-.43-.17Z" transform="translate(-468.11 -183.62)"/><path class="cls-13" d="M803,357.24a.51.51,0,0,0-.42.17.67.67,0,0,0-.14.45v1a1.68,1.68,0,0,1-.07.5.85.85,0,0,1-.24.37,1.1,1.1,0,0,1-.44.23,2.33,2.33,0,0,1-.69.08h-.13v-.78H801a.49.49,0,0,0,.4-.13.72.72,0,0,0,.1-.41v-.87a1.67,1.67,0,0,1,.09-.58.8.8,0,0,1,.37-.4.78.78,0,0,1-.37-.41,1.6,1.6,0,0,1-.09-.58V355a.76.76,0,0,0-.1-.41.57.57,0,0,0-.4-.13h-.16v-.78H801a3.25,3.25,0,0,1,.69.08,1.42,1.42,0,0,1,.44.23,1,1,0,0,1,.24.37,1.77,1.77,0,0,1,.07.5v1a.64.64,0,0,0,.14.45.45.45,0,0,0,.42.17Z" transform="translate(-468.11 -183.62)"/></svg>