<svg id="Layer_2" data-name="Layer 2" xmlns="http://www.w3.org/2000/svg" xmlns:xlink="http://www.w3.org/1999/xlink" viewBox="0 0 513.33 441.47"><defs><style>.cls-1{fill:#d4ccff;}.cls-2{fill:#8550fc;}.cls-3{fill:#a796ff;}.cls-4{fill:#f4d37e;}.cls-5{fill:#fef3f9;}.cls-6{fill:#7862ec;}.cls-7{fill:#fc8e53;}.cls-8{fill:#fdeab1;}.cls-9{fill:#380f8f;}.cls-10{fill:#7b0f8f;}.cls-11{fill:#de50fc;}.cls-12{fill:#d396ff;}.cls-13,.cls-26,.cls-29,.cls-30{fill:#fff;}.cls-14{fill:#deb449;}.cls-15{fill:#232323;}.cls-16{fill:#808285;}.cls-17{fill:#1a0845;}.cls-18{fill:#0b53ff;}.cls-19{fill:#2175fb;}.cls-20{fill:#e6e7e8;}.cls-21{fill:#d1d3d4;}.cls-22{fill:#fbf3fe;}.cls-23{fill:url(#linear-gradient);}.cls-24{fill:#bcbec0;}.cls-25{fill:none;}.cls-26,.cls-28,.cls-29,.cls-30{isolation:isolate;}.cls-26,.cls-29{font-size:7.1px;}.cls-26,.cls-29,.cls-30{font-family:Roboto-Bold, Roboto;font-weight:700;}.cls-26{letter-spacing:0.1em;}.cls-27{fill:#e0e9ff;}.cls-29{letter-spacing:0.09em;}.cls-30{font-size:7.99px;letter-spacing:0.1em;}</style><linearGradient id="linear-gradient" x1="479.6" y1="93.07" x2="526.97" y2="93.07" gradientTransform="matrix(1, 0, 0, -1, 0, 768)" gradientUnits="userSpaceOnUse"><stop offset="0" stop-color="#fff"/><stop offset="1" stop-color="#b3b3b3" stop-opacity="0.1"/></linearGradient></defs><path class="cls-1" d="M215.46,418.66q.87-.44,1.77-.81c18.16-7.76,37.61,4.36,56.26,4.2,17.22-.15,33.61-9,50.83-8.66,5.13.09,10.42,1.08,14.62,4.13,4.56,3.31,7.31,8.64,11.17,12.8,9,9.66,24.16,13.59,28.7,26.13,3.57,9.89-1.23,20.65-5,30.45-6.49,16.78-10.18,35.68-4.88,52.91,3.79,12.34,12,23.18,13.72,36,1.53,11.26-2.16,22.79-7.47,32.62-7,13.07-7,28-10.46,42.13-2.26,9.23-6.85,18.56-15.16,23.18-7.46,4.15-16.22,3.71-24.47,4.17-8.52.47-16.68.9-25.23-.1-14.43-1.67-28.62-5.16-43.14-6.19-26.47-1.86-52.79,4.57-79.29,5.94-14.63.76-30.13-.29-42.36-8.62-10.44-7.11-17.37-19-20-31.66s-1.25-25.95,2.53-38.28c4.59-15,12.75-29.73,11-45.38-1.09-9.81-6-18.67-8.81-28.11-3.85-13-3.54-27.46,2.18-39.65A43.1,43.1,0,0,1,137.4,468c7.66-5,16.26-3.88,24.63-7C183.66,452.8,195.1,428.66,215.46,418.66Z" transform="translate(-75.12 -236.95)"/><path class="cls-2" d="M353.73,532.67h-5.25a34.49,34.49,0,0,0-4-9.54l3.71-3.71a3.13,3.13,0,0,0,0-4.44h0l-7.58-7.64a3.16,3.16,0,0,0-4.46,0L332.44,511a35,35,0,0,0-9.54-4v-5.24a3.15,3.15,0,0,0-3.15-3.15H309a3.15,3.15,0,0,0-3.15,3.15h0v5.24a35.17,35.17,0,0,0-9.55,4l-3.7-3.71a3.16,3.16,0,0,0-4.46,0L280.48,515a3.14,3.14,0,0,0,0,4.44h0l3.71,3.71a35.24,35.24,0,0,0-4,9.54H275a3.15,3.15,0,0,0-3.15,3.15h0v10.8a3.15,3.15,0,0,0,3.15,3.15h5.24a35.11,35.11,0,0,0,4,9.54L280.5,563a3.14,3.14,0,0,0,0,4.44h0l7.63,7.63a3.16,3.16,0,0,0,4.46,0l3.7-3.7a34.86,34.86,0,0,0,9.55,4v5.24a3.15,3.15,0,0,0,3.15,3.15h10.79a3.15,3.15,0,0,0,3.15-3.15h0v-5.26a34.67,34.67,0,0,0,9.54-4l3.71,3.7a3.16,3.16,0,0,0,4.46,0l7.63-7.63a3.13,3.13,0,0,0,0-4.44h0l-3.74-3.67a34.49,34.49,0,0,0,4-9.54h5.25a3.15,3.15,0,0,0,3.15-3.15h0v-10.8a3.15,3.15,0,0,0-3.13-3.17Zm-39.38,29.84a21.3,21.3,0,1,1,21.3-21.3h0a21.29,21.29,0,0,1-21.29,21.29Z" transform="translate(-75.12 -236.95)"/><path class="cls-3" d="M243.48,523.19h-3.91a25.54,25.54,0,0,0-3-7.1l2.77-2.77a2.35,2.35,0,0,0,0-3.31l-5.64-5.68a2.35,2.35,0,0,0-3.31,0h0l-2.76,2.76a25.75,25.75,0,0,0-7.11-2.94v-3.92a2.35,2.35,0,0,0-2.34-2.35h-8a2.36,2.36,0,0,0-2.34,2.35v3.91a25.87,25.87,0,0,0-7.11,2.94l-2.76-2.75a2.35,2.35,0,0,0-3.31,0h0L188.9,510a2.35,2.35,0,0,0,0,3.31l2.77,2.77a25.84,25.84,0,0,0-3,7.1h-3.9a2.35,2.35,0,0,0-2.35,2.35v8a2.35,2.35,0,0,0,2.35,2.35h3.9a25.77,25.77,0,0,0,3,7.11l-2.77,2.76a2.36,2.36,0,0,0,0,3.32l5.69,5.68a2.34,2.34,0,0,0,3.31,0h0l2.76-2.76a26,26,0,0,0,7.11,3v3.9a2.35,2.35,0,0,0,2.34,2.35h8a2.34,2.34,0,0,0,2.34-2.35V555a25.9,25.9,0,0,0,7.11-3l2.76,2.76a2.34,2.34,0,0,0,3.31,0h0l5.69-5.68a2.36,2.36,0,0,0,0-3.32L236.62,543a25.77,25.77,0,0,0,3-7.11h3.91a2.34,2.34,0,0,0,2.34-2.35v-8a2.35,2.35,0,0,0-2.34-2.36Zm-29.33,22.23A15.86,15.86,0,1,1,230,529.52v0A15.85,15.85,0,0,1,214.15,545.42Z" transform="translate(-75.12 -236.95)"/><path class="cls-4" d="M176,575.82c-.33-1-.68-2-1-2.89Z" transform="translate(-75.12 -236.95)"/><path class="cls-4" d="M175,581.39v-8.5a66.7,66.7,0,0,0-6-11.75c-2.19,2.33-2.9,9.54-2.9,9.54.2-7.45,1-9.68,1.08-12.12-3.23-4.2-8.14-6.48-12-9,1.56,8.86,1.44,11.09,1.44,11.09-.51-5.3-2.25-9-3.12-12.12-9.91-5.83-15-4.31-15-4.31.09,3.75,1.31,12,1.68,15.24a90.73,90.73,0,0,0,10,7.08,47.71,47.71,0,0,1-9.73-5.09,26.33,26.33,0,0,0,1.77,7.53c4.17,3.81,12.62,8.17,12.62,8.17-3.67-.89-8.79-3.66-11.59-5.27a51,51,0,0,0,9.57,15.64,93.53,93.53,0,0,0,9,3.35,34.28,34.28,0,0,1-7.22-1.47c4.62,4.84,10.07,9.15,16.09,14l6.09,2.47,1.91-9.1a48.18,48.18,0,0,0-2.51-20.86Z" transform="translate(-75.12 -236.95)"/><path class="cls-5" d="M170.11,590.2c1.16,2.16,2.26,4.36,3.24,6.63a38.61,38.61,0,0,1,2.41,7h-.1a39.69,39.69,0,0,0-2.6-6.91c-1-2.22-2.2-4.36-3.41-6.48-2.41-4.23-5-8.33-7.61-12.42s-5.31-8.12-7.76-12.35c-1.22-2.11-2.42-4.24-3.55-6.42s-2.2-4.41-3.15-6.69l.09-.06c2.43,4.24,5,8.38,7.52,12.5s5,8.31,7.57,12.47S167.79,585.88,170.11,590.2Z" transform="translate(-75.12 -236.95)"/><path class="cls-3" d="M162.18,604c.07-9,.65-12.76,0-15.73A49.91,49.91,0,0,0,146,580.43c4.58,10.06,3.45,17.17,3.45,17.17-.25-7.28-3.78-14.32-5.8-17.78a69,69,0,0,0-25.7-1.06c1.26,4.47,2.61,8.53,4,12.24a107.1,107.1,0,0,0,14.17,4.74c-3.91,0-9.35-1.34-13.26-2.45a85.43,85.43,0,0,0,7.1,13.86c6.18,3,17.69,5.05,17.69,5.05-4.69.31-11.7-1.07-15.56-2a58.28,58.28,0,0,0,16.3,15.19,113.3,113.3,0,0,0,11.79.65,43.16,43.16,0,0,1-9.14,1c7.05,4.07,14.92,7.2,23.64,10.73l8.09.68-.49-11.67c-2.24-17.5-8.89-28.83-17.11-36.11C163.23,594.33,162.18,604,162.18,604Z" transform="translate(-75.12 -236.95)"/><path class="cls-6" d="M181,636.47a45.57,45.57,0,0,0-5.24-7.34c-1.93-2.27-4-4.42-6.09-6.5-4.19-4.18-8.56-8.14-12.95-12.07s-8.88-7.76-13.12-11.92c-2.12-2.08-4.22-4.19-6.24-6.39s-4-4.47-5.84-6.85l.1-.11c4.21,4.18,8.52,8.2,12.86,12.19s8.62,8.09,12.93,12.14,8.61,8.14,12.73,12.45c2,2.17,4,4.4,5.92,6.75a45.61,45.61,0,0,1,5.06,7.57Z" transform="translate(-75.12 -236.95)"/><path class="cls-3" d="M338.78,604.19c.69-.6,1.35-1.22,2-1.84Z" transform="translate(-75.12 -236.95)"/><path class="cls-3" d="M333.81,604.91l7-2.58a54.56,54.56,0,0,0,7.46-9c-2.7-1.3-8.88.26-8.88.26,6.19-2.09,8.31-2,10.34-2.72,2.28-4.24,2.36-9.43,3-13.76-6.71,4.14-8.58,4.72-8.58,4.72,4.17-2.1,6.55-4.81,8.81-6.57,1.19-10.85-1.93-15.07-1.93-15.07-3,1.23-9.4,4.89-11.89,6.2a88.74,88.74,0,0,0-2.19,11.3,48.21,48.21,0,0,1,.65-10.46,21,21,0,0,0-5.55,3.93c-1.61,5-2.11,14.05-2.11,14.05-.6-3.63-.2-9.17.11-12.22a42.57,42.57,0,0,0-9.36,13.54c0,4.55.51,9.21.51,9.21a37.65,37.65,0,0,1-1.42-7c-2.3,5.71-3.85,12-5.63,19l.19,6.33,8.16-1a37.58,37.58,0,0,0,16.22-8.7Z" transform="translate(-75.12 -236.95)"/><path class="cls-6" d="M324.83,603.19c-1.36,1.72-2.76,3.4-4.27,5a31.25,31.25,0,0,1-4.9,4.36l-.07-.09a30.45,30.45,0,0,0,4.73-4.49c1.44-1.63,2.78-3.35,4.08-5.1,2.6-3.5,5-7.13,7.43-10.77s4.73-7.35,7.31-10.88c1.29-1.77,2.61-3.52,4-5.22s2.81-3.36,4.34-4.93l.08.07c-2.59,3.52-5.07,7.09-7.52,10.7s-5,7.16-7.48,10.75S327.53,599.75,324.83,603.19Z" transform="translate(-75.12 -236.95)"/><path class="cls-7" d="M327.54,589.66c-.32.57-.66,1.15-1,1.73Zm-1,1.78a27.92,27.92,0,0,1-9.57,9.69l-5.55,2.52-1.51-4.44a115.82,115.82,0,0,1-.18-14.67,28.24,28.24,0,0,0,2.55,4.68s-1.38-3.18-2.37-6.4a31.57,31.57,0,0,1,3.66-11.63,40.83,40.83,0,0,0,2.59,8.67s-1.63-6.53-1.58-10.4a15.74,15.74,0,0,1,3.07-4,36,36,0,0,0,1.83,7.53,66.53,66.53,0,0,1-.93-8.46c1.48-1.48,5.18-5.46,7.06-7,0,0,3.13,2.31,4.66,10.24-1.22,1.74-2.31,4.18-4.8,6.57,0,0,1.2-.81,5-5.2.49,3.19,1.57,6.89.88,10.38-1.29.92-2.79,1.35-6.72,4.18,0,0,4-2.45,6.23-2.12a39.92,39.92,0,0,1-3.31,8l-4.37,3.35Zm-6.91-6.9c1-3.08,2-6.14,2.94-9.23s1.92-6.16,3-9.21h-.07a47.61,47.61,0,0,0-2,4.43c-.61,1.5-1.16,3-1.68,4.56-1.06,3.07-1.88,6.2-2.8,9.3s-1.83,6.19-2.9,9.23c-.53,1.53-1.11,3-1.77,4.51a22.59,22.59,0,0,1-2.38,4.2H312a23.09,23.09,0,0,0,2.52-4.15c.71-1.46,1.34-3,1.93-4.47,1.12-3,2.12-6.09,3.11-9.17Z" transform="translate(-75.12 -236.95)"/><path class="cls-4" d="M331.89,622.33c5.94,1.92,8.31,3.14,10.43,3.28a40.6,40.6,0,0,0,9-10.33c-7.74,1.28-12.19-1-12.19-1,4.88,1.34,10.37.2,13.14-.56A59.16,59.16,0,0,0,358.93,595a88.93,88.93,0,0,0-9,.42,90.33,90.33,0,0,0-6.43,9.45,48.81,48.81,0,0,1,4.69-9.26,58.26,58.26,0,0,0-10.83,2.34c-3.42,3.93-7.45,12-7.45,12,.88-3.52,3.42-8.4,4.9-11.07A43.87,43.87,0,0,0,321,607.73c-1.8,4.13-3.17,8.55-3.17,8.55a38.31,38.31,0,0,1,1.49-6.94c-4.34,4.35-8.24,9.5-12.61,15.2l-2.32,5.82,7.85,2.08c12.12,2,21.18-.55,27.91-5.09C338.07,625.08,331.89,622.33,331.89,622.33Z" transform="translate(-75.12 -236.95)"/><path class="cls-8" d="M306,629.33a32.19,32.19,0,0,0,6.08-2.33c1.95-1,3.85-2,5.72-3.14,3.75-2.21,7.38-4.62,11-7s7.2-4.93,11-7.19c1.87-1.13,3.76-2.23,5.68-3.27s3.89-2,5.9-2.87v.09c-3.75,2.24-7.42,4.58-11.07,7s-7.36,4.66-11.05,7-7.39,4.65-11.21,6.78c-1.91,1.06-3.85,2.07-5.85,3a31.29,31.29,0,0,1-6.19,2.15Z" transform="translate(-75.12 -236.95)"/><path class="cls-9" d="M189.57,541.68H307.22a14,14,0,0,1,14,14.05v77.65H175.52V555.73A14,14,0,0,1,189.57,541.68Z" transform="translate(-75.12 -236.95)"/><rect class="cls-2" x="107.32" y="311.45" width="131.91" height="77.07"/><polygon class="cls-3" points="272.89 419.05 73.66 419.05 100.4 396.43 246.15 396.43 272.89 419.05"/><path class="cls-9" d="M148.78,656H348a8.6,8.6,0,0,1-8.6,8.6h-182a8.6,8.6,0,0,1-8.6-8.6h0Z" transform="translate(-75.12 -236.95)"/><path class="cls-5" d="M194.5,639.5h-8.07a.28.28,0,0,1-.19-.48l2.52-2.38a.27.27,0,0,1,.19-.08h7.71a.27.27,0,0,1,.28.26.28.28,0,0,1-.08.2l-2.15,2.39A.27.27,0,0,1,194.5,639.5Z" transform="translate(-75.12 -236.95)"/><path class="cls-5" d="M207.28,639.5h-8.15a.27.27,0,0,1-.27-.28.28.28,0,0,1,.06-.18l2-2.38a.28.28,0,0,1,.21-.1h7.78a.28.28,0,0,1,.28.28.22.22,0,0,1-.05.16l-1.64,2.38A.25.25,0,0,1,207.28,639.5Z" transform="translate(-75.12 -236.95)"/><path class="cls-5" d="M220,639.5h-8.21a.27.27,0,0,1-.27-.28.32.32,0,0,1,0-.14l1.48-2.39a.29.29,0,0,1,.24-.13h7.85a.28.28,0,0,1,.28.28.21.21,0,0,1,0,.12l-1.12,2.37A.26.26,0,0,1,220,639.5Z" transform="translate(-75.12 -236.95)"/><path class="cls-5" d="M232.8,639.5h-8.26a.28.28,0,0,1-.28-.28.36.36,0,0,1,0-.1l1-2.39a.3.3,0,0,1,.26-.17h7.9a.28.28,0,0,1,.28.28.15.15,0,0,1,0,.07l-.6,2.38A.28.28,0,0,1,232.8,639.5Z" transform="translate(-75.12 -236.95)"/><path class="cls-5" d="M245.54,639.5h-8.28a.28.28,0,0,1-.28-.27v-.06l.44-2.38a.3.3,0,0,1,.28-.23h7.92a.28.28,0,0,1,.28.28h0l-.08,2.38A.28.28,0,0,1,245.54,639.5Z" transform="translate(-75.12 -236.95)"/><path class="cls-5" d="M258.28,639.5H250a.28.28,0,0,1-.28-.27l-.08-2.38a.29.29,0,0,1,.27-.29h7.93a.29.29,0,0,1,.28.23l.44,2.38a.28.28,0,0,1-.22.33Z" transform="translate(-75.12 -236.95)"/><path class="cls-5" d="M271,639.5h-8.26a.3.3,0,0,1-.27-.21l-.59-2.38a.28.28,0,0,1,.18-.34h8a.28.28,0,0,1,.26.17l1,2.39a.26.26,0,0,1-.13.36A.25.25,0,0,1,271,639.5Z" transform="translate(-75.12 -236.95)"/><path class="cls-5" d="M283.7,639.5h-8.21a.27.27,0,0,1-.25-.16L274.12,637a.29.29,0,0,1,.14-.37.2.2,0,0,1,.11,0h7.85a.28.28,0,0,1,.24.13l1.48,2.39a.27.27,0,0,1-.1.38A.23.23,0,0,1,283.7,639.5Z" transform="translate(-75.12 -236.95)"/><path class="cls-5" d="M296.4,639.5h-8.14a.28.28,0,0,1-.23-.12L286.39,637a.29.29,0,0,1,.07-.39.33.33,0,0,1,.16-.05h7.79a.28.28,0,0,1,.21.1l2,2.38a.28.28,0,0,1,0,.4A.31.31,0,0,1,296.4,639.5Z" transform="translate(-75.12 -236.95)"/><path class="cls-5" d="M309.1,639.5H301a.27.27,0,0,1-.2-.09L298.67,637a.28.28,0,0,1,0-.38.32.32,0,0,1,.2-.08h7.71a.27.27,0,0,1,.19.08l2.52,2.38a.28.28,0,0,1,0,.4A.28.28,0,0,1,309.1,639.5Z" transform="translate(-75.12 -236.95)"/><path class="cls-5" d="M190.47,644h-8.74a.28.28,0,0,1-.19-.48l3-2.83a.27.27,0,0,1,.19-.08h8.32a.29.29,0,0,1,.28.29.25.25,0,0,1-.08.18l-2.56,2.83A.28.28,0,0,1,190.47,644Z" transform="translate(-75.12 -236.95)"/><path class="cls-5" d="M204.22,644H195.4a.27.27,0,0,1-.27-.28.34.34,0,0,1,.05-.17l2.38-2.84a.28.28,0,0,1,.21-.1h8.39a.28.28,0,0,1,.28.28.22.22,0,0,1-.05.16l-1.95,2.83A.24.24,0,0,1,204.22,644Z" transform="translate(-75.12 -236.95)"/><path class="cls-5" d="M218,644h-8.9a.27.27,0,0,1-.27-.28.32.32,0,0,1,0-.14l1.76-2.83a.29.29,0,0,1,.23-.14h8.46a.28.28,0,0,1,.28.28.21.21,0,0,1,0,.12l-1.33,2.83A.25.25,0,0,1,218,644Z" transform="translate(-75.12 -236.95)"/><path class="cls-5" d="M185.78,649.14h-9.53a.28.28,0,0,1-.19-.48l3.59-3.4a.26.26,0,0,1,.19-.07h9a.28.28,0,0,1,.21.46L186,649A.27.27,0,0,1,185.78,649.14Z" transform="translate(-75.12 -236.95)"/><path class="cls-5" d="M200.65,649.14h-9.6a.27.27,0,0,1-.27-.28.28.28,0,0,1,.06-.18l2.84-3.39a.28.28,0,0,1,.21-.1H203a.29.29,0,0,1,.28.29.34.34,0,0,1-.05.14l-2.34,3.4A.26.26,0,0,1,200.65,649.14Z" transform="translate(-75.12 -236.95)"/><path class="cls-5" d="M215.52,649.14h-9.67a.28.28,0,0,1-.28-.27.29.29,0,0,1,0-.16l2.11-3.39a.29.29,0,0,1,.24-.13h9.15a.27.27,0,0,1,.28.26.28.28,0,0,1,0,.13l-1.59,3.4A.26.26,0,0,1,215.52,649.14Z" transform="translate(-75.12 -236.95)"/><path class="cls-5" d="M231.68,644h-8.93a.27.27,0,0,1-.28-.25.51.51,0,0,1,0-.13l1.14-2.83a.28.28,0,0,1,.26-.18h8.5a.28.28,0,0,1,.28.28.15.15,0,0,1,0,.07l-.71,2.83A.26.26,0,0,1,231.68,644Z" transform="translate(-75.12 -236.95)"/><path class="cls-5" d="M274.87,649.14H220.66a.28.28,0,0,1-.28-.28.52.52,0,0,1,0-.11l1.37-3.42a.3.3,0,0,1,.26-.17h51.48a.27.27,0,0,1,.25.17l1.37,3.39a.27.27,0,0,1-.1.38A.23.23,0,0,1,274.87,649.14Z" transform="translate(-75.12 -236.95)"/><path class="cls-5" d="M245.4,644h-9a.28.28,0,0,1-.28-.27v-.06l.53-2.83a.28.28,0,0,1,.27-.23h8.53a.28.28,0,0,1,.28.28h0l-.1,2.83A.27.27,0,0,1,245.4,644Z" transform="translate(-75.12 -236.95)"/><path class="cls-5" d="M259.1,644h-9a.28.28,0,0,1-.28-.27l-.09-2.83a.27.27,0,0,1,.25-.29h8.55a.29.29,0,0,1,.28.23l.52,2.83a.28.28,0,0,1-.22.33Z" transform="translate(-75.12 -236.95)"/><path class="cls-5" d="M272.79,644h-8.94a.28.28,0,0,1-.27-.21l-.71-2.83a.28.28,0,0,1,.2-.34h8.58a.26.26,0,0,1,.25.18l1.14,2.83a.28.28,0,0,1-.13.36Z" transform="translate(-75.12 -236.95)"/><path class="cls-5" d="M286.47,644h-8.89a.25.25,0,0,1-.25-.16L276,641a.29.29,0,0,1,.14-.37.2.2,0,0,1,.11,0h8.46a.26.26,0,0,1,.23.14l1.76,2.83a.27.27,0,0,1-.07.38A.28.28,0,0,1,286.47,644Z" transform="translate(-75.12 -236.95)"/><path class="cls-5" d="M300.14,644h-8.82a.27.27,0,0,1-.23-.12l-2-2.83a.29.29,0,0,1,.07-.39.33.33,0,0,1,.16-.05h8.39a.28.28,0,0,1,.21.1l2.38,2.84a.27.27,0,0,1,0,.38A.26.26,0,0,1,300.14,644Z" transform="translate(-75.12 -236.95)"/><path class="cls-5" d="M302.63,646.92h-9.27a.27.27,0,0,1-.23-.12l-.81-1.18a.27.27,0,0,1,.06-.38.34.34,0,0,1,.17,0h9.09a.28.28,0,0,1,.21.1l1,1.18a.27.27,0,0,1,0,.38A.24.24,0,0,1,302.63,646.92Z" transform="translate(-75.12 -236.95)"/><path class="cls-5" d="M304.48,649.14h-9.6a.28.28,0,0,1-.23-.12l-.91-1.33a.28.28,0,0,1,.09-.38.24.24,0,0,1,.14,0h9.41a.28.28,0,0,1,.21.1l1.11,1.32a.28.28,0,0,1,0,.4A.31.31,0,0,1,304.48,649.14Z" transform="translate(-75.12 -236.95)"/><path class="cls-5" d="M319.28,649.14h-9.53a.26.26,0,0,1-.2-.1l-1.2-1.32a.27.27,0,0,1,0-.39.28.28,0,0,1,.17-.07h9.32a.27.27,0,0,1,.19.08l1.4,1.32a.28.28,0,0,1,0,.4A.28.28,0,0,1,319.28,649.14Z" transform="translate(-75.12 -236.95)"/><path class="cls-5" d="M289.68,649.14H280a.28.28,0,0,1-.25-.16l-.62-1.32a.29.29,0,0,1,.14-.37.2.2,0,0,1,.11,0h9.47a.28.28,0,0,1,.24.13l.82,1.32a.28.28,0,0,1-.08.39A.28.28,0,0,1,289.68,649.14Z" transform="translate(-75.12 -236.95)"/><path class="cls-5" d="M313.8,644h-8.74a.27.27,0,0,1-.2-.09L302.29,641a.29.29,0,0,1,.21-.47h8.31a.27.27,0,0,1,.19.08l3,2.83a.29.29,0,0,1,0,.4A.32.32,0,0,1,313.8,644Z" transform="translate(-75.12 -236.95)"/><polygon class="cls-10" points="0 195.39 28.88 217.07 20.59 227.33 0 195.39"/><polygon class="cls-11" points="0 195.39 22.27 217.42 20.59 227.33 0 195.39"/><polygon class="cls-12" points="0 195.39 39.93 214.44 28.88 217.07 0 195.39"/><polygon class="cls-12" points="0 195.39 22.27 217.42 8.84 219.6 0 195.39"/><path class="cls-2" d="M201.4,520.93a.52.52,0,0,1-.16-.06c-.89-.5-1.78-1-2.64-1.64a.56.56,0,0,1,.64-.93c.83.57,1.69,1.1,2.55,1.59a.57.57,0,0,1,.22.77A.54.54,0,0,1,201.4,520.93Zm-5.94-4.18a.5.5,0,0,1-.25-.13,39.85,39.85,0,0,1-3.1-3,.57.57,0,0,1,0-.79.55.55,0,0,1,.78,0h0c1,1,2,2,3,2.88a.56.56,0,0,1,.08.78h0A.56.56,0,0,1,195.46,516.75Zm-5.8-6.12a.56.56,0,0,1-.33-.21c-.86-1.1-1.7-2.26-2.49-3.47a.59.59,0,0,1,1-.62c.77,1.18,1.59,2.33,2.43,3.4a.57.57,0,0,1-.1.79.58.58,0,0,1-.51.11ZM185,503.57a.53.53,0,0,1-.37-.28c-.68-1.21-1.33-2.49-1.93-3.8a.56.56,0,0,1,.27-.74h0a.57.57,0,0,1,.75.27c.59,1.29,1.23,2.54,1.89,3.74a.56.56,0,0,1-.22.76.53.53,0,0,1-.39.06ZM140.81,488h0c-1.39-.31-2.78-.66-4.12-1a.55.55,0,0,1-.4-.68h0a.58.58,0,0,1,.69-.4c1.33.36,2.7.7,4.08,1a.56.56,0,0,1,.43.67.55.55,0,0,1-.67.43h0Zm4.14.84a.56.56,0,0,1-.44-.65.57.57,0,0,1,.66-.46c1.36.25,2.75.48,4.15.67a.57.57,0,0,1,.56.58.56.56,0,0,1-.58.56l-.14,0c-1.41-.2-2.82-.43-4.19-.68Zm36.5,7.08a.58.58,0,0,1-.41-.35c-.51-1.3-1-2.65-1.44-4a.58.58,0,0,1,.36-.71.55.55,0,0,1,.7.34v0c.44,1.33.92,2.66,1.42,3.94a.57.57,0,0,1-.32.73A.58.58,0,0,1,181.45,495.92Zm-48.79-10.13h-.06c-1.37-.44-2.72-.92-4-1.41a.57.57,0,0,1-.18-.78.58.58,0,0,1,.55-.27c1.28.49,2.61,1,4,1.4a.57.57,0,0,1,.37.71A.58.58,0,0,1,132.66,485.79ZM153.32,490a.57.57,0,0,1-.47-.64.58.58,0,0,1,.64-.47h0l1.64.16c.84.07,1.7.13,2.54.17a.55.55,0,0,1,.53.57h0a.54.54,0,0,1-.56.54h0c-.86,0-1.73-.09-2.59-.17l-1.66-.16Zm8.43.37a.59.59,0,0,1-.45-.54.57.57,0,0,1,.55-.58A41.31,41.31,0,0,0,166,489a.56.56,0,0,1,.62.5h0a.56.56,0,0,1-.5.62c-1.41.14-2.84.24-4.26.28Zm-37-7.63h-.12c-1.31-.6-2.59-1.23-3.82-1.88a.56.56,0,0,1-.14-.79.57.57,0,0,1,.67-.21c1.2.65,2.47,1.27,3.76,1.85a.58.58,0,0,1,.25.77.56.56,0,0,1-.6.3Zm-7.43-4a.46.46,0,0,1-.19-.08c-1.22-.77-2.4-1.59-3.51-2.43a.55.55,0,0,1-.11-.78h0a.58.58,0,0,1,.79-.11c1.09.83,2.24,1.63,3.43,2.38a.56.56,0,0,1,.18.78.58.58,0,0,1-.57.26Zm52.81,10.74a.56.56,0,0,1-.44-.65.57.57,0,0,1,.44-.45c1.37-.25,2.74-.56,4.08-.91a.57.57,0,0,1,.69.4.56.56,0,0,1-.38.68h0c-1.37.37-2.77.68-4.17.93a.37.37,0,0,1-.18,0Zm8.68-1.62a.52.52,0,0,1-.43-.4v-.13a.52.52,0,0,1-.47-.38.55.55,0,0,1,.21-.65c-.25-1-.48-2-.67-3a.57.57,0,0,1,.44-.66h0a.56.56,0,0,1,.66.42v0c.19.92.4,1.86.63,2.81,1-.37,2-.78,2.95-1.21a.55.55,0,0,1,.73.26v0a.56.56,0,0,1-.28.75c-1,.45-2.08.88-3.13,1.28v.17a.55.55,0,0,1-.39.69h0a.49.49,0,0,1-.24,0Zm-68.2-14.23a.57.57,0,0,1-.27-.13,39.41,39.41,0,0,1-3-3.06.55.55,0,0,1,0-.78h0a.56.56,0,0,1,.79,0,39.4,39.4,0,0,0,2.92,3,.57.57,0,0,1,0,.8.52.52,0,0,1-.47.19Zm-5.56-6.32a.56.56,0,0,1-.35-.23,36.86,36.86,0,0,1-2.25-3.65.56.56,0,0,1,.21-.75h0a.57.57,0,0,1,.76.23h0a37.77,37.77,0,0,0,2.18,3.54.56.56,0,0,1-.13.78A.57.57,0,0,1,105.05,467.33Zm81,16.57a.57.57,0,0,1-.43-.68.6.6,0,0,1,.27-.37c1.22-.66,2.42-1.39,3.58-2.15a.56.56,0,0,1,.62.94h0c-1.18.78-2.41,1.52-3.66,2.2a.53.53,0,0,1-.46.07Zm-8.82-4.3a.55.55,0,0,1-.45-.48c-.18-1.44-.3-2.87-.36-4.26a.57.57,0,0,1,1.13,0c.06,1.35.17,2.75.35,4.16a.56.56,0,0,1-.48.63h0a.57.57,0,0,1-.22,0Zm15.86-.35a.5.5,0,0,1-.33-.2.55.55,0,0,1,.1-.78h0c1.08-.86,2.16-1.77,3.18-2.71a.56.56,0,0,1,.79,0,.57.57,0,0,1,0,.8,35.62,35.62,0,0,1-3.25,2.76.55.55,0,0,1-.53.15Zm-16.2-8.08a.57.57,0,0,1-.45-.58c.08-1.42.23-2.85.45-4.26a.57.57,0,0,1,.65-.47.56.56,0,0,1,.48.62v0a38.22,38.22,0,0,0-.44,4.14.55.55,0,0,1-.59.53h-.09Zm22.4,2.36a.59.59,0,0,1-.27-.14.57.57,0,0,1,0-.79c.94-1,1.85-2.08,2.72-3.18a.57.57,0,0,1,.79-.09h0a.57.57,0,0,1,.09.79c-.88,1.12-1.81,2.21-2.77,3.24a.55.55,0,0,1-.6.18Zm-21-10.68h0a.57.57,0,0,1-.39-.7l0-.17a31.51,31.51,0,0,1,1.43-3.87.57.57,0,0,1,.75-.28.56.56,0,0,1,.28.74A29.28,29.28,0,0,0,179,462.3v.16a.57.57,0,0,1-.66.45.43.43,0,0,1-.16-.05Zm26.28,4.06a.6.6,0,0,1-.21-.08.58.58,0,0,1-.15-.79c.77-1.14,1.52-2.34,2.21-3.55a.59.59,0,0,1,.78-.22.57.57,0,0,1,.22.78c-.7,1.23-1.46,2.45-2.24,3.62a.55.55,0,0,1-.69.25Zm-22.85-11.75a.71.71,0,0,1-.18-.08.55.55,0,0,1-.19-.75v0a31.8,31.8,0,0,1,2.5-3.5.57.57,0,0,1,.79-.08h0a.57.57,0,0,1,.08.79,36.47,36.47,0,0,0-2.42,3.38.55.55,0,0,1-.67.27Zm27,4.42h-.13a.57.57,0,0,1-.27-.75l.3-.63a15.89,15.89,0,0,0,1.1-3.22.57.57,0,0,1,.66-.42h0a.57.57,0,0,1,.43.67,16.64,16.64,0,0,1-1.18,3.44l-.3.64a.56.56,0,0,1-.66.28ZM187,448.67a.62.62,0,0,1-.3-.18.57.57,0,0,1,0-.79,26.34,26.34,0,0,1,3.42-2.63.56.56,0,1,1,.61.95,24,24,0,0,0-3.27,2.51A.58.58,0,0,1,187,448.67Zm23.42,2.76a.55.55,0,0,1-.44-.5,9.23,9.23,0,0,0-1.11-3.8.57.57,0,0,1,1-.55h0a10.25,10.25,0,0,1,1.25,4.25.56.56,0,0,1-.52.61.38.38,0,0,1-.15,0Zm-16.32-7.26a.57.57,0,0,1-.09-1.08,19.62,19.62,0,0,1,4.19-1.11.57.57,0,0,1,.64.48.55.55,0,0,1-.46.63h0a19.35,19.35,0,0,0-4,1.05.48.48,0,0,1-.29,0Zm12.24.24a.67.67,0,0,1-.18-.07,10,10,0,0,0-3.75-1.31.57.57,0,0,1-.47-.64h0a.57.57,0,0,1,.63-.48h0a11,11,0,0,1,4.18,1.47.55.55,0,0,1,.19.76h0a.52.52,0,0,1-.56.26Z" transform="translate(-75.12 -236.95)"/><rect class="cls-7" x="221.58" y="204.58" width="49.14" height="40.76" rx="20.05"/><path class="cls-13" d="M343.65,445.48l-13.36,13.37c-.23.23-.48.45-.72.66a12.74,12.74,0,0,1-16.6,0c-.24-.21-.49-.43-.72-.66l-.94-.94L298.9,445.48a10.79,10.79,0,0,1,1.6-1.64L313,456.27l.95,1a7.17,7.17,0,0,0,.72.64,10.43,10.43,0,0,0,13.33,0,8.8,8.8,0,0,0,.72-.65l.95-.94,12.43-12.44A9.87,9.87,0,0,1,343.65,445.48Z" transform="translate(-75.12 -236.95)"/><path class="cls-13" d="M313.89,457.22a7.17,7.17,0,0,0,.72.64L313,459.51l-15.74,15.74a10.68,10.68,0,0,1-.51-2.75l14.59-14.59,1.63-1.64Z" transform="translate(-75.12 -236.95)"/><path class="cls-13" d="M345.82,472.5a10.28,10.28,0,0,1-.51,2.75l-15.74-15.74-1.6-1.64a8.8,8.8,0,0,0,.72-.65l.95-.94,1.62,1.63Z" transform="translate(-75.12 -236.95)"/><polygon class="cls-4" points="195.84 295.23 175.79 312.16 153.89 296.5 159.11 282.21 160.19 276.76 162.32 265.97 184.28 265.36 185.23 269.21 187.79 279.59 195.84 295.23"/><path class="cls-14" d="M260.35,506.16c-2.22,3.93-8.33,9.23-25,7.55l2.13-10.79,22-.61Z" transform="translate(-75.12 -236.95)"/><path class="cls-4" d="M269,474.64c0,18.94-9.13,34.3-20.4,34.3s-20.4-15.36-20.4-34.3,9.13-24.56,20.4-24.56S269,455.69,269,474.64Z" transform="translate(-75.12 -236.95)"/><path class="cls-14" d="M258.69,452s.07,10.94-9.8,11.91-18.87-5-21.15,7.94V460.25l11-6.44Z" transform="translate(-75.12 -236.95)"/><path class="cls-15" d="M271.16,458.42c1.85,6.47-3.07,35.35-5.85,41.2s-8.88,9.24-17.25,9.32c-10.67.09-14.29-5.18-16.44-8.26s-2.35-9-5.12-31.17,14.81-25.18,21.28-25.18,9.52-.1,10.75,4.22C267.75,448.06,269.31,452,271.16,458.42Zm-20.43,3.2c-5.9,2.75-16.34-2.79-20.33,1.7s-1.53,18.8-.22,24.81c.52,2.38,7.28.51,11.44,2.7-5.72,5.41,0,10,6.3,10,6,0,11.65-1.9,7.84-9.21,2.93-3.18,9.21-.16,10.48-2.86,1.83-3.88.81-22,.81-22-2.49-.75-8.22-7.73-8.22-13A17.11,17.11,0,0,1,250.73,461.62Z" transform="translate(-75.12 -236.95)"/><path class="cls-15" d="M241.62,473.39c0,1.62-.89,2.93-2,2.93s-2-1.31-2-2.93.9-2.92,2-2.92S241.62,471.78,241.62,473.39Z" transform="translate(-75.12 -236.95)"/><path class="cls-15" d="M258.69,473.39c0,1.62-.9,2.93-2,2.93s-2-1.31-2-2.93.89-2.92,2-2.92S258.69,471.78,258.69,473.39Z" transform="translate(-75.12 -236.95)"/><path class="cls-13" d="M242.5,493.57h11.74s-1.27,5.08-5.4,5.08A6.27,6.27,0,0,1,242.5,493.57Z" transform="translate(-75.12 -236.95)"/><path class="cls-14" d="M248.37,476.33s-7.5,12,0,12Z" transform="translate(-75.12 -236.95)"/><path class="cls-16" d="M225.23,475.24a19.47,19.47,0,0,1-.32-3.5c0-11.79,10.4-19.36,23.23-19.36s23.24,7.57,23.24,19.36a19.47,19.47,0,0,1-.32,3.5h2.66a16.67,16.67,0,0,0,1-6.56c-1.12-11.05-10.32-21.74-26.56-21.74-14.67,0-26.27,11.53-26.27,23.18a13.89,13.89,0,0,0,.69,5.12Z" transform="translate(-75.12 -236.95)"/><path class="cls-16" d="M226.26,488l-2.38.26a4.92,4.92,0,0,1-5.48-4.18l-1.33-11.41a4.8,4.8,0,0,1,4.34-5.22h0l2.38-.25a2.63,2.63,0,0,1,2.93,2.24l1.84,15.78a2.55,2.55,0,0,1-2.27,2.79Z" transform="translate(-75.12 -236.95)"/><path class="cls-16" d="M270.48,488l2.38.26a4.92,4.92,0,0,0,5.48-4.18l1.33-11.41a4.79,4.79,0,0,0-4.33-5.22h0l-2.39-.25a2.64,2.64,0,0,0-2.93,2.24l-1.84,15.78a2.57,2.57,0,0,0,2.31,2.79Z" transform="translate(-75.12 -236.95)"/><path class="cls-15" d="M254.24,446s-1.59,5.22-10.79,5.23-12,.8-12,.8S238.18,444.71,254.24,446Z" transform="translate(-75.12 -236.95)"/><path class="cls-9" d="M283.16,564.07c-.62.2-1.19.39-1.68.57.29,2.69.62,9,1,14.84v.66c.09,1.63.19,3.21.29,4.66.18,2.66.36,4.88.54,6.14.54,3.09,1,6.29,1.33,9.29.88,7.58,1.2,13.88,1.2,13.88h-72.3l.36-12.24.25-8.07.23-7.65L215,565a26.11,26.11,0,0,0-3-.66c-5.16-.9-14.29-1.87-17.77-2.23l-1.41-.14s7.83-32.72,12.65-37.9c8.77-5.52,17.87-7.67,29.87-10.36a14.33,14.33,0,0,0,1.48,8.44c5.39,9.38,23.18,7.72,25.55-2.84a15.23,15.23,0,0,0-.08-5.59s24.62,5.11,29.39,10.8c3.73,6.31,10.6,34.2,10.6,34.2l-1.8.47C296.69,560.16,288.06,562.47,283.16,564.07Z" transform="translate(-75.12 -236.95)"/><polygon class="cls-17" points="201.38 307.74 206.36 327.69 207.35 343.19 201.38 326.96 201.38 307.74"/><polygon class="cls-17" points="143.21 338.96 140.54 350.37 139.02 356.86 139.26 349.2 139.89 328.04 143.21 306.23 143.21 338.96"/><path class="cls-15" d="M203,627.63s-25.13,1.35-30.89,3.93.87,15.62,4.9,16.17c2.94.4,27.87-2.11,31.39-5.75Z" transform="translate(-75.12 -236.95)"/><path class="cls-4" d="M203,627.63s-10.9,2.32-12.93,5-2.39,9.85-.88,10.15,3.41,2.67,19.21-.77Z" transform="translate(-75.12 -236.95)"/><path class="cls-18" d="M202.76,627.5l5.58,14.73,103.54-19c10.1-2.23,27.59-11.49,25.33-19.43-2.73-9.64-10.62-15.8-20.58-13Z" transform="translate(-75.12 -236.95)"/><path class="cls-4" d="M215.66,587.33l-1.28-1.17-6.65-6L212,564.33c-5.16-.9-14.29-1.87-17.77-2.23l-4,20.24a6.25,6.25,0,0,0,2.77,6.49l20.89,13,7.11,4.5,5.54-9.16Z" transform="translate(-75.12 -236.95)"/><path class="cls-4" d="M305.31,582l-4.9-22.84c-3.72,1-12.35,3.29-17.25,4.89l4.58,16.07-5,4.66-13.51,12.66,5.7,9.07,9.68-6.3,18-11.67A6.24,6.24,0,0,0,305.31,582Z" transform="translate(-75.12 -236.95)"/><path class="cls-19" d="M297,627.33l-5.37,14.8L184.49,623.26c-10.13-2.09-21.83-10.14-22-16.11-.25-8.25,11.7-18.8,21.7-16.14Z" transform="translate(-75.12 -236.95)"/><path class="cls-15" d="M297,627.33s26.46,1.75,32.32,4.1-2.09,14.48-6.09,15.19c-2.92.52-27.93-1-31.6-4.49Z" transform="translate(-75.12 -236.95)"/><path class="cls-4" d="M297,627.33s10.44,2.13,12.58,4.69,2.77,9.75,1.28,10.11-3.3,2.8-19.23,0Z" transform="translate(-75.12 -236.95)"/><path class="cls-20" d="M288.05,563.92l-5.52,43.54h-70.1L211.6,601l-4.7-37.05a4.92,4.92,0,0,1,4.9-4.92h71.35a4.91,4.91,0,0,1,4.9,4.92Z" transform="translate(-75.12 -236.95)"/><path class="cls-21" d="M213.11,607.46h68.74a2.06,2.06,0,0,1,2.06,2.06h0a2.06,2.06,0,0,1-2.06,2.06H213.11a2.06,2.06,0,0,1-2.06-2.06h0A2.06,2.06,0,0,1,213.11,607.46Z" transform="translate(-75.12 -236.95)"/><path class="cls-21" d="M247.48,577.67a6,6,0,0,0-1.26.14,4.43,4.43,0,0,1-3.82,5c-.2,0-.41,0-.62,0a5.23,5.23,0,0,0,0,.56,5.73,5.73,0,1,0,5.73-5.73h0Z" transform="translate(-75.12 -236.95)"/><path class="cls-22" d="M145.53,497.78c-3.67,0-5.12,1.52-5.12,4.78,0,.29-.57.29-.57,0,0-3.26-1.16-4.78-5.11-4.78-.3,0-.3-.57,0-.57,4.07,0,5.11-1.89,5.11-4.76,0-.3.57-.3.57,0,0,3.42,1.39,4.76,5.12,4.76C145.82,497.21,145.82,497.78,145.53,497.78Z" transform="translate(-75.12 -236.95)"/><path class="cls-22" d="M173,472.83c-5.47,0-7.63,2.26-7.63,7.12,0,.44-.85.44-.85,0,0-4.86-1.73-7.12-7.63-7.12-.44,0-.44-.86,0-.86,6.08,0,7.63-2.81,7.63-7.11,0-.45.85-.45.85,0,0,5.12,2.07,7.11,7.63,7.11C173.43,472,173.43,472.83,173,472.83Z" transform="translate(-75.12 -236.95)"/><path class="cls-22" d="M167.9,525.54c-4.18,0-5.84,1.73-5.84,5.45,0,.34-.65.34-.65,0,0-3.72-1.32-5.45-5.84-5.45-.34,0-.34-.65,0-.65,4.66,0,5.84-2.16,5.84-5.45,0-.34.65-.34.65,0,0,3.92,1.59,5.45,5.84,5.45C168.24,524.89,168.24,525.54,167.9,525.54Z" transform="translate(-75.12 -236.95)"/><path class="cls-7" d="M586.08,325.12c-.06.31-.12.67-.18,1.09s-.11.87-.17,1.36h-.41a14.28,14.28,0,0,1-3.9-.48,8.2,8.2,0,0,1-2.9-1.47,5.38,5.38,0,0,1-1.44-1.77,5.25,5.25,0,0,1-.51-2.34,4.88,4.88,0,0,1,.5-2.22,5.55,5.55,0,0,1,1.42-1.74,8.23,8.23,0,0,1,2.94-1.51,13.55,13.55,0,0,1,3.74-.51h.42a6.2,6.2,0,0,0,.12,1.05,9.19,9.19,0,0,0,.2,1.41h-.4a12.29,12.29,0,0,0-1.81.16,7.76,7.76,0,0,0-1.83.5,4.53,4.53,0,0,0-1.68,1.19,2.6,2.6,0,0,0-.61,1.69,2.7,2.7,0,0,0,.58,1.69,4.21,4.21,0,0,0,1.67,1.19,6.61,6.61,0,0,0,1.89.55,12.56,12.56,0,0,0,1.83.16Z" transform="translate(-75.12 -236.95)"/><path class="cls-7" d="M585.87,340.93a4.89,4.89,0,0,1-.39,2,4.33,4.33,0,0,1-1.15,1.62,4,4,0,0,1-1.46.86,5.11,5.11,0,0,1-1.78.29,5.44,5.44,0,0,1-1.78-.29,4.25,4.25,0,0,1-1.47-.85,4.55,4.55,0,0,1-1.14-1.6,5.28,5.28,0,0,1-.06-3.88,4.73,4.73,0,0,1,1.07-1.55,4.24,4.24,0,0,1,1.51-1,5.4,5.4,0,0,1,1.86-.33,5.46,5.46,0,0,1,1.84.3,4.37,4.37,0,0,1,1.5.92,4.62,4.62,0,0,1,1.09,1.57A5,5,0,0,1,585.87,340.93Zm-2.68,0a4,4,0,0,0-.19-1.24,2.26,2.26,0,0,0-.61-1,1.47,1.47,0,0,0-.59-.38,2.16,2.16,0,0,0-.71-.12,2.21,2.21,0,0,0-.76.13,2,2,0,0,0-.62.46,2.46,2.46,0,0,0-.54.94,3.94,3.94,0,0,0-.19,1.18,4.09,4.09,0,0,0,.19,1.26,2.46,2.46,0,0,0,.64,1,1.38,1.38,0,0,0,.58.37,1.87,1.87,0,0,0,.7.11,1.68,1.68,0,0,0,.74-.14,1.54,1.54,0,0,0,.61-.4,2.61,2.61,0,0,0,.56-1,3.31,3.31,0,0,0,.19-1.13Z" transform="translate(-75.12 -236.95)"/><path class="cls-7" d="M585.48,363.4h-2.7v-5.49a2,2,0,0,0-.28-1.17,1,1,0,0,0-.92-.37,3.16,3.16,0,0,0-1,.23,7.64,7.64,0,0,0-1.12.53v6.29h-2.7v-9h2.65v.84h0a10.2,10.2,0,0,1,1.76-.77,5.48,5.48,0,0,1,1.65-.31,2.58,2.58,0,0,1,1.93.75,2.83,2.83,0,0,1,.71,2v5C585.46,362.69,585.48,363.23,585.48,363.4Z" transform="translate(-75.12 -236.95)"/><path class="cls-7" d="M584.61,379.54l-.25,1.93h-1.17a5.3,5.3,0,0,1-3.22-.81,2.83,2.83,0,0,1-1.09-2.42v-3.91h-1.46v-1.9H579v-2.35h2.59v2.35h3v1.9h-3v3.29a1.81,1.81,0,0,0,.53,1.43,3.08,3.08,0,0,0,2,.47h.54Z" transform="translate(-75.12 -236.95)"/><path class="cls-7" d="M584.91,394.73v4.67a8.44,8.44,0,0,0-1.14.09,16.42,16.42,0,0,1-2.13.06,11.87,11.87,0,0,1-1.68-.12,5.48,5.48,0,0,1-1.58-.4,3.22,3.22,0,0,1-1.27-.92,2.17,2.17,0,0,1-.45-1.35,2.27,2.27,0,0,1,.48-1.44,3.64,3.64,0,0,1,1.53-1,9.25,9.25,0,0,1,1.71-.41c.68-.1,1.3-.17,1.85-.21a1.37,1.37,0,0,0-.25-.78,1.41,1.41,0,0,0-.76-.47,4,4,0,0,0-.78-.16c-.33,0-.66-.05-1-.05H577.7l.24-2h1.65a10.29,10.29,0,0,1,2.48.25,4.15,4.15,0,0,1,1.66.84,3.08,3.08,0,0,1,.91,1.31A5.71,5.71,0,0,1,584.91,394.73Zm-2.55,1.62v-1.44a3.69,3.69,0,0,0-.9.1,5.11,5.11,0,0,0-1.16.32,1.92,1.92,0,0,0-.65.44,1.05,1.05,0,0,0-.29.73,1.22,1.22,0,0,0,.25.79,1.7,1.7,0,0,0,.68.44,3.11,3.11,0,0,0,.67.16,4.52,4.52,0,0,0,.82.05h.58v-1.59Z" transform="translate(-75.12 -236.95)"/><path class="cls-7" d="M584.88,415.33l-.27,2.12h-.49a11.14,11.14,0,0,1-2.63-.27,6.9,6.9,0,0,1-2-.79A4.23,4.23,0,0,1,578,414.9a3.88,3.88,0,0,1-.55-2,3.63,3.63,0,0,1,.52-1.93,4.49,4.49,0,0,1,1.4-1.41,6.54,6.54,0,0,1,2.11-.89,11,11,0,0,1,2.68-.3h.4l.24,2.13h-.34a11,11,0,0,0-1.28.08,7.66,7.66,0,0,0-1.24.28,3,3,0,0,0-1.25.81,1.94,1.94,0,0,0-.46,1.22,1.91,1.91,0,0,0,.45,1.28,2.86,2.86,0,0,0,1.18.79,5.51,5.51,0,0,0,1.26.3,7.77,7.77,0,0,0,1.27.1h.53Z" transform="translate(-75.12 -236.95)"/><path class="cls-7" d="M584.61,433.54l-.25,1.93h-1.17a5.3,5.3,0,0,1-3.22-.81,2.83,2.83,0,0,1-1.09-2.42v-3.91h-1.46v-1.9H579v-2.35h2.59v2.35h3v1.9h-3v3.29a1.81,1.81,0,0,0,.53,1.43,3.08,3.08,0,0,0,2,.47h.54Z" transform="translate(-75.12 -236.95)"/><path class="cls-7" d="M588.45,457.17q-1.17,3-2.07,5.48c-.59,1.67-.94,2.67-1,3H583a14.86,14.86,0,0,0-.57-1.76c-.33-1-.75-2.22-1.27-3.73h0c-.46,1.29-.89,2.48-1.28,3.55s-.61,1.73-.68,1.94H576.8c-.1-.36-.43-1.32-1-2.88s-1.23-3.41-2.07-5.56l2.68-.74,1.85,5.92h0l1.91-5.59h1.88l1.81,5.59h0l1.86-5.89Z" transform="translate(-75.12 -236.95)"/><path class="cls-7" d="M582.48,473.27H579.7v-2.08h2.78Zm0,10.37h-2.7v-9h2.7v7.5c0,.65,0,1.17,0,1.48Z" transform="translate(-75.12 -236.95)"/><path class="cls-7" d="M584.61,499.77l-.25,1.93h-1.17a5.24,5.24,0,0,1-3.22-.82,2.83,2.83,0,0,1-1.09-2.42v-3.9h-1.46v-1.92H579v-2.31h2.59v2.34h3v1.92h-3v3.27a1.79,1.79,0,0,0,.53,1.42,3,3,0,0,0,2,.47h.54Z" transform="translate(-75.12 -236.95)"/><path class="cls-7" d="M585.48,519.64h-2.7v-5.5a2.08,2.08,0,0,0-.28-1.19,1.08,1.08,0,0,0-.92-.34,3.13,3.13,0,0,0-1,.21,12,12,0,0,0-1.15.54v6.28h-2.7V506.75h2.7v4.73h0a11.24,11.24,0,0,1,1.75-.75,5.72,5.72,0,0,1,1.63-.3,2.58,2.58,0,0,1,1.93.75,2.83,2.83,0,0,1,.71,2V518C585.45,518.76,585.47,519.33,585.48,519.64Z" transform="translate(-75.12 -236.95)"/><path class="cls-7" d="M588.27,545.79h-2.69v-5.51a2.06,2.06,0,0,0-.3-1.18,1.13,1.13,0,0,0-.89-.34,3,3,0,0,0-.89.17,6.13,6.13,0,0,0-1,.48v6.38h-2.69v-5.45a5.42,5.42,0,0,0,0-.57,1.23,1.23,0,0,0-.16-.49.88.88,0,0,0-.33-.36,1.34,1.34,0,0,0-.63-.12,2.42,2.42,0,0,0-.91.21,9.56,9.56,0,0,0-1,.53v6.29H574v-9h2.65v.87h0a10.29,10.29,0,0,1,1.45-.72,4.58,4.58,0,0,1,1.7-.39,2.94,2.94,0,0,1,1.4.32,2.29,2.29,0,0,1,.88.84h0a10.33,10.33,0,0,1,1.75-.82,5.78,5.78,0,0,1,1.74-.34,2.64,2.64,0,0,1,2,.75,2.79,2.79,0,0,1,.71,2v5.11C588.25,545.13,588.27,545.53,588.27,545.79Z" transform="translate(-75.12 -236.95)"/><path class="cls-7" d="M585.5,559.33h-6.1a2.33,2.33,0,0,0,.38,1.26,2.72,2.72,0,0,0,1.14.93,4.47,4.47,0,0,0,1.13.34,7.12,7.12,0,0,0,1.3.1H585l-.27,1.92h-1.62a9.62,9.62,0,0,1-2.72-.34,5.38,5.38,0,0,1-2-1,4.37,4.37,0,0,1-1.13-1.43,4.22,4.22,0,0,1-.44-1.88,4.92,4.92,0,0,1,.32-1.82,4.71,4.71,0,0,1,1-1.53,3.76,3.76,0,0,1,1.46-.93,5.14,5.14,0,0,1,3.46-.06,3.42,3.42,0,0,1,1.28.8,3.79,3.79,0,0,1,.93,1.53A6.88,6.88,0,0,1,585.5,559.33ZM583,558.15a2.25,2.25,0,0,0-.53-1.37,1.56,1.56,0,0,0-1.24-.51,1.74,1.74,0,0,0-1.27.51,2.49,2.49,0,0,0-.66,1.37Z" transform="translate(-75.12 -236.95)"/><path class="cls-23" d="M527,674.93c0,1.82-10.6,3.3-23.69,3.3s-23.68-1.48-23.68-3.3,10.6-3.31,23.68-3.31S527,673.1,527,674.93Z" transform="translate(-75.12 -236.95)"/><ellipse class="cls-3" cx="413.78" cy="409.98" rx="12.16" ry="1.78"/><path class="cls-24" d="M498.51,673.33c-4.8,1.46-12.24,1.36-17.46,0-1.24-.32-2.38-.9-2.63-2.15l-5-24.91h32.65l-5,24.91C500.89,672.41,499.74,672.94,498.51,673.33Z" transform="translate(-75.12 -236.95)"/><ellipse class="cls-16" cx="414.71" cy="409.3" rx="16.27" ry="2.38"/><path class="cls-21" d="M505.43,649.66a55.8,55.8,0,0,1-11.11,7.11,7.7,7.7,0,0,0-3,2.11c-.73,1-.76,2.65.29,3.33.44.29,1.1.5,1.1,1a.93.93,0,0,1-.31.62c-1.1,1.26-2.77,1.86-4.06,2.94s-2.11,3.14-1,4.38a5,5,0,0,0,1.85,1.29c.92.35,1.12,1.9,1.49,1.9a25.09,25.09,0,0,0,7.85-1,2.68,2.68,0,0,0,2.63-2.15Z" transform="translate(-75.12 -236.95)"/><path class="cls-3" d="M484.66,554.16a22.63,22.63,0,0,1-.08-9.45c.54-3.27,2-6.35,5.23-5.74s4.24,4.37,4.42,7.11c.25,3.79-1,7.43-1.38,11.17-.72,6.42.9,12.25,1.52,14.9.13.56.3,1.18.63,2.42,2.06,7.78,3.15,10.12,3.82,13.11a27,27,0,0,1-.12,11.81c-1,4.3-7.88,19.67-9.21,35.43-.63-20.16-4.63-25.81-6-32.69a30.61,30.61,0,0,1-.9-8.53c.65-7.35,2.69-14.49,3.91-21.76S486.5,561.77,484.66,554.16Z" transform="translate(-75.12 -236.95)"/><path class="cls-3" d="M488.77,647.33h0a.43.43,0,0,1-.39-.46h0c3.11-36.19.62-98.28.6-98.9a.44.44,0,0,1,.36-.49.43.43,0,0,1,.49.36.29.29,0,0,1,0,.13c0,.62,2.52,62.76-.6,99A.41.41,0,0,1,488.77,647.33Z" transform="translate(-75.12 -236.95)"/><path class="cls-3" d="M490.27,610.17h0a.42.42,0,0,1-.4-.44h0c.47-10.64,5.33-13.94,5.54-14.08a.45.45,0,0,1,.6.14.43.43,0,0,1-.13.58h0c-.05,0-4.7,3.24-5.16,13.4a.43.43,0,0,1-.45.41Z" transform="translate(-75.12 -236.95)"/><path class="cls-3" d="M490.34,602.46a.43.43,0,0,1-.43-.41c-.64-10.8-4.65-12.32-4.69-12.33a.43.43,0,0,1-.2-.57.42.42,0,0,1,.47-.24c.19.06,4.6,1.61,5.27,13.09a.43.43,0,0,1-.4.46h0Z" transform="translate(-75.12 -236.95)"/><path class="cls-3" d="M490.3,589.18h0a.43.43,0,0,1-.39-.46h0c.81-8.38,3.46-10.81,3.58-10.91a.43.43,0,0,1,.6,0,.43.43,0,0,1,0,.6h0s-2.52,2.39-3.29,10.35a.42.42,0,0,1-.4.44Z" transform="translate(-75.12 -236.95)"/><path class="cls-3" d="M462.15,583.88c-.94-2.32-5-11.11-4.33-14.11,1.74.69,6.58,8.19,8.17,11.55a110.51,110.51,0,0,0,8.29,13.25c2.07,2.84,3.25,3.59,4.81,6.79,1.15,2.26,2.93,11.68,3.06,15.06.27,6.32-1.37,7.58.48,19.51-4-15-12.35-24-13.71-28.4-1.56-5.07-1.61-7.13-2.81-12.55S465.12,590.94,462.15,583.88Z" transform="translate(-75.12 -236.95)"/><path class="cls-3" d="M484.25,647.79a.43.43,0,0,1-.43-.4C481.7,620.49,464.16,583,462.53,581a.28.28,0,0,1-.1-.09.41.41,0,0,1,0-.59h0a.46.46,0,0,1,.46-.08c.72.3,5.89,11.25,10.43,23.18s10.14,29.12,11.32,44a.43.43,0,0,1-.4.46h0ZM463,580.9,463,581Z" transform="translate(-75.12 -236.95)"/><path class="cls-3" d="M478.43,620a.43.43,0,0,1-.41-.32c-2-7.64.36-11.5.75-11.75a.42.42,0,0,1,.58.12h0a.42.42,0,0,1,0,.5c-.12.16-2.41,3.5-.48,10.91a.43.43,0,0,1-.31.52Z" transform="translate(-75.12 -236.95)"/><path class="cls-3" d="M476.72,614.33a.42.42,0,0,1-.4-.27c-2.89-7.29-5.92-7.63-6.26-7.64a.46.46,0,0,1-.42-.35l.43-.08v-.42c.65,0,4,.55,7,8.17a.43.43,0,0,1-.24.56h0Z" transform="translate(-75.12 -236.95)"/><path class="cls-3" d="M473.39,604.76a.43.43,0,0,1-.41-.32c-1.61-6.1-.64-8.87-.24-9a.43.43,0,0,1,.55.26.4.4,0,0,1,0,.34c-.06.14-1,2.44.53,8.21a.41.41,0,0,1-.29.52h-.12Z" transform="translate(-75.12 -236.95)"/><path class="cls-3" d="M511.18,603c1.22-1.42,6.69-6.32,9.12-6.09-.28,1.38-4.44,6.21-6.08,8.21a29.92,29.92,0,0,0-5.24,9.47c-.72,2.3-.56,3.28-1.53,5.4a98.62,98.62,0,0,1-6,8.23c-2.64,3.3-5.54,4.49-8.33,12.72,1.86-10.75,3.36-21.21,5.41-24.33,2.24-3.38,3.53-4.34,6.53-7.23S507.27,607.17,511.18,603Z" transform="translate(-75.12 -236.95)"/><path class="cls-3" d="M491.57,647.79h-.08a.44.44,0,0,1-.34-.51,104.25,104.25,0,0,1,11.73-30.51,82.77,82.77,0,0,1,9.85-13.67c.25-.29.49-.56.57-.67a.45.45,0,0,1,.57-.25.44.44,0,0,1,.25.25c.07.26.06.27-.74,1.19a82.82,82.82,0,0,0-9.76,13.54A103.1,103.1,0,0,0,492,647.44.42.42,0,0,1,491.57,647.79Z" transform="translate(-75.12 -236.95)"/><path class="cls-3" d="M497.68,628.41a.28.28,0,0,1-.18,0,.43.43,0,0,1-.2-.57c2.4-5,5.7-5.44,6.34-5.48v.42h.43a.45.45,0,0,1-.41.41c-.34,0-3.39.37-5.63,5A.42.42,0,0,1,497.68,628.41Z" transform="translate(-75.12 -236.95)"/><path class="cls-3" d="M499.41,624.6h-.16A.43.43,0,0,1,499,624c2.11-5.12.86-7,.76-7.15a.42.42,0,0,1,.46-.7s2.19,1.83-.43,8.18A.42.42,0,0,1,499.41,624.6Z" transform="translate(-75.12 -236.95)"/><path class="cls-3" d="M502.78,618.23a.43.43,0,0,1-.26-.09.45.45,0,0,1-.08-.6c2.48-3.27,4.51-3.77,5.08-3.84l.08.42.42.08a.47.47,0,0,1-.39.35c-.34,0-2.17.42-4.51,3.51A.41.41,0,0,1,502.78,618.23Z" transform="translate(-75.12 -236.95)"/><line class="cls-25" x1="413.85" y1="310.38" x2="415.35" y2="383.88"/><path class="cls-3" d="M495.47,632.83a82,82,0,0,1,21-32" transform="translate(-75.12 -236.95)"/><path class="cls-3" d="M459.47,573.83a173.42,173.42,0,0,1,21,53" transform="translate(-75.12 -236.95)"/><ellipse class="cls-12" cx="331.86" cy="23.48" rx="23.49" ry="23.48"/><circle class="cls-12" cx="362.08" cy="61.78" r="19.77"/><path class="cls-13" d="M397.16,261.33l5.66-2.38.51,1.59-4.13,1.61,4.13,1.61-.51,1.59L397.16,263Z" transform="translate(-75.12 -236.95)"/><path class="cls-13" d="M406.55,268.56h-2L409,255.83h2Z" transform="translate(-75.12 -236.95)"/><path class="cls-13" d="M419.2,263l-5.66,2.39L413,263.8l4.13-1.61L413,260.58l.51-1.59,5.66,2.38Z" transform="translate(-75.12 -236.95)"/><text class="cls-26" transform="translate(351.51 63.71)">WWW</text><circle class="cls-27" cx="386.38" cy="332.8" r="13.94" transform="translate(-192.34 15.67) rotate(-31.69)"/><circle class="cls-27" cx="289.39" cy="130.02" r="6.97"/><path class="cls-27" d="M373.75,403.33a3.22,3.22,0,1,0-3.22,3.22h0A3.22,3.22,0,0,0,373.75,403.33Z" transform="translate(-75.12 -236.95)"/><circle class="cls-12" cx="339.6" cy="98.22" r="16.68"/><g class="cls-28"><text class="cls-29" transform="translate(329.66 101.87)">H</text><text class="cls-26" transform="translate(335.3 101.87)">TML</text></g><circle class="cls-12" cx="381.89" cy="349.54" r="13.35" transform="translate(-94.52 439.68) rotate(-81.65)"/><text class="cls-30" transform="translate(299.24 114.48)">css</text><circle class="cls-12" cx="392.39" cy="369.61" r="11.8" transform="translate(-132.61 429.64) rotate(-76.72)"/><text class="cls-26" transform="translate(309.79 135.07)">PHP</text><circle class="cls-12" cx="373.05" cy="390.82" r="8.54" transform="translate(-143.44 -157.74) rotate(-11.11)"/><text class="cls-26" transform="translate(293.1 156.7)">JS</text><path class="cls-12" d="M386.34,410.09a5.75,5.75,0,1,0-5.75,5.75,5.75,5.75,0,0,0,5.75-5.75Z" transform="translate(-75.12 -236.95)"/><path class="cls-13" d="M378.09,409.8a.51.51,0,0,0,.43-.17.72.72,0,0,0,.13-.45v-1a1.68,1.68,0,0,1,.07-.5.91.91,0,0,1,.24-.37,1.13,1.13,0,0,1,.45-.23,2.71,2.71,0,0,1,.69-.08h.13v.78h-.17a.52.52,0,0,0-.39.13.74.74,0,0,0-.1.41v.87a1.41,1.41,0,0,1-.09.58.9.9,0,0,1-.37.4,1,1,0,0,1,.37.41,1.44,1.44,0,0,1,.09.58V412a.63.63,0,0,0,.1.4.48.48,0,0,0,.39.13h.17v.77h-.13a2.32,2.32,0,0,1-.69-.07A1.13,1.13,0,0,1,379,413a.91.91,0,0,1-.24-.37,1.68,1.68,0,0,1-.07-.5v-1a.66.66,0,0,0-.13-.45.54.54,0,0,0-.43-.17Z" transform="translate(-75.12 -236.95)"/><path class="cls-13" d="M384,410.57a.52.52,0,0,0-.42.17.72.72,0,0,0-.13.45v1a1.42,1.42,0,0,1-.08.5.67.67,0,0,1-.24.37,1.1,1.1,0,0,1-.44.23,2.65,2.65,0,0,1-.69.07h-.13v-.78H382a.48.48,0,0,0,.4-.13.58.58,0,0,0,.1-.4v-.87a1.9,1.9,0,0,1,.09-.58.92.92,0,0,1,.37-.41.9.9,0,0,1-.37-.4,1.85,1.85,0,0,1-.09-.58v-.88a.66.66,0,0,0-.1-.41.53.53,0,0,0-.4-.13h-.16V407H382a3.1,3.1,0,0,1,.69.08,1,1,0,0,1,.44.23.75.75,0,0,1,.24.37,1.42,1.42,0,0,1,.08.5v1a.79.79,0,0,0,.13.45.49.49,0,0,0,.42.17Z" transform="translate(-75.12 -236.95)"/></svg>