<svg id="Layer_2" data-name="Layer 2" xmlns="http://www.w3.org/2000/svg" xmlns:xlink="http://www.w3.org/1999/xlink" viewBox="0 0 228.75 228.71"><defs><style>.cls-1{fill:url(#linear-gradient);}</style><linearGradient id="linear-gradient" x1="-3886.48" y1="229.52" x2="-3885.48" y2="229.52" gradientTransform="translate(70228.75 1186078.79) rotate(90) scale(305.19)" gradientUnits="userSpaceOnUse"><stop offset="0" stop-color="#fc8e53"/><stop offset="1" stop-color="#e69240"/></linearGradient></defs><path class="cls-1" d="M181,228.74a114.36,114.36,0,0,1-98.34-171l105.62.95a45.88,45.88,0,0,1,12.07,90l-5.63,1.6,31.42,44.89,3.31-2A92.07,92.07,0,0,0,139.6,32.6l-37.16-.33a114.33,114.33,0,0,1,193.9,83.14c-.44,49.14-33.31,93.39-80.11,108.08L155,136.74l-9.58-13.53,32.94.16c7.81.07,14.46-1.94,19.21-5.82a18.31,18.31,0,0,0,7.05-14.16c.09-9.87-8.17-19.93-24.14-20.08l-85-.77-1,2.88a92,92,0,0,0-4.68,28.12c-.42,47,35.7,87.42,82.41,92.34l16.1,22.72C185.83,228.7,183.34,228.76,181,228.74Z" transform="translate(-67.6 -0.03)"/></svg>