<svg id="logo" xmlns="http://www.w3.org/2000/svg" xmlns:xlink="http://www.w3.org/1999/xlink" width="71.934" height="30.771" viewBox="0 0 71.934 30.771">
  <defs>
    <linearGradient id="linear-gradient" x1="1.994" y1="0.5" x2="1.996" y2="0.5" gradientUnits="objectBoundingBox">
      <stop offset="0" stop-color="#6937ff"/>
      <stop offset="0.33" stop-color="#6739ff"/>
      <stop offset="0.5" stop-color="#6041ff"/>
      <stop offset="0.63" stop-color="#544eff"/>
      <stop offset="0.75" stop-color="#4361ff"/>
      <stop offset="0.85" stop-color="#2d7aff"/>
      <stop offset="0.95" stop-color="#1398ff"/>
      <stop offset="1" stop-color="#00adff"/>
    </linearGradient>
  </defs>
  <path id="logo1" d="M15.907,30.77A16.122,16.122,0,0,1,2.176,23.055,14.874,14.874,0,0,1,2.147,7.764l14.779.128a6.338,6.338,0,0,1,6.292,5.352A6.177,6.177,0,0,1,18.614,20l-.788.215,4.4,6.04.463-.269A12.122,12.122,0,0,0,27.217,9.364a13.152,13.152,0,0,0-17.1-4.983l-5.2-.044A16.477,16.477,0,0,1,22.353,1.245a15.373,15.373,0,0,1,9.692,14.278A15.6,15.6,0,0,1,20.836,30.064L12.269,18.393l-1.34-1.82,4.609.022a4.246,4.246,0,0,0,2.688-.783,2.432,2.432,0,0,0,.984-1.905c.013-1.328-1.143-2.681-3.378-2.7L3.938,11.1l-.14.387a11.946,11.946,0,0,0-.655,3.783A12.654,12.654,0,0,0,14.674,27.695l2.253,3.057C16.583,30.765,16.234,30.773,15.907,30.77Z" transform="translate(-0.046 0)" fill="url(#linear-gradient)"/>
  <text id="_HAI" data-name="  HAI" transform="translate(32.934 22)" fill="#333" font-size="16" font-family="LeagueSpartan-Bold, League Spartan" font-weight="700"><tspan x="0" y="0" xml:space="preserve">  HAI</tspan></text>
</svg>
