<svg id="Layer_1" data-name="Layer 1" xmlns="http://www.w3.org/2000/svg" viewBox="0 0 711.17 388.63"><defs><style>.cls-1{opacity:0.1;}.cls-2{fill:#8550fc;}</style></defs><g class="cls-1"><path class="cls-2" d="M1063.82,539.12c-.07.13-.16.26-.24.38-4,5.67-18.87,9.87-25.13,12.59-52.17,22.62-104.77,24.63-160.07,16.4q-76.71-11.41-152.06-30.31c-46.63-11.69-99.65-9.51-146.62.52-42.49,9.06-82.81,26.35-125.58,34.28-22.26,4.12-84.78,17.56-98-9.77-3.36-7-1.13-19.6-1.13-27.23V207.06A15.06,15.06,0,0,1,370.06,192c89.8,0,179.6.3,269.39,0,16.75-.06,31.26,6.68,46.56,13.4,29.33,12.88,59,26.65,90.66,32.6,39.42,7.4,79.71,6.65,119.61,5,32.24-1.31,68.85,1.42,96.75-17.76,8.94-6.15,16.34-14.23,24.72-21.1,9.11-7.47,29.56-17.88,41-10.11,8.2,5.59,6.29,16.93,6.29,25.43q0,23.61,0,47.21-.11,93.17-.33,186.35l-.09,62.11C1064.53,521.1,1067,533.81,1063.82,539.12Z" transform="translate(-354.27 -191.3)"/></g></svg>