<svg id="Layer_1" data-name="Layer 1" xmlns="http://www.w3.org/2000/svg" xmlns:xlink="http://www.w3.org/1999/xlink" viewBox="0 0 2774.26 1661.76"><defs><style>.cls-1,.cls-12,.cls-13,.cls-14,.cls-15,.cls-16,.cls-19,.cls-2,.cls-20,.cls-21,.cls-22,.cls-23,.cls-24,.cls-25,.cls-26,.cls-28,.cls-3,.cls-30,.cls-32,.cls-33,.cls-34,.cls-35,.cls-36,.cls-37,.cls-4,.cls-5,.cls-6,.cls-8{fill-rule:evenodd;}.cls-1{fill:url(#linear-gradient);}.cls-2{fill:#708280;}.cls-3{fill:#d7d7d3;}.cls-17,.cls-4{fill:#e7e5e4;}.cls-5{fill:#8550fc;}.cls-6,.cls-7{fill:#7f7d7c;}.cls-8,.cls-9{fill:#f3c09b;}.cls-10,.cls-15{fill:#001e2c;}.cls-11{fill:#00111b;}.cls-12{fill:#969697;}.cls-13{fill:#f6cdb0;}.cls-14{fill:#f6d3ba;}.cls-16,.cls-27{fill:#f4d37e;}.cls-18{fill:none;stroke:#fc8e53;stroke-miterlimit:10;stroke-width:16px;}.cls-19{fill:#deded9;}.cls-20{fill:#c6c8bf;}.cls-21{fill:#fdfdff;}.cls-22{fill:#612424;}.cls-23{fill:#4b0c0d;}.cls-24{fill:#3d0405;}.cls-25{fill:#eb664e;}.cls-26{fill:#cacacb;}.cls-28,.cls-31{fill:#9fbeb9;}.cls-29,.cls-30{fill:#c1dedc;}.cls-32{fill:#0b0808;}.cls-33{fill:#242424;}.cls-34{fill:#738380;}.cls-35{fill:#32413e;}.cls-36{fill:#4e6461;}.cls-37{fill:#8d9e9c;}</style><linearGradient id="linear-gradient" x1="1029.09" y1="-66.73" x2="1029.09" y2="-1728.49" gradientTransform="matrix(1, 0, 0, -1, -2770.5, 175.96)" gradientUnits="userSpaceOnUse"><stop offset="0" stop-color="#fff"/><stop offset="1" stop-color="#8550fc" stop-opacity="0.2"/></linearGradient></defs><path class="cls-1" d="M-2148.4,1876.76q320.13-8,640.38-9.24,297-1.18,594,3.37c85.14,1.31,170.33.82,255.48,1.49,93.42.74,207.71-14.27,297.87,10.4,27-65.12-37.79-184.13-74.61-238.78-53.57-79.49-129.08-141.13-194.95-210.78-196.45-207.73-133.83-509.48-260.2-752.35-78.47-150.79-216.33-265.78-371.29-335.64-325.14-146.57-742.14-134.52-1059.66,26.63-126.43,64.17-238.16,162.22-311.88,283.91-88,145.21-82.33,296.31-117.24,456-34.5,157.75-111.3,306.39-221.32,424.73-57.26,61.59-197.25,186.21-145.39,286.14,59.12,113.9,317,77.1,421.59,72.63Q-2422.11,1883.58-2148.4,1876.76Z" transform="translate(3128.54 -242.69)"/><path class="cls-2" d="M-1267.08,983.81h-52.19a9.87,9.87,0,0,0-.46-2.09h-713.58a9.87,9.87,0,0,0-.46,2.09h-49.51c-23.88,0-43.24,17.84-43.24,39.85v501.78c0,22,19.36,39.86,43.24,39.86h9.91v7.36a15.48,15.48,0,0,0,10.26,14.52v27.57h-5.19v14.88H-2073v87.71h166.89v-87.71h-4.65v-14.88h-5.2v-27.57a15.48,15.48,0,0,0,10.26-14.52v-7.36H-1437v49.45h-5.19v14.88h-4.66v87.71H-1280v-87.71h-4.66v-14.88h-5.19V1565.3h22.76c23.88,0,43.25-17.84,43.25-39.86V1023.66C-1223.83,1001.65-1243.2,983.81-1267.08,983.81Z" transform="translate(3128.54 -242.69)"/><path class="cls-3" d="M-1100.56,537.58H-2249.34c-3.71,0-6,32.62-4.61,36.18L-2119.56,893c2.7,7,10.07,11.87,17.93,11.87h855.25c8.31,0,16.08-5.17,18.9-12.58l132.35-321.86C-1093.55,566.29-1096.29,537.58-1100.56,537.58Z" transform="translate(3128.54 -242.69)"/><path class="cls-4" d="M-1100.56,566.72H-2249.34a5,5,0,0,0-5,5,5.06,5.06,0,0,0,.42,2l134.39,348.38c2.7,7,10.07,11.87,17.93,11.87h855.25c8.31,0,16.08-5.16,18.9-12.57l132.23-346.57C-1093.67,570.72-1096.29,566.72-1100.56,566.72Z" transform="translate(3128.54 -242.69)"/><path class="cls-5" d="M-1267.39,980.68h-816.2c-23.88,0-43.23,17.85-43.23,39.86v501.77c0,22,19.35,39.86,43.23,39.86h816.2c23.89,0,43.25-17.84,43.25-39.86V1020.54C-1224.14,998.53-1243.46,980.68-1267.39,980.68Z" transform="translate(3128.54 -242.69)"/><path class="cls-3" d="M-1295.85,979h-757.61a16.35,16.35,0,0,0-16.34,16.34v290.87a16.35,16.35,0,0,0,16.34,16.34h757.57a16.34,16.34,0,0,0,16.34-16.32V995.38A16.32,16.32,0,0,0-1295.85,979Z" transform="translate(3128.54 -242.69)"/><path class="cls-3" d="M-1535.85,1330.1h-271.91c-6.2,0-11.22,3.7-11.22,8.26v140.9c0,4.57,5,8.26,11.22,8.26h271.91c6.21,0,11.22-3.69,11.22-8.26v-140.9C-1524.63,1333.75-1529.64,1330.1-1535.85,1330.1Z" transform="translate(3128.54 -242.69)"/><path class="cls-6" d="M-2014,995.16h-32.57a8.22,8.22,0,0,0-8.23,8.23v13.51a8.22,8.22,0,0,0,8.22,8.22H-2014a8.23,8.23,0,0,0,8.23-8.21h0v-13.51A8.22,8.22,0,0,0-2014,995.16Z" transform="translate(3128.54 -242.69)"/><path class="cls-6" d="M-1959.1,995.16h-32.58a8.22,8.22,0,0,0-8.22,8.22h0v13.51a8.22,8.22,0,0,0,8.2,8.22h32.6a8.22,8.22,0,0,0,8.22-8.2v-13.53a8.21,8.21,0,0,0-8.21-8.23Z" transform="translate(3128.54 -242.69)"/><path class="cls-6" d="M-1904.17,995.16h-32.57a8.22,8.22,0,0,0-8.23,8.21v13.53a8.22,8.22,0,0,0,8.22,8.22h32.58a8.23,8.23,0,0,0,8.23-8.21h0v-13.51A8.22,8.22,0,0,0-1904.17,995.16Z" transform="translate(3128.54 -242.69)"/><path class="cls-6" d="M-1849.24,995.16h-32.57a8.22,8.22,0,0,0-8.23,8.23v13.51a8.22,8.22,0,0,0,8.22,8.22h32.58a8.23,8.23,0,0,0,8.23-8.21h0v-13.51A8.22,8.22,0,0,0-1849.24,995.16Z" transform="translate(3128.54 -242.69)"/><path class="cls-6" d="M-1794.3,995.16h-32.57a8.22,8.22,0,0,0-8.23,8.21v13.53a8.22,8.22,0,0,0,8.22,8.22h32.58a8.22,8.22,0,0,0,8.22-8.2v-13.53a8.21,8.21,0,0,0-8.21-8.23Z" transform="translate(3128.54 -242.69)"/><path class="cls-6" d="M-1739.38,995.16h-32.57a8.22,8.22,0,0,0-8.22,8.22h0v13.51a8.22,8.22,0,0,0,8.2,8.22h32.59a8.22,8.22,0,0,0,8.23-8.21h0v-13.51a8.21,8.21,0,0,0-8.21-8.23Z" transform="translate(3128.54 -242.69)"/><path class="cls-6" d="M-1684.46,995.16H-1717a8.22,8.22,0,0,0-8.22,8.22h0v13.51a8.22,8.22,0,0,0,8.2,8.22h32.59a8.23,8.23,0,0,0,8.23-8.21h0v-13.51A8.22,8.22,0,0,0-1684.46,995.16Z" transform="translate(3128.54 -242.69)"/><path class="cls-6" d="M-1629.46,995.16H-1662a8.22,8.22,0,0,0-8.22,8.22h0v13.51a8.22,8.22,0,0,0,8.2,8.22h32.6a8.23,8.23,0,0,0,8.23-8.21h0v-13.51A8.22,8.22,0,0,0-1629.46,995.16Z" transform="translate(3128.54 -242.69)"/><path class="cls-6" d="M-1574.57,995.16h-32.57a8.23,8.23,0,0,0-8.24,8.22h0v13.51a8.22,8.22,0,0,0,8.22,8.22h32.59a8.22,8.22,0,0,0,8.22-8.2v-13.53a8.21,8.21,0,0,0-8.21-8.23Z" transform="translate(3128.54 -242.69)"/><path class="cls-6" d="M-1519.63,995.16h-32.58a8.22,8.22,0,0,0-8.22,8.22h0v13.51a8.22,8.22,0,0,0,8.2,8.22h32.6a8.22,8.22,0,0,0,8.21-8.21h0v-13.51A8.21,8.21,0,0,0-1519.63,995.16Z" transform="translate(3128.54 -242.69)"/><path class="cls-6" d="M-1464.7,995.16h-32.58a8.22,8.22,0,0,0-8.22,8.22h0v13.51a8.22,8.22,0,0,0,8.2,8.22h32.6a8.22,8.22,0,0,0,8.22-8.2v-13.53a8.21,8.21,0,0,0-8.21-8.23Z" transform="translate(3128.54 -242.69)"/><path class="cls-6" d="M-1409.77,995.16h-32.57a8.22,8.22,0,0,0-8.23,8.21v13.53a8.22,8.22,0,0,0,8.22,8.22h32.58a8.22,8.22,0,0,0,8.22-8.2v-13.53a8.21,8.21,0,0,0-8.21-8.23Z" transform="translate(3128.54 -242.69)"/><path class="cls-6" d="M-1354.83,995.16h-32.58a8.22,8.22,0,0,0-8.22,8.22h0v13.51a8.22,8.22,0,0,0,8.2,8.22h32.6a8.22,8.22,0,0,0,8.22-8.2v-13.53a8.21,8.21,0,0,0-8.21-8.23Z" transform="translate(3128.54 -242.69)"/><path class="cls-6" d="M-1299.9,995.16h-32.56a8.22,8.22,0,0,0-8.22,8.22h0v13.51a8.22,8.22,0,0,0,8.22,8.2h32.58a8.2,8.2,0,0,0,8.21-8.19v-13.54a8.21,8.21,0,0,0-8.21-8.21Z" transform="translate(3128.54 -242.69)"/><path class="cls-6" d="M-2010.46,1029.61h-40.76a1.84,1.84,0,0,0-1.84,1.84h0v40.77a1.83,1.83,0,0,0,1.83,1.83h40.77a1.85,1.85,0,0,0,1.85-1.83h0v-40.77a1.85,1.85,0,0,0-1.85-1.85Z" transform="translate(3128.54 -242.69)"/><path class="cls-6" d="M-1929.87,1081.1h-40.76a1.84,1.84,0,0,0-1.85,1.83h0v40.77a1.86,1.86,0,0,0,1.85,1.84h40.76a1.84,1.84,0,0,0,1.84-1.84h0v-40.77a1.84,1.84,0,0,0-1.84-1.84Z" transform="translate(3128.54 -242.69)"/><path class="cls-6" d="M-1918,1132.56h-40.77a1.84,1.84,0,0,0-1.84,1.84h0v40.77a1.84,1.84,0,0,0,1.84,1.84H-1918a1.84,1.84,0,0,0,1.84-1.84h0V1134.4a1.84,1.84,0,0,0-1.84-1.84Z" transform="translate(3128.54 -242.69)"/><rect class="cls-7" x="1195.61" y="941.34" width="44.45" height="44.45" rx="1.84"/><rect class="cls-7" x="1075.45" y="992.79" width="44.45" height="50.11" rx="1.95"/><rect class="cls-7" x="1129.6" y="992.79" width="44.45" height="50.11" rx="1.95"/><path class="cls-7" d="M-1944.49,1235.49H-1904a2,2,0,0,1,2,2v46.2a2,2,0,0,1-2,2h-40.55a2,2,0,0,1-2-2v-46.21a2,2,0,0,1,2-2Z" transform="translate(3128.54 -242.69)"/><path class="cls-6" d="M-1837.77,1235.49h-53.5a2.21,2.21,0,0,0-2.22,2.22v45.66a2.22,2.22,0,0,0,2.21,2.23h53.51a2.23,2.23,0,0,0,2.23-2.23v-45.66A2.23,2.23,0,0,0-1837.77,1235.49Z" transform="translate(3128.54 -242.69)"/><path class="cls-6" d="M-1508.66,1235.49h-53.5a2.23,2.23,0,0,0-2.23,2.22v45.66a2.23,2.23,0,0,0,2.23,2.23h53.5a2.23,2.23,0,0,0,2.23-2.23v-45.66A2.23,2.23,0,0,0-1508.66,1235.49Z" transform="translate(3128.54 -242.69)"/><path class="cls-6" d="M-1454.46,1235.49h-40a1.92,1.92,0,0,0-1.93,1.91v46.26a1.93,1.93,0,0,0,1.92,1.94h40a1.94,1.94,0,0,0,1.94-1.94v-46.24a1.92,1.92,0,0,0-1.93-1.93Z" transform="translate(3128.54 -242.69)"/><path class="cls-6" d="M-1575.46,1235.49h-246.89a4.69,4.69,0,0,0-4.69,4.69v40.73a4.69,4.69,0,0,0,4.69,4.69h246.89a4.69,4.69,0,0,0,4.68-4.68h0v-40.73a4.67,4.67,0,0,0-4.67-4.69Z" transform="translate(3128.54 -242.69)"/><rect class="cls-7" x="1248.56" y="941.34" width="44.45" height="44.45" rx="1.84"/><rect class="cls-7" x="1301.5" y="941.34" width="44.45" height="44.45" rx="1.84"/><rect class="cls-7" x="1354.45" y="941.34" width="44.45" height="44.45" rx="1.84"/><path class="cls-6" d="M-1678.54,1184h-40.77a1.84,1.84,0,0,0-1.84,1.84v40.77a1.84,1.84,0,0,0,1.84,1.84h40.77a1.84,1.84,0,0,0,1.84-1.84v-40.77A1.84,1.84,0,0,0-1678.54,1184Z" transform="translate(3128.54 -242.69)"/><path class="cls-6" d="M-1625.6,1184h-40.76a1.85,1.85,0,0,0-1.85,1.84v40.77a1.84,1.84,0,0,0,1.84,1.84h40.77a1.85,1.85,0,0,0,1.85-1.83h0v-40.77A1.85,1.85,0,0,0-1625.6,1184Z" transform="translate(3128.54 -242.69)"/><path class="cls-6" d="M-1572.65,1184h-40.81a1.84,1.84,0,0,0-1.84,1.84v40.77a1.84,1.84,0,0,0,1.84,1.84h40.77a1.83,1.83,0,0,0,1.83-1.83h0v-40.77A1.82,1.82,0,0,0-1572.65,1184Z" transform="translate(3128.54 -242.69)"/><rect class="cls-7" x="1566.23" y="941.34" width="44.45" height="44.45" rx="1.84"/><rect class="cls-7" x="1619.17" y="941.34" width="44.45" height="44.45" rx="1.84"/><path class="cls-6" d="M-1406.69,1260.54h-31a7.14,7.14,0,0,0-7.13,7.14v11.54a7.14,7.14,0,0,0,7.12,7.14h31a7.15,7.15,0,0,0,7.13-7.14v-11.54A7.14,7.14,0,0,0-1406.69,1260.54Z" transform="translate(3128.54 -242.69)"/><rect class="cls-7" x="1736.83" y="1017.84" width="45.26" height="25.82" rx="7.14"/><path class="cls-6" d="M-1353.59,1231.6h-31a7.14,7.14,0,0,0-7.14,7.14h0v11.55a7.14,7.14,0,0,0,7.14,7.13h31a7.14,7.14,0,0,0,7.14-7.13v-11.55a7.14,7.14,0,0,0-7.14-7.14Z" transform="translate(3128.54 -242.69)"/><path class="cls-6" d="M-1300.46,1260.54h-31a7.14,7.14,0,0,0-7.13,7.14v11.54a7.14,7.14,0,0,0,7.12,7.14h31a7.15,7.15,0,0,0,7.15-7.13h0v-11.54A7.15,7.15,0,0,0-1300.46,1260.54Z" transform="translate(3128.54 -242.69)"/><path class="cls-6" d="M-1864.56,1132.56h-40.77a1.82,1.82,0,0,0-1.83,1.83h0v40.77a1.83,1.83,0,0,0,1.82,1.84h40.78a1.84,1.84,0,0,0,1.84-1.84h0V1134.4a1.84,1.84,0,0,0-1.84-1.84Z" transform="translate(3128.54 -242.69)"/><path class="cls-6" d="M-1811.12,1132.56h-40.77a1.84,1.84,0,0,0-1.84,1.84h0v40.77a1.84,1.84,0,0,0,1.84,1.84h40.77a1.84,1.84,0,0,0,1.84-1.84h0V1134.4a1.84,1.84,0,0,0-1.84-1.84Z" transform="translate(3128.54 -242.69)"/><path class="cls-6" d="M-1757.69,1132.56h-40.77a1.82,1.82,0,0,0-1.83,1.83h0v40.77a1.83,1.83,0,0,0,1.82,1.84h40.78a1.84,1.84,0,0,0,1.84-1.84V1134.4A1.84,1.84,0,0,0-1757.69,1132.56Z" transform="translate(3128.54 -242.69)"/><path class="cls-6" d="M-1704.58,1132.56h-40.77a1.84,1.84,0,0,0-1.84,1.84v40.77a1.84,1.84,0,0,0,1.84,1.84h40.77a1.84,1.84,0,0,0,1.84-1.84V1134.4A1.84,1.84,0,0,0-1704.58,1132.56Z" transform="translate(3128.54 -242.69)"/><rect class="cls-7" x="1434.79" y="889.86" width="44.44" height="44.45" rx="1.84"/><rect class="cls-7" x="1485.94" y="889.86" width="44.45" height="44.45" rx="1.84"/><path class="cls-6" d="M-1547,1132.56h-40.78a1.82,1.82,0,0,0-1.83,1.83h0v40.77a1.84,1.84,0,0,0,1.82,1.84H-1547a1.84,1.84,0,0,0,1.84-1.84V1134.4A1.84,1.84,0,0,0-1547,1132.56Z" transform="translate(3128.54 -242.69)"/><rect class="cls-7" x="1591.83" y="889.86" width="44.45" height="44.45" rx="1.84"/><rect class="cls-7" x="1644.45" y="889.86" width="44.45" height="44.45" rx="1.84"/><path class="cls-6" d="M-1388.87,1132.56h-40.77a1.84,1.84,0,0,0-1.84,1.84v40.77a1.84,1.84,0,0,0,1.84,1.84h40.77a1.84,1.84,0,0,0,1.84-1.84V1134.4A1.84,1.84,0,0,0-1388.87,1132.56Z" transform="translate(3128.54 -242.69)"/><rect class="cls-7" x="1671.6" y="941.34" width="44.44" height="44.45" rx="1.84"/><path class="cls-6" d="M-1295.66,1132.56h-78.72a2.52,2.52,0,0,0-2.52,2.52h0v39.41a2.54,2.54,0,0,0,2.52,2.52h78.72a2.54,2.54,0,0,0,2.53-2.52V1135.1a2.52,2.52,0,0,0-2.5-2.54Z" transform="translate(3128.54 -242.69)"/><path class="cls-6" d="M-1296,1184h-105.59a2.91,2.91,0,0,0-2.91,2.92v38.62a2.91,2.91,0,0,0,2.91,2.91H-1296a2.9,2.9,0,0,0,2.89-2.91h0V1187A2.9,2.9,0,0,0-1296,1184Z" transform="translate(3128.54 -242.69)"/><path class="cls-6" d="M-1971,1132.56h-79.57a2.54,2.54,0,0,0-2.54,2.54h0v39.37a2.54,2.54,0,0,0,2.54,2.54H-1971a2.55,2.55,0,0,0,2.53-2.54V1135.1A2.54,2.54,0,0,0-1971,1132.56Z" transform="translate(3128.54 -242.69)"/><rect class="cls-7" x="1074.58" y="941.34" width="112.97" height="44.45" rx="2.93"/><path class="cls-6" d="M-1876.7,1081.1h-40.76a1.84,1.84,0,0,0-1.84,1.84h0v40.77a1.84,1.84,0,0,0,1.84,1.84h40.77a1.85,1.85,0,0,0,1.84-1.84v-40.77a1.84,1.84,0,0,0-1.84-1.84Z" transform="translate(3128.54 -242.69)"/><rect class="cls-7" x="1262.07" y="838.4" width="44.45" height="44.45" rx="1.84"/><path class="cls-6" d="M-1770.7,1081.1h-40.76a1.84,1.84,0,0,0-1.84,1.84h0v40.77a1.86,1.86,0,0,0,1.84,1.84h40.78a1.85,1.85,0,0,0,1.83-1.84v-40.77a1.82,1.82,0,0,0-1.82-1.84Z" transform="translate(3128.54 -242.69)"/><path class="cls-6" d="M-1717.54,1081.1h-40.77a1.84,1.84,0,0,0-1.84,1.84v40.77a1.84,1.84,0,0,0,1.84,1.84h40.77a1.84,1.84,0,0,0,1.84-1.84v-40.77A1.84,1.84,0,0,0-1717.54,1081.1Z" transform="translate(3128.54 -242.69)"/><path class="cls-6" d="M-1664.71,1081.1h-40.75a1.82,1.82,0,0,0-1.83,1.83h0v40.77a1.85,1.85,0,0,0,1.83,1.84h40.77a1.84,1.84,0,0,0,1.84-1.84v-40.77a1.84,1.84,0,0,0-1.84-1.84Z" transform="translate(3128.54 -242.69)"/><rect class="cls-7" x="1472.87" y="838.4" width="44.44" height="44.45" rx="1.84"/><path class="cls-6" d="M-1559.46,1081.1h-40.78a1.84,1.84,0,0,0-1.84,1.84v40.77a1.86,1.86,0,0,0,1.84,1.84h40.78a1.86,1.86,0,0,0,1.84-1.84v-40.77A1.85,1.85,0,0,0-1559.46,1081.1Z" transform="translate(3128.54 -242.69)"/><path class="cls-6" d="M-1506.52,1081.1h-40.78a1.84,1.84,0,0,0-1.84,1.84v40.77a1.86,1.86,0,0,0,1.84,1.84h40.78a1.85,1.85,0,0,0,1.83-1.84v-40.77a1.82,1.82,0,0,0-1.82-1.84Z" transform="translate(3128.54 -242.69)"/><path class="cls-6" d="M-1454.46,1081.1h-40.77a1.84,1.84,0,0,0-1.84,1.84v40.77a1.86,1.86,0,0,0,1.84,1.84h40.77a1.86,1.86,0,0,0,1.84-1.84v-40.77A1.84,1.84,0,0,0-1454.46,1081.1Z" transform="translate(3128.54 -242.69)"/><path class="cls-6" d="M-1400.2,1081.1H-1441a1.84,1.84,0,0,0-1.84,1.84v40.77a1.86,1.86,0,0,0,1.84,1.84h40.77a1.86,1.86,0,0,0,1.84-1.84v-40.77A1.84,1.84,0,0,0-1400.2,1081.1Z" transform="translate(3128.54 -242.69)"/><path class="cls-6" d="M-1348.34,1081.1h-40.78a1.85,1.85,0,0,0-1.84,1.84v40.77a1.86,1.86,0,0,0,1.84,1.84h40.78a1.86,1.86,0,0,0,1.84-1.84v-40.77A1.84,1.84,0,0,0-1348.34,1081.1Z" transform="translate(3128.54 -242.69)"/><path class="cls-6" d="M-1294.95,1081.1h-40.78a1.84,1.84,0,0,0-1.84,1.84v40.77a1.84,1.84,0,0,0,1.84,1.84h40.78a1.83,1.83,0,0,0,1.82-1.84v-40.77a1.81,1.81,0,0,0-1.8-1.84Z" transform="translate(3128.54 -242.69)"/><path class="cls-6" d="M-1956.56,1029.61h-40.77a1.84,1.84,0,0,0-1.84,1.85v40.77a1.85,1.85,0,0,0,1.84,1.83h40.77a1.84,1.84,0,0,0,1.84-1.82h0v-40.77a1.83,1.83,0,0,0-1.83-1.85Z" transform="translate(3128.54 -242.69)"/><path class="cls-6" d="M-1904.27,1029.61H-1945a1.83,1.83,0,0,0-1.83,1.85h0v40.77a1.83,1.83,0,0,0,1.83,1.83h40.77a1.84,1.84,0,0,0,1.84-1.82h0v-40.77a1.83,1.83,0,0,0-1.83-1.85Z" transform="translate(3128.54 -242.69)"/><path class="cls-6" d="M-1850.67,1029.61h-40.79a1.83,1.83,0,0,0-1.83,1.85h0v40.77a1.84,1.84,0,0,0,1.79,1.87h40.81a1.84,1.84,0,0,0,1.84-1.82h0V1031.5a1.83,1.83,0,0,0-1.79-1.89Z" transform="translate(3128.54 -242.69)"/><path class="cls-6" d="M-1798.4,1029.61h-40.77a1.84,1.84,0,0,0-1.84,1.84h0v40.77a1.83,1.83,0,0,0,1.83,1.83h40.78a1.84,1.84,0,0,0,1.84-1.83v-40.77A1.84,1.84,0,0,0-1798.4,1029.61Z" transform="translate(3128.54 -242.69)"/><path class="cls-6" d="M-1744.46,1029.61h-40.78a1.84,1.84,0,0,0-1.83,1.85h0v40.77a1.83,1.83,0,0,0,1.83,1.83h40.78a1.83,1.83,0,0,0,1.83-1.83h0v-40.77a1.83,1.83,0,0,0-1.83-1.85Z" transform="translate(3128.54 -242.69)"/><path class="cls-6" d="M-1692.7,1029.61h-40.76a1.85,1.85,0,0,0-1.85,1.85h0v40.77a1.84,1.84,0,0,0,1.81,1.87h40.81a1.83,1.83,0,0,0,1.83-1.83h0V1031.5a1.83,1.83,0,0,0-1.79-1.89Z" transform="translate(3128.54 -242.69)"/><path class="cls-6" d="M-1638.88,1029.61h-40.78a1.83,1.83,0,0,0-1.83,1.85h0v40.77a1.83,1.83,0,0,0,1.83,1.83h40.78a1.85,1.85,0,0,0,1.83-1.83v-40.77A1.85,1.85,0,0,0-1638.88,1029.61Z" transform="translate(3128.54 -242.69)"/><path class="cls-6" d="M-1586.6,1029.61h-40.77a1.84,1.84,0,0,0-1.84,1.84h0v40.77a1.83,1.83,0,0,0,1.83,1.83h40.78a1.84,1.84,0,0,0,1.84-1.82h0v-40.77a1.83,1.83,0,0,0-1.83-1.85Z" transform="translate(3128.54 -242.69)"/><path class="cls-6" d="M-1532.88,1029.61h-40.78a1.84,1.84,0,0,0-1.84,1.85v40.77a1.85,1.85,0,0,0,1.84,1.83h40.78a1.85,1.85,0,0,0,1.84-1.83v-40.77A1.86,1.86,0,0,0-1532.88,1029.61Z" transform="translate(3128.54 -242.69)"/><path class="cls-6" d="M-1479.29,1029.61h-40.77a1.84,1.84,0,0,0-1.84,1.85v40.77a1.85,1.85,0,0,0,1.84,1.83h40.77a1.84,1.84,0,0,0,1.84-1.82h0v-40.77a1.83,1.83,0,0,0-1.83-1.85Z" transform="translate(3128.54 -242.69)"/><path class="cls-6" d="M-1426.23,1029.61H-1467a1.84,1.84,0,0,0-1.84,1.84h0v40.77a1.83,1.83,0,0,0,1.83,1.83h40.78a1.83,1.83,0,0,0,1.83-1.83h0v-40.77a1.83,1.83,0,0,0-1.83-1.85Z" transform="translate(3128.54 -242.69)"/><path class="cls-6" d="M-1375.25,1029.61H-1416a1.84,1.84,0,0,0-1.84,1.84h0v40.77a1.83,1.83,0,0,0,1.83,1.83h40.78a1.84,1.84,0,0,0,1.84-1.82h0v-40.77a1.83,1.83,0,0,0-1.83-1.85Z" transform="translate(3128.54 -242.69)"/><path class="cls-6" d="M-1298.83,1029.61h-61a5.1,5.1,0,0,0-5.1,5.12h0V1069a5.1,5.1,0,0,0,5.1,5.1h61a5.1,5.1,0,0,0,5.1-5.1h0v-34.23a5.1,5.1,0,0,0-5.1-5.12Z" transform="translate(3128.54 -242.69)"/><path class="cls-6" d="M-1987,1081.1h-61a5.1,5.1,0,0,0-5.1,5.1h0v34.24a5.1,5.1,0,0,0,5.09,5.11h61a5.11,5.11,0,0,0,5.11-5.11h0V1086.2a5.1,5.1,0,0,0-5.1-5.1Z" transform="translate(3128.54 -242.69)"/><path class="cls-3" d="M-1321,934H-2027c-2.41,0-4.37,3.26-4.37,7.27v17c0,4,2,7.28,4.37,7.28H-1321c2.42,0,4.38-3.26,4.38-7.28v-17C-1316.67,937.23-1318.63,934-1321,934Z" transform="translate(3128.54 -242.69)"/><path class="cls-8" d="M-1346.77,1244h-117.35a50,50,0,0,0-49.84,49.84v97.88c0,50.68,41.46,92.14,92.14,92.14h75c50.67,0,92.14-41.46,92.14-92.14V1336.1C-1254.63,1285.45-1296.1,1244-1346.77,1244Z" transform="translate(3128.54 -242.69)"/><rect class="cls-9" x="1694.01" y="1138.36" width="147.19" height="290.19"/><rect class="cls-10" x="1684.16" y="1342.95" width="166.9" height="127.19"/><rect class="cls-11" x="1684.16" y="1342.95" width="73.32" height="127.19"/><path class="cls-12" d="M-1413.8,1613.1a18.15,18.15,0,0,0-18.15,18.15,18.16,18.16,0,0,0,18.15,18.15,18.16,18.16,0,0,0,18.15-18.15h0A18.15,18.15,0,0,0-1413.8,1613.1Z" transform="translate(3128.54 -242.69)"/><path class="cls-13" d="M-1337.66,1274.73h-89.47a38.12,38.12,0,0,0-38,38v74.63a70.47,70.47,0,0,0,70.25,70.26h57.22a70.48,70.48,0,0,0,70.26-70.26V1345A70.46,70.46,0,0,0-1337.66,1274.73Z" transform="translate(3128.54 -242.69)"/><path class="cls-14" d="M-1321,1291.74h-44.43a22.67,22.67,0,0,0-22.61,22.61v71.35a41.93,41.93,0,0,0,41.8,41.8h25.21a41.93,41.93,0,0,0,41.8-41.8v-52.16A41.92,41.92,0,0,0-1321,1291.74Z" transform="translate(3128.54 -242.69)"/><path class="cls-8" d="M-1883.82,1244h-117.34c-50.69,0-92.15,41.46-92.15,92.14v55.58c0,50.68,41.46,92.14,92.15,92.14h75c50.68,0,92.15-41.46,92.15-92.14v-97.88A50,50,0,0,0-1883.82,1244Z" transform="translate(3128.54 -242.69)"/><rect class="cls-9" x="1067.94" y="1138.36" width="147.19" height="290.19"/><rect class="cls-10" x="1058.09" y="1342.95" width="166.89" height="127.19"/><rect class="cls-11" x="1151.67" y="1342.95" width="73.31" height="127.19"/><path class="cls-12" d="M-1934.14,1613.1a18.15,18.15,0,0,0-18.15,18.15,18.16,18.16,0,0,0,18.15,18.15,18.16,18.16,0,0,0,18.15-18.15h0A18.16,18.16,0,0,0-1934.14,1613.1Z" transform="translate(3128.54 -242.69)"/><path class="cls-13" d="M-1920.81,1274.73h-89.47a70.46,70.46,0,0,0-70.26,70.26v42.38a70.48,70.48,0,0,0,70.26,70.26h57.22a70.47,70.47,0,0,0,70.26-70.26v-74.63A38.12,38.12,0,0,0-1920.81,1274.73Z" transform="translate(3128.54 -242.69)"/><path class="cls-14" d="M-1982.46,1291.74h-44.4a41.92,41.92,0,0,0-41.8,41.8v52.16a41.93,41.93,0,0,0,41.8,41.8h25.21a41.93,41.93,0,0,0,41.8-41.8v-71.35A22.67,22.67,0,0,0-1982.46,1291.74Z" transform="translate(3128.54 -242.69)"/><path class="cls-15" d="M-1918.57,1478h-136.89a15.46,15.46,0,0,0-15.41,15.41v35.28a15.46,15.46,0,0,0,15.41,15.42h136.88a15.47,15.47,0,0,0,15.42-15.41V1493.4A15.46,15.46,0,0,0-1918.57,1478Z" transform="translate(3128.54 -242.69)"/><path class="cls-16" d="M-2002.54,1461.69a49.34,49.34,0,0,0-49.34,49.36,49.36,49.36,0,0,0,49.36,49.34,49.35,49.35,0,0,0,49.34-49.35,49.33,49.33,0,0,0-49.33-49.35Z" transform="translate(3128.54 -242.69)"/><path class="cls-15" d="M-2006.16,1494.74a4.7,4.7,0,0,0-6.4-1.87,4.72,4.72,0,0,0-1.87,6.4l6.27,11.35-13.8,17.92a4.7,4.7,0,0,0,1.14,6.56,4.72,4.72,0,0,0,6.31-.81l15.53-20.17a4.69,4.69,0,0,0,.57-5.36Z" transform="translate(3128.54 -242.69)"/><rect class="cls-17" x="1062.74" y="1328.06" width="157.58" height="14.89"/><rect class="cls-17" x="1688.81" y="1328.06" width="157.59" height="14.89"/><polygon class="cls-5" points="1025.72 677.82 1874.71 677.82 1985.15 368.8 914.64 368.8 1025.72 677.82"/><line class="cls-18" x1="1391.27" y1="446.5" x2="1180.35" y2="524.4"/><line class="cls-18" x1="1428.84" y1="653.17" x2="1178.29" y2="520.25"/><line class="cls-18" x1="1499.48" y1="653.78" x2="1711.81" y2="578.79"/><line class="cls-18" x1="1480.03" y1="450.07" x2="1721.81" y2="582.97"/><line class="cls-18" x1="1431.86" y1="409.62" x2="1467.95" y2="665.81"/><path class="cls-2" d="M-2464.31,802.45A156.66,156.66,0,0,0-2628.8,950.87a156.66,156.66,0,0,0,148.42,164.48,156.66,156.66,0,0,0,164.49-148.41,156.65,156.65,0,0,0-148.4-164.49Z" transform="translate(3128.54 -242.69)"/><path class="cls-19" d="M-2471.93,769.49A156.66,156.66,0,0,0-2636.37,918,156.66,156.66,0,0,0-2487.9,1082.4,156.67,156.67,0,0,0-2323.46,934a156.66,156.66,0,0,0-148.42-164.49Z" transform="translate(3128.54 -242.69)"/><path class="cls-20" d="M-2468.6,823.76a110.78,110.78,0,0,0-116.32,105A110.77,110.77,0,0,0-2480,1045,110.77,110.77,0,0,0-2363.65,940.1a110.76,110.76,0,0,0-104.91-116.34Z" transform="translate(3128.54 -242.69)"/><path class="cls-21" d="M-2474.28,815.32a110.77,110.77,0,0,0-116.27,105,110.78,110.78,0,0,0,105,116.27,110.78,110.78,0,0,0,116.27-105,110.77,110.77,0,0,0-104.94-116.31Z" transform="translate(3128.54 -242.69)"/><path class="cls-22" d="M-2475.18,833a93.08,93.08,0,0,0-97.74,88.19,93.08,93.08,0,0,0,88.19,97.74A93.09,93.09,0,0,0-2387,930.72h0A93.08,93.08,0,0,0-2475.18,833Z" transform="translate(3128.54 -242.69)"/><path class="cls-21" d="M-2331.8,908.6l-38.6-2a15.77,15.77,0,0,0-16.2,15.33A15.78,15.78,0,0,0-2372,938.09l38.59,2a15.77,15.77,0,0,0,16.21-15.32A15.77,15.77,0,0,0-2331.8,908.6Z" transform="translate(3128.54 -242.69)"/><path class="cls-23" d="M-2475.67,842.28a83.78,83.78,0,0,0-88,79.38,83.78,83.78,0,0,0,79.38,88,83.79,83.79,0,0,0,88-79.34,83.77,83.77,0,0,0-79.32-88Z" transform="translate(3128.54 -242.69)"/><path class="cls-24" d="M-2475.7,850.1a75.77,75.77,0,0,0-71,40.48,18.64,18.64,0,0,0,8.53,8.57c25.06,11.47,45.16,1.39,65.24,21.56,14.07,14.13,6,53.42,8.75,68.81a16.15,16.15,0,0,0,4.92,9.22,75.76,75.76,0,0,0,52.65-93.32A75.76,75.76,0,0,0-2475.7,850.1Z" transform="translate(3128.54 -242.69)"/><path class="cls-2" d="M-2435.8,1182.63a11.33,11.33,0,0,0-5.28,1.14c-4.78,2.58-5.3,5.11-5.44,5.23s-10.67,23.56-13.86,30.2c-.13.29-.4.63-.27.77l.6.72c.27.33.47.57.54.64l.06.06c.33-.05,1.22-2,2.5-4.55,4-7.9,11.27-24.14,13-27.25,1.31-2.34,5.33-4.42,9-4.42a7.82,7.82,0,0,1,3.17.61c6.3,2.78,6.42,6.2,6.25,9.18-.21,3.61-2.51,8.83-5.27,15-3,6.65-6.55,14.4-10.48,22.2-3.43,6.85-18.16,36.54-20.61,39.18a7.37,7.37,0,0,1-5.14,2,7.67,7.67,0,0,1-5.18-2c-3.62-3.28-4.1-7.11-3.59-9.06.17-.59,2.93-6.41,6.77-14.23a11.83,11.83,0,0,0,6.36,1.83,13.56,13.56,0,0,0,7.38-2.29c6.41-4,4.36-10.68,3.49-12.46-.46-1-2.92-4.62-6.1-9.22l.45-.87c4.26-8.23,6.75-15.15,9.85-19a5.71,5.71,0,0,1,4.61-2.12,7.87,7.87,0,0,1,3.17.66c3.1,1.29,4.76,4,4.19,7.78s-11.34,24-11.34,24l1.66,2s11.53-22.18,12.11-26.08a9.3,9.3,0,0,0-5.22-9.84,9.4,9.4,0,0,0-4.23-1,8.32,8.32,0,0,0-6,2.24c-1.37,1.38-4.73,8.12-8.64,15.47-.75,1.42-1.51,2.87-2.29,4.37-7.11-10.19-16.47-23.29-16.47-23.29s-13.93-21.28-23.41-30.71a13.78,13.78,0,0,0-6-3.59,11.09,11.09,0,0,0-3.38-.56c-7.24,0-12.26,7.76-12.24,12.5,0,5.44,2,7.08,2,7.27s15.79,20.49,20.15,26.42c.18.25.35.62.53.62h0l.91-.19.83-.18h.08c.12-.31-1.19-2-2.84-4.34-5.09-7.25-16-21.31-17.93-24.29s-1.22-9.73,2.38-12.56c2.62-2.07,4.71-2.78,6.43-2.78a8.84,8.84,0,0,1,4.6,1.59c3.07,1.88,6.62,6.37,10.78,11.7,4.47,5.76,9.63,12.57,14.67,19.69,2.76,3.89,11.28,15.82,17.58,25.08-3,5.78-6.08,11.94-8.84,17.52-3.88-5.14-14-19.16-22.66-31.7-5.28-7.62-10.2-13.08-12.15-17.62-1.06-2.51-.22-5.41,2.38-7.55a6.86,6.86,0,0,1,4.36-1.67,7.49,7.49,0,0,1,4.47,1.63c3.06,2.27,15.84,21.3,15.84,21.3l2.53-.54s-14.14-20.6-17.32-23a9.13,9.13,0,0,0-5.47-1.85,10,10,0,0,0-5.67,1.83c-3,2.16-4.68,6.42-3.66,9.61.58,1.85,4.94,8,9.59,14.9,9,13.38,21.91,31.25,26.51,37.17-4.36,8.87-7.61,15.78-7.69,16.48-.32,2.45.25,8.42,6.83,12.15a9.67,9.67,0,0,0,4.83,1.36,10.3,10.3,0,0,0,7.82-4.14c2.08-2.85,19.39-37.78,19.39-37.78s12.23-22.29,16.11-35.1a13.74,13.74,0,0,0,.35-7C-2424.37,1185.26-2430.59,1182.63-2435.8,1182.63Zm-23.3,45.66a76.75,76.75,0,0,1,5.64,9.11,7.61,7.61,0,0,1-4.87,9.08,12.55,12.55,0,0,1-4.16.76,8.44,8.44,0,0,1-5.29-1.66c2.64-5.35,5.67-11.42,8.68-17.29Z" transform="translate(3128.54 -242.69)"/><path class="cls-2" d="M-2496.2,1228.5c-.15-.09-25.75-2.47-33.07-3.35-.2,0-.45-.09-.61-.09s-.17,0-.2.07c-.16.27-.33.57-.49.81a5,5,0,0,0-.42.72v.07c.15.31,2.28.51,5.12.9,8.77,1.23,26.49,2.89,30,3.52s7.94,5.75,7.55,10.31c-.6,6.86-3.79,8.07-6.69,8.87a20.46,20.46,0,0,1-5.29.55c-3,0-6.62-.33-10.61-.69-7.25-.66-15.75-1.55-24.4-2.73-7.57-1-40.44-5.41-43.74-6.89a7.59,7.59,0,0,1-3.29-9.76c1.94-4.48,5.4-6.19,7.4-6.31h.07c1.71,0,22.94,2.63,41.12,5.35,9.17,1.36,16.52,1.49,21.16,3.18,2.55.94,4.09,3.54,3.88,6.89s-2.27,5.8-6,6.48a9.8,9.8,0,0,1-1.33.09c-6.09,0-25-3.07-25-3.07l-1.33,2.2s20.6,3.12,27.15,3.12a10.07,10.07,0,0,0,1.45-.08,9.32,9.32,0,0,0,7.62-8.11c.52-3.69-1.48-7.8-4.49-9.25-1.75-.84-9.22-1.84-17.44-3.17-18.33-3-44.48-6.22-47.58-6.22h-.24c-2.43.48-7.89,3-9.3,10.4s4.82,10.48,6.72,11.06c3.36,1,42,6.16,42,6.16s22.56,3.94,36.3,3.94h2.13a13.78,13.78,0,0,0,6.71-1.91c8.28-4.55,6-15.87,2-19.56S-2496,1228.61-2496.2,1228.5Z" transform="translate(3128.54 -242.69)"/><path class="cls-25" d="M-2480.54,1197.15s-13.91-21.28-23.41-30.73a13.82,13.82,0,0,0-6-3.58c-9-2.94-15.65,6.51-15.62,11.94s2,7.08,2.06,7.27,15.79,20.49,20.14,26.43c.19.26.36.65.56.61l.91-.2.81-.17h.09c.11-.31-1.2-2-2.85-4.35-5.08-7.24-16-21.31-17.93-24.29s-1.21-9.72,2.38-12.56c5.43-4.26,8.49-2.74,11-1.19,3.09,1.88,6.62,6.37,10.78,11.71,4.47,5.76,9.63,12.56,14.67,19.68,4.43,6.25,23.71,33.22,24.87,36.63a7.62,7.62,0,0,1-4.85,9.08c-4.63,1.66-8.23.29-9.71-1.09-.84-.81-13.65-18.38-24.23-33.72-5.26-7.62-10.2-13.08-12.15-17.61-1.06-2.51-.21-5.42,2.38-7.55s5.79-2.31,8.84,0,15.85,21.3,15.85,21.3l2.51-.53s-14.14-20.61-17.32-23a9.3,9.3,0,0,0-11.12,0c-3,2.15-4.7,6.41-3.68,9.6.58,1.85,4.94,8,9.6,14.9,10.76,16,27,38.37,28.14,39.15,2,1.44,7.56,3.73,14-.33s4.34-10.68,3.48-12.46C-2457.85,1228.85-2480.54,1197.15-2480.54,1197.15Z" transform="translate(3128.54 -242.69)"/><path class="cls-25" d="M-2445.62,1180.68c-4.8,2.58-5.31,5.12-5.46,5.23s-10.67,23.57-13.84,30.21c-.15.28-.42.62-.29.76l.6.72c.29.33.48.57.54.65h.06c.34,0,1.22-2,2.51-4.54,4-7.91,11.28-24.14,13-27.26s8-5.65,12.21-3.8c6.3,2.77,6.4,6.19,6.24,9.17-.22,3.61-2.52,8.84-5.28,15-3,6.66-6.55,14.4-10.46,22.21-3.43,6.83-18.17,36.53-20.63,39.17a7.62,7.62,0,0,1-10.31,0c-3.63-3.28-4.11-7.1-3.58-9,.3-1.13,9.78-20.69,18.33-37.24,4.26-8.24,6.76-15.16,9.85-19,1.71-2.11,4.68-2.73,7.79-1.44s4.75,4,4.19,7.78-11.35,24-11.35,24l1.66,2s11.53-22.18,12.12-26.1a9.33,9.33,0,0,0-5.23-9.83c-3.33-1.67-7.85-1.11-10.2,1.27-1.34,1.39-4.72,8.13-8.63,15.48-9,17-21.14,41.93-21.31,43.26-.32,2.46.25,8.42,6.84,12.15s11.47-1.18,12.64-2.78c2.08-2.85,19.4-37.77,19.4-37.77s12.24-22.29,16.1-35.1a13.64,13.64,0,0,0,.35-7C-2429.39,1179.54-2440.85,1178.1-2445.62,1180.68Z" transform="translate(3128.54 -242.69)"/><path class="cls-25" d="M-2500.75,1225.42c-.14-.09-25.76-2.48-33.06-3.35-.33,0-.73-.19-.83,0s-.33.56-.48.8l-.44.72v.07c.15.31,2.28.51,5.12.91,8.77,1.23,26.49,2.88,30,3.51s7.94,5.75,7.54,10.31c-.58,6.87-3.78,8.08-6.66,8.88-3.49,1-9.18.48-15.92-.15-7.25-.67-15.75-1.55-24.4-2.73-7.57-1-40.44-5.4-43.74-6.88a7.63,7.63,0,0,1-3.29-9.76c1.95-4.49,5.41-6.19,7.42-6.33,1.17-.07,22.74,2.6,41.17,5.35,9.17,1.37,16.52,1.5,21.16,3.18,2.57.94,4.09,3.54,3.9,6.89s-2.27,5.8-6,6.48-26.36-3-26.36-3l-1.33,2.21s24.7,3.74,28.59,3a9.3,9.3,0,0,0,7.62-8.11c.52-3.69-1.48-7.8-4.49-9.24-1.75-.84-9.22-1.85-17.43-3.17-19-3.07-46.52-6.48-47.83-6.21-2.43.49-7.89,3-9.3,10.4s4.82,10.49,6.72,11.07c3.38,1,42,6.16,42,6.16s25,4.38,38.43,3.91a13.83,13.83,0,0,0,6.69-1.92c8.3-4.55,6-15.86,2-19.56S-2500.61,1225.52-2500.75,1225.42Z" transform="translate(3128.54 -242.69)"/><polygon class="cls-4" points="303.77 1200.57 352.71 1463.21 754.52 1463.21 692.1 1128.21 303.77 1200.57"/><polygon class="cls-26" points="531.73 1158.1 457.56 1171.91 412.96 1463.21 754.51 1463.21 702.53 1184.24 531.73 1158.1"/><rect class="cls-27" x="-2824.25" y="1406.44" width="395" height="39.91" transform="matrix(0.98, -0.18, 0.18, 0.98, 2822.64, -699.92)"/><polygon class="cls-28" points="457.56 1171.91 451.17 1213.7 651.35 1176.4 531.73 1158.1 457.56 1171.91"/><rect class="cls-29" x="-2517.24" y="1474.53" width="67.5" height="7.37" transform="translate(2816.23 -672.04) rotate(-10.54)"/><polygon class="cls-30" points="648.92 1429.53 652.26 1447.48 652.26 1447.48 713 1436.16 709.65 1418.2 648.92 1429.53"/><polygon class="cls-30" points="584.65 1441.51 584.65 1441.51 588 1459.45 648.74 1448.14 645.38 1430.18 584.65 1441.51"/><path class="cls-30" d="M-2408,1699.69l-3.35-18-.66-3.53-3.68-19.72-.32-1.77-3.12-16.7L-2744,1700.5l1,5.37h82.55l48.75-9.08h0l1.69,9.08h3.66l-1.82-9.74,60.74-11.32,3.34,18-16.64,3.11h20.88v-.23l60.73-11.31,2.15,11.54h3.66l-2.27-12.2,60.74-11.32,3.34,18-29.86,5.56h19.62l10.9-2,.38,2h3.65l-.5-2.69Zm-132.55,2.41-3.35-17.95h0l60.73-11.31,3.34,18Zm64.27-12h0l-3.35-18,60.74-11.31,3.35,18Z" transform="translate(3128.54 -242.69)"/><path class="cls-30" d="M-2678.46,1675.85l60.74-11.32,3.54-.66,60.73-11.31,3.54-.66,60.74-11.32,3.53-.66,64.26-12-4-21.49-.65-3.53-3.35-18-.66-3.53-3.34-18-.66-3.53-3.35-18h0l-.66-3.53-3.67-19.73-.33-1.76-3.11-16.7L-2770,1560.65l3.11,16.71.33,1.76,3.68,19.73.65,3.53,3.35,18,.65,3.54,3.35,17.95.66,3.53,3.35,18,.66,3.53,4,21.49,64.27-12Zm63.62-15.51-3.35-18,60.73-11.24,3.34,18Zm-14.88-60.24,3.35,18-60.74,11.31-3.35-17.94Zm-61.4,7.79-3.34-18,60.74-11.32,3.34,18Zm60.93-29.93,60.73-11.36,3.34,18-60.73,11.32Zm4.48,43.63,3.34,18-60.74,11.32-3.34-18Zm2.87-4.19-3.34-18,60.72-11.3,3.35,18Zm64.27-12-3.35-18,60.74-11.31,3.34,18Zm61.39-7.77,3.35,17.95-60.74,11.32-3.34-18Zm-65.4-13.71h0l-3.34-18,60.73-11.32,3.35,18Zm1.13,25.68,3.35,18-60.73,11.32-3.35-18Zm10.89,38.79-3.35-18,60.74-11.32,3.34,18Zm121.66-41.29,3.34,18-60.73,11.32-3.35-17.95Zm-4-21.49,3.34,18-60.73,11.32-3.35-18Zm-4-21.49,3.35,18-60.74,11.32-3.35-18Zm-.66-3.53-60.74,11.31-3.34-18,60.74-11.32Zm-7.35-39.45,3.35,18-60.74,11.31-3.34-18Zm-64.27,12,3.35,18-60.74,11.32-3.34-18Zm-64.28,12,3.35,18-60.74,11.32-3.34-18Zm-64.27,12,3.35,18-60.74,11.32-3.35-18Zm-121.66,41.25-3.35-18L-2702,1569l3.35,18Zm4,21.49-3.34-18,60.73-11.32,3.35,18Zm4,21.48-3.34-18,60.74-11.32,3.34,18Zm.67,3.54h0l60.73-11.31,3.35,18-60.74,11.32Zm7.34,39.44-3.34-18L-2686,1655l3.34,18Zm121.67-41.25,3.34,18-60.73,11.31-3.35-17.95Z" transform="translate(3128.54 -242.69)"/><rect class="cls-31" x="-2517.24" y="1474.53" width="67.5" height="7.37" transform="translate(2816.23 -672.04) rotate(-10.54)"/><polygon class="cls-28" points="648.92 1429.53 652.26 1447.48 652.26 1447.48 713 1436.16 709.65 1418.2 648.92 1429.53"/><path class="cls-28" d="M-2678.46,1675.85l60.74-11.32,3.54-.66,60.73-11.31,3.54-.66,60.74-11.32,3.53-.66,64.26-12-4-21.49-.65-3.53-3.35-18-.66-3.53-3.34-18-.66-3.53-3.35-18h0l-.66-3.53-3.67-19.73-.33-1.76-3.11-16.7-246,45.82-3.3,21.56,56.68-10.56,3.35,18-60.74,11.32-1.18-6.35-1.65,10.77,3.3,17.73-6.19,1.15-.58,3.76,7.43-1.38,3.34,18-13.7,2.56-.57,3.76,14.93-2.78,3.35,18-21.21,4-.58,3.76L-2686,1655l3.34,18-28.71,5.35-.58,3.77,29.95-5.59Zm63.62-15.51-3.35-18,60.73-11.24,3.34,18Zm49.38-72.24,3.35,18-60.74,11.32-3.34-18Zm-61.39,7.78-3.35-18,60.74-11.33,3.34,18Zm68.27,9.51-3.35-18,60.74-11.31,3.34,18Zm61.39-7.77,3.35,18-60.74,11.32-3.34-18Zm-65.4-13.71h0l-3.34-18,60.73-11.32,3.35,18Zm1.13,25.68,3.35,18-60.73,11.32-3.35-18Zm10.89,38.79-3.35-18,60.74-11.32,3.34,18Zm121.67-41.28,3.34,18-60.73,11.32-3.35-17.95Zm-4-21.49,3.34,18-60.73,11.32-3.35-18Zm-4-21.49,3.35,18-60.74,11.32-3.35-18Zm-.66-3.53-60.74,11.31-3.34-18,60.74-11.32Zm-7.35-39.45,3.35,18-60.74,11.31-3.34-18Zm-64.27,12,3.35,18-60.74,11.32-3.34-18Zm-64.28,12,3.35,18-60.74,11.32-3.34-18Zm-117.66,62.74-3.34-17.94,60.74-11.32,3.34,18Zm4,21.48-3.35-17.94,60.74-11.33,3.35,18Zm4,21.49-3.34-18,60.74-11.32,3.34,18Zm61.4-7.78,3.34,18-60.73,11.31-3.35-17.95Z" transform="translate(3128.54 -242.69)"/><path class="cls-28" d="M-2408,1699.69l-3.35-18-.66-3.53-3.68-19.72-.32-1.77-3.12-16.7-294.77,54.92-1.69,11h55.12l48.75-9.08h0l1.69,9.08h3.66l-1.82-9.74,60.74-11.32,3.34,18-16.64,3.11h20.88v-.23l60.73-11.31,2.15,11.54h3.66l-2.27-12.2,60.74-11.32,3.34,18-29.86,5.56h19.62l10.9-2,.38,2h3.65l-.5-2.69Zm-132.55,2.41-3.35-17.95h0l60.73-11.31,3.34,18Zm64.27-12h0l-3.35-18,60.74-11.31,3.35,18Z" transform="translate(3128.54 -242.69)"/><polygon class="cls-28" points="584.65 1441.51 584.65 1441.51 588 1459.45 648.74 1448.14 645.38 1430.18 584.65 1441.51"/><rect class="cls-29" x="-2553.36" y="1451.37" width="99.88" height="18.78" transform="translate(2818.76 -676.36) rotate(-10.55)"/><polygon class="cls-4" points="417.13 1467.78 816.74 1467.78 860.28 1183.28 469.83 1123.49 417.13 1467.78"/><polygon class="cls-26" points="603.87 1467.78 816.74 1467.78 860.28 1183.28 545.18 1135.04 603.87 1467.78"/><rect class="cls-27" x="-2486.65" y="1218.06" width="39.92" height="395" transform="matrix(0.15, -0.99, 0.99, 0.15, -364.32, -1479.55)"/><polygon class="cls-28" points="552.5 1176.54 854.25 1222.72 860.28 1183.28 545.18 1135.04 552.5 1176.54"/><polygon class="cls-30" points="587.35 1433.15 587.35 1433.15 526.27 1423.81 523.51 1441.86 584.59 1451.2 587.35 1433.15"/><rect class="cls-29" x="-2646.91" y="1639.35" width="18.26" height="61.78" transform="matrix(0.15, -0.99, 0.99, 0.15, -761.27, -1432.52)"/><rect class="cls-29" x="-2351.93" y="1468.47" width="7.38" height="67.59" transform="translate(-353.24 -1287.22) rotate(-81.38)"/><path class="cls-30" d="M-2669.9,1652.51l-.27,1.77-3,19.83-.55,3.55-2.76,18.06-.55,3.55-1.71,11.19h3.64l1.63-10.65,61.07,9.35-.2,1.3h3.64l.11-.76,4.94.76h23.76l-28.15-4.31,2.76-18.05,61.07,9.35-2,13h3.64l1.91-12.47,61.07,9.36-.48,3.11h3.63l.4-2.57,16.83,2.57h23.75l-40-6.13,2.76-18h0l61.07,9.35-2.27,14.83h3.63l2.19-14.28,61.07,9.34-.75,4.94h3.56l.95-6.17.27-1.78,2.57-16.79-326.67-50Zm132.26,23.87,61.07,9.36-2.76,18-61.07-9.34Zm-64.62-9.89,61.07,9.35h0l-2.77,18.05-61.07-9.34Zm-9.63,39.12-61.07-9.35,2.76-18,61.08,9.34Zm6.07-39.66-2.76,18-61.07-9.34,2.76-18.06Z" transform="translate(3128.54 -242.69)"/><path class="cls-30" d="M-2648.39,1512l-.27,1.78-3,19.83-.54,3.55-2.76,18.06-.55,3.56-2.76,18-.54,3.55-2.77,18.06-.54,3.55-3.31,21.61,64.62,9.89,3.56.54,61.07,9.35,3.55.54,61.07,9.35,3.56.55,61.07,9.35,3.55.54,64.63,9.89,3.3-21.6.55-3.56,2.76-18,.54-3.56,2.77-18,.54-3.55,2.76-18.06h0l.54-3.55,3-19.82.28-1.78,2.57-16.79-326.68-50Zm-.29,25.71,61.06,9.35-2.76,18-61.07-9.35Zm61.31,31.5,61.07,9.35-2.76,18-61.07-9.34Zm-64.62-9.89,61.07,9.35-2.77,18-61.07-9.35Zm51.69,70.61-61.07-9.34,2.76-18.06,61.07,9.35Zm-57.76-31,2.76-18,61.07,9.34-2.76,18.06Zm122.38,40.85-61.07-9.35,2.77-18,61.07,9.34Zm-57.76-31,2.76-18,61.07,9.35-2.76,18Zm122.39,40.84-61.07-9.34,2.76-18,61.07,9.34Zm-57.76-30.95,2.76-18.05L-2465,1610l-2.77,18Zm3.3-21.6,2.77-18.06,61.07,9.35-2.77,18Zm119.05,62.54-61.07-9.35,2.76-18,61.07,9.35Zm-57.76-30.95h0l2.76-18.05,61.07,9.35-2.76,18Zm3.31-21.61,2.76-18,61.07,9.34-2.76,18.06Zm119.08,62.46-61.07-9.36,2.76-18.05,61.07,9.36Zm3.31-21.61-61.08-9.35,2.76-18.06,61.08,9.36Zm3.3-21.61-61.07-9.35,2.76-18,61.07,9.35Zm-51.69-70.61,61.07,9.34-2.76,18.06-61.07-9.35Zm57.76,30.95-2.76,18.05-61.07-9.35,2.76-18Zm-122.31-40.84,61,9.32-2.77,18.05-61.07-9.34Zm57.76,31-2.77,18-61.07-9.34h0l2.77-18Zm-122.39-40.85,61.07,9.35-2.76,18-61.07-9.34Zm57.76,31-2.76,18-61.07-9.35,2.76-18.05Zm-122.39-40.86,61.08,9.36-2.76,18-61.08-9.35Zm57.77,31-2.76,18.06-61.07-9.35,2.76-18.06Zm-61.31-31.5-2.77,18.06-61.07-9.35,2.76-18.06Z" transform="translate(3128.54 -242.69)"/><polygon class="cls-28" points="598.04 1434.79 651.98 1443.05 649.21 1461.1 601.4 1453.79 602.05 1457.52 648.66 1464.65 648.18 1467.78 651.83 1467.78 652.22 1465.19 669.04 1467.78 692.8 1467.78 652.75 1461.64 655.52 1443.59 655.52 1443.59 716.6 1452.93 714.33 1467.78 717.97 1467.78 720.14 1453.48 781.22 1462.83 780.47 1467.78 784.1 1467.78 785.04 1461.6 785.32 1459.83 787.88 1443.04 594.27 1413.38 598.04 1434.79"/><rect class="cls-31" x="-2351.93" y="1468.47" width="7.38" height="67.59" transform="translate(-353.24 -1287.22) rotate(-81.38)"/><path class="cls-28" d="M-2556.56,1529.69l36.88,5.65-2.76,18.05-30.76-4.71.65,3.74,29.56,4.52-2.76,18.06-23.45-3.59.66,3.73,22.24,3.41-2.76,18-16.13-2.46.66,3.73,14.92,2.29-2.76,18-8.81-1.35.66,3.74,7.61,1.16-2.77,18.06-1.49-.23.66,3.73.29,0,3.55.54,61.07,9.35,3.56.55,61.07,9.35,3.55.54,64.63,9.89,3.3-21.6.55-3.56,2.76-18,.54-3.56,2.77-18,.54-3.55,2.76-18.06h0l.54-3.55,3-19.82.28-1.78,2.57-16.79-241.19-36.93Zm33.82,49.4,61.07,9.35-2.77,18-61.07-9.34Zm51.69,70.61-61.07-9.34,2.76-18,61.07,9.34Zm-57.76-31,2.76-18,61.07,9.35-2.77,18Zm122.35,40.85-61.07-9.35,2.76-18,61.07,9.35Zm-57.76-30.95h0l2.76-18.05,61.07,9.35-2.76,18Zm3.31-21.61,2.76-18,61.07,9.34-2.76,18.06Zm119.08,62.46-61.07-9.36,2.76-18.05,61.07,9.36Zm3.31-21.61-61.08-9.35,2.76-18.06,61.08,9.36Zm3.3-21.61-61.07-9.35,2.76-18,61.07,9.35Zm-51.69-70.61,61.07,9.34-2.76,18.06-61.07-9.35Zm57.76,30.95-2.76,18.05-61.07-9.35,2.76-18Zm-122.31-40.84,61,9.32-2.77,18.05-61.07-9.34Zm57.76,31-2.77,18-61.07-9.34h0l2.77-18Zm-122.39-40.85,61.07,9.35-2.76,18-61.07-9.34Zm57.76,31-2.76,18-61.07-9.35,2.76-18.05Z" transform="translate(3128.54 -242.69)"/><rect class="cls-29" x="-2370.62" y="1438.35" width="18.79" height="99.88" transform="matrix(0.15, -0.99, 0.99, 0.15, -346.7, -1313.58)"/><polygon class="cls-4" points="544 1110.05 607.51 1470.22 1008.62 1470.22 933 1041.43 544 1110.05"/><rect class="cls-27" x="-2584.16" y="1318.28" width="395" height="39.92" transform="translate(2859.89 -636.8) rotate(-10)"/><rect class="cls-29" x="-2531.77" y="1441.84" width="330.48" height="18.78" transform="translate(2840.26 -631.95) rotate(-10.01)"/><path class="cls-30" d="M-2526.24,1487.22l-1.77.31,4.42,25.07,67.92-12-4.42-25.06Zm5.57,21.21-3.18-18,60.85-10.73,3.17,18Z" transform="translate(3128.54 -242.69)"/><path class="cls-30" d="M-2461.86,1475.86l-1.77.32,4.42,25.07,67.93-12-4.43-25.07Zm5.57,21.22-3.17-18,60.84-10.72,3.17,18Z" transform="translate(3128.54 -242.69)"/><path class="cls-30" d="M-2397.46,1464.51l-1.77.31,4.41,25.07,67.93-12-4.42-25.07Zm5.56,21.21-3.17-18,60.84-10.73,3.17,18Z" transform="translate(3128.54 -242.69)"/><path class="cls-30" d="M-2333.09,1453.15l-1.77.32,4.42,25.06,67.92-12-4.41-25.07Zm5.56,21.22-3.17-18,60.84-10.74,3.18,18Z" transform="translate(3128.54 -242.69)"/><path class="cls-30" d="M-2268.71,1441.8l-1.77.32,4.42,25.06,67.93-12-4.42-25.07Zm5.57,21.22-3.17-18,60.85-10.72,3.17,18Z" transform="translate(3128.54 -242.69)"/><path class="cls-30" d="M-2522.46,1508.75l-1.78.31,4.43,25.07,67.92-12-4.42-25.07Zm5.56,21.21-3.17-18,60.84-10.73,3.18,18Z" transform="translate(3128.54 -242.69)"/><path class="cls-30" d="M-2518.65,1530.28l-1.77.3,4.42,25.07,67.93-12-4.43-25.06Zm5.57,21.2-3.17-18,60.84-10.73,3.17,18Z" transform="translate(3128.54 -242.69)"/><path class="cls-30" d="M-2514.85,1551.8l-1.77.32,4.42,25.06,67.92-12-4.42-25.07Zm5.56,21.22-3.17-18,60.84-10.73,3.18,18Z" transform="translate(3128.54 -242.69)"/><path class="cls-30" d="M-2511.06,1573.33l-1.77.31,4.43,25.07,67.92-12-4.42-25.06Zm5.57,21.21-3.17-18,60.84-10.74,3.17,18Z" transform="translate(3128.54 -242.69)"/><path class="cls-30" d="M-2458.06,1497.4l-1.77.31,4.42,25.06,67.92-12-4.42-25.07Zm5.56,21.21-3.17-18,60.84-10.73,3.18,18Z" transform="translate(3128.54 -242.69)"/><path class="cls-30" d="M-2454.27,1518.92l-1.76.31,4.41,25.07,67.93-12-4.42-25.07Zm5.57,21.21-3.17-18,60.84-10.73,3.18,18Z" transform="translate(3128.54 -242.69)"/><path class="cls-30" d="M-2450.46,1540.44l-1.77.32,4.42,25.06,67.93-12-4.42-25.06Zm5.57,21.22-3.17-18,60.84-10.73,3.17,18Z" transform="translate(3128.54 -242.69)"/><path class="cls-30" d="M-2446.67,1562l-1.77.31,4.42,25.07,67.92-12-4.42-25.07Zm5.56,21.21-3.17-18,60.85-10.73,3.17,18Z" transform="translate(3128.54 -242.69)"/><path class="cls-30" d="M-2393.68,1486l-1.77.31,4.42,25.07,67.92-12-4.42-25.07Zm5.57,21.21-3.17-18,60.84-10.74,3.17,18Z" transform="translate(3128.54 -242.69)"/><path class="cls-30" d="M-2389.88,1507.56l-1.77.32,4.42,25.06,67.92-12-4.42-25.06Zm5.57,21.22-3.18-18,60.84-10.72,3.18,18Z" transform="translate(3128.54 -242.69)"/><path class="cls-30" d="M-2386.08,1529.1l-1.77.31,4.42,25.07,67.92-12-4.42-25.07Zm5.56,21.21-3.17-18,60.84-10.73,3.17,18Z" transform="translate(3128.54 -242.69)"/><path class="cls-30" d="M-2382.29,1550.61l-1.77.32,4.42,25.06,67.92-12-4.42-25.07Zm5.56,21.22-3.16-18,60.84-10.72,3.17,18Z" transform="translate(3128.54 -242.69)"/><path class="cls-30" d="M-2329.3,1474.68l-1.77.31,4.42,25.08,67.93-12-4.42-25.06Zm5.57,21.22-3.17-18,60.84-10.73,3.17,18Z" transform="translate(3128.54 -242.69)"/><path class="cls-30" d="M-2325.46,1496.21l-1.77.31,4.42,25.07,67.93-12-4.43-25.07Zm5.57,21.21-3.18-18,60.85-10.73,3.17,18Z" transform="translate(3128.54 -242.69)"/><path class="cls-30" d="M-2321.7,1517.74l-1.77.3,4.42,25.08,67.92-12-4.42-25.06Zm5.56,21.21-3.17-18,60.85-10.72,3.16,18Z" transform="translate(3128.54 -242.69)"/><path class="cls-30" d="M-2317.91,1539.26l-1.77.32,4.42,25.06,67.93-12-4.42-25.07Zm5.57,21.21-3.17-18,60.84-10.73,3.17,18Z" transform="translate(3128.54 -242.69)"/><path class="cls-30" d="M-2264.91,1463.33l-1.77.31,4.42,25.07,67.92-12-4.42-25.06Zm5.56,21.21-3.17-18,60.85-10.74,3.17,18Z" transform="translate(3128.54 -242.69)"/><path class="cls-30" d="M-2261.12,1484.85l-1.77.32,4.43,25.07,67.92-12-4.42-25.07Zm5.57,21.22-3.17-18,60.84-10.73,3.17,18Z" transform="translate(3128.54 -242.69)"/><path class="cls-30" d="M-2257.32,1506.38l-1.77.31,4.42,25.07,67.93-12-4.42-25.06Zm5.57,21.21-3.17-18,60.84-10.73,3.17,18Z" transform="translate(3128.54 -242.69)"/><path class="cls-30" d="M-2253.52,1527.9l-1.78.32,4.43,25.06,67.92-12-4.42-25.07Zm5.57,21.22-3.18-18,60.85-10.73,3.17,18Z" transform="translate(3128.54 -242.69)"/><rect class="cls-29" x="-2506.95" y="1581.63" width="330.48" height="18.79" transform="translate(2816.34 -625.51) rotate(-10.01)"/><path class="cls-30" d="M-2501.55,1627.2l-1.78.31,4.43,25.07,67.92-12-4.42-25.07Zm5.56,21.22-3.17-18,60.84-10.73,3.18,18Z" transform="translate(3128.54 -242.69)"/><path class="cls-30" d="M-2437.17,1615.85l-1.77.31,4.42,25.07,67.93-12-4.43-25.07Zm5.57,21.21-3.17-18,60.84-10.72,3.17,18Z" transform="translate(3128.54 -242.69)"/><path class="cls-30" d="M-2372.79,1604.49l-1.77.32,4.42,25.06,67.93-12-4.42-25.07Zm5.57,21.22-3.17-18,60.84-10.73,3.17,18Z" transform="translate(3128.54 -242.69)"/><path class="cls-30" d="M-2308.41,1593.1l-1.76.32,4.42,25.06,67.92-12-4.42-25.06Zm5.57,21.22-3.17-18,60.85-10.74,3.17,18Z" transform="translate(3128.54 -242.69)"/><path class="cls-30" d="M-2244,1581.79l-1.77.31,4.42,25.06,67.92-12-4.42-25.06Zm5.56,21.21-3.17-18,60.85-10.73,3.17,18Z" transform="translate(3128.54 -242.69)"/><path class="cls-30" d="M-2497.76,1648.73l-1.77.31,4.42,25.07,67.93-12-4.42-25.07Zm5.57,21.22-3.17-18,60.84-10.73,3.17,18Z" transform="translate(3128.54 -242.69)"/><path class="cls-30" d="M-2494,1670.25l-1.77.32,4.42,25.06,67.92-12-4.42-25.07Zm5.57,21.22-3.18-18,60.85-10.73,3.17,18Z" transform="translate(3128.54 -242.69)"/><polygon class="cls-30" points="638.38 1449.09 636.61 1449.4 640.27 1470.22 643.92 1470.22 640.77 1452.33 701.62 1441.6 704.78 1459.58 644.38 1470.22 665.08 1470.22 708.95 1462.49 704.52 1437.42 638.38 1449.09"/><polygon class="cls-30" points="644.38 1470.22 665.08 1470.22 705.4 1463.12 706.66 1470.22 710.32 1470.22 708.33 1458.95 644.38 1470.22"/><path class="cls-30" d="M-2433.37,1637.38l-1.77.31,4.42,25.06,67.92-12-4.42-25.06Zm5.56,21.21-3.17-18,60.84-10.74,3.18,18Z" transform="translate(3128.54 -242.69)"/><path class="cls-30" d="M-2429.58,1658.9l-1.77.32,4.43,25.06,67.92-12-4.42-25.07Zm5.57,21.22-3.17-18,60.84-10.73,3.17,18Z" transform="translate(3128.54 -242.69)"/><path class="cls-30" d="M-2425.78,1680.43l-1.77.31,4.42,25.07,67.92-12-4.42-25.06Zm5.57,21.21-3.18-18,60.85-10.74,3.17,18Z" transform="translate(3128.54 -242.69)"/><polygon class="cls-30" points="706.55 1459.27 704.78 1459.58 706.66 1470.22 710.32 1470.22 708.95 1462.49 769.79 1451.77 772.97 1469.74 770.23 1470.22 776.71 1470.22 772.71 1447.6 706.55 1459.27"/><path class="cls-30" d="M-2369,1626l-1.77.31,4.42,25.07,67.92-12-4.42-25.06Zm5.57,21.21-3.17-18,60.84-10.73,3.17,18Z" transform="translate(3128.54 -242.69)"/><path class="cls-30" d="M-2365.19,1647.54l-1.77.32,4.42,25.06,67.92-12-4.42-25.07Zm5.56,21.22-3.17-18L-2302,1640l3.17,18Z" transform="translate(3128.54 -242.69)"/><path class="cls-30" d="M-2361.4,1669.1l-1.77.3,4.42,25.07,67.93-12-4.43-25.06Zm5.57,21.2-3.17-18,60.84-10.73,3.17,18Z" transform="translate(3128.54 -242.69)"/><path class="cls-30" d="M-2357.6,1690.6l-1.77.31,3.88,22h17.87L-2287,1704l-4.42-25.07Zm5.57,21.21-3.18-18,60.84-10.72,3.18,18Z" transform="translate(3128.54 -242.69)"/><path class="cls-30" d="M-2304.6,1614.66l-1.78.31L-2302,1640l67.93-12-4.43-25Zm5.56,21.22-3.17-18,60.84-10.73,3.17,18Z" transform="translate(3128.54 -242.69)"/><path class="cls-30" d="M-2300.81,1636.19l-1.77.32,4.42,25.06,67.92-12-4.42-25.07Zm5.56,21.22-3.17-18,60.85-10.74,3.17,18Z" transform="translate(3128.54 -242.69)"/><path class="cls-30" d="M-2297,1657.72l-1.78.31,4.42,25.07,67.93-12-4.42-25Zm5.56,21.21-3.17-18,60.84-10.74,3.18,18Z" transform="translate(3128.54 -242.69)"/><path class="cls-30" d="M-2293.22,1679.24l-1.77.32,4.42,25.06,67.93-12-4.43-25.06Zm5.57,21.22-3.17-18,60.84-10.73,3.17,18Z" transform="translate(3128.54 -242.69)"/><path class="cls-30" d="M-2240.22,1603.31l-1.77.31,4.42,25.06,67.92-12-4.42-25.07Zm5.56,21.21-3.17-18,60.84-10.72,3.18,18Z" transform="translate(3128.54 -242.69)"/><path class="cls-30" d="M-2236.46,1624.84l-1.77.31,4.42,25.06,67.93-12-4.42-25.06Zm5.57,21.21-3.17-18,60.84-10.73,3.17,18Z" transform="translate(3128.54 -242.69)"/><path class="cls-30" d="M-2232.63,1646.36l-1.77.32,4.42,25.06,67.92-12-4.4-25Zm5.56,21.22-3.17-18,60.85-10.73,3.17,18Z" transform="translate(3128.54 -242.69)"/><path class="cls-30" d="M-2228.83,1667.89l-1.77.31,4.42,25.07,67.92-12-4.42-25.07Zm5.56,21.21-3.17-18,60.85-10.74,3.17,18Z" transform="translate(3128.54 -242.69)"/><path class="cls-30" d="M-2225,1689.41l-1.77.32,4.09,23.19h11l57.29-10.1-4.42-25.07Zm5.57,21.22-3.17-18,60.84-10.73,3.17,18Z" transform="translate(3128.54 -242.69)"/><rect class="cls-29" x="-2313.18" y="1363.66" width="99.88" height="18.78" transform="translate(2855.72 -614.84) rotate(-10)"/><rect class="cls-29" x="-2277.57" y="1387.61" width="67.49" height="7.37" transform="translate(2852.85 -611.19) rotate(-10)"/><path class="cls-2" d="M-867,1307.44q-8-3.42-16.06-6.6c-15.81-6.17-41.66-15.69-58.21-18.54-7.3-1.25-31.86-6.29-40.15-10.93-8.87-3.42-28.42-19.12-34.05-23.94-12.76-10.92-36.58-24.75-51.43-33q-7.59-4.22-15.33-8.16c-11.37-5.81-109.44-55.34-116.78-38.81-2.72,6.14-5.31,12.7-7.79,19a10.23,10.23,0,0,0-.63,5.66,68.13,68.13,0,0,0,2,8.79,24.75,24.75,0,0,1,1.4,9.88c-.33,5.22-.71,10.45-1,15.67q-.62,8.79-.36,17.61l-11.89,4.19c-17.25,5.83-11.25,26.75,9.2,19.57l9.33-3.28c.47.57,1,1.15,1.47,1.71a67.92,67.92,0,0,0,10.39,9.29c27.9,19.89,51.41,30.51,83.49,42,16.09,5.76,33.88,12,50.37,3.89,10-4.93,18.61-11.89,26.61-19.57,3.51-3.37,6.89-6.89,10.31-10.36l21,9,20.33,10.36c-.48,4.85-1,9.7-1.38,14.56-.81,11.06-.7,22.09,1.92,33,4.29,17.85,20.44,27.57,35.15,36.29,29.3,17.37,52.49,28.68,85.6,37.48a67.68,67.68,0,0,0,13.79,2c.76,0,1.51.06,2.25,0l3.42,9.28c7.53,20.33,27.46,11.6,20.94-5.4l-4.36-11.83a176.1,176.1,0,0,0,13.33-11.52c3.82-3.57,7.6-7.2,11.41-10.79a24.67,24.67,0,0,1,8.5-5.23,68.65,68.65,0,0,0,8.06-4,10.18,10.18,0,0,0,4-4.1c3.23-5.9,6.63-12.07,9.62-18.1C-754.55,1356.37-855.28,1312.48-867,1307.44Z" transform="translate(3128.54 -242.69)"/><path class="cls-32" d="M-786.77,1340.15l-318.92-126.82c-11.53-4.69-20.91-6.08-30.52-5.25-8.87.76-16.91,3.35-26.94,6.89l-53.89,19c-17.26,5.84-11.26,26.76,9.2,19.57l53.9-19c7.7-2.71,13.69-4.68,18.83-5.12,4.4-.39,9,.39,15.22,2.89l320.28,138.2a16.49,16.49,0,0,0,21.6-8.76,16.48,16.48,0,0,0-8.76-21.6Z" transform="translate(3128.54 -242.69)"/><path class="cls-32" d="M-832.66,1370.26c-3.69-10-6.82-17.81-11.91-25.13-5.49-7.93-12.54-14.26-23.51-20.15l-301.19-164.56a16.48,16.48,0,0,0-22.09,7.44,16.49,16.49,0,0,0,6.91,21.81L-873.63,1348c5.86,3.15,9.42,6.23,11.94,9.87,3,4.24,5.25,10.11,8.07,17.77l19.79,53.6c7.53,20.33,27.47,11.6,21-5.4Z" transform="translate(3128.54 -242.69)"/><path class="cls-33" d="M-866.79,1293.15q-8-3.4-16.05-6.6c-15.81-6.17-41.66-15.69-58.21-18.54-7.31-1.25-31.87-6.29-40.17-10.93-8.87-3.42-28.42-19.12-34-23.94-12.75-10.92-36.58-24.74-51.43-33q-7.59-4.2-15.33-8.15c-11.36-5.82-109.44-55.35-116.77-38.81-2.73,6.13-5.32,12.69-7.8,19a10.2,10.2,0,0,0-.63,5.65,68.31,68.31,0,0,0,2,8.79,24.57,24.57,0,0,1,1.39,9.88c-.33,5.22-.71,10.45-1,15.67a149.77,149.77,0,0,0-.09,21.81,29.5,29.5,0,0,0,7.84,18,67.92,67.92,0,0,0,10.39,9.29c27.89,19.89,51.41,30.52,83.49,42,16.09,5.76,33.88,12,50.37,3.88,10-4.92,18.6-11.87,26.6-19.56,3.91-3.74,7.64-7.66,11.45-11.5a12.83,12.83,0,0,1,12.18-3.9,64.4,64.4,0,0,1,23.39,11,12.83,12.83,0,0,1,4.77,11.86c-.52,5.39-1.16,10.76-1.55,16.15-.81,11.08-.7,22.1,1.92,33,4.3,17.85,20.44,27.58,35.14,36.29,29.32,17.38,52.51,28.68,85.6,37.48a67.86,67.86,0,0,0,13.81,2.06,29.63,29.63,0,0,0,18.85-5.44,154.37,154.37,0,0,0,16.72-14c3.82-3.58,7.61-7.21,11.42-10.8a24.85,24.85,0,0,1,8.49-5.22,70.39,70.39,0,0,0,8.07-4,10.06,10.06,0,0,0,4-4.1c3.23-5.9,6.63-12.07,9.62-18.09C-754.32,1342.1-855.06,1298.19-866.79,1293.15Zm-152.77-32.7a73.78,73.78,0,0,1-8.47,14.22c-6.75,9.27-18.61,21.44-29.11,26.55-9.08,4.41-16.47,4.76-27,1.92-6.25-1.7-12.51-3.42-18.67-5.47-27.21-9.05-52.21-19.82-75.48-36.9-2.72-2-5.45-4-8-6.25-4.59-4.08-8.47-8.72-10.17-14.81-2.27-8.1-1.26-22.74.35-30.86,2.36-11.91,5.79-26.2,11.64-36.81,2.3-4.18,5.46-7.22,10.43-7.86,6.66-.88,21.48,3.64,27.61,6a596,596,0,0,1,80.17,38.15c14.09,8.11,32.9,19.72,44,31.64,3.13,3.38,5.07,7.3,4.88,12A23.78,23.78,0,0,1-1019.56,1260.45Zm233.5,98.77c-4.43,11.28-13.24,23-20.92,32.47-5.22,6.41-15.83,16.53-23.51,20-5.78,2.58-11.84,2.55-17.91,1.62-3.33-.5-6.62-1.3-9.88-2.12-28-7-52.25-19.4-76.6-34.57-5.49-3.43-10.82-7.14-16.11-10.88-8.89-6.26-13.34-12.18-15.74-22-2.76-11.34-1-28.24,1.86-39.35a73,73,0,0,1,5.54-15.6,23.47,23.47,0,0,1,5-7.07c3.54-3.18,7.8-4.19,12.39-3.94,16.25.92,37.2,8,52.43,13.66A596.51,596.51,0,0,1-809,1328.76c5.76,3.19,18.69,11.72,22.27,17.41C-784,1350.41-784.31,1354.77-786.06,1359.22Z" transform="translate(3128.54 -242.69)"/><path class="cls-34" d="M-1066.19,1208.37a596,596,0,0,0-80.17-38.15c-6.13-2.4-21-6.92-27.61-6-5,.64-8.13,3.68-10.43,7.86-5.85,10.61-9.28,24.9-11.64,36.81-1.61,8.12-2.62,22.76-.35,30.86,1.7,6.09,5.58,10.73,10.17,14.81a98,98,0,0,0,8,6.25c23.27,17.08,48.27,27.85,75.48,36.9,6.16,2,12.42,3.77,18.67,5.47,10.5,2.84,17.89,2.49,27-1.92,10.5-5.11,22.36-17.28,29.11-26.55a73.78,73.78,0,0,0,8.47-14.22,23.79,23.79,0,0,0,2.23-8.39c.19-4.75-1.75-8.67-4.88-12C-1033.29,1228.1-1052.1,1216.48-1066.19,1208.37Z" transform="translate(3128.54 -242.69)"/><path class="cls-35" d="M-1158.37,1166.38c-5.79-1.53-11.93-2.68-15.6-2.2-5,.64-8.13,3.68-10.43,7.86a80.63,80.63,0,0,0-5.57,13,16.4,16.4,0,0,0,5.52,4.65l159.16,81.09a64.14,64.14,0,0,0,5.73-10.31,23.58,23.58,0,0,0,2.23-8.39,15.71,15.71,0,0,0-3.66-10.63Z" transform="translate(3128.54 -242.69)"/><path class="cls-36" d="M-1105.69,1213.33c-11.53-4.69-20.91-6.08-30.52-5.25-8.87.76-16.91,3.35-26.94,6.89l-34.57,12.13a49.26,49.26,0,0,0,1.33,12.57,25.73,25.73,0,0,0,4.13,8.32l38.32-13.49c7.7-2.71,13.69-4.68,18.83-5.12,4.4-.39,9,.39,15.22,2.89l93.35,40.28a68.19,68.19,0,0,0,7-12.14,23.58,23.58,0,0,0,2.23-8.39,15.46,15.46,0,0,0-.3-3.72Z" transform="translate(3128.54 -242.69)"/><path class="cls-34" d="M-808.94,1328.77a596.83,596.83,0,0,0-80.52-37.37c-15.23-5.66-36.18-12.74-52.43-13.66-4.59-.25-8.85.76-12.39,3.94a23.47,23.47,0,0,0-5,7.07,73,73,0,0,0-5.54,15.6c-2.83,11.11-4.62,28-1.86,39.35,2.4,9.81,6.85,15.73,15.74,22,5.29,3.74,10.62,7.45,16.11,10.88,24.35,15.17,48.58,27.55,76.6,34.57,3.26.82,6.55,1.62,9.88,2.12,6.07.93,12.13,1,17.91-1.62,7.68-3.42,18.29-13.54,23.51-20,7.68-9.43,16.49-21.19,20.92-32.47,1.75-4.45,2.06-8.81-.61-13C-790.25,1340.49-803.18,1332-808.94,1328.77Z" transform="translate(3128.54 -242.69)"/><path class="cls-35" d="M-844.57,1345.1c-5.49-7.93-12.54-14.26-23.51-20.15l-83.16-45.45a15.07,15.07,0,0,0-3.06,2.15,23.47,23.47,0,0,0-5,7.07,68,68,0,0,0-4.89,13.13L-873.6,1348c5.86,3.15,9.42,6.23,11.94,9.87,2.95,4.24,5.25,10.11,8.07,17.77l14.08,38.11a25.72,25.72,0,0,0,9-2.14,49.72,49.72,0,0,0,10.51-7l-12.68-34.37C-836.35,1360.28-839.46,1352.45-844.57,1345.1Z" transform="translate(3128.54 -242.69)"/><path class="cls-36" d="M-798.33,1335.57l-145.46-57.86a15.72,15.72,0,0,0-10.51,4,23.47,23.47,0,0,0-5,7.07,64.43,64.43,0,0,0-4.28,11l164,70.77a16.36,16.36,0,0,0,7.11,1.28,81.4,81.4,0,0,0,6.44-12.57c1.75-4.45,2.06-8.81-.61-13C-788.63,1343.1-793.46,1339.1-798.33,1335.57Z" transform="translate(3128.54 -242.69)"/><polygon class="cls-34" points="1908.48 1378.22 2058.28 1467.93 2391.24 1467.93 2428.16 1404.13 2031.09 1166.36 1908.48 1378.22"/><polygon class="cls-4" points="1901.71 1354.11 2091.8 1467.93 2370.51 1467.93 2421.38 1380.02 2024.31 1142.23 1901.71 1354.11"/><polygon class="cls-26" points="2163.26 1364.09 2029.88 1145.57 2024.31 1142.23 2022.6 1145.2 2155.99 1363.72 1903.43 1351.13 1901.71 1354.11 1907.28 1357.43 2159.82 1370.03 2219.59 1467.93 2226.64 1467.93 2167.11 1370.38 2419.66 1382.97 2421.38 1380.02 2415.82 1376.67 2163.26 1364.09"/><path class="cls-26" d="M-1139.11,1445.2l117,188.26c14.77,23.78,49.44,44.54,77,46.14l198.36,11.5,34.41-59.46-397.12-237.75Z" transform="translate(3128.54 -242.69)"/><path class="cls-4" d="M-1127.68,1425.45-1013.61,1609c13.4,21.57,44.84,40.39,69.87,41.85l213.13,12.38,23.45-40.53-397.07-237.78Z" transform="translate(3128.54 -242.69)"/><path class="cls-37" d="M3262.5,1421" transform="translate(3128.54 -242.69)"/><path class="cls-37" d="M2830.5,1733" transform="translate(3128.54 -242.69)"/></svg>