<svg id="Layer_1" data-name="Layer 1" xmlns="http://www.w3.org/2000/svg" viewBox="0 0 2124.39 1179.76"><defs><style>.cls-1{fill:#708280;}.cls-1,.cls-11,.cls-12,.cls-13,.cls-14,.cls-15,.cls-18,.cls-19,.cls-2,.cls-20,.cls-21,.cls-22,.cls-23,.cls-24,.cls-25,.cls-27,.cls-29,.cls-3,.cls-31,.cls-32,.cls-33,.cls-34,.cls-35,.cls-36,.cls-4,.cls-5,.cls-7{fill-rule:evenodd;}.cls-2{fill:#d7d7d3;}.cls-16,.cls-3{fill:#e7e5e4;}.cls-4{fill:#8550fc;}.cls-5,.cls-6{fill:#7f7d7c;}.cls-7,.cls-8{fill:#f3c09b;}.cls-14,.cls-9{fill:#001e2c;}.cls-10{fill:#00111b;}.cls-11{fill:#969697;}.cls-12{fill:#f6cdb0;}.cls-13{fill:#f6d3ba;}.cls-15,.cls-26{fill:#f4d37e;}.cls-17{fill:none;stroke:#fc8e53;stroke-miterlimit:10;stroke-width:16px;}.cls-18{fill:#deded9;}.cls-19{fill:#c6c8bf;}.cls-20{fill:#fdfdff;}.cls-21{fill:#612424;}.cls-22{fill:#4b0c0d;}.cls-23{fill:#3d0405;}.cls-24{fill:#eb664e;}.cls-25{fill:#cacacb;}.cls-27,.cls-30{fill:#9fbeb9;}.cls-28,.cls-29{fill:#c1dedc;}.cls-31{fill:#0b0808;}.cls-32{fill:#242424;}.cls-33{fill:#738380;}.cls-34{fill:#32413e;}.cls-35{fill:#4e6461;}.cls-36{fill:#8d9e9c;}</style></defs><path class="cls-1" d="M1861.46,741.12h-52.19a10,10,0,0,0-.46-2.09H1095.23a10,10,0,0,0-.46,2.09h-49.51C1021.38,741.12,1002,759,1002,781v501.78c0,22,19.36,39.86,43.24,39.86h9.91V1330a15.47,15.47,0,0,0,10.26,14.52v27.57h-5.19v14.88h-4.7v87.71h166.89v-87.71h-4.65v-14.88h-5.2v-27.57a15.47,15.47,0,0,0,10.26-14.52v-7.36h468.7v49.45h-5.19v14.88h-4.66v87.71h166.85v-87.71h-4.66v-14.88h-5.19v-49.45h22.76c23.88,0,43.25-17.84,43.25-39.86V781C1904.71,759,1885.34,741.12,1861.46,741.12Z" transform="translate(-303.77 -294.89)"/><path class="cls-2" d="M2028,294.89H879.2c-3.71,0-6,32.62-4.61,36.18L1009,650.31c2.7,7,10.07,11.87,17.93,11.87h855.25c8.31,0,16.08-5.17,18.9-12.58l132.35-321.86C2035,323.6,2032.25,294.89,2028,294.89Z" transform="translate(-303.77 -294.89)"/><path class="cls-3" d="M2028,324H879.2a5,5,0,0,0-5,5,5.09,5.09,0,0,0,.42,2L1009,679.41c2.7,7,10.07,11.87,17.93,11.87h855.25c8.31,0,16.08-5.16,18.9-12.57l132.23-346.57C2034.87,328,2032.25,324,2028,324Z" transform="translate(-303.77 -294.89)"/><path class="cls-4" d="M1861.15,738H1045c-23.88,0-43.23,17.85-43.23,39.86v501.77c0,22,19.35,39.86,43.23,39.86h816.2c23.89,0,43.25-17.84,43.25-39.86V777.85C1904.4,755.84,1885.08,738,1861.15,738Z" transform="translate(-303.77 -294.89)"/><path class="cls-2" d="M1832.69,736.31H1075.08a16.36,16.36,0,0,0-16.34,16.34v290.87a16.36,16.36,0,0,0,16.34,16.34h757.57a16.33,16.33,0,0,0,16.34-16.32V752.69a16.32,16.32,0,0,0-16.26-16.38Z" transform="translate(-303.77 -294.89)"/><path class="cls-2" d="M1592.69,1087.41H1320.78c-6.2,0-11.22,3.7-11.22,8.26v140.9c0,4.57,5,8.26,11.22,8.26h271.91c6.21,0,11.22-3.69,11.22-8.26v-140.9C1603.91,1091.06,1598.9,1087.41,1592.69,1087.41Z" transform="translate(-303.77 -294.89)"/><path class="cls-5" d="M1114.54,752.47H1082a8.22,8.22,0,0,0-8.23,8.21v13.53a8.22,8.22,0,0,0,8.22,8.22h32.58a8.23,8.23,0,0,0,8.23-8.21h0V760.71a8.22,8.22,0,0,0-8.2-8.24Z" transform="translate(-303.77 -294.89)"/><path class="cls-5" d="M1169.44,752.47h-32.58a8.22,8.22,0,0,0-8.22,8.22h0V774.2a8.22,8.22,0,0,0,8.2,8.22h32.6a8.22,8.22,0,0,0,8.22-8.2V760.69a8.22,8.22,0,0,0-8.19-8.23h0Z" transform="translate(-303.77 -294.89)"/><path class="cls-5" d="M1224.37,752.47H1191.8a8.22,8.22,0,0,0-8.23,8.21h0v13.53a8.22,8.22,0,0,0,8.22,8.22h32.58a8.23,8.23,0,0,0,8.23-8.21h0V760.71a8.22,8.22,0,0,0-8.2-8.24Z" transform="translate(-303.77 -294.89)"/><path class="cls-5" d="M1279.3,752.47h-32.57a8.22,8.22,0,0,0-8.23,8.21v13.53a8.22,8.22,0,0,0,8.22,8.22h32.58a8.23,8.23,0,0,0,8.23-8.21h0V760.71a8.22,8.22,0,0,0-8.2-8.24Z" transform="translate(-303.77 -294.89)"/><path class="cls-5" d="M1334.24,752.47h-32.57a8.22,8.22,0,0,0-8.23,8.21h0v13.53a8.22,8.22,0,0,0,8.22,8.22h32.58a8.22,8.22,0,0,0,8.22-8.2V760.7a8.22,8.22,0,0,0-8.19-8.23h0Z" transform="translate(-303.77 -294.89)"/><path class="cls-5" d="M1389.16,752.47h-32.57a8.22,8.22,0,0,0-8.22,8.22h0V774.2a8.22,8.22,0,0,0,8.2,8.22h32.59a8.22,8.22,0,0,0,8.23-8.21h0V760.7a8.22,8.22,0,0,0-8.19-8.23h0Z" transform="translate(-303.77 -294.89)"/><path class="cls-5" d="M1444.08,752.47h-32.54a8.22,8.22,0,0,0-8.22,8.22h0V774.2a8.22,8.22,0,0,0,8.2,8.22h32.59a8.23,8.23,0,0,0,8.23-8.21h0V760.7a8.22,8.22,0,0,0-8.21-8.23Z" transform="translate(-303.77 -294.89)"/><path class="cls-5" d="M1499.08,752.47h-32.54a8.22,8.22,0,0,0-8.22,8.22h0V774.2a8.22,8.22,0,0,0,8.2,8.22h32.6a8.23,8.23,0,0,0,8.23-8.21h0V760.7a8.22,8.22,0,0,0-8.21-8.23Z" transform="translate(-303.77 -294.89)"/><path class="cls-5" d="M1554,752.47H1521.4a8.22,8.22,0,0,0-8.24,8.22h0V774.2a8.22,8.22,0,0,0,8.22,8.22H1554a8.22,8.22,0,0,0,8.22-8.2V760.69a8.22,8.22,0,0,0-8.19-8.23h0Z" transform="translate(-303.77 -294.89)"/><path class="cls-5" d="M1608.91,752.47h-32.58a8.22,8.22,0,0,0-8.22,8.22h0V774.2a8.22,8.22,0,0,0,8.2,8.22h32.6a8.23,8.23,0,0,0,8.21-8.21h0V760.7a8.22,8.22,0,0,0-8.19-8.23Z" transform="translate(-303.77 -294.89)"/><path class="cls-5" d="M1663.84,752.47h-32.58a8.22,8.22,0,0,0-8.22,8.22h0V774.2a8.22,8.22,0,0,0,8.2,8.22h32.6a8.22,8.22,0,0,0,8.22-8.2V760.69a8.22,8.22,0,0,0-8.19-8.23h0Z" transform="translate(-303.77 -294.89)"/><path class="cls-5" d="M1718.77,752.47H1686.2a8.22,8.22,0,0,0-8.23,8.21h0v13.53a8.22,8.22,0,0,0,8.22,8.22h32.58a8.22,8.22,0,0,0,8.22-8.2V760.7a8.22,8.22,0,0,0-8.19-8.23h0Z" transform="translate(-303.77 -294.89)"/><path class="cls-5" d="M1773.71,752.47h-32.58a8.22,8.22,0,0,0-8.22,8.22h0V774.2a8.22,8.22,0,0,0,8.2,8.22h32.6a8.22,8.22,0,0,0,8.22-8.2V760.69a8.22,8.22,0,0,0-8.19-8.23h0Z" transform="translate(-303.77 -294.89)"/><path class="cls-5" d="M1828.64,752.47h-32.56a8.22,8.22,0,0,0-8.22,8.22h0V774.2a8.22,8.22,0,0,0,8.22,8.2h32.58a8.2,8.2,0,0,0,8.21-8.19V760.67a8.22,8.22,0,0,0-8.21-8.21Z" transform="translate(-303.77 -294.89)"/><path class="cls-5" d="M1118.08,786.92h-40.76a1.84,1.84,0,0,0-1.84,1.84h0v40.77a1.83,1.83,0,0,0,1.83,1.83h40.77a1.85,1.85,0,0,0,1.85-1.83h0V788.76a1.85,1.85,0,0,0-1.85-1.85Z" transform="translate(-303.77 -294.89)"/><path class="cls-5" d="M1198.67,838.41h-40.76a1.84,1.84,0,0,0-1.85,1.83h0V881a1.86,1.86,0,0,0,1.85,1.84h40.76a1.84,1.84,0,0,0,1.84-1.84h0V840.24a1.84,1.84,0,0,0-1.84-1.84Z" transform="translate(-303.77 -294.89)"/><path class="cls-5" d="M1210.54,889.87h-40.77a1.84,1.84,0,0,0-1.84,1.84h0v40.77a1.84,1.84,0,0,0,1.84,1.84h40.77a1.84,1.84,0,0,0,1.84-1.84h0V891.71A1.84,1.84,0,0,0,1210.54,889.87Z" transform="translate(-303.77 -294.89)"/><rect class="cls-6" x="891.84" y="646.45" width="44.45" height="44.45" rx="1.84"/><rect class="cls-6" x="771.68" y="697.9" width="44.45" height="50.11" rx="1.95"/><rect class="cls-6" x="825.83" y="697.9" width="44.45" height="50.11" rx="1.95"/><path class="cls-6" d="M1184.05,992.8h40.49a2,2,0,0,1,2,2V1041a2,2,0,0,1-2,2H1184a2,2,0,0,1-2-2V994.79a2,2,0,0,1,2-2Z" transform="translate(-303.77 -294.89)"/><path class="cls-5" d="M1290.77,992.8h-53.5a2.21,2.21,0,0,0-2.22,2.2v45.68a2.21,2.21,0,0,0,2.21,2.23h53.51a2.23,2.23,0,0,0,2.23-2.23V995A2.23,2.23,0,0,0,1290.77,992.8Z" transform="translate(-303.77 -294.89)"/><path class="cls-5" d="M1619.88,992.8h-53.5a2.23,2.23,0,0,0-2.23,2.22v45.66a2.23,2.23,0,0,0,2.23,2.23h53.5a2.23,2.23,0,0,0,2.23-2.23V995A2.23,2.23,0,0,0,1619.88,992.8Z" transform="translate(-303.77 -294.89)"/><path class="cls-5" d="M1674.08,992.8h-40a1.92,1.92,0,0,0-1.93,1.91h0V1041a1.92,1.92,0,0,0,1.92,1.94h40A1.94,1.94,0,0,0,1676,1041V994.73a1.92,1.92,0,0,0-1.91-1.93Z" transform="translate(-303.77 -294.89)"/><path class="cls-5" d="M1553.08,992.8H1306.19a4.69,4.69,0,0,0-4.69,4.69v40.73a4.69,4.69,0,0,0,4.69,4.69h246.89a4.7,4.7,0,0,0,4.68-4.68h0V997.5a4.67,4.67,0,0,0-4.65-4.69h0Z" transform="translate(-303.77 -294.89)"/><rect class="cls-6" x="944.79" y="646.45" width="44.45" height="44.45" rx="1.84"/><rect class="cls-6" x="997.73" y="646.45" width="44.45" height="44.45" rx="1.84"/><rect class="cls-6" x="1050.68" y="646.45" width="44.45" height="44.45" rx="1.84"/><path class="cls-5" d="M1450,941.31h-40.77a1.84,1.84,0,0,0-1.84,1.84v40.77a1.84,1.84,0,0,0,1.84,1.84H1450a1.84,1.84,0,0,0,1.84-1.84V943.15A1.84,1.84,0,0,0,1450,941.31Z" transform="translate(-303.77 -294.89)"/><path class="cls-5" d="M1502.94,941.31h-40.76a1.85,1.85,0,0,0-1.85,1.84v40.77a1.84,1.84,0,0,0,1.84,1.84h40.77a1.85,1.85,0,0,0,1.85-1.83h0V943.16A1.85,1.85,0,0,0,1502.94,941.31Z" transform="translate(-303.77 -294.89)"/><path class="cls-5" d="M1555.89,941.31h-40.81a1.84,1.84,0,0,0-1.84,1.84v40.77a1.84,1.84,0,0,0,1.84,1.84h40.77a1.83,1.83,0,0,0,1.83-1.83h0V943.16a1.81,1.81,0,0,0-1.79-1.85Z" transform="translate(-303.77 -294.89)"/><rect class="cls-6" x="1262.46" y="646.45" width="44.45" height="44.45" rx="1.84"/><rect class="cls-6" x="1315.4" y="646.45" width="44.45" height="44.45" rx="1.84"/><path class="cls-5" d="M1721.85,1017.85h-31a7.14,7.14,0,0,0-7.13,7.14v11.54a7.13,7.13,0,0,0,7.12,7.14h31a7.15,7.15,0,0,0,7.13-7.14V1025A7.13,7.13,0,0,0,1721.85,1017.85Z" transform="translate(-303.77 -294.89)"/><rect class="cls-6" x="1433.06" y="722.95" width="45.26" height="25.82" rx="7.14"/><path class="cls-5" d="M1775,988.91h-31a7.14,7.14,0,0,0-7.14,7.14h0v11.55a7.14,7.14,0,0,0,7.14,7.13h31a7.14,7.14,0,0,0,7.14-7.13V996.05a7.14,7.14,0,0,0-7.14-7.14Z" transform="translate(-303.77 -294.89)"/><path class="cls-5" d="M1828.08,1017.85h-31A7.14,7.14,0,0,0,1790,1025v11.54a7.13,7.13,0,0,0,7.12,7.14h31a7.15,7.15,0,0,0,7.15-7.13h0V1025A7.15,7.15,0,0,0,1828.08,1017.85Z" transform="translate(-303.77 -294.89)"/><path class="cls-5" d="M1264,889.87h-40.77a1.81,1.81,0,0,0-1.83,1.81v0h0v40.77a1.83,1.83,0,0,0,1.82,1.84H1264a1.84,1.84,0,0,0,1.84-1.84h0V891.71A1.84,1.84,0,0,0,1264,889.87Z" transform="translate(-303.77 -294.89)"/><path class="cls-5" d="M1317.42,889.87h-40.77a1.84,1.84,0,0,0-1.84,1.84h0v40.77a1.84,1.84,0,0,0,1.84,1.84h40.77a1.84,1.84,0,0,0,1.84-1.84h0V891.71A1.84,1.84,0,0,0,1317.42,889.87Z" transform="translate(-303.77 -294.89)"/><path class="cls-5" d="M1370.85,889.87h-40.77a1.81,1.81,0,0,0-1.83,1.81v0h0v40.77a1.83,1.83,0,0,0,1.82,1.84h40.78a1.84,1.84,0,0,0,1.84-1.84V891.71A1.84,1.84,0,0,0,1370.85,889.87Z" transform="translate(-303.77 -294.89)"/><path class="cls-5" d="M1424,889.87h-40.77a1.84,1.84,0,0,0-1.84,1.84v40.77a1.84,1.84,0,0,0,1.84,1.84H1424a1.84,1.84,0,0,0,1.84-1.84V891.71A1.84,1.84,0,0,0,1424,889.87Z" transform="translate(-303.77 -294.89)"/><rect class="cls-6" x="1131.02" y="594.97" width="44.44" height="44.45" rx="1.84"/><rect class="cls-6" x="1182.17" y="594.97" width="44.45" height="44.45" rx="1.84"/><path class="cls-5" d="M1581.54,889.87h-40.78a1.81,1.81,0,0,0-1.83,1.81v0h0v40.77a1.84,1.84,0,0,0,1.82,1.84h40.79a1.84,1.84,0,0,0,1.84-1.84V891.71A1.84,1.84,0,0,0,1581.54,889.87Z" transform="translate(-303.77 -294.89)"/><rect class="cls-6" x="1288.06" y="594.97" width="44.45" height="44.45" rx="1.84"/><rect class="cls-6" x="1340.68" y="594.97" width="44.45" height="44.45" rx="1.84"/><path class="cls-5" d="M1739.67,889.87H1698.9a1.84,1.84,0,0,0-1.84,1.84v40.77a1.84,1.84,0,0,0,1.84,1.84h40.77a1.84,1.84,0,0,0,1.84-1.84V891.71A1.84,1.84,0,0,0,1739.67,889.87Z" transform="translate(-303.77 -294.89)"/><rect class="cls-6" x="1367.83" y="646.45" width="44.44" height="44.45" rx="1.84"/><path class="cls-5" d="M1832.88,889.87h-78.72a2.52,2.52,0,0,0-2.52,2.52h0V931.8a2.54,2.54,0,0,0,2.52,2.52h78.72a2.54,2.54,0,0,0,2.53-2.52V892.41a2.52,2.52,0,0,0-2.5-2.54h0Z" transform="translate(-303.77 -294.89)"/><path class="cls-5" d="M1832.54,941.31H1727a2.91,2.91,0,0,0-2.91,2.91h0v38.62a2.91,2.91,0,0,0,2.91,2.91h105.59a2.9,2.9,0,0,0,2.89-2.91h0V944.31a2.9,2.9,0,0,0-2.8-3Z" transform="translate(-303.77 -294.89)"/><path class="cls-5" d="M1157.54,889.87H1078a2.54,2.54,0,0,0-2.54,2.54h0v39.37a2.54,2.54,0,0,0,2.54,2.54h79.57a2.55,2.55,0,0,0,2.53-2.54V892.41A2.54,2.54,0,0,0,1157.54,889.87Z" transform="translate(-303.77 -294.89)"/><rect class="cls-6" x="770.81" y="646.45" width="112.97" height="44.45" rx="2.93"/><path class="cls-5" d="M1251.84,838.41h-40.76a1.84,1.84,0,0,0-1.84,1.84h0V881a1.84,1.84,0,0,0,1.84,1.84h40.77a1.86,1.86,0,0,0,1.84-1.84V840.25a1.84,1.84,0,0,0-1.84-1.84Z" transform="translate(-303.77 -294.89)"/><rect class="cls-6" x="958.3" y="543.51" width="44.45" height="44.45" rx="1.84"/><path class="cls-5" d="M1357.84,838.41h-40.76a1.84,1.84,0,0,0-1.84,1.84h0V881a1.86,1.86,0,0,0,1.84,1.84h40.78a1.85,1.85,0,0,0,1.83-1.84V840.25a1.81,1.81,0,0,0-1.8-1.84h-.05Z" transform="translate(-303.77 -294.89)"/><path class="cls-5" d="M1411,838.41h-40.77a1.84,1.84,0,0,0-1.84,1.84V881a1.84,1.84,0,0,0,1.84,1.84H1411a1.84,1.84,0,0,0,1.84-1.84V840.25A1.84,1.84,0,0,0,1411,838.41Z" transform="translate(-303.77 -294.89)"/><path class="cls-5" d="M1463.83,838.41h-40.75a1.81,1.81,0,0,0-1.83,1.81v0h0V881a1.85,1.85,0,0,0,1.83,1.84h40.77a1.84,1.84,0,0,0,1.84-1.84V840.24a1.84,1.84,0,0,0-1.84-1.84Z" transform="translate(-303.77 -294.89)"/><rect class="cls-6" x="1169.1" y="543.51" width="44.44" height="44.45" rx="1.84"/><path class="cls-5" d="M1569.08,838.41H1528.3a1.84,1.84,0,0,0-1.84,1.84V881a1.86,1.86,0,0,0,1.84,1.84h40.78a1.86,1.86,0,0,0,1.84-1.84V840.25A1.86,1.86,0,0,0,1569.08,838.41Z" transform="translate(-303.77 -294.89)"/><path class="cls-5" d="M1622,838.41h-40.78a1.84,1.84,0,0,0-1.84,1.84V881a1.86,1.86,0,0,0,1.84,1.84H1622a1.85,1.85,0,0,0,1.83-1.84V840.25a1.81,1.81,0,0,0-1.8-1.84h0Z" transform="translate(-303.77 -294.89)"/><path class="cls-5" d="M1674.08,838.41h-40.77a1.84,1.84,0,0,0-1.84,1.84V881a1.86,1.86,0,0,0,1.84,1.84h40.77a1.86,1.86,0,0,0,1.84-1.84V840.25A1.84,1.84,0,0,0,1674.08,838.41Z" transform="translate(-303.77 -294.89)"/><path class="cls-5" d="M1728.34,838.41h-40.8a1.84,1.84,0,0,0-1.84,1.84V881a1.86,1.86,0,0,0,1.84,1.84h40.77a1.86,1.86,0,0,0,1.84-1.84V840.25A1.85,1.85,0,0,0,1728.34,838.41Z" transform="translate(-303.77 -294.89)"/><path class="cls-5" d="M1780.2,838.41h-40.78a1.86,1.86,0,0,0-1.84,1.84V881a1.86,1.86,0,0,0,1.84,1.84h40.78A1.86,1.86,0,0,0,1782,881V840.25A1.84,1.84,0,0,0,1780.2,838.41Z" transform="translate(-303.77 -294.89)"/><path class="cls-5" d="M1833.59,838.41h-40.78a1.84,1.84,0,0,0-1.84,1.84V881a1.84,1.84,0,0,0,1.84,1.84h40.78a1.83,1.83,0,0,0,1.82-1.84V840.25a1.81,1.81,0,0,0-1.78-1.84h0Z" transform="translate(-303.77 -294.89)"/><path class="cls-5" d="M1172,786.92h-40.77a1.84,1.84,0,0,0-1.84,1.84h0v40.77a1.85,1.85,0,0,0,1.84,1.83H1172a1.84,1.84,0,0,0,1.84-1.82h0V788.78a1.83,1.83,0,0,0-1.81-1.85h0Z" transform="translate(-303.77 -294.89)"/><path class="cls-5" d="M1224.27,786.92h-40.73a1.83,1.83,0,0,0-1.83,1.83v0h0v40.77a1.83,1.83,0,0,0,1.83,1.83h40.77a1.84,1.84,0,0,0,1.84-1.82h0V788.78a1.83,1.83,0,0,0-1.81-1.85h-.07Z" transform="translate(-303.77 -294.89)"/><path class="cls-5" d="M1277.87,786.92h-40.79a1.83,1.83,0,0,0-1.83,1.83v0h0v40.77a1.84,1.84,0,0,0,1.79,1.87h40.81a1.84,1.84,0,0,0,1.84-1.82h0V788.81a1.83,1.83,0,0,0-1.77-1.89h-.05Z" transform="translate(-303.77 -294.89)"/><path class="cls-5" d="M1330.14,786.92h-40.77a1.84,1.84,0,0,0-1.84,1.84h0v40.77a1.83,1.83,0,0,0,1.83,1.83h40.78a1.85,1.85,0,0,0,1.84-1.83V788.76A1.84,1.84,0,0,0,1330.14,786.92Z" transform="translate(-303.77 -294.89)"/><path class="cls-5" d="M1384.08,786.92H1343.3a1.84,1.84,0,0,0-1.83,1.85h0v40.77a1.83,1.83,0,0,0,1.83,1.83h40.78a1.83,1.83,0,0,0,1.83-1.83h0V788.77a1.83,1.83,0,0,0-1.81-1.85Z" transform="translate(-303.77 -294.89)"/><path class="cls-5" d="M1435.84,786.92h-40.76a1.85,1.85,0,0,0-1.85,1.85h0v40.77a1.84,1.84,0,0,0,1.81,1.87h40.81a1.83,1.83,0,0,0,1.83-1.83h0V788.81a1.83,1.83,0,0,0-1.77-1.89h-.07Z" transform="translate(-303.77 -294.89)"/><path class="cls-5" d="M1489.66,786.92h-40.78a1.83,1.83,0,0,0-1.83,1.83v0h0v40.77a1.83,1.83,0,0,0,1.83,1.83h40.78a1.84,1.84,0,0,0,1.83-1.83V788.77A1.85,1.85,0,0,0,1489.66,786.92Z" transform="translate(-303.77 -294.89)"/><path class="cls-5" d="M1541.94,786.92h-40.77a1.84,1.84,0,0,0-1.84,1.84h0v40.77a1.83,1.83,0,0,0,1.83,1.83h40.78a1.84,1.84,0,0,0,1.84-1.82h0V788.77a1.83,1.83,0,0,0-1.81-1.85h0Z" transform="translate(-303.77 -294.89)"/><path class="cls-5" d="M1595.66,786.92h-40.78a1.84,1.84,0,0,0-1.84,1.84h0v40.77a1.85,1.85,0,0,0,1.84,1.83h40.78a1.85,1.85,0,0,0,1.84-1.83V788.77A1.86,1.86,0,0,0,1595.66,786.92Z" transform="translate(-303.77 -294.89)"/><path class="cls-5" d="M1649.25,786.92h-40.77a1.84,1.84,0,0,0-1.84,1.84h0v40.77a1.85,1.85,0,0,0,1.84,1.83h40.77a1.84,1.84,0,0,0,1.84-1.82h0V788.78a1.83,1.83,0,0,0-1.81-1.85h0Z" transform="translate(-303.77 -294.89)"/><path class="cls-5" d="M1702.31,786.92h-40.77a1.84,1.84,0,0,0-1.84,1.84h0v40.77a1.83,1.83,0,0,0,1.83,1.83h40.78a1.83,1.83,0,0,0,1.83-1.83h0V788.76a1.83,1.83,0,0,0-1.81-1.85h0Z" transform="translate(-303.77 -294.89)"/><path class="cls-5" d="M1753.29,786.92h-40.75a1.84,1.84,0,0,0-1.84,1.84h0v40.77a1.83,1.83,0,0,0,1.83,1.83h40.78a1.84,1.84,0,0,0,1.84-1.82h0V788.77a1.83,1.83,0,0,0-1.81-1.85h0Z" transform="translate(-303.77 -294.89)"/><path class="cls-5" d="M1829.71,786.92h-61a5.1,5.1,0,0,0-5.1,5.1v0h0v34.27a5.1,5.1,0,0,0,5.1,5.1h61a5.1,5.1,0,0,0,5.1-5.1h0V792.08a5.1,5.1,0,0,0-5.08-5.12h0Z" transform="translate(-303.77 -294.89)"/><path class="cls-5" d="M1141.54,838.41h-61a5.1,5.1,0,0,0-5.1,5.1h0v34.24a5.1,5.1,0,0,0,5.09,5.11h61a5.11,5.11,0,0,0,5.11-5.11h0V843.51A5.1,5.1,0,0,0,1141.54,838.41Z" transform="translate(-303.77 -294.89)"/><path class="cls-2" d="M1807.54,691.31h-706c-2.41,0-4.37,3.26-4.37,7.27v17c0,4,2,7.28,4.37,7.28h706c2.42,0,4.38-3.26,4.38-7.28v-17C1811.87,694.54,1809.91,691.31,1807.54,691.31Z" transform="translate(-303.77 -294.89)"/><path class="cls-7" d="M1781.77,1001.31H1664.42a50,50,0,0,0-49.84,49.84V1149c0,50.68,41.46,92.14,92.14,92.14h75c50.67,0,92.14-41.46,92.14-92.14v-55.62C1873.91,1042.76,1832.44,1001.31,1781.77,1001.31Z" transform="translate(-303.77 -294.89)"/><rect class="cls-8" x="1390.24" y="843.47" width="147.19" height="290.19"/><rect class="cls-9" x="1380.39" y="1048.06" width="166.9" height="127.19"/><rect class="cls-10" x="1380.39" y="1048.06" width="73.32" height="127.19"/><path class="cls-11" d="M1714.74,1370.41a18.16,18.16,0,0,0-18.15,18.15h0a18.15,18.15,0,0,0,36.3,0h0a18.16,18.16,0,0,0-18.15-18.15Z" transform="translate(-303.77 -294.89)"/><path class="cls-12" d="M1790.88,1032h-89.47a38.12,38.12,0,0,0-38,38v74.63a70.47,70.47,0,0,0,70.25,70.26h57.22a70.48,70.48,0,0,0,70.26-70.26v-42.36A70.46,70.46,0,0,0,1790.88,1032Z" transform="translate(-303.77 -294.89)"/><path class="cls-13" d="M1807.54,1049.05h-44.43a22.67,22.67,0,0,0-22.61,22.61V1143a41.92,41.92,0,0,0,41.8,41.8h25.21a41.92,41.92,0,0,0,41.8-41.8v-52.16A41.92,41.92,0,0,0,1807.54,1049.05Z" transform="translate(-303.77 -294.89)"/><path class="cls-7" d="M1244.72,1001.31H1127.38c-50.69,0-92.15,41.46-92.15,92.14V1149c0,50.68,41.46,92.14,92.15,92.14h75c50.68,0,92.15-41.46,92.15-92.14v-97.88A50,50,0,0,0,1244.72,1001.31Z" transform="translate(-303.77 -294.89)"/><rect class="cls-8" x="764.17" y="843.47" width="147.19" height="290.19"/><rect class="cls-9" x="754.32" y="1048.06" width="166.89" height="127.19"/><rect class="cls-10" x="847.9" y="1048.06" width="73.31" height="127.19"/><path class="cls-11" d="M1194.4,1370.41a18.16,18.16,0,0,0-18.15,18.15h0a18.15,18.15,0,1,0,36.3,0h0A18.17,18.17,0,0,0,1194.4,1370.41Z" transform="translate(-303.77 -294.89)"/><path class="cls-12" d="M1207.73,1032h-89.47A70.46,70.46,0,0,0,1048,1102.3v42.38a70.48,70.48,0,0,0,70.26,70.26h57.22a70.47,70.47,0,0,0,70.26-70.26v-74.63A38.12,38.12,0,0,0,1207.73,1032Z" transform="translate(-303.77 -294.89)"/><path class="cls-13" d="M1146.08,1049.05h-44.4a41.92,41.92,0,0,0-41.8,41.8V1143a41.92,41.92,0,0,0,41.8,41.8h25.21a41.92,41.92,0,0,0,41.8-41.8v-71.35A22.67,22.67,0,0,0,1146.08,1049.05Z" transform="translate(-303.77 -294.89)"/><path class="cls-14" d="M1210,1235.31H1073.08a15.46,15.46,0,0,0-15.41,15.41V1286a15.46,15.46,0,0,0,15.41,15.42H1210a15.47,15.47,0,0,0,15.42-15.41v-35.3A15.45,15.45,0,0,0,1210,1235.31Z" transform="translate(-303.77 -294.89)"/><path class="cls-15" d="M1126,1219a49.34,49.34,0,0,0-49.34,49.34v0a49.35,49.35,0,1,0,49.39-49.36h0Z" transform="translate(-303.77 -294.89)"/><path class="cls-14" d="M1122.38,1252.05a4.69,4.69,0,0,0-6.37-1.88h0a4.72,4.72,0,0,0-1.87,6.4l6.27,11.35-13.8,17.92a4.7,4.7,0,0,0,1.13,6.55h0a4.72,4.72,0,0,0,6.31-.81l15.53-20.17a4.69,4.69,0,0,0,.57-5.36Z" transform="translate(-303.77 -294.89)"/><rect class="cls-16" x="758.97" y="1033.17" width="157.58" height="14.89"/><rect class="cls-16" x="1385.04" y="1033.17" width="157.59" height="14.89"/><polygon class="cls-4" points="721.95 382.93 1570.94 382.93 1681.38 73.91 610.87 73.91 721.95 382.93"/><line class="cls-17" x1="1087.5" y1="151.61" x2="876.58" y2="229.51"/><line class="cls-17" x1="1125.07" y1="358.28" x2="874.52" y2="225.36"/><line class="cls-17" x1="1195.71" y1="358.89" x2="1408.04" y2="283.9"/><line class="cls-17" x1="1176.26" y1="155.18" x2="1418.04" y2="288.08"/><line class="cls-17" x1="1128.09" y1="114.73" x2="1164.18" y2="370.92"/><path class="cls-1" d="M664.23,559.76A156.66,156.66,0,0,0,499.74,708.18h0A156.66,156.66,0,1,0,664.25,559.76h0Z" transform="translate(-303.77 -294.89)"/><path class="cls-18" d="M656.61,526.8A156.66,156.66,0,0,0,492.17,675.27v0A156.66,156.66,0,1,0,656.66,526.82h0Z" transform="translate(-303.77 -294.89)"/><path class="cls-19" d="M659.94,581.07A110.78,110.78,0,0,0,543.62,686v.05a110.78,110.78,0,0,0,221.27,11.35h0A110.76,110.76,0,0,0,660,581.07h-.07Z" transform="translate(-303.77 -294.89)"/><path class="cls-20" d="M654.26,572.63A110.77,110.77,0,0,0,538,677.61v0a110.78,110.78,0,1,0,116.33-105h0Z" transform="translate(-303.77 -294.89)"/><path class="cls-21" d="M653.36,590.31a93.08,93.08,0,0,0-97.74,88.17v0a93.08,93.08,0,0,0,88.18,97.74h0A93.09,93.09,0,0,0,741.54,688h0A93.08,93.08,0,0,0,653.36,590.31Z" transform="translate(-303.77 -294.89)"/><path class="cls-20" d="M796.74,665.91l-38.6-2a15.77,15.77,0,0,0-16.2,15.33h0a15.78,15.78,0,0,0,14.6,16.16l38.59,2a15.77,15.77,0,0,0,16.21-15.32h0A15.76,15.76,0,0,0,796.74,665.91Z" transform="translate(-303.77 -294.89)"/><path class="cls-22" d="M652.87,599.59a83.78,83.78,0,0,0-88,79.34v0a83.78,83.78,0,0,0,79.34,88h0a83.78,83.78,0,0,0,8.69-167.34h0Z" transform="translate(-303.77 -294.89)"/><path class="cls-23" d="M652.84,607.41a75.78,75.78,0,0,0-71,40.48,18.59,18.59,0,0,0,8.53,8.57c25.06,11.47,45.16,1.39,65.24,21.56,14.07,14.13,6,53.42,8.75,68.81a16.12,16.12,0,0,0,4.92,9.22,75.75,75.75,0,0,0,52.65-93.31h0A75.76,75.76,0,0,0,652.84,607.41Z" transform="translate(-303.77 -294.89)"/><path class="cls-1" d="M692.74,939.94a11.33,11.33,0,0,0-5.28,1.14c-4.78,2.58-5.3,5.11-5.44,5.23s-10.67,23.56-13.86,30.2c-.13.29-.4.63-.27.77l.6.72c.27.33.47.57.54.64l.06.06c.33-.05,1.22-2,2.5-4.55,4-7.9,11.27-24.14,13-27.25,1.31-2.34,5.33-4.42,9-4.42a7.82,7.82,0,0,1,3.17.61c6.3,2.78,6.42,6.2,6.25,9.18-.21,3.61-2.51,8.83-5.27,15-3,6.65-6.55,14.4-10.48,22.2-3.43,6.85-18.16,36.54-20.61,39.18a7.37,7.37,0,0,1-5.14,2,7.69,7.69,0,0,1-5.18-2c-3.62-3.28-4.1-7.11-3.59-9.06.17-.59,2.93-6.41,6.77-14.23a11.83,11.83,0,0,0,6.36,1.83,13.58,13.58,0,0,0,7.38-2.29c6.41-4,4.36-10.68,3.49-12.46-.46-1-2.92-4.62-6.1-9.22l.45-.87c4.26-8.23,6.75-15.15,9.85-19a5.71,5.71,0,0,1,4.61-2.12,7.87,7.87,0,0,1,3.17.66c3.1,1.29,4.76,4,4.19,7.78s-11.34,24-11.34,24l1.66,2s11.53-22.18,12.11-26.08a9.31,9.31,0,0,0-5.22-9.84,9.4,9.4,0,0,0-4.23-1,8.32,8.32,0,0,0-6,2.24c-1.37,1.38-4.73,8.12-8.64,15.47-.75,1.42-1.51,2.87-2.29,4.37-7.11-10.19-16.47-23.29-16.47-23.29s-13.93-21.28-23.41-30.71a13.78,13.78,0,0,0-6-3.59,11.09,11.09,0,0,0-3.38-.56c-7.24,0-12.26,7.76-12.24,12.5,0,5.44,2,7.08,2,7.27s15.79,20.49,20.15,26.42c.18.25.35.62.53.62h0l.91-.19.83-.18H632c.12-.31-1.19-2-2.84-4.34-5.09-7.25-16-21.31-17.93-24.29s-1.22-9.73,2.38-12.56c2.62-2.07,4.71-2.78,6.43-2.78a8.84,8.84,0,0,1,4.6,1.59c3.07,1.88,6.62,6.37,10.78,11.7,4.47,5.76,9.63,12.57,14.67,19.69,2.76,3.89,11.28,15.82,17.58,25.08-3,5.78-6.08,11.94-8.84,17.52-3.88-5.14-14-19.16-22.66-31.7-5.28-7.62-10.2-13.08-12.15-17.62-1.06-2.51-.22-5.41,2.38-7.55a6.86,6.86,0,0,1,4.36-1.67,7.42,7.42,0,0,1,4.47,1.63c3.06,2.27,15.84,21.3,15.84,21.3l2.53-.54s-14.14-20.6-17.32-23a9.13,9.13,0,0,0-5.47-1.85,10,10,0,0,0-5.67,1.83c-3,2.16-4.68,6.42-3.66,9.61.58,1.85,4.94,8,9.59,14.9,9,13.38,21.91,31.25,26.51,37.17-4.36,8.87-7.61,15.78-7.69,16.48-.32,2.45.25,8.42,6.83,12.15a9.67,9.67,0,0,0,4.83,1.36,10.27,10.27,0,0,0,7.82-4.14c2.08-2.85,19.39-37.78,19.39-37.78S701,969,704.83,956.21a13.74,13.74,0,0,0,.35-7C704.17,942.57,698,939.94,692.74,939.94Zm-23.3,45.66a77.56,77.56,0,0,1,5.64,9.11,7.61,7.61,0,0,1-4.87,9.08,12.55,12.55,0,0,1-4.16.76,8.46,8.46,0,0,1-5.29-1.66c2.64-5.35,5.67-11.42,8.68-17.29Z" transform="translate(-303.77 -294.89)"/><path class="cls-1" d="M632.34,985.81c-.15-.09-25.75-2.47-33.07-3.35-.2,0-.45-.09-.61-.09s-.17,0-.2.07c-.16.27-.33.57-.49.81a5.2,5.2,0,0,0-.42.72V984c.15.31,2.28.51,5.12.9,8.77,1.23,26.49,2.89,30,3.52s7.94,5.75,7.55,10.31c-.6,6.86-3.79,8.07-6.69,8.87a20.46,20.46,0,0,1-5.29.55c-3,0-6.62-.33-10.61-.69-7.25-.66-15.75-1.55-24.4-2.73-7.57-1-40.44-5.41-43.74-6.89a7.59,7.59,0,0,1-3.29-9.76c1.94-4.48,5.4-6.19,7.4-6.31h.07c1.71,0,22.94,2.63,41.12,5.35,9.17,1.36,16.52,1.49,21.16,3.18,2.55.94,4.09,3.54,3.88,6.89s-2.27,5.8-6,6.48a9.91,9.91,0,0,1-1.33.09c-6.09,0-25-3.07-25-3.07l-1.33,2.2s20.6,3.12,27.15,3.12a10.07,10.07,0,0,0,1.45-.08,9.32,9.32,0,0,0,7.62-8.11c.52-3.69-1.48-7.8-4.49-9.25-1.75-.84-9.22-1.84-17.44-3.17-18.33-3-44.48-6.22-47.58-6.22h-.24c-2.43.48-7.89,3-9.3,10.4s4.82,10.48,6.72,11.06c3.36,1,42,6.16,42,6.16s22.56,3.94,36.3,3.94h2.13a13.82,13.82,0,0,0,6.71-1.91c8.28-4.55,6-15.87,2-19.56S632.54,985.92,632.34,985.81Z" transform="translate(-303.77 -294.89)"/><path class="cls-24" d="M648,954.46s-13.91-21.28-23.41-30.73a13.82,13.82,0,0,0-6-3.58c-9-2.94-15.65,6.51-15.62,11.94s2,7.08,2.06,7.27,15.79,20.49,20.14,26.43c.19.26.36.65.56.61l.91-.2.81-.17h.09c.11-.31-1.2-2-2.85-4.35-5.08-7.24-16-21.31-17.93-24.29s-1.21-9.72,2.38-12.56c5.43-4.26,8.49-2.74,11-1.19,3.09,1.88,6.62,6.37,10.78,11.71,4.47,5.76,9.63,12.56,14.67,19.68,4.43,6.25,23.71,33.22,24.87,36.63a7.61,7.61,0,0,1-4.85,9.08c-4.63,1.66-8.23.29-9.71-1.09-.84-.81-13.65-18.38-24.23-33.72-5.26-7.62-10.2-13.08-12.15-17.61-1.06-2.51-.21-5.42,2.38-7.55s5.79-2.31,8.84,0,15.85,21.3,15.85,21.3l2.51-.53s-14.14-20.61-17.32-23a9.3,9.3,0,0,0-11.12,0c-3,2.15-4.7,6.41-3.68,9.6.58,1.85,4.94,8,9.6,14.9,10.76,16,27,38.37,28.14,39.15,2,1.44,7.56,3.73,14-.33s4.34-10.68,3.48-12.46C670.69,986.16,648,954.46,648,954.46Z" transform="translate(-303.77 -294.89)"/><path class="cls-24" d="M682.92,938c-4.8,2.58-5.31,5.12-5.46,5.23s-10.67,23.57-13.84,30.21c-.15.28-.42.62-.29.76l.6.72c.29.33.48.57.54.65h.06c.34,0,1.22-2,2.51-4.54,4-7.91,11.28-24.14,13-27.26s8-5.65,12.21-3.8c6.3,2.77,6.4,6.19,6.24,9.17-.22,3.61-2.52,8.84-5.28,15-3,6.66-6.55,14.4-10.46,22.21-3.43,6.83-18.17,36.53-20.63,39.17a7.62,7.62,0,0,1-10.31,0c-3.63-3.28-4.11-7.1-3.58-9,.3-1.13,9.78-20.69,18.33-37.24,4.26-8.24,6.76-15.16,9.85-19,1.71-2.11,4.68-2.73,7.79-1.44s4.75,4,4.19,7.78-11.35,24-11.35,24l1.66,2s11.53-22.18,12.12-26.1a9.33,9.33,0,0,0-5.23-9.83c-3.33-1.67-7.85-1.11-10.2,1.27-1.34,1.39-4.72,8.13-8.63,15.48-9,17-21.14,41.93-21.31,43.26-.32,2.46.25,8.42,6.84,12.15s11.47-1.18,12.64-2.78c2.08-2.85,19.4-37.77,19.4-37.77s12.24-22.29,16.1-35.1a13.63,13.63,0,0,0,.35-7C699.15,936.85,687.69,935.41,682.92,938Z" transform="translate(-303.77 -294.89)"/><path class="cls-24" d="M627.79,982.73c-.14-.09-25.76-2.48-33.06-3.35-.33,0-.73-.19-.83,0s-.33.56-.48.8l-.44.72V981c.15.31,2.28.51,5.12.91,8.77,1.23,26.49,2.88,30,3.51s7.94,5.75,7.54,10.31c-.58,6.87-3.78,8.08-6.66,8.88-3.49,1-9.18.48-15.92-.15-7.25-.67-15.75-1.55-24.4-2.73-7.57-1-40.44-5.4-43.74-6.88a7.63,7.63,0,0,1-3.29-9.76c2-4.49,5.41-6.19,7.42-6.33,1.17-.07,22.74,2.6,41.17,5.35,9.17,1.37,16.52,1.5,21.16,3.18,2.57.94,4.09,3.54,3.9,6.89s-2.27,5.8-6,6.48-26.36-3-26.36-3l-1.33,2.21s24.7,3.74,28.59,3a9.3,9.3,0,0,0,7.62-8.11c.52-3.69-1.48-7.8-4.49-9.24-1.75-.84-9.22-1.85-17.43-3.17-19-3.07-46.52-6.48-47.83-6.21-2.43.49-7.89,3-9.3,10.4s4.82,10.49,6.72,11.07c3.38,1,42,6.16,42,6.16s25,4.38,38.43,3.91a13.83,13.83,0,0,0,6.69-1.92c8.3-4.55,6-15.86,2-19.56S627.93,982.83,627.79,982.73Z" transform="translate(-303.77 -294.89)"/><polygon class="cls-3" points="0 905.68 48.94 1168.32 450.75 1168.32 388.33 833.32 0 905.68"/><polygon class="cls-25" points="227.96 863.21 153.79 877.02 109.19 1168.32 450.74 1168.32 398.76 889.35 227.96 863.21"/><rect class="cls-26" x="308.39" y="1150.88" width="393.58" height="39.77" transform="translate(-506.96 -184.37) rotate(-10.41)"/><polygon class="cls-27" points="153.79 877.02 147.4 918.81 347.58 881.51 227.96 863.21 153.79 877.02"/><rect class="cls-28" x="611.29" y="1231.83" width="67.5" height="7.37" transform="translate(-518.89 -156.05) rotate(-10.54)"/><polygon class="cls-29" points="345.15 1134.64 348.49 1152.59 348.49 1152.59 409.23 1141.27 405.88 1123.31 345.15 1134.64"/><polygon class="cls-29" points="280.88 1146.62 280.88 1146.62 284.23 1164.56 344.97 1153.25 341.61 1135.29 280.88 1146.62"/><path class="cls-29" d="M720.54,1457l-3.35-18-.66-3.53-3.68-19.72-.32-1.77-3.12-16.7-324.87,60.53,1,5.37h82.55l48.75-9.08h0l1.69,9.08h3.66l-1.82-9.74,60.74-11.32,3.34,18-16.64,3.11h20.88V1463l60.73-11.31,2.15,11.54h3.66L653,1451l60.74-11.32,3.34,18-29.86,5.56H706.8l10.9-2,.38,2h3.65l-.5-2.69ZM588,1459.41l-3.35-18h0l60.73-11.31,3.34,18Zm64.27-12h0l-3.35-18,60.74-11.31,3.35,18Z" transform="translate(-303.77 -294.89)"/><path class="cls-29" d="M450.08,1433.16l60.74-11.32,3.54-.66,60.73-11.31,3.54-.66,60.74-11.32,3.53-.66,64.26-12-4-21.49-.65-3.53-3.35-18-.66-3.53-3.34-18-.66-3.53-3.35-18h0l-.66-3.53-3.67-19.73-.33-1.76-3.11-16.7L358.54,1318l3.11,16.71.33,1.76,3.68,19.73.65,3.53,3.35,18,.65,3.54,3.35,18,.66,3.53,3.35,18,.66,3.53,4,21.49,64.27-12Zm63.62-15.51-3.35-18,60.73-11.24,3.34,18Zm-14.88-60.24,3.35,18-60.74,11.31-3.35-17.94Zm-61.4,7.79-3.34-18,60.74-11.32,3.34,18Zm60.93-29.93,60.73-11.36,3.34,18-60.73,11.32Zm4.48,43.63,3.34,18-60.74,11.32-3.34-18Zm2.87-4.19-3.34-18,60.72-11.3,3.35,18Zm64.27-12-3.35-18,60.74-11.31,3.34,18Zm61.39-7.77,3.35,18L574,1384.21l-3.34-18ZM566,1341.23h0l-3.34-18,60.73-11.32,3.35,18Zm1.13,25.68,3.35,18-60.73,11.32-3.35-18ZM578,1405.7l-3.35-18,60.74-11.32,3.34,18Zm121.66-41.29,3.34,18-60.73,11.32-3.35-18Zm-4-21.49,3.34,18-60.73,11.32-3.35-18Zm-4-21.49,3.35,18-60.74,11.32-3.35-18Zm-.66-3.53-60.74,11.31-3.34-18,60.74-11.32Zm-7.35-39.45,3.35,18-60.74,11.31-3.34-18Zm-64.27,12,3.35,18L562,1319.77l-3.34-18Zm-64.28,12,3.35,18-60.74,11.32-3.34-18Zm-64.27,12,3.35,18-60.74,11.32-3.35-18ZM369.15,1355.7l-3.35-18,60.74-11.39,3.35,18Zm4,21.49-3.34-18,60.73-11.32,3.35,18Zm4,21.48-3.34-18,60.74-11.32,3.34,18Zm.67,3.54h0l60.73-11.31,3.35,18-60.74,11.32Zm7.34,39.44-3.34-18,60.72-11.34,3.34,18Zm121.67-41.25,3.34,18-60.73,11.31-3.35-18Z" transform="translate(-303.77 -294.89)"/><rect class="cls-30" x="611.29" y="1231.83" width="67.5" height="7.37" transform="translate(-518.89 -156.05) rotate(-10.54)"/><polygon class="cls-27" points="345.15 1134.64 348.49 1152.59 348.49 1152.59 409.23 1141.27 405.88 1123.31 345.15 1134.64"/><path class="cls-27" d="M450.08,1433.16l60.74-11.32,3.54-.66,60.73-11.31,3.54-.66,60.74-11.32,3.53-.66,64.26-12-4-21.49-.65-3.53-3.35-18-.66-3.53-3.34-18-.66-3.53-3.35-18h0l-.66-3.53-3.67-19.73-.33-1.76-3.11-16.7-246,45.82-3.3,21.56,56.68-10.56,3.35,18-60.74,11.32-1.18-6.35L430.54,1348l3.3,17.73-6.19,1.15-.58,3.76,7.43-1.38,3.34,18-13.7,2.56-.57,3.76,14.93-2.78,3.35,18-21.21,4-.58,3.76,22.48-4.24,3.34,18-28.71,5.35-.58,3.77,30-5.59Zm63.62-15.51-3.35-18,60.73-11.24,3.34,18Zm49.38-72.24,3.35,18-60.74,11.32-3.34-18Zm-61.39,7.78-3.35-18,60.74-11.33,3.34,18ZM570,1362.7l-3.35-18,60.74-11.31,3.34,18Zm61.39-7.77,3.35,18L574,1384.25l-3.34-18ZM566,1341.22h0l-3.34-18,60.73-11.32,3.35,18Zm1.13,25.68,3.35,18-60.73,11.32-3.35-18ZM578,1405.69l-3.35-18,60.74-11.32,3.34,18Zm121.67-41.28,3.34,18-60.73,11.32-3.35-18Zm-4-21.49,3.34,18-60.73,11.32-3.35-18Zm-4-21.49,3.35,18-60.74,11.32-3.35-18Zm-.66-3.53-60.74,11.31-3.34-18,60.74-11.32Zm-7.35-39.45,3.35,18-60.74,11.31-3.34-18Zm-64.27,12,3.35,18L562,1319.77l-3.34-18Zm-64.28,12,3.35,18-60.74,11.32-3.34-18Zm-117.66,62.74-3.34-17.94,60.74-11.32,3.34,18Zm4,21.48-3.35-17.94,60.74-11.33,3.35,18Zm4,21.49-3.34-18,60.74-11.32,3.34,18Zm61.4-7.78,3.34,18-60.73,11.31-3.35-18Z" transform="translate(-303.77 -294.89)"/><path class="cls-27" d="M720.54,1457l-3.35-18-.66-3.53-3.68-19.72-.32-1.77-3.12-16.7L414.64,1452.2l-1.69,11h55.12l48.75-9.08h0l1.69,9.08h3.66l-1.82-9.74,60.74-11.32,3.34,18-16.64,3.11h20.88V1463l60.73-11.31,2.15,11.54h3.66l-2.27-12.2,60.74-11.32,3.34,18-29.86,5.56h19.62l10.9-2,.38,2h3.65l-.5-2.69ZM588,1459.41l-3.35-18h0l60.73-11.31,3.34,18Zm64.27-12h0l-3.35-18,60.74-11.31,3.35,18Z" transform="translate(-303.77 -294.89)"/><polygon class="cls-27" points="280.88 1146.62 280.88 1146.62 284.23 1164.56 344.97 1153.25 341.61 1135.29 280.88 1146.62"/><rect class="cls-28" x="575.17" y="1208.68" width="99.88" height="18.78" transform="translate(-516.22 -159.84) rotate(-10.55)"/><polygon class="cls-3" points="113.36 1172.89 512.97 1172.89 556.51 888.39 166.06 828.6 113.36 1172.89"/><polygon class="cls-25" points="300.1 1172.89 512.97 1172.89 556.51 888.39 241.41 840.15 300.1 1172.89"/><rect class="cls-26" x="647.1" y="977.05" width="39.97" height="395.51" transform="translate(-898.17 1363.48) rotate(-81.38)"/><polygon class="cls-27" points="248.73 881.65 550.48 927.83 556.51 888.39 241.41 840.15 248.73 881.65"/><polygon class="cls-29" points="283.58 1138.26 283.58 1138.26 222.5 1128.92 219.74 1146.97 280.82 1156.31 283.58 1138.26"/><rect class="cls-28" x="487.46" y="1398.49" width="18.28" height="61.86" transform="translate(-1294.85 1411.39) rotate(-81.38)"/><rect class="cls-28" x="776.41" y="1225.86" width="7.38" height="67.59" transform="translate(-886.02 1547.26) rotate(-81.38)"/><path class="cls-29" d="M458.64,1409.82l-.27,1.77-3,19.83-.55,3.55L452.06,1453l-.55,3.55-1.71,11.19h3.64l1.63-10.65,61.07,9.35-.2,1.3h3.64l.11-.76,4.94.76h23.76l-28.15-4.31,2.76-18,61.07,9.35-2,13h3.64l1.91-12.47,61.07,9.36-.48,3.11h3.63l.4-2.57,16.83,2.57h23.75l-40-6.13,2.76-18h0l61.07,9.35-2.27,14.83H718l2.19-14.28,61.07,9.34-.75,4.94h3.56l.95-6.17.27-1.78,2.57-16.79-326.67-50Zm132.26,23.87,61.07,9.36-2.76,18-61.07-9.34Zm-64.62-9.89,61.07,9.35h0l-2.77,18-61.07-9.34Zm-9.63,39.12-61.07-9.35,2.76-18,61.08,9.34Zm6.07-39.66-2.76,18-61.07-9.34,2.76-18.06Z" transform="translate(-303.77 -294.89)"/><path class="cls-29" d="M480.15,1269.31l-.27,1.78-3,19.83-.54,3.55-2.76,18.06-.55,3.56-2.76,18-.54,3.55L467,1355.7l-.54,3.55-3.31,21.61,64.62,9.89,3.56.54,61.07,9.35,3.55.54,61.07,9.35,3.56.55,61.07,9.35,3.55.54,64.63,9.89,3.3-21.6.55-3.56,2.76-18,.54-3.56,2.77-18,.54-3.55,2.76-18.06h0l.54-3.55,3-19.82.28-1.78,2.57-16.79-326.68-50Zm-.29,25.71,61.06,9.35-2.76,18L477.09,1313Zm61.31,31.5,61.07,9.35-2.76,18-61.07-9.34Zm-64.62-9.89,61.07,9.35-2.77,18-61.07-9.35Zm51.69,70.61-61.07-9.34,2.76-18.06,61.07,9.35Zm-57.76-31,2.76-18,61.07,9.34-2.76,18.06Zm122.38,40.85-61.07-9.35,2.77-18,61.07,9.34Zm-57.76-31,2.76-18,61.07,9.35-2.76,18Zm122.39,40.84-61.07-9.34,2.76-18,61.07,9.34Zm-57.76-31,2.76-18,61,9.38-2.77,18Zm3.3-21.6,2.77-18.06,61.07,9.35-2.77,18Zm119.05,62.54L661,1407.57l2.76-18,61.07,9.35Zm-57.76-31h0l2.76-18,61.07,9.35-2.76,18Zm3.31-21.61,2.76-18,61.07,9.34-2.76,18.06Zm119.08,62.46-61.07-9.36,2.76-18,61.07,9.36Zm3.31-21.61-61.08-9.35,2.76-18.06,61.08,9.36Zm3.3-21.61-61.07-9.35,2.76-18,61.07,9.35ZM741.63,1313l61.07,9.34-2.76,18.06L738.87,1331Zm57.76,31-2.76,18-61.07-9.35,2.76-18ZM677.08,1303.1l61,9.32-2.77,18-61.07-9.34Zm57.76,31-2.77,18L671,1342.76h0l2.77-18Zm-122.39-40.85,61.07,9.35-2.76,18-61.07-9.34Zm57.76,31-2.76,18-61.07-9.35,2.76-18.05Zm-122.39-40.86,61.08,9.36-2.76,18-61.08-9.35Zm57.77,31-2.76,18.06-61.07-9.35,2.76-18.06Zm-61.31-31.5L541.51,1301l-61.07-9.35,2.76-18.06Z" transform="translate(-303.77 -294.89)"/><polygon class="cls-27" points="294.27 1139.9 348.21 1148.16 345.44 1166.21 297.63 1158.9 298.28 1162.63 344.89 1169.76 344.41 1172.89 348.06 1172.89 348.45 1170.3 365.27 1172.89 389.03 1172.89 348.98 1166.75 351.75 1148.7 351.75 1148.7 412.83 1158.04 410.56 1172.89 414.2 1172.89 416.37 1158.59 477.45 1167.94 476.7 1172.89 480.33 1172.89 481.27 1166.71 481.55 1164.94 484.11 1148.15 290.5 1118.49 294.27 1139.9"/><rect class="cls-30" x="776.41" y="1225.86" width="7.38" height="67.59" transform="translate(-886.02 1547.26) rotate(-81.38)"/><path class="cls-27" d="M572,1287l36.88,5.65-2.76,18L575.34,1306l.65,3.74,29.56,4.52-2.76,18.06-23.45-3.59.66,3.73,22.24,3.41-2.76,18-16.13-2.46.66,3.73,14.92,2.29-2.76,18-8.81-1.35.66,3.74,7.61,1.16L592.86,1397l-1.49-.23.66,3.73h.29l3.55.54,61.07,9.35,3.56.55,61.07,9.35,3.55.54,64.63,9.89,3.3-21.6.55-3.56,2.76-18,.54-3.56,2.77-18,.54-3.55,2.76-18.06h0l.54-3.55,3-19.82.28-1.78,2.57-16.79-241.19-36.93Zm33.82,49.4,61.07,9.35-2.77,18L603,1354.41ZM657.49,1407l-61.07-9.34,2.76-18,61.07,9.34Zm-57.76-31,2.76-18,61.07,9.35-2.77,18Zm122.35,40.85L661,1407.51l2.76-18,61.07,9.35Zm-57.76-30.95h0l2.76-18.05,61.07,9.35-2.76,18Zm3.31-21.61,2.76-18,61.07,9.34-2.76,18.06Zm119.08,62.46-61.07-9.36,2.76-18.05,61.07,9.36Zm3.31-21.61-61.08-9.35,2.76-18.06,61.08,9.36Zm3.3-21.61-61.07-9.35,2.76-18,61.07,9.35Zm-51.69-70.61,61.07,9.34-2.76,18.06L738.87,1331Zm57.76,31-2.76,18-61.07-9.35,2.76-18ZM677.08,1303l61,9.32-2.77,18.05-61.07-9.34Zm57.76,31-2.77,18L671,1342.7h0l2.77-18Zm-122.39-40.85,61.07,9.35-2.76,18-61.07-9.34Zm57.76,31-2.76,18-61.07-9.35,2.76-18Z" transform="translate(-303.77 -294.89)"/><rect class="cls-28" x="763.12" y="1197.27" width="18.81" height="100.01" transform="translate(-880.18 1529.34) rotate(-81.38)"/><polygon class="cls-3" points="240.23 815.16 303.74 1175.33 704.85 1175.33 629.23 746.54 240.23 815.16"/><rect class="cls-26" x="544.37" y="1075.59" width="395" height="39.92" transform="translate(-482.74 -149.42) rotate(-10)"/><rect class="cls-28" x="596.77" y="1199.15" width="330.48" height="18.78" transform="translate(-502.24 -144.04) rotate(-10.01)"/><path class="cls-29" d="M602.3,1244.53l-1.77.31,4.42,25.07,67.92-12-4.42-25.06Zm5.57,21.21-3.18-18L665.54,1237l3.17,18Z" transform="translate(-303.77 -294.89)"/><path class="cls-29" d="M666.68,1233.17l-1.77.32,4.42,25.07,67.93-12-4.43-25.07Zm5.57,21.22-3.17-18,60.84-10.72,3.17,18Z" transform="translate(-303.77 -294.89)"/><path class="cls-29" d="M731.08,1221.82l-1.77.31,4.41,25.07,67.93-12-4.42-25.07Zm5.56,21.21-3.17-18,60.84-10.73,3.17,18Z" transform="translate(-303.77 -294.89)"/><path class="cls-29" d="M795.45,1210.46l-1.77.32,4.42,25.06,67.92-12-4.41-25.07Zm5.56,21.22-3.17-18,60.84-10.74,3.18,18Z" transform="translate(-303.77 -294.89)"/><path class="cls-29" d="M859.83,1199.11l-1.77.32,4.42,25.06,67.93-12L926,1187.42Zm5.57,21.22-3.17-18,60.85-10.72,3.17,18Z" transform="translate(-303.77 -294.89)"/><path class="cls-29" d="M606.08,1266.06l-1.78.31,4.43,25.07,67.92-12-4.42-25.07Zm5.56,21.21-3.17-18,60.84-10.73,3.18,18Z" transform="translate(-303.77 -294.89)"/><path class="cls-29" d="M609.89,1287.59l-1.77.3,4.42,25.07,67.93-12L676,1275.9Zm5.57,21.2-3.17-18,60.84-10.73,3.17,18Z" transform="translate(-303.77 -294.89)"/><path class="cls-29" d="M613.69,1309.11l-1.77.32,4.42,25.06,67.92-12-4.42-25.07Zm5.56,21.22-3.17-18,60.84-10.73,3.18,18Z" transform="translate(-303.77 -294.89)"/><path class="cls-29" d="M617.48,1330.64l-1.77.31,4.43,25.07,67.92-12L683.64,1319Zm5.57,21.21-3.17-18,60.84-10.74,3.17,18Z" transform="translate(-303.77 -294.89)"/><path class="cls-29" d="M670.48,1254.71l-1.77.31,4.42,25.06,67.92-12L736.63,1243Zm5.56,21.21-3.17-18,60.84-10.73,3.18,18Z" transform="translate(-303.77 -294.89)"/><path class="cls-29" d="M674.27,1276.23l-1.76.31,4.41,25.07,67.93-12-4.42-25.07Zm5.57,21.21-3.17-18,60.84-10.73,3.18,18Z" transform="translate(-303.77 -294.89)"/><path class="cls-29" d="M678.08,1297.75l-1.77.32,4.42,25.06,67.93-12-4.42-25.06Zm5.57,21.22-3.17-18,60.84-10.73,3.17,18Z" transform="translate(-303.77 -294.89)"/><path class="cls-29" d="M681.87,1319.31l-1.77.31,4.42,25.07,67.92-12L748,1307.62Zm5.56,21.21-3.17-18,60.85-10.73,3.17,18Z" transform="translate(-303.77 -294.89)"/><path class="cls-29" d="M734.86,1243.31l-1.77.31,4.42,25.07,67.92-12L801,1231.62Zm5.57,21.21-3.17-18,60.84-10.74,3.17,18Z" transform="translate(-303.77 -294.89)"/><path class="cls-29" d="M738.66,1264.87l-1.77.32,4.42,25.06,67.92-12-4.42-25.06Zm5.57,21.22-3.18-18,60.84-10.72,3.18,18Z" transform="translate(-303.77 -294.89)"/><path class="cls-29" d="M742.46,1286.41l-1.77.31,4.42,25.07,67.92-12-4.42-25.07Zm5.56,21.21-3.17-18,60.84-10.73,3.17,18Z" transform="translate(-303.77 -294.89)"/><path class="cls-29" d="M746.25,1307.92l-1.77.32,4.42,25.06,67.92-12-4.42-25.07Zm5.56,21.22-3.16-18,60.84-10.72,3.17,18Z" transform="translate(-303.77 -294.89)"/><path class="cls-29" d="M799.24,1232l-1.77.31,4.42,25.08,67.93-12-4.42-25.06Zm5.57,21.22-3.17-18,60.84-10.73,3.17,18Z" transform="translate(-303.77 -294.89)"/><path class="cls-29" d="M803.08,1253.52l-1.77.31,4.42,25.07,67.93-12-4.43-25.07Zm5.57,21.21-3.18-18L866.32,1246l3.17,18Z" transform="translate(-303.77 -294.89)"/><path class="cls-29" d="M806.84,1275.05l-1.77.3,4.42,25.08,67.92-12L873,1263.37Zm5.56,21.21-3.17-18,60.85-10.72,3.16,18Z" transform="translate(-303.77 -294.89)"/><path class="cls-29" d="M810.63,1296.57l-1.77.32,4.42,25.06,67.93-12-4.42-25.07Zm5.57,21.21-3.17-18,60.84-10.73,3.17,18Z" transform="translate(-303.77 -294.89)"/><path class="cls-29" d="M863.63,1220.64l-1.77.31,4.42,25.07,67.92-12L929.78,1209Zm5.56,21.21-3.17-18,60.85-10.74,3.17,18Z" transform="translate(-303.77 -294.89)"/><path class="cls-29" d="M867.42,1242.16l-1.77.32,4.43,25.07,67.92-12-4.42-25.07Zm5.57,21.22-3.17-18,60.84-10.73,3.17,18Z" transform="translate(-303.77 -294.89)"/><path class="cls-29" d="M871.22,1263.69l-1.77.31,4.42,25.07,67.93-12L937.38,1252Zm5.57,21.21-3.17-18,60.84-10.73,3.17,18Z" transform="translate(-303.77 -294.89)"/><path class="cls-29" d="M875,1285.21l-1.78.32,4.43,25.06,67.92-12-4.42-25.07Zm5.57,21.22-3.18-18,60.85-10.73,3.17,18Z" transform="translate(-303.77 -294.89)"/><rect class="cls-28" x="621.59" y="1338.94" width="330.48" height="18.79" transform="translate(-526.16 -137.6) rotate(-10.01)"/><path class="cls-29" d="M627,1384.51l-1.78.31,4.43,25.07,67.92-12-4.42-25.07Zm5.56,21.22-3.17-18L690.22,1377l3.18,18Z" transform="translate(-303.77 -294.89)"/><path class="cls-29" d="M691.37,1373.16l-1.77.31,4.42,25.07,67.93-12-4.43-25.07Zm5.57,21.21-3.17-18,60.84-10.72,3.17,18Z" transform="translate(-303.77 -294.89)"/><path class="cls-29" d="M755.75,1361.8l-1.77.32,4.42,25.06,67.93-12-4.42-25.07Zm5.57,21.22-3.17-18L819,1354.29l3.17,18Z" transform="translate(-303.77 -294.89)"/><path class="cls-29" d="M820.13,1350.41l-1.76.32,4.42,25.06,67.92-12-4.42-25.06Zm5.57,21.22-3.17-18,60.85-10.74,3.17,18Z" transform="translate(-303.77 -294.89)"/><path class="cls-29" d="M884.54,1339.1l-1.77.31,4.42,25.06,67.92-12-4.42-25.06Zm5.56,21.21-3.17-18,60.85-10.73,3.17,18Z" transform="translate(-303.77 -294.89)"/><path class="cls-29" d="M630.78,1406l-1.77.31,4.42,25.07,67.93-12-4.42-25.07Zm5.57,21.22-3.17-18L694,1398.53l3.17,18Z" transform="translate(-303.77 -294.89)"/><path class="cls-29" d="M634.54,1427.56l-1.77.32,4.42,25.06,67.92-12-4.42-25.07Zm5.57,21.22-3.18-18,60.85-10.73,3.17,18Z" transform="translate(-303.77 -294.89)"/><polygon class="cls-29" points="334.61 1154.2 332.84 1154.51 336.5 1175.33 340.15 1175.33 337 1157.44 397.85 1146.71 401.01 1164.69 340.61 1175.33 361.31 1175.33 405.18 1167.6 400.75 1142.53 334.61 1154.2"/><polygon class="cls-29" points="340.61 1175.33 361.31 1175.33 401.63 1168.23 402.89 1175.33 406.55 1175.33 404.56 1164.06 340.61 1175.33"/><path class="cls-29" d="M695.17,1394.69l-1.77.31,4.42,25.06,67.92-12L761.32,1383Zm5.56,21.21-3.17-18,60.84-10.74,3.18,18Z" transform="translate(-303.77 -294.89)"/><path class="cls-29" d="M699,1416.21l-1.77.32,4.43,25.06,67.92-12-4.42-25.07Zm5.57,21.22-3.17-18,60.84-10.73,3.17,18Z" transform="translate(-303.77 -294.89)"/><path class="cls-29" d="M702.76,1437.74l-1.77.31,4.42,25.07,67.92-12-4.42-25.06Zm5.57,21.21-3.18-18L766,1430.21l3.17,18Z" transform="translate(-303.77 -294.89)"/><polygon class="cls-29" points="402.78 1164.38 401.01 1164.69 402.89 1175.33 406.55 1175.33 405.18 1167.6 466.02 1156.88 469.2 1174.85 466.46 1175.33 472.94 1175.33 468.94 1152.71 402.78 1164.38"/><path class="cls-29" d="M759.54,1383.31l-1.77.31,4.42,25.07,67.92-12-4.42-25.06Zm5.57,21.21-3.17-18,60.84-10.73,3.17,18Z" transform="translate(-303.77 -294.89)"/><path class="cls-29" d="M763.35,1404.85l-1.77.32,4.42,25.06,67.92-12-4.42-25.07Zm5.56,21.22-3.17-18,60.8-10.76,3.17,18Z" transform="translate(-303.77 -294.89)"/><path class="cls-29" d="M767.14,1426.41l-1.77.3,4.42,25.07,67.93-12-4.43-25.06Zm5.57,21.2-3.17-18,60.84-10.73,3.17,18Z" transform="translate(-303.77 -294.89)"/><path class="cls-29" d="M770.94,1447.91l-1.77.31,3.88,22h17.87l50.62-8.91-4.42-25.07Zm5.57,21.21-3.18-18,60.84-10.72,3.18,18Z" transform="translate(-303.77 -294.89)"/><path class="cls-29" d="M823.94,1372l-1.78.31,4.38,25,67.93-12-4.43-25Zm5.56,21.22-3.17-18,60.84-10.73,3.17,18Z" transform="translate(-303.77 -294.89)"/><path class="cls-29" d="M827.73,1393.5l-1.77.32,4.42,25.06,67.92-12-4.42-25.07Zm5.56,21.22-3.17-18L891,1386l3.17,18Z" transform="translate(-303.77 -294.89)"/><path class="cls-29" d="M831.54,1415l-1.78.31,4.42,25.07,67.93-12-4.42-25Zm5.56,21.21-3.17-18,60.84-10.74,3.18,18Z" transform="translate(-303.77 -294.89)"/><path class="cls-29" d="M835.32,1436.55l-1.77.32,4.42,25.06,67.93-12-4.43-25.06Zm5.57,21.22-3.17-18L898.56,1429l3.17,18Z" transform="translate(-303.77 -294.89)"/><path class="cls-29" d="M888.32,1360.62l-1.77.31L891,1386l67.92-12-4.42-25.07Zm5.56,21.21-3.17-18,60.84-10.72,3.18,18Z" transform="translate(-303.77 -294.89)"/><path class="cls-29" d="M892.08,1382.15l-1.77.31,4.42,25.06,67.93-12-4.42-25.06Zm5.57,21.21-3.17-18,60.84-10.73,3.17,18Z" transform="translate(-303.77 -294.89)"/><path class="cls-29" d="M895.91,1403.67l-1.77.32,4.42,25.06,67.92-12-4.4-25Zm5.56,21.22-3.17-18,60.85-10.73,3.17,18Z" transform="translate(-303.77 -294.89)"/><path class="cls-29" d="M899.71,1425.2l-1.77.31,4.42,25.07,67.92-12-4.42-25.07Zm5.56,21.21-3.17-18L963,1417.67l3.17,18Z" transform="translate(-303.77 -294.89)"/><path class="cls-29" d="M903.54,1446.72l-1.77.32,4.09,23.19h11l57.29-10.1-4.42-25.07Zm5.57,21.22-3.17-18,60.84-10.73,3.17,18Z" transform="translate(-303.77 -294.89)"/><rect class="cls-28" x="815.35" y="1120.97" width="99.88" height="18.78" transform="translate(-486.91 -127.46) rotate(-10)"/><rect class="cls-28" x="850.96" y="1144.92" width="67.49" height="7.37" transform="translate(-489.78 -123.81) rotate(-10)"/><path class="cls-1" d="M2261.54,1064.75q-8-3.42-16.06-6.6c-15.81-6.17-41.66-15.69-58.21-18.54-7.3-1.25-31.86-6.29-40.15-10.93-8.87-3.42-28.42-19.12-34-23.94-12.76-10.92-36.58-24.75-51.43-33q-7.59-4.22-15.33-8.16c-11.37-5.81-109.44-55.34-116.78-38.81-2.72,6.14-5.31,12.7-7.79,19a10.24,10.24,0,0,0-.63,5.66,67.75,67.75,0,0,0,2,8.79,24.78,24.78,0,0,1,1.4,9.88c-.33,5.22-.71,10.45-1,15.67q-.62,8.79-.36,17.61l-11.89,4.19c-17.25,5.83-11.25,26.75,9.2,19.57l9.33-3.28c.47.57,1,1.15,1.47,1.71a68.4,68.4,0,0,0,10.39,9.29c27.9,19.89,51.41,30.51,83.49,42,16.09,5.76,33.88,12,50.37,3.89,10-4.93,18.61-11.89,26.61-19.57,3.51-3.37,6.89-6.89,10.31-10.36l21,9,20.33,10.36c-.48,4.85-1,9.7-1.38,14.56-.81,11.06-.7,22.09,1.92,33,4.29,17.85,20.44,27.57,35.15,36.29,29.3,17.37,52.49,28.68,85.6,37.48a67.68,67.68,0,0,0,13.79,2c.76,0,1.51.06,2.25,0l3.42,9.28c7.53,20.33,27.46,11.6,20.94-5.4l-4.36-11.83q6.94-5.43,13.33-11.52c3.82-3.57,7.6-7.2,11.41-10.79a24.82,24.82,0,0,1,8.5-5.23,69.43,69.43,0,0,0,8.06-4,10.18,10.18,0,0,0,4-4.1c3.23-5.9,6.63-12.07,9.62-18.1C2374,1113.68,2273.26,1069.79,2261.54,1064.75Z" transform="translate(-303.77 -294.89)"/><path class="cls-31" d="M2341.77,1097.46,2022.85,970.64c-11.53-4.69-20.91-6.08-30.52-5.25-8.87.76-16.91,3.35-26.94,6.89l-53.89,19c-17.26,5.84-11.26,26.76,9.2,19.57l53.9-19c7.7-2.71,13.69-4.68,18.83-5.12,4.4-.39,9,.39,15.22,2.89l320.28,138.2a16.48,16.48,0,0,0,12.84-30.36Z" transform="translate(-303.77 -294.89)"/><path class="cls-31" d="M2295.88,1127.57c-3.69-10-6.82-17.81-11.91-25.13-5.49-7.93-12.54-14.26-23.51-20.15L1959.27,917.73a16.48,16.48,0,0,0-22.09,7.44h0a16.49,16.49,0,0,0,6.91,21.81l310.82,158.33c5.86,3.15,9.42,6.23,11.94,9.87,3,4.24,5.25,10.11,8.07,17.77l19.79,53.6c7.53,20.33,27.47,11.6,21-5.4Z" transform="translate(-303.77 -294.89)"/><path class="cls-32" d="M2261.75,1050.46q-8-3.4-16.05-6.6c-15.81-6.17-41.66-15.69-58.21-18.54-7.31-1.25-31.87-6.29-40.17-10.93-8.87-3.42-28.42-19.12-34-23.94-12.75-10.92-36.58-24.74-51.43-33q-7.59-4.2-15.33-8.15c-11.36-5.82-109.44-55.35-116.77-38.81-2.73,6.13-5.32,12.69-7.8,19a10.21,10.21,0,0,0-.63,5.65,67.75,67.75,0,0,0,2,8.79,24.6,24.6,0,0,1,1.39,9.88c-.33,5.22-.71,10.45-1,15.67a149.79,149.79,0,0,0-.09,21.81,29.5,29.5,0,0,0,7.84,18,68.4,68.4,0,0,0,10.39,9.29c27.89,19.89,51.41,30.52,83.49,42,16.09,5.76,33.88,12,50.37,3.88,10-4.92,18.6-11.87,26.6-19.56,3.91-3.74,7.64-7.66,11.45-11.5a12.83,12.83,0,0,1,12.18-3.9,64.4,64.4,0,0,1,23.39,11,12.83,12.83,0,0,1,4.77,11.86c-.52,5.39-1.16,10.76-1.55,16.15-.81,11.08-.7,22.1,1.92,33,4.3,17.85,20.44,27.58,35.14,36.29,29.32,17.38,52.51,28.68,85.6,37.48a67.86,67.86,0,0,0,13.81,2.06,29.63,29.63,0,0,0,18.85-5.44,154.18,154.18,0,0,0,16.72-14c3.82-3.58,7.61-7.21,11.42-10.8a24.85,24.85,0,0,1,8.49-5.22,71.21,71.21,0,0,0,8.07-4,10.06,10.06,0,0,0,4-4.1c3.23-5.9,6.63-12.07,9.62-18.09C2374.22,1099.41,2273.48,1055.5,2261.75,1050.46ZM2109,1017.76a73.78,73.78,0,0,1-8.47,14.22c-6.75,9.27-18.61,21.44-29.11,26.55-9.08,4.41-16.47,4.76-27,1.92-6.25-1.7-12.51-3.42-18.67-5.47-27.21-9-52.21-19.82-75.48-36.9-2.72-2-5.45-4-8-6.25-4.59-4.08-8.47-8.72-10.17-14.81-2.27-8.1-1.26-22.74.35-30.86,2.36-11.91,5.79-26.2,11.64-36.81,2.3-4.18,5.46-7.22,10.43-7.86,6.66-.88,21.48,3.64,27.61,6a597.19,597.19,0,0,1,80.17,38.15c14.09,8.11,32.9,19.72,44,31.64,3.13,3.38,5.07,7.3,4.88,12a23.77,23.77,0,0,1-2.18,8.48Zm233.5,98.77c-4.43,11.28-13.24,23-20.92,32.47-5.22,6.41-15.83,16.53-23.51,20-5.78,2.58-11.84,2.55-17.91,1.62-3.33-.5-6.62-1.3-9.88-2.12-28-7-52.25-19.4-76.6-34.57-5.49-3.43-10.82-7.14-16.11-10.88-8.89-6.26-13.34-12.18-15.74-22-2.76-11.34-1-28.24,1.86-39.35a73.17,73.17,0,0,1,5.54-15.6,23.42,23.42,0,0,1,5-7.07c3.54-3.18,7.8-4.19,12.39-3.94,16.25.92,37.2,8,52.43,13.66a595.86,595.86,0,0,1,80.51,37.32c5.76,3.19,18.69,11.72,22.27,17.41,2.73,4.24,2.42,8.6.67,13Z" transform="translate(-303.77 -294.89)"/><path class="cls-33" d="M2062.35,965.68a597.19,597.19,0,0,0-80.17-38.15c-6.13-2.4-21-6.92-27.61-6-5,.64-8.13,3.68-10.43,7.86-5.85,10.61-9.28,24.9-11.64,36.81-1.61,8.12-2.62,22.76-.35,30.86,1.7,6.09,5.58,10.73,10.17,14.81a98.24,98.24,0,0,0,8,6.25c23.27,17.08,48.27,27.85,75.48,36.9,6.16,2,12.42,3.77,18.67,5.47,10.5,2.84,17.89,2.49,27-1.92,10.5-5.11,22.36-17.28,29.11-26.55a73.78,73.78,0,0,0,8.47-14.22,23.79,23.79,0,0,0,2.23-8.39c.19-4.75-1.75-8.67-4.88-12C2095.25,985.41,2076.44,973.79,2062.35,965.68Z" transform="translate(-303.77 -294.89)"/><path class="cls-34" d="M1970.17,923.69c-5.79-1.53-11.93-2.68-15.6-2.2-5,.64-8.13,3.68-10.43,7.86a80.63,80.63,0,0,0-5.57,13,16.4,16.4,0,0,0,5.52,4.65l159.16,81.09a64.05,64.05,0,0,0,5.73-10.31,23.53,23.53,0,0,0,2.23-8.39,15.73,15.73,0,0,0-3.66-10.63Z" transform="translate(-303.77 -294.89)"/><path class="cls-35" d="M2022.85,970.64c-11.53-4.69-20.91-6.08-30.52-5.25-8.87.76-16.91,3.35-26.94,6.89l-34.57,12.13a49.26,49.26,0,0,0,1.33,12.57,25.73,25.73,0,0,0,4.13,8.32l38.32-13.49c7.7-2.71,13.69-4.68,18.83-5.12,4.4-.39,9,.39,15.22,2.89l93.35,40.28a68.45,68.45,0,0,0,7-12.14,23.53,23.53,0,0,0,2.23-8.39,15.46,15.46,0,0,0-.3-3.72Z" transform="translate(-303.77 -294.89)"/><path class="cls-33" d="M2319.6,1086.08a596.83,596.83,0,0,0-80.52-37.37c-15.23-5.66-36.18-12.74-52.43-13.66-4.59-.25-8.85.76-12.39,3.94a23.42,23.42,0,0,0-5,7.07,73.17,73.17,0,0,0-5.54,15.6c-2.83,11.11-4.62,28-1.86,39.35,2.4,9.81,6.85,15.73,15.74,22,5.29,3.74,10.62,7.45,16.11,10.88,24.35,15.17,48.58,27.55,76.6,34.57,3.26.82,6.55,1.62,9.88,2.12,6.07.93,12.13,1,17.91-1.62,7.68-3.42,18.29-13.54,23.51-20,7.68-9.43,16.49-21.19,20.92-32.47,1.75-4.45,2.06-8.81-.61-13C2338.29,1097.8,2325.36,1089.31,2319.6,1086.08Z" transform="translate(-303.77 -294.89)"/><path class="cls-34" d="M2284,1102.41c-5.49-7.93-12.54-14.26-23.51-20.15l-83.16-45.45a15.19,15.19,0,0,0-3.06,2.15,23.42,23.42,0,0,0-5,7.07,67.78,67.78,0,0,0-4.89,13.13l90.59,46.15c5.86,3.15,9.42,6.23,11.94,9.87,2.95,4.24,5.25,10.11,8.07,17.77l14.08,38.11a25.72,25.72,0,0,0,9-2.14,49.72,49.72,0,0,0,10.51-7l-12.68-34.37C2292.19,1117.59,2289.08,1109.76,2284,1102.41Z" transform="translate(-303.77 -294.89)"/><path class="cls-35" d="M2330.21,1092.88,2184.75,1035a15.72,15.72,0,0,0-10.51,4,23.42,23.42,0,0,0-5,7.07,64.75,64.75,0,0,0-4.28,11l164,70.77a16.33,16.33,0,0,0,7.11,1.28,81.4,81.4,0,0,0,6.44-12.57c1.75-4.45,2.06-8.81-.61-13C2339.91,1100.41,2335.08,1096.41,2330.21,1092.88Z" transform="translate(-303.77 -294.89)"/><polygon class="cls-33" points="1604.71 1083.33 1754.51 1173.04 2087.47 1173.04 2124.39 1109.24 1727.32 871.47 1604.71 1083.33"/><polygon class="cls-3" points="1597.94 1059.22 1788.03 1173.04 2066.74 1173.04 2117.61 1085.13 1720.54 847.34 1597.94 1059.22"/><polygon class="cls-25" points="1859.49 1069.2 1726.11 850.68 1720.54 847.34 1718.83 850.31 1852.22 1068.83 1599.66 1056.24 1597.94 1059.22 1603.51 1062.54 1856.05 1075.14 1915.82 1173.04 1922.87 1173.04 1863.34 1075.49 2115.89 1088.08 2117.61 1085.13 2112.05 1081.78 1859.49 1069.2"/><path class="cls-25" d="M1989.43,1202.51l117,188.26c14.77,23.78,49.44,44.54,77,46.14l198.36,11.5L2416.2,1389,2019.08,1151.2Z" transform="translate(-303.77 -294.89)"/><path class="cls-3" d="M2000.86,1182.76l114.07,183.55c13.4,21.57,44.84,40.39,69.87,41.85l213.13,12.38,23.45-40.53-397.07-237.78Z" transform="translate(-303.77 -294.89)"/><path class="cls-36" d="M6391,1178.31" transform="translate(-303.77 -294.89)"/><path class="cls-36" d="M5959,1490.31" transform="translate(-303.77 -294.89)"/></svg>