<svg id="Layer_3" data-name="Layer 3" xmlns="http://www.w3.org/2000/svg" viewBox="0 0 525.04 516.72"><defs><style>.cls-1{fill:#d4ccff;}.cls-2{fill:#8550fc;}.cls-3{font-size:20px;font-family:MyriadPro-Regular, Myriad Pro;}.cls-3,.cls-7{fill:#fff;}.cls-4{fill:#f4d37e;}.cls-5{fill:#deb449;}.cls-6{fill:#232323;}.cls-8{fill:#808285;}.cls-9{fill:#380f8f;}.cls-10{fill:#1a0845;}.cls-11{fill:#fbf3fe;}</style></defs><path class="cls-1" d="M371.35,71.92c1.12-.55,2.27-1.08,3.44-1.58,35.41-15.13,73.32,8.51,109.69,8.19,33.57-.29,65.54-17.48,99.1-16.87,10,.18,20.31,2.11,28.5,8,8.89,6.45,14.26,16.83,21.78,25,17.46,18.84,47.11,26.49,55.95,51,7,19.28-2.4,40.25-9.79,59.35-12.67,32.72-19.85,69.58-9.53,103.17,7.4,24.05,23.37,45.19,26.76,70.18,3,21.95-4.21,44.44-14.56,63.61C668.93,467.4,669,496.53,662.3,524.05c-4.41,18-13.37,36.19-29.57,45.19-14.54,8.09-31.62,7.24-47.7,8.13-16.61.92-32.52,1.75-49.19-.19-28.14-3.27-55.8-10.07-84.11-12.06-51.61-3.64-102.93,8.91-154.6,11.58-28.51,1.47-58.74-.58-82.58-16.82-20.34-13.86-33.85-37.08-39-61.72s-2.43-50.59,4.93-74.63c8.95-29.27,24.87-58,21.48-88.48-2.12-19.12-11.7-36.39-17.17-54.79C177.28,255,177.87,226.72,189,203a84.1,84.1,0,0,1,30.07-34.76c14.93-9.64,31.71-7.55,48-13.73C309.35,138.49,331.65,91.43,371.35,71.92Z" transform="translate(-172.89 -61.64)"/><path class="cls-2" d="M621,296.14a1.32,1.32,0,0,1-.39-.06c-2.25-.69-4.5-1.49-6.7-2.38a1.29,1.29,0,1,1,1-2.38c2.13.86,4.32,1.64,6.49,2.31a1.28,1.28,0,0,1-.37,2.51Zm-15.34-6.47a1.2,1.2,0,0,1-.63-.15,95.69,95.69,0,0,1-8.37-5.11,1.28,1.28,0,0,1-.33-1.78,1.3,1.3,0,0,1,1.8-.34,92.72,92.72,0,0,0,8.13,5,1.28,1.28,0,0,1-.6,2.41Zm-16-10.85a1.25,1.25,0,0,1-.84-.29c-2.45-2-4.9-4.24-7.25-6.55a1.28,1.28,0,0,1,0-1.82,1.3,1.3,0,0,1,1.83,0c2.31,2.26,4.69,4.42,7.09,6.4a1.28,1.28,0,0,1-.81,2.27Zm-13.81-13.49a1.32,1.32,0,0,1-1-.44c-2.1-2.39-4.17-4.93-6.17-7.55a1.29,1.29,0,0,1,2.06-1.55c2,2.57,4,5.07,6.05,7.41a1.27,1.27,0,0,1-.12,1.81A1.33,1.33,0,0,1,575.88,265.33ZM469.27,252h0c-3.27,0-6.55-.12-9.74-.28a1.29,1.29,0,1,1,.13-2.57c3.16.16,6.4.25,9.63.28a1.27,1.27,0,0,1,1.28,1.29A1.29,1.29,0,0,1,469.27,252Zm9.68-.13a1.29,1.29,0,0,1-1.3-1.24,1.28,1.28,0,0,1,1.24-1.33c3.17-.11,6.41-.28,9.63-.51a1.28,1.28,0,1,1,.18,2.56c-3.25.23-6.52.41-9.72.52ZM564.17,250a1.3,1.3,0,0,1-1.09-.57c-1.78-2.66-3.51-5.43-5.16-8.24a1.29,1.29,0,0,1,2.22-1.3c1.63,2.77,3.34,5.5,5.09,8.11a1.28,1.28,0,0,1-1.06,2Zm-114.25,1h-.15c-3.27-.33-6.53-.74-9.68-1.22a1.29,1.29,0,0,1-1.07-1.47,1.27,1.27,0,0,1,1.47-1.07c3.1.47,6.31.88,9.54,1.2a1.28,1.28,0,0,1-.11,2.56Zm48.35-.52a1.29,1.29,0,0,1-.16-2.57c1.26-.13,2.51-.28,3.75-.44,1.93-.24,3.87-.53,5.77-.85a1.29,1.29,0,1,1,.43,2.54c-1.93.32-3.91.62-5.88.86q-1.87.24-3.78.45Zm19.07-3.27a1.28,1.28,0,0,1-.32-2.53c3.1-.76,6.2-1.64,9.21-2.63a1.29,1.29,0,0,1,.81,2.45c-3.08,1-6.24,1.9-9.4,2.68A1.53,1.53,0,0,1,517.34,247.16Zm-86.56.84a.88.88,0,0,1-.28,0c-3.24-.7-6.42-1.49-9.48-2.35a1.29,1.29,0,1,1,.71-2.47c3,.85,6.13,1.62,9.31,2.3a1.28,1.28,0,0,1-.26,2.54Zm-18.6-5.3a1.19,1.19,0,0,1-.45-.08c-3.11-1.13-6.15-2.39-9-3.73a1.28,1.28,0,0,1-.63-1.7,1.3,1.3,0,0,1,1.72-.63c2.83,1.31,5.8,2.54,8.84,3.65a1.28,1.28,0,0,1-.44,2.49Zm123.55-1.54a1.28,1.28,0,0,1-.51-2.47c2.95-1.22,5.87-2.56,8.69-4a1.3,1.3,0,0,1,1.74.56,1.28,1.28,0,0,1-.56,1.73c-2.88,1.46-5.87,2.84-8.88,4.08A1.18,1.18,0,0,1,535.73,241.16Zm18.66-7.8a1.28,1.28,0,0,1-1.16-.7l-.14-.27a1.28,1.28,0,0,1-1.08-2.16c-1-2.14-2-4.26-3-6.35a1.29,1.29,0,0,1,2.37-1c.86,2,1.78,4,2.77,6,2-1.31,4.06-2.7,6-4.12a1.29,1.29,0,1,1,1.53,2.07c-2.08,1.51-4.22,3-6.4,4.36.07.12.13.24.19.36a1.29,1.29,0,0,1-.56,1.73A1.34,1.34,0,0,1,554.39,233.36Zm-159.72,1.19a1.24,1.24,0,0,1-.67-.17c-2.85-1.67-5.61-3.47-8.2-5.36a1.27,1.27,0,0,1-.27-1.79,1.29,1.29,0,0,1,1.8-.28,91.29,91.29,0,0,0,8,5.21,1.28,1.28,0,0,1-.64,2.39Zm-15.56-11.4a1.31,1.31,0,0,1-.89-.34,82.43,82.43,0,0,1-6.82-7.05,1.29,1.29,0,0,1,2-1.67,78.85,78.85,0,0,0,6.61,6.83,1.28,1.28,0,0,1,.08,1.82A1.31,1.31,0,0,1,379.11,223.15ZM568.55,221a1.27,1.27,0,0,1-1-.44,1.29,1.29,0,0,1,.13-1.81c2.4-2.07,4.75-4.27,7-6.53a1.29,1.29,0,0,1,1.83,0,1.27,1.27,0,0,1,0,1.81c-2.27,2.32-4.67,4.56-7.12,6.68A1.27,1.27,0,0,1,568.55,221Zm-21.84-5.32a1.29,1.29,0,0,1-1.24-.86c-1.1-3.11-2.06-6.25-2.86-9.31a1.28,1.28,0,0,1,.92-1.57,1.3,1.3,0,0,1,1.58.92c.78,3,1.72,6.06,2.8,9.11a1.29,1.29,0,0,1-.79,1.64A1.22,1.22,0,0,1,546.71,215.68Zm35.37-8.43a1.33,1.33,0,0,1-.84-.3,1.28,1.28,0,0,1-.17-1.81c2-2.43,4-5,5.82-7.57a1.29,1.29,0,0,1,2.11,1.48c-1.87,2.65-3.87,5.25-5.94,7.73A1.32,1.32,0,0,1,582.08,207.25ZM541.86,197a1.28,1.28,0,0,1-1.28-1.08,91.13,91.13,0,0,1-1.06-9.71,1.29,1.29,0,0,1,1.22-1.35,1.25,1.25,0,0,1,1.36,1.21,88.37,88.37,0,0,0,1,9.44,1.3,1.3,0,0,1-1.07,1.48Zm51.34-5.54a1.31,1.31,0,0,1-.66-.18,1.28,1.28,0,0,1-.46-1.76c1.61-2.71,3.13-5.54,4.54-8.4a1.29,1.29,0,0,1,1.73-.58,1.28,1.28,0,0,1,.59,1.71c-1.43,2.92-3,5.8-4.64,8.57A1.28,1.28,0,0,1,593.2,191.5Zm-52.33-13.67h-.09a1.29,1.29,0,0,1-1.21-1.36l0-.4a68.43,68.43,0,0,1,1.32-9.33,1.29,1.29,0,0,1,2.53.53,66.7,66.7,0,0,0-1.28,9l0,.38A1.29,1.29,0,0,1,540.87,177.83Zm60.85-3.62a1.19,1.19,0,0,1-.49-.1,1.28,1.28,0,0,1-.73-1.67c1.18-2.93,2.26-5.95,3.22-9a1.29,1.29,0,0,1,2.46.77c-1,3.09-2.08,6.18-3.28,9.17A1.31,1.31,0,0,1,601.72,174.21ZM544.83,159a1.41,1.41,0,0,1-.45-.07,1.29,1.29,0,0,1-.78-1.65,74.29,74.29,0,0,1,3.9-9,1.3,1.3,0,0,1,1.74-.56,1.28,1.28,0,0,1,.56,1.73,72.35,72.35,0,0,0-3.77,8.69A1.28,1.28,0,0,1,544.83,159Zm62.71-3.18a1.63,1.63,0,0,1-.31,0,1.28,1.28,0,0,1-1-1.55l.36-1.55a35.72,35.72,0,0,0,.89-7.69,1.3,1.3,0,0,1,1.28-1.28h0a1.29,1.29,0,0,1,1.29,1.29,38.23,38.23,0,0,1-1,8.24l-.37,1.58A1.28,1.28,0,0,1,607.54,155.84Zm-53.85-13.9a1.34,1.34,0,0,1-.76-.24,1.29,1.29,0,0,1-.3-1.8,59.26,59.26,0,0,1,6.38-7.51,1.29,1.29,0,0,1,1.83,1.82,55.77,55.77,0,0,0-6.11,7.19A1.3,1.3,0,0,1,553.69,141.94Zm53.82-5.14a1.3,1.3,0,0,1-1.25-.91A21.08,21.08,0,0,0,602,128a1.26,1.26,0,0,1,.11-1.81,1.29,1.29,0,0,1,1.82.11,23.43,23.43,0,0,1,4.85,8.88,1.27,1.27,0,0,1-.86,1.6A1.13,1.13,0,0,1,607.51,136.8Zm-40.09-8.31a1.31,1.31,0,0,1-1.1-.58,1.28,1.28,0,0,1,.37-1.78,43.52,43.52,0,0,1,8.86-4.51,1.29,1.29,0,1,1,.9,2.41,41.21,41.21,0,0,0-8.34,4.24A1.18,1.18,0,0,1,567.42,128.49ZM595,123.11a1.31,1.31,0,0,1-.44-.07,22.63,22.63,0,0,0-9-1.11,1.3,1.3,0,0,1-1.38-1.19,1.28,1.28,0,0,1,1.19-1.37,25.29,25.29,0,0,1,10.07,1.24,1.29,1.29,0,0,1-.41,2.5Z" transform="translate(-172.89 -61.64)"/><path class="cls-2" d="M371.09,178.24H333.3a6.51,6.51,0,0,1-6.5-6.51V133.52a6.5,6.5,0,0,1,6.5-6.5h75.58a6.51,6.51,0,0,1,6.51,6.5v44.72h0a12.59,12.59,0,0,1-2.07.57c-3.23.6-5.13-.45-9.07-.66h0a6.46,6.46,0,0,0-5.65,2.81l-27.84,40.43" transform="translate(-172.89 -61.64)"/><text class="cls-3" transform="translate(172.04 99.08)">WHO?</text><polygon class="cls-4" points="329.8 293.01 283.81 331.83 233.6 295.92 245.57 263.17 248.05 250.66 252.92 225.91 303.3 224.53 305.47 233.35 311.34 257.14 329.8 293.01"/><path class="cls-5" d="M478.36,295c-5.1,9-19.11,21.17-57.42,17.31l4.87-24.75,50.37-1.38Z" transform="translate(-172.89 -61.64)"/><path class="cls-4" d="M498.26,222.7c0,43.44-20.95,78.65-46.79,78.65s-46.79-35.21-46.79-78.65,20.95-56.32,46.79-56.32S498.26,179.26,498.26,222.7Z" transform="translate(-172.89 -61.64)"/><path class="cls-5" d="M474.54,170.77s.17,25.09-22.48,27.31-43.26-11.44-48.48,18.2V189.71L428.68,175Z" transform="translate(-172.89 -61.64)"/><path class="cls-6" d="M503.14,185.52c4.24,14.83-7.05,81.06-13.4,94.48s-20.38,21.18-39.57,21.35c-24.48.22-32.77-11.87-37.71-18.93s-5.38-20.62-11.73-71.48,34-57.69,48.8-57.69,21.83-.23,24.65,9.66C495.32,161.74,498.9,170.68,503.14,185.52Zm-46.86,7.34c-13.51,6.29-37.45-6.41-46.6,3.89s-3.51,43.12-.52,56.9c1.19,5.45,16.7,1.16,26.25,6.19-13.13,12.39,0,23,14.44,23,13.71,0,26.72-4.38,18-21.14,6.72-7.28,21.14-.36,24.05-6.55,4.19-8.9,1.85-50.36,1.85-50.36C488,203,474.86,187,474.86,175A39.35,39.35,0,0,1,456.28,192.86Z" transform="translate(-172.89 -61.64)"/><path class="cls-6" d="M435.41,219.85c0,3.7-2.05,6.7-4.57,6.7s-4.58-3-4.58-6.7,2.05-6.71,4.58-6.71S435.41,216.15,435.41,219.85Z" transform="translate(-172.89 -61.64)"/><path class="cls-6" d="M474.54,219.85c0,3.7-2.05,6.7-4.58,6.7s-4.57-3-4.57-6.7,2.05-6.71,4.57-6.71S474.54,216.15,474.54,219.85Z" transform="translate(-172.89 -61.64)"/><path class="cls-7" d="M437.41,266.11h26.93s-2.91,11.66-12.37,11.66S438.54,271,437.41,266.11Z" transform="translate(-172.89 -61.64)"/><path class="cls-5" d="M450.87,226.55s-17.19,27.52,0,27.49Z" transform="translate(-172.89 -61.64)"/><path class="cls-8" d="M397.81,224.09a44.53,44.53,0,0,1-.73-8c0-27,23.85-44.38,53.28-44.38s53.28,17.35,53.28,44.38a45.45,45.45,0,0,1-.73,8H509c1.45-4.79,2.78-9.86,2.25-15.05-2.58-25.35-23.67-49.86-60.91-49.86-33.64,0-60.25,26.44-60.25,53.16,0,5.22.13,7,1.59,11.75Z" transform="translate(-172.89 -61.64)"/><path class="cls-8" d="M400.18,253.4l-5.47.57a11.25,11.25,0,0,1-12.56-9.57l-3-26.18a11,11,0,0,1,10-12l5.46-.58a6,6,0,0,1,6.72,5.12l4.22,36.2A5.88,5.88,0,0,1,400.18,253.4Z" transform="translate(-172.89 -61.64)"/><path class="cls-8" d="M501.57,253.4,507,254a11.25,11.25,0,0,0,12.56-9.57l3-26.18a11,11,0,0,0-10-12l-5.46-.58a6,6,0,0,0-6.72,5.12L496.2,247A5.88,5.88,0,0,0,501.57,253.4Z" transform="translate(-172.89 -61.64)"/><path class="cls-6" d="M464.34,156.94s-3.65,12-24.73,12S412,170.77,412,170.77,427.52,154.07,464.34,156.94Z" transform="translate(-172.89 -61.64)"/><path class="cls-9" d="M530.67,427.78c-1.44.47-2.73.91-3.85,1.32.66,6.16,1.41,20.57,2.18,34l.09,1.54c.21,3.73.44,7.36.67,10.68.41,6.09.82,11.19,1.24,14.07,1.25,7.09,2.25,14.44,3.06,21.31,2,17.38,2.74,31.83,2.74,31.83-3.35-.09-165.8,0-165.8,0l.83-28.06L372.4,496l.53-17.54,1.44-48.52a54.17,54.17,0,0,0-7.06-1.54c-11.84-2.05-32.75-4.28-40.75-5.1l-3.24-.33s18-75,29-86.91c20.09-12.64,41-17.58,68.49-23.75,0,0-1.71,10.39,3.4,19.35,12.34,21.52,53.14,17.7,58.59-6.51,1.3-5.8-.2-12.83-.2-12.83S539.09,324,550,337.08c8.56,14.46,24.3,78.42,24.3,78.42l-4.12,1.08C561.69,418.83,541.9,424.11,530.67,427.78Z" transform="translate(-172.89 -61.64)"/><polygon class="cls-10" points="342.49 321.7 353.92 367.46 356.2 403.01 342.49 365.77 342.49 321.7"/><polygon class="cls-10" points="209.1 393.29 202.98 419.46 199.51 434.33 200.04 416.79 201.48 368.26 209.1 318.24 209.1 393.29"/><path class="cls-4" d="M375.87,481.1l-2.94-2.67-15.24-13.77,9.62-36.29c-11.84-2.05-32.75-4.28-40.75-5.1l-9.09,46.42a14.29,14.29,0,0,0,6.45,14.87l47.91,29.92,16.24,10.14,12.69-21Z" transform="translate(-172.89 -61.64)"/><path class="cls-4" d="M581.46,468.94l-11.24-52.36c-8.53,2.25-28.32,7.53-39.55,11.2l10.49,36.87-11.4,10.68-31,29,13.07,20.8,22.21-14.44,41.22-26.77A14.33,14.33,0,0,0,581.46,468.94Z" transform="translate(-172.89 -61.64)"/><path class="cls-11" d="M523.33,230.26c-8.41,0-11.73,3.47-11.73,10.94,0,.69-1.31.69-1.31,0,0-7.47-2.66-10.94-11.73-10.94-.67,0-.67-1.31,0-1.31,9.35,0,11.73-4.33,11.73-10.93,0-.69,1.31-.69,1.31,0,0,7.86,3.18,10.93,11.73,10.93C524,229,524,230.26,523.33,230.26Z" transform="translate(-172.89 -61.64)"/><path class="cls-11" d="M586.31,173c-12.54,0-17.5,5.18-17.5,16.33,0,1-1.95,1-1.95,0,0-11.15-4-16.33-17.5-16.33-1,0-1-2,0-2,13.95,0,17.5-6.46,17.5-16.31,0-1,1.95-1,1.95,0,0,11.73,4.75,16.31,17.5,16.31C587.32,171.07,587.32,173,586.31,173Z" transform="translate(-172.89 -61.64)"/><path class="cls-11" d="M574.64,293.91c-9.6,0-13.39,4-13.39,12.49,0,.79-1.5.79-1.5,0,0-8.53-3-12.49-13.39-12.49-.77,0-.77-1.5,0-1.5,10.68,0,13.39-4.94,13.39-12.48,0-.78,1.5-.78,1.5,0,0,9,3.63,12.48,13.39,12.48C575.41,292.41,575.41,293.91,574.64,293.91Z" transform="translate(-172.89 -61.64)"/></svg>