<svg id="Layer_3" data-name="Layer 3" xmlns="http://www.w3.org/2000/svg" viewBox="0 0 305.12 423.24"><defs><style>.cls-1{fill:#8550fc;}.cls-2{isolation:isolate;font-size:20px;font-family:ArialMT, Arial;}.cls-2,.cls-6{fill:#fff;}.cls-3{fill:#f4d37e;}.cls-4{fill:#deb449;}.cls-5{fill:#232323;}.cls-7{fill:#808285;}.cls-8{fill:#380f8f;}.cls-9{fill:#1a0845;}</style></defs><path class="cls-1" d="M448.11,234.5a1.32,1.32,0,0,1-.39-.06c-2.25-.69-4.5-1.49-6.7-2.38a1.29,1.29,0,0,1,1-2.38c2.13.86,4.32,1.64,6.49,2.31a1.28,1.28,0,0,1-.37,2.51ZM432.77,228a1.15,1.15,0,0,1-.63-.15,94,94,0,0,1-8.37-5.11,1.28,1.28,0,0,1-.33-1.78h0a1.3,1.3,0,0,1,1.8-.34,92.76,92.76,0,0,0,8.13,5,1.28,1.28,0,0,1-.6,2.41Zm-16-10.85a1.21,1.21,0,0,1-.84-.29c-2.45-2-4.9-4.24-7.25-6.55a1.28,1.28,0,0,1,0-1.81h0a1.3,1.3,0,0,1,1.83,0c2.31,2.26,4.69,4.42,7.09,6.4a1.28,1.28,0,0,1-.81,2.27ZM403,203.69a1.35,1.35,0,0,1-1-.44c-2.1-2.39-4.17-4.93-6.17-7.55a1.29,1.29,0,0,1,2.06-1.55c2,2.57,4,5.07,6,7.41a1.27,1.27,0,0,1-.1,1.79l0,0a1.35,1.35,0,0,1-.79.32ZM296.38,190.36h0c-3.27,0-6.55-.12-9.74-.28a1.29,1.29,0,1,1-.06-2.58h.19c3.16.16,6.4.25,9.63.28a1.27,1.27,0,0,1,1.28,1.26v0a1.29,1.29,0,0,1-1.3,1.28Zm9.68-.13a1.29,1.29,0,0,1-.07-2.57h0c3.17-.11,6.41-.28,9.63-.51a1.28,1.28,0,1,1,.18,2.56h0c-3.25.23-6.52.41-9.72.52Zm85.22-1.87a1.3,1.3,0,0,1-1.09-.57c-1.78-2.66-3.51-5.43-5.16-8.24a1.29,1.29,0,0,1,2.22-1.3c1.63,2.77,3.34,5.5,5.09,8.11a1.28,1.28,0,0,1-.34,1.78,1.3,1.3,0,0,1-.72.22Zm-114.25,1h-.15c-3.27-.33-6.53-.74-9.68-1.22a1.29,1.29,0,0,1-1.07-1.47,1.26,1.26,0,0,1,1.44-1.07h0c3.1.47,6.31.88,9.54,1.2a1.28,1.28,0,1,1-.11,2.56Zm48.35-.52a1.29,1.29,0,0,1-.16-2.57c1.26-.13,2.51-.28,3.75-.44,1.93-.24,3.87-.53,5.77-.85a1.29,1.29,0,0,1,.57,2.52l-.14,0c-1.93.32-3.91.62-5.88.86q-1.87.24-3.78.45Zm19.07-3.27a1.28,1.28,0,0,1-.32-2.53c3.1-.76,6.2-1.64,9.21-2.63a1.29,1.29,0,0,1,.81,2.45c-3.08,1-6.24,1.9-9.4,2.68a1.51,1.51,0,0,1-.3,0Zm-86.56.84h-.28c-3.24-.7-6.42-1.49-9.48-2.35a1.29,1.29,0,0,1,.49-2.53.79.79,0,0,1,.22.06c3,.85,6.13,1.62,9.31,2.3a1.28,1.28,0,0,1-.26,2.54Zm-18.6-5.3a1.16,1.16,0,0,1-.45-.08c-3.11-1.13-6.15-2.39-9-3.73a1.28,1.28,0,0,1-.63-1.7h0a1.29,1.29,0,0,1,1.72-.63c2.83,1.31,5.8,2.54,8.84,3.65a1.28,1.28,0,0,1-.44,2.49Zm123.55-1.54a1.28,1.28,0,0,1-.51-2.47c2.95-1.22,5.87-2.56,8.69-4a1.3,1.3,0,0,1,1.74.56,1.28,1.28,0,0,1-.55,1.72h0c-2.88,1.46-5.87,2.84-8.88,4.08a1.11,1.11,0,0,1-.48.05Zm18.66-7.8a1.26,1.26,0,0,1-1.16-.7l-.14-.27a1.28,1.28,0,0,1-1.08-2.16q-1.5-3.21-3-6.35a1.29,1.29,0,0,1,2.37-1q1.29,3,2.77,6c2-1.31,4.06-2.7,6-4.12a1.29,1.29,0,0,1,1.67,2l-.14.1c-2.08,1.51-4.22,3-6.4,4.36.07.12.13.24.19.36a1.29,1.29,0,0,1-.56,1.73,1.52,1.52,0,0,1-.52,0ZM221.78,173a1.22,1.22,0,0,1-.67-.17c-2.85-1.67-5.61-3.47-8.2-5.36a1.27,1.27,0,0,1-.28-1.77v0a1.29,1.29,0,0,1,1.8-.28,89.86,89.86,0,0,0,8,5.21,1.28,1.28,0,0,1-.64,2.39Zm-15.56-11.4a1.32,1.32,0,0,1-.89-.34,82.53,82.53,0,0,1-6.82-7.05,1.3,1.3,0,0,1,2-1.67h0a77.49,77.49,0,0,0,6.61,6.83,1.28,1.28,0,0,1,.09,1.81h0a1.32,1.32,0,0,1-1,.36Zm189.44-2.2a1.28,1.28,0,0,1-1-.44,1.29,1.29,0,0,1,.13-1.81c2.4-2.07,4.75-4.27,7-6.53a1.28,1.28,0,0,1,1.82,0h0a1.27,1.27,0,0,1,0,1.8h0c-2.27,2.32-4.67,4.56-7.12,6.68A1.28,1.28,0,0,1,395.66,159.36ZM373.82,154a1.3,1.3,0,0,1-1.24-.86c-1.1-3.11-2.06-6.25-2.86-9.31a1.29,1.29,0,0,1,.91-1.57h0a1.3,1.3,0,0,1,1.58.92c.78,3,1.72,6.06,2.8,9.11a1.29,1.29,0,0,1-.79,1.64,1.14,1.14,0,0,1-.41.07Zm35.37-8.43a1.35,1.35,0,0,1-.84-.3,1.27,1.27,0,0,1-.18-1.8h0c2-2.43,4-5,5.82-7.57a1.29,1.29,0,0,1,2.11,1.48c-1.87,2.65-3.87,5.25-5.94,7.73a1.32,1.32,0,0,1-1,.47ZM369,135.36a1.27,1.27,0,0,1-1.28-1.08,90.62,90.62,0,0,1-1.06-9.71,1.29,1.29,0,0,1,1.22-1.35,1.26,1.26,0,0,1,1.36,1.13v.08a88.08,88.08,0,0,0,1,9.44,1.3,1.3,0,0,1-1.07,1.48Zm51.34-5.54a1.3,1.3,0,0,1-1.13-1.93h0c1.61-2.71,3.13-5.54,4.54-8.4a1.29,1.29,0,0,1,1.73-.58h0a1.28,1.28,0,0,1,.59,1.71c-1.43,2.92-3,5.8-4.64,8.57a1.28,1.28,0,0,1-1.1.68ZM368,116.15h-.09a1.29,1.29,0,0,1-1.21-1.36v-.4a69.84,69.84,0,0,1,1.32-9.33,1.29,1.29,0,1,1,2.53.53h0a66.56,66.56,0,0,0-1.28,9V115a1.29,1.29,0,0,1-1.27,1.22Zm60.85-3.62a1.16,1.16,0,0,1-.49-.1,1.28,1.28,0,0,1-.74-1.65v0c1.18-2.93,2.26-6,3.22-9a1.29,1.29,0,0,1,2.46.77c-1,3.09-2.08,6.18-3.28,9.17a1.32,1.32,0,0,1-1.18.87ZM371.94,97.36a1.41,1.41,0,0,1-.45-.07,1.29,1.29,0,0,1-.78-1.65h0a73.87,73.87,0,0,1,3.9-9,1.29,1.29,0,0,1,2.31,1.16h0a71.93,71.93,0,0,0-3.77,8.69A1.28,1.28,0,0,1,371.94,97.36Zm62.71-3.18h-.31a1.28,1.28,0,0,1-1-1.5v-.05l.36-1.55a36.14,36.14,0,0,0,.89-7.69,1.3,1.3,0,0,1,1.28-1.28h0a1.29,1.29,0,0,1,1.29,1.29,38.13,38.13,0,0,1-1,8.24l-.37,1.58a1.29,1.29,0,0,1-1.14,1ZM380.8,80.28a1.29,1.29,0,0,1-1.06-2h0a58.62,58.62,0,0,1,6.38-7.51A1.29,1.29,0,0,1,388,72.55a55.82,55.82,0,0,0-6.11,7.19,1.31,1.31,0,0,1-1,.56Zm53.82-5.14a1.3,1.3,0,0,1-1.25-.91,21,21,0,0,0-4.26-7.87,1.25,1.25,0,0,1,.08-1.78l0,0a1.29,1.29,0,0,1,1.82.11,23.45,23.45,0,0,1,4.85,8.88,1.27,1.27,0,0,1-.83,1.59h0a1.12,1.12,0,0,1-.41,0Zm-40.09-8.31a1.32,1.32,0,0,1-1.1-.58,1.27,1.27,0,0,1,.36-1.77h0A43.22,43.22,0,0,1,402.66,60a1.29,1.29,0,0,1,1.08,2.34l-.18.07a40.91,40.91,0,0,0-8.34,4.24,1.15,1.15,0,0,1-.69.24Zm27.58-5.36a1.31,1.31,0,0,1-.44-.07,22.71,22.71,0,0,0-9-1.11,1.29,1.29,0,0,1-1.38-1.19,1.28,1.28,0,0,1,1.18-1.37h0A25.29,25.29,0,0,1,422.55,59a1.29,1.29,0,0,1-.41,2.5Z" transform="translate(-144.31 -57.65)"/><path class="cls-1" d="M198.2,116.6H160.41a6.51,6.51,0,0,1-6.5-6.51V71.88a6.5,6.5,0,0,1,6.5-6.5H236a6.51,6.51,0,0,1,6.51,6.5V116.6h0a12.45,12.45,0,0,1-2.07.57c-3.23.6-5.13-.45-9.07-.66h0a6.46,6.46,0,0,0-5.65,2.81l-27.84,40.43" transform="translate(-144.31 -57.65)"/><text class="cls-2" transform="translate(27.73 41.43)">WHO?</text><polygon class="cls-3" points="185.49 235.36 139.5 274.18 89.29 238.27 101.26 205.52 103.74 193.01 108.61 168.26 158.99 166.88 161.16 175.7 167.03 199.49 185.49 235.36"/><path class="cls-4" d="M305.47,233.36c-5.1,9-19.11,21.17-57.42,17.31l4.87-24.75,50.37-1.38Z" transform="translate(-144.31 -57.65)"/><path class="cls-3" d="M325.37,161.06c0,43.44-20.95,78.65-46.79,78.65s-46.79-35.21-46.79-78.65,21-56.32,46.79-56.32S325.37,117.62,325.37,161.06Z" transform="translate(-144.31 -57.65)"/><path class="cls-4" d="M301.65,109.13s.17,25.09-22.48,27.31-43.26-11.44-48.48,18.2V128.07l25.1-14.71Z" transform="translate(-144.31 -57.65)"/><path class="cls-5" d="M330.25,123.88c4.24,14.83-7.05,81.06-13.4,94.48s-20.38,21.18-39.57,21.35c-24.48.22-32.77-11.87-37.71-18.93s-5.38-20.62-11.73-71.48,34-57.69,48.8-57.69,21.83-.23,24.65,9.66C322.43,100.1,326,109,330.25,123.88Zm-46.86,7.34c-13.51,6.29-37.45-6.41-46.6,3.89s-3.51,43.12-.52,56.9c1.19,5.45,16.7,1.16,26.25,6.19-13.13,12.39,0,23,14.44,23,13.71,0,26.72-4.38,18-21.14,6.72-7.28,21.14-.36,24.05-6.55,4.19-8.9,1.85-50.36,1.85-50.36-5.75-1.79-18.89-17.79-18.89-29.79a39.35,39.35,0,0,1-18.58,17.86Z" transform="translate(-144.31 -57.65)"/><path class="cls-5" d="M262.52,158.21c0,3.7-2,6.7-4.57,6.7s-4.58-3-4.58-6.7,2-6.71,4.58-6.71S262.52,154.51,262.52,158.21Z" transform="translate(-144.31 -57.65)"/><path class="cls-5" d="M301.65,158.21c0,3.7-2,6.7-4.58,6.7s-4.57-3-4.57-6.7,2.05-6.71,4.57-6.71S301.65,154.51,301.65,158.21Z" transform="translate(-144.31 -57.65)"/><path class="cls-6" d="M264.52,204.47h26.93s-2.91,11.66-12.37,11.66S265.65,209.36,264.52,204.47Z" transform="translate(-144.31 -57.65)"/><path class="cls-4" d="M278,164.91s-17.19,27.52,0,27.49Z" transform="translate(-144.31 -57.65)"/><path class="cls-7" d="M224.92,162.45a44.75,44.75,0,0,1-.73-8c0-27,23.85-44.38,53.28-44.38s53.28,17.35,53.28,44.38a45.69,45.69,0,0,1-.73,8h6.09c1.45-4.79,2.78-9.86,2.25-15-2.58-25.35-23.67-49.86-60.91-49.86-33.64,0-60.25,26.44-60.25,53.16,0,5.22.13,7,1.59,11.75Z" transform="translate(-144.31 -57.65)"/><path class="cls-7" d="M227.29,191.76l-5.47.57a11.24,11.24,0,0,1-12.56-9.57l-3-26.18a11,11,0,0,1,9.91-12h.09l5.46-.58a6,6,0,0,1,6.72,5.12l4.22,36.2a5.88,5.88,0,0,1-5.27,6.43Z" transform="translate(-144.31 -57.65)"/><path class="cls-7" d="M328.68,191.76l5.43.6a11.24,11.24,0,0,0,12.56-9.57l3-26.18a11,11,0,0,0-9.91-12h-.09l-5.46-.58a6,6,0,0,0-6.72,5.12l-4.18,36.21a5.89,5.89,0,0,0,5.32,6.4Z" transform="translate(-144.31 -57.65)"/><path class="cls-5" d="M291.45,95.3s-3.65,12-24.73,12-27.61,1.83-27.61,1.83S254.63,92.43,291.45,95.3Z" transform="translate(-144.31 -57.65)"/><path class="cls-8" d="M357.78,366.14c-1.44.47-2.73.91-3.85,1.32.66,6.16,1.41,20.57,2.18,34l.09,1.54c.21,3.73.44,7.36.67,10.68.41,6.09.82,11.19,1.24,14.07,1.25,7.09,2.25,14.44,3.06,21.31,2,17.38,2.74,31.83,2.74,31.83-3.35-.09-165.8,0-165.8,0l.83-28.06.57-18.47.53-17.54,1.44-48.52a55.2,55.2,0,0,0-7.06-1.54c-11.84-2.05-32.75-4.28-40.75-5.1l-3.24-.33s18-75,29-86.91c20.09-12.64,41-17.58,68.49-23.75,0,0-1.71,10.39,3.4,19.35,12.34,21.52,53.14,17.7,58.59-6.51,1.3-5.8-.2-12.83-.2-12.83s56.49,11.68,67.4,24.76c8.56,14.46,24.3,78.42,24.3,78.42l-4.12,1.08C388.8,357.19,369,362.47,357.78,366.14Z" transform="translate(-144.31 -57.65)"/><polygon class="cls-9" points="198.18 264.05 209.61 309.81 211.89 345.36 198.18 308.12 198.18 264.05"/><polygon class="cls-9" points="64.79 335.64 58.67 361.81 55.2 376.68 55.73 359.14 57.17 310.61 64.79 260.59 64.79 335.64"/><path class="cls-3" d="M203,419.46,200,416.79,184.8,403l9.62-36.29c-11.84-2.05-32.75-4.28-40.75-5.1l-9.09,46.42A14.29,14.29,0,0,0,151,422.92l47.91,29.92L215.18,463l12.69-21Z" transform="translate(-144.31 -57.65)"/><path class="cls-3" d="M408.57,407.3l-11.24-52.36c-8.53,2.25-28.32,7.53-39.55,11.2L368.27,403l-11.4,10.68-31,29,13.07,20.8,22.21-14.44,41.22-26.77A14.34,14.34,0,0,0,408.57,407.3Z" transform="translate(-144.31 -57.65)"/><path class="cls-1" d="M350.44,168.62c-8.41,0-11.73,3.47-11.73,10.94,0,.69-1.31.69-1.31,0,0-7.47-2.66-10.94-11.73-10.94-.67,0-.67-1.31,0-1.31,9.35,0,11.73-4.33,11.73-10.93,0-.69,1.31-.69,1.31,0,0,7.86,3.18,10.93,11.73,10.93C351.11,167.36,351.11,168.62,350.44,168.62Z" transform="translate(-144.31 -57.65)"/><path class="cls-1" d="M413.42,111.36c-12.54,0-17.5,5.18-17.5,16.33,0,1-1.95,1-1.95,0,0-11.15-4-16.33-17.5-16.33-1,0-1-2,0-2,13.95,0,17.5-6.46,17.5-16.31,0-1,1.95-1,1.95,0,0,11.73,4.75,16.31,17.5,16.31C414.43,109.43,414.43,111.36,413.42,111.36Z" transform="translate(-144.31 -57.65)"/><path class="cls-1" d="M401.75,232.27c-9.6,0-13.39,4-13.39,12.49,0,.79-1.5.79-1.5,0,0-8.53-3-12.49-13.39-12.49-.77,0-.77-1.5,0-1.5,10.68,0,13.39-4.94,13.39-12.48,0-.78,1.5-.78,1.5,0,0,9,3.63,12.48,13.39,12.48C402.52,230.77,402.52,232.27,401.75,232.27Z" transform="translate(-144.31 -57.65)"/></svg>